G04 #@! TF.GenerationSoftware,KiCad,Pcbnew,(5.1.6)-1*
G04 #@! TF.CreationDate,2020-07-22T14:48:11-04:00*
G04 #@! TF.ProjectId,Edgedancer81,45646765-6461-46e6-9365-7238312e6b69,rev?*
G04 #@! TF.SameCoordinates,Original*
G04 #@! TF.FileFunction,Soldermask,Bot*
G04 #@! TF.FilePolarity,Negative*
%FSLAX46Y46*%
G04 Gerber Fmt 4.6, Leading zero omitted, Abs format (unit mm)*
G04 Created by KiCad (PCBNEW (5.1.6)-1) date 2020-07-22 14:48:11*
%MOMM*%
%LPD*%
G01*
G04 APERTURE LIST*
%ADD10O,1.800000X2.800000*%
%ADD11R,0.600000X2.350000*%
%ADD12C,1.850000*%
%ADD13C,2.350000*%
%ADD14C,4.087800*%
%ADD15C,3.148000*%
%ADD16R,1.200000X1.900000*%
%ADD17R,1.500000X1.300000*%
%ADD18R,0.650000X1.600000*%
%ADD19R,1.600000X0.650000*%
%ADD20R,2.100000X2.100000*%
%ADD21C,2.100000*%
%ADD22R,3.300000X2.100000*%
%ADD23R,1.300000X1.000000*%
G04 APERTURE END LIST*
D10*
X317025000Y-76993750D03*
X324325000Y-76993750D03*
X324325000Y-81493750D03*
X317025000Y-81493750D03*
D11*
X319075000Y-81493750D03*
X319875000Y-81493750D03*
X320675000Y-81493750D03*
X321475000Y-81493750D03*
X322275000Y-81493750D03*
D12*
X307498750Y-188595000D03*
X297338750Y-188595000D03*
D13*
X299918750Y-184595000D03*
D14*
X302418750Y-188595000D03*
G36*
G01*
X297824041Y-186929560D02*
X297824041Y-186929561D01*
G75*
G02*
X297734189Y-185270291I784709J874561D01*
G01*
X299044191Y-183810291D01*
G75*
G02*
X300703461Y-183720439I874561J-784709D01*
G01*
X300703461Y-183720439D01*
G75*
G02*
X300793313Y-185379709I-784709J-874561D01*
G01*
X299483311Y-186839709D01*
G75*
G02*
X297824041Y-186929561I-874561J784709D01*
G01*
G37*
D13*
X304958750Y-183515000D03*
G36*
G01*
X304837907Y-185267216D02*
X304837907Y-185267216D01*
G75*
G02*
X303746534Y-184014157I80843J1172216D01*
G01*
X303786534Y-183434157D01*
G75*
G02*
X305039593Y-182342784I1172216J-80843D01*
G01*
X305039593Y-182342784D01*
G75*
G02*
X306130966Y-183595843I-80843J-1172216D01*
G01*
X306090966Y-184175843D01*
G75*
G02*
X304837907Y-185267216I-1172216J80843D01*
G01*
G37*
D12*
X262255000Y-131445000D03*
X252095000Y-131445000D03*
D13*
X254675000Y-127445000D03*
D14*
X257175000Y-131445000D03*
G36*
G01*
X252580291Y-129779560D02*
X252580291Y-129779561D01*
G75*
G02*
X252490439Y-128120291I784709J874561D01*
G01*
X253800441Y-126660291D01*
G75*
G02*
X255459711Y-126570439I874561J-784709D01*
G01*
X255459711Y-126570439D01*
G75*
G02*
X255549563Y-128229709I-784709J-874561D01*
G01*
X254239561Y-129689709D01*
G75*
G02*
X252580291Y-129779561I-874561J784709D01*
G01*
G37*
D13*
X259715000Y-126365000D03*
G36*
G01*
X259594157Y-128117216D02*
X259594157Y-128117216D01*
G75*
G02*
X258502784Y-126864157I80843J1172216D01*
G01*
X258542784Y-126284157D01*
G75*
G02*
X259795843Y-125192784I1172216J-80843D01*
G01*
X259795843Y-125192784D01*
G75*
G02*
X260887216Y-126445843I-80843J-1172216D01*
G01*
X260847216Y-127025843D01*
G75*
G02*
X259594157Y-128117216I-1172216J80843D01*
G01*
G37*
D12*
X181292500Y-169545000D03*
X171132500Y-169545000D03*
D13*
X173712500Y-165545000D03*
D14*
X176212500Y-169545000D03*
G36*
G01*
X171617791Y-167879560D02*
X171617791Y-167879561D01*
G75*
G02*
X171527939Y-166220291I784709J874561D01*
G01*
X172837941Y-164760291D01*
G75*
G02*
X174497211Y-164670439I874561J-784709D01*
G01*
X174497211Y-164670439D01*
G75*
G02*
X174587063Y-166329709I-784709J-874561D01*
G01*
X173277061Y-167789709D01*
G75*
G02*
X171617791Y-167879561I-874561J784709D01*
G01*
G37*
D13*
X178752500Y-164465000D03*
G36*
G01*
X178631657Y-166217216D02*
X178631657Y-166217216D01*
G75*
G02*
X177540284Y-164964157I80843J1172216D01*
G01*
X177580284Y-164384157D01*
G75*
G02*
X178833343Y-163292784I1172216J-80843D01*
G01*
X178833343Y-163292784D01*
G75*
G02*
X179924716Y-164545843I-80843J-1172216D01*
G01*
X179884716Y-165125843D01*
G75*
G02*
X178631657Y-166217216I-1172216J80843D01*
G01*
G37*
D12*
X133667500Y-150495000D03*
X123507500Y-150495000D03*
D13*
X126087500Y-146495000D03*
D14*
X128587500Y-150495000D03*
G36*
G01*
X123992791Y-148829560D02*
X123992791Y-148829561D01*
G75*
G02*
X123902939Y-147170291I784709J874561D01*
G01*
X125212941Y-145710291D01*
G75*
G02*
X126872211Y-145620439I874561J-784709D01*
G01*
X126872211Y-145620439D01*
G75*
G02*
X126962063Y-147279709I-784709J-874561D01*
G01*
X125652061Y-148739709D01*
G75*
G02*
X123992791Y-148829561I-874561J784709D01*
G01*
G37*
D13*
X131127500Y-145415000D03*
G36*
G01*
X131006657Y-147167216D02*
X131006657Y-147167216D01*
G75*
G02*
X129915284Y-145914157I80843J1172216D01*
G01*
X129955284Y-145334157D01*
G75*
G02*
X131208343Y-144242784I1172216J-80843D01*
G01*
X131208343Y-144242784D01*
G75*
G02*
X132299716Y-145495843I-80843J-1172216D01*
G01*
X132259716Y-146075843D01*
G75*
G02*
X131006657Y-147167216I-1172216J80843D01*
G01*
G37*
D12*
X271780000Y-84137500D03*
X261620000Y-84137500D03*
D13*
X264200000Y-80137500D03*
D14*
X266700000Y-84137500D03*
G36*
G01*
X262105291Y-82472060D02*
X262105291Y-82472061D01*
G75*
G02*
X262015439Y-80812791I784709J874561D01*
G01*
X263325441Y-79352791D01*
G75*
G02*
X264984711Y-79262939I874561J-784709D01*
G01*
X264984711Y-79262939D01*
G75*
G02*
X265074563Y-80922209I-784709J-874561D01*
G01*
X263764561Y-82382209D01*
G75*
G02*
X262105291Y-82472061I-874561J784709D01*
G01*
G37*
D13*
X269240000Y-79057500D03*
G36*
G01*
X269119157Y-80809716D02*
X269119157Y-80809716D01*
G75*
G02*
X268027784Y-79556657I80843J1172216D01*
G01*
X268067784Y-78976657D01*
G75*
G02*
X269320843Y-77885284I1172216J-80843D01*
G01*
X269320843Y-77885284D01*
G75*
G02*
X270412216Y-79138343I-80843J-1172216D01*
G01*
X270372216Y-79718343D01*
G75*
G02*
X269119157Y-80809716I-1172216J80843D01*
G01*
G37*
D12*
X163830000Y-84137500D03*
X153670000Y-84137500D03*
D13*
X156250000Y-80137500D03*
D14*
X158750000Y-84137500D03*
G36*
G01*
X154155291Y-82472060D02*
X154155291Y-82472061D01*
G75*
G02*
X154065439Y-80812791I784709J874561D01*
G01*
X155375441Y-79352791D01*
G75*
G02*
X157034711Y-79262939I874561J-784709D01*
G01*
X157034711Y-79262939D01*
G75*
G02*
X157124563Y-80922209I-784709J-874561D01*
G01*
X155814561Y-82382209D01*
G75*
G02*
X154155291Y-82472061I-874561J784709D01*
G01*
G37*
D13*
X161290000Y-79057500D03*
G36*
G01*
X161169157Y-80809716D02*
X161169157Y-80809716D01*
G75*
G02*
X160077784Y-79556657I80843J1172216D01*
G01*
X160117784Y-78976657D01*
G75*
G02*
X161370843Y-77885284I1172216J-80843D01*
G01*
X161370843Y-77885284D01*
G75*
G02*
X162462216Y-79138343I-80843J-1172216D01*
G01*
X162422216Y-79718343D01*
G75*
G02*
X161169157Y-80809716I-1172216J80843D01*
G01*
G37*
D12*
X124142500Y-169545000D03*
X113982500Y-169545000D03*
D13*
X116562500Y-165545000D03*
D14*
X119062500Y-169545000D03*
G36*
G01*
X114467791Y-167879560D02*
X114467791Y-167879561D01*
G75*
G02*
X114377939Y-166220291I784709J874561D01*
G01*
X115687941Y-164760291D01*
G75*
G02*
X117347211Y-164670439I874561J-784709D01*
G01*
X117347211Y-164670439D01*
G75*
G02*
X117437063Y-166329709I-784709J-874561D01*
G01*
X116127061Y-167789709D01*
G75*
G02*
X114467791Y-167879561I-874561J784709D01*
G01*
G37*
D13*
X121602500Y-164465000D03*
G36*
G01*
X121481657Y-166217216D02*
X121481657Y-166217216D01*
G75*
G02*
X120390284Y-164964157I80843J1172216D01*
G01*
X120430284Y-164384157D01*
G75*
G02*
X121683343Y-163292784I1172216J-80843D01*
G01*
X121683343Y-163292784D01*
G75*
G02*
X122774716Y-164545843I-80843J-1172216D01*
G01*
X122734716Y-165125843D01*
G75*
G02*
X121481657Y-166217216I-1172216J80843D01*
G01*
G37*
D12*
X45561250Y-188595000D03*
X35401250Y-188595000D03*
D13*
X37981250Y-184595000D03*
D14*
X40481250Y-188595000D03*
G36*
G01*
X35886541Y-186929560D02*
X35886541Y-186929561D01*
G75*
G02*
X35796689Y-185270291I784709J874561D01*
G01*
X37106691Y-183810291D01*
G75*
G02*
X38765961Y-183720439I874561J-784709D01*
G01*
X38765961Y-183720439D01*
G75*
G02*
X38855813Y-185379709I-784709J-874561D01*
G01*
X37545811Y-186839709D01*
G75*
G02*
X35886541Y-186929561I-874561J784709D01*
G01*
G37*
D13*
X43021250Y-183515000D03*
G36*
G01*
X42900407Y-185267216D02*
X42900407Y-185267216D01*
G75*
G02*
X41809034Y-184014157I80843J1172216D01*
G01*
X41849034Y-183434157D01*
G75*
G02*
X43102093Y-182342784I1172216J-80843D01*
G01*
X43102093Y-182342784D01*
G75*
G02*
X44193466Y-183595843I-80843J-1172216D01*
G01*
X44153466Y-184175843D01*
G75*
G02*
X42900407Y-185267216I-1172216J80843D01*
G01*
G37*
D12*
X69373750Y-188595000D03*
X59213750Y-188595000D03*
D13*
X61793750Y-184595000D03*
D14*
X64293750Y-188595000D03*
G36*
G01*
X59699041Y-186929560D02*
X59699041Y-186929561D01*
G75*
G02*
X59609189Y-185270291I784709J874561D01*
G01*
X60919191Y-183810291D01*
G75*
G02*
X62578461Y-183720439I874561J-784709D01*
G01*
X62578461Y-183720439D01*
G75*
G02*
X62668313Y-185379709I-784709J-874561D01*
G01*
X61358311Y-186839709D01*
G75*
G02*
X59699041Y-186929561I-874561J784709D01*
G01*
G37*
D13*
X66833750Y-183515000D03*
G36*
G01*
X66712907Y-185267216D02*
X66712907Y-185267216D01*
G75*
G02*
X65621534Y-184014157I80843J1172216D01*
G01*
X65661534Y-183434157D01*
G75*
G02*
X66914593Y-182342784I1172216J-80843D01*
G01*
X66914593Y-182342784D01*
G75*
G02*
X68005966Y-183595843I-80843J-1172216D01*
G01*
X67965966Y-184175843D01*
G75*
G02*
X66712907Y-185267216I-1172216J80843D01*
G01*
G37*
D12*
X93345000Y-188595000D03*
X83185000Y-188595000D03*
D13*
X85765000Y-184595000D03*
D14*
X88265000Y-188595000D03*
G36*
G01*
X83670291Y-186929560D02*
X83670291Y-186929561D01*
G75*
G02*
X83580439Y-185270291I784709J874561D01*
G01*
X84890441Y-183810291D01*
G75*
G02*
X86549711Y-183720439I874561J-784709D01*
G01*
X86549711Y-183720439D01*
G75*
G02*
X86639563Y-185379709I-784709J-874561D01*
G01*
X85329561Y-186839709D01*
G75*
G02*
X83670291Y-186929561I-874561J784709D01*
G01*
G37*
D13*
X90805000Y-183515000D03*
G36*
G01*
X90684157Y-185267216D02*
X90684157Y-185267216D01*
G75*
G02*
X89592784Y-184014157I80843J1172216D01*
G01*
X89632784Y-183434157D01*
G75*
G02*
X90885843Y-182342784I1172216J-80843D01*
G01*
X90885843Y-182342784D01*
G75*
G02*
X91977216Y-183595843I-80843J-1172216D01*
G01*
X91937216Y-184175843D01*
G75*
G02*
X90684157Y-185267216I-1172216J80843D01*
G01*
G37*
D14*
X209543650Y-196850000D03*
X109543850Y-196850000D03*
D15*
X209543650Y-181610000D03*
X109543850Y-181610000D03*
D12*
X164623750Y-188595000D03*
X154463750Y-188595000D03*
D13*
X157043750Y-184595000D03*
D14*
X159543750Y-188595000D03*
G36*
G01*
X154949041Y-186929560D02*
X154949041Y-186929561D01*
G75*
G02*
X154859189Y-185270291I784709J874561D01*
G01*
X156169191Y-183810291D01*
G75*
G02*
X157828461Y-183720439I874561J-784709D01*
G01*
X157828461Y-183720439D01*
G75*
G02*
X157918313Y-185379709I-784709J-874561D01*
G01*
X156608311Y-186839709D01*
G75*
G02*
X154949041Y-186929561I-874561J784709D01*
G01*
G37*
D13*
X162083750Y-183515000D03*
G36*
G01*
X161962907Y-185267216D02*
X161962907Y-185267216D01*
G75*
G02*
X160871534Y-184014157I80843J1172216D01*
G01*
X160911534Y-183434157D01*
G75*
G02*
X162164593Y-182342784I1172216J-80843D01*
G01*
X162164593Y-182342784D01*
G75*
G02*
X163255966Y-183595843I-80843J-1172216D01*
G01*
X163215966Y-184175843D01*
G75*
G02*
X161962907Y-185267216I-1172216J80843D01*
G01*
G37*
D12*
X47942500Y-131445000D03*
X37782500Y-131445000D03*
D13*
X40362500Y-127445000D03*
D14*
X42862500Y-131445000D03*
G36*
G01*
X38267791Y-129779560D02*
X38267791Y-129779561D01*
G75*
G02*
X38177939Y-128120291I784709J874561D01*
G01*
X39487941Y-126660291D01*
G75*
G02*
X41147211Y-126570439I874561J-784709D01*
G01*
X41147211Y-126570439D01*
G75*
G02*
X41237063Y-128229709I-784709J-874561D01*
G01*
X39927061Y-129689709D01*
G75*
G02*
X38267791Y-129779561I-874561J784709D01*
G01*
G37*
D13*
X45402500Y-126365000D03*
G36*
G01*
X45281657Y-128117216D02*
X45281657Y-128117216D01*
G75*
G02*
X44190284Y-126864157I80843J1172216D01*
G01*
X44230284Y-126284157D01*
G75*
G02*
X45483343Y-125192784I1172216J-80843D01*
G01*
X45483343Y-125192784D01*
G75*
G02*
X46574716Y-126445843I-80843J-1172216D01*
G01*
X46534716Y-127025843D01*
G75*
G02*
X45281657Y-128117216I-1172216J80843D01*
G01*
G37*
D12*
X305117500Y-131445000D03*
X294957500Y-131445000D03*
D13*
X297537500Y-127445000D03*
D14*
X300037500Y-131445000D03*
G36*
G01*
X295442791Y-129779560D02*
X295442791Y-129779561D01*
G75*
G02*
X295352939Y-128120291I784709J874561D01*
G01*
X296662941Y-126660291D01*
G75*
G02*
X298322211Y-126570439I874561J-784709D01*
G01*
X298322211Y-126570439D01*
G75*
G02*
X298412063Y-128229709I-784709J-874561D01*
G01*
X297102061Y-129689709D01*
G75*
G02*
X295442791Y-129779561I-874561J784709D01*
G01*
G37*
D13*
X302577500Y-126365000D03*
G36*
G01*
X302456657Y-128117216D02*
X302456657Y-128117216D01*
G75*
G02*
X301365284Y-126864157I80843J1172216D01*
G01*
X301405284Y-126284157D01*
G75*
G02*
X302658343Y-125192784I1172216J-80843D01*
G01*
X302658343Y-125192784D01*
G75*
G02*
X303749716Y-126445843I-80843J-1172216D01*
G01*
X303709716Y-127025843D01*
G75*
G02*
X302456657Y-128117216I-1172216J80843D01*
G01*
G37*
D12*
X236061250Y-188595000D03*
X225901250Y-188595000D03*
D13*
X228481250Y-184595000D03*
D14*
X230981250Y-188595000D03*
G36*
G01*
X226386541Y-186929560D02*
X226386541Y-186929561D01*
G75*
G02*
X226296689Y-185270291I784709J874561D01*
G01*
X227606691Y-183810291D01*
G75*
G02*
X229265961Y-183720439I874561J-784709D01*
G01*
X229265961Y-183720439D01*
G75*
G02*
X229355813Y-185379709I-784709J-874561D01*
G01*
X228045811Y-186839709D01*
G75*
G02*
X226386541Y-186929561I-874561J784709D01*
G01*
G37*
D13*
X233521250Y-183515000D03*
G36*
G01*
X233400407Y-185267216D02*
X233400407Y-185267216D01*
G75*
G02*
X232309034Y-184014157I80843J1172216D01*
G01*
X232349034Y-183434157D01*
G75*
G02*
X233602093Y-182342784I1172216J-80843D01*
G01*
X233602093Y-182342784D01*
G75*
G02*
X234693466Y-183595843I-80843J-1172216D01*
G01*
X234653466Y-184175843D01*
G75*
G02*
X233400407Y-185267216I-1172216J80843D01*
G01*
G37*
D12*
X259873750Y-188595000D03*
X249713750Y-188595000D03*
D13*
X252293750Y-184595000D03*
D14*
X254793750Y-188595000D03*
G36*
G01*
X250199041Y-186929560D02*
X250199041Y-186929561D01*
G75*
G02*
X250109189Y-185270291I784709J874561D01*
G01*
X251419191Y-183810291D01*
G75*
G02*
X253078461Y-183720439I874561J-784709D01*
G01*
X253078461Y-183720439D01*
G75*
G02*
X253168313Y-185379709I-784709J-874561D01*
G01*
X251858311Y-186839709D01*
G75*
G02*
X250199041Y-186929561I-874561J784709D01*
G01*
G37*
D13*
X257333750Y-183515000D03*
G36*
G01*
X257212907Y-185267216D02*
X257212907Y-185267216D01*
G75*
G02*
X256121534Y-184014157I80843J1172216D01*
G01*
X256161534Y-183434157D01*
G75*
G02*
X257414593Y-182342784I1172216J-80843D01*
G01*
X257414593Y-182342784D01*
G75*
G02*
X258505966Y-183595843I-80843J-1172216D01*
G01*
X258465966Y-184175843D01*
G75*
G02*
X257212907Y-185267216I-1172216J80843D01*
G01*
G37*
D12*
X283686250Y-188595000D03*
X273526250Y-188595000D03*
D13*
X276106250Y-184595000D03*
D14*
X278606250Y-188595000D03*
G36*
G01*
X274011541Y-186929560D02*
X274011541Y-186929561D01*
G75*
G02*
X273921689Y-185270291I784709J874561D01*
G01*
X275231691Y-183810291D01*
G75*
G02*
X276890961Y-183720439I874561J-784709D01*
G01*
X276890961Y-183720439D01*
G75*
G02*
X276980813Y-185379709I-784709J-874561D01*
G01*
X275670811Y-186839709D01*
G75*
G02*
X274011541Y-186929561I-874561J784709D01*
G01*
G37*
D13*
X281146250Y-183515000D03*
G36*
G01*
X281025407Y-185267216D02*
X281025407Y-185267216D01*
G75*
G02*
X279934034Y-184014157I80843J1172216D01*
G01*
X279974034Y-183434157D01*
G75*
G02*
X281227093Y-182342784I1172216J-80843D01*
G01*
X281227093Y-182342784D01*
G75*
G02*
X282318466Y-183595843I-80843J-1172216D01*
G01*
X282278466Y-184175843D01*
G75*
G02*
X281025407Y-185267216I-1172216J80843D01*
G01*
G37*
D14*
X307213000Y-120650000D03*
X283337000Y-120650000D03*
D15*
X307213000Y-105410000D03*
X283337000Y-105410000D03*
D12*
X300355000Y-112395000D03*
X290195000Y-112395000D03*
D13*
X292775000Y-108395000D03*
D14*
X295275000Y-112395000D03*
G36*
G01*
X290680291Y-110729560D02*
X290680291Y-110729561D01*
G75*
G02*
X290590439Y-109070291I784709J874561D01*
G01*
X291900441Y-107610291D01*
G75*
G02*
X293559711Y-107520439I874561J-784709D01*
G01*
X293559711Y-107520439D01*
G75*
G02*
X293649563Y-109179709I-784709J-874561D01*
G01*
X292339561Y-110639709D01*
G75*
G02*
X290680291Y-110729561I-874561J784709D01*
G01*
G37*
D13*
X297815000Y-107315000D03*
G36*
G01*
X297694157Y-109067216D02*
X297694157Y-109067216D01*
G75*
G02*
X296602784Y-107814157I80843J1172216D01*
G01*
X296642784Y-107234157D01*
G75*
G02*
X297895843Y-106142784I1172216J-80843D01*
G01*
X297895843Y-106142784D01*
G75*
G02*
X298987216Y-107395843I-80843J-1172216D01*
G01*
X298947216Y-107975843D01*
G75*
G02*
X297694157Y-109067216I-1172216J80843D01*
G01*
G37*
D14*
X304831750Y-158750000D03*
X280955750Y-158750000D03*
D15*
X304831750Y-143510000D03*
X280955750Y-143510000D03*
D12*
X297973750Y-150495000D03*
X287813750Y-150495000D03*
D13*
X290393750Y-146495000D03*
D14*
X292893750Y-150495000D03*
G36*
G01*
X288299041Y-148829560D02*
X288299041Y-148829561D01*
G75*
G02*
X288209189Y-147170291I784709J874561D01*
G01*
X289519191Y-145710291D01*
G75*
G02*
X291178461Y-145620439I874561J-784709D01*
G01*
X291178461Y-145620439D01*
G75*
G02*
X291268313Y-147279709I-784709J-874561D01*
G01*
X289958311Y-148739709D01*
G75*
G02*
X288299041Y-148829561I-874561J784709D01*
G01*
G37*
D13*
X295433750Y-145415000D03*
G36*
G01*
X295312907Y-147167216D02*
X295312907Y-147167216D01*
G75*
G02*
X294221534Y-145914157I80843J1172216D01*
G01*
X294261534Y-145334157D01*
G75*
G02*
X295514593Y-144242784I1172216J-80843D01*
G01*
X295514593Y-144242784D01*
G75*
G02*
X296605966Y-145495843I-80843J-1172216D01*
G01*
X296565966Y-146075843D01*
G75*
G02*
X295312907Y-147167216I-1172216J80843D01*
G01*
G37*
D14*
X300069250Y-177800000D03*
X276193250Y-177800000D03*
D15*
X300069250Y-162560000D03*
X276193250Y-162560000D03*
D12*
X293211250Y-169545000D03*
X283051250Y-169545000D03*
D13*
X285631250Y-165545000D03*
D14*
X288131250Y-169545000D03*
G36*
G01*
X283536541Y-167879560D02*
X283536541Y-167879561D01*
G75*
G02*
X283446689Y-166220291I784709J874561D01*
G01*
X284756691Y-164760291D01*
G75*
G02*
X286415961Y-164670439I874561J-784709D01*
G01*
X286415961Y-164670439D01*
G75*
G02*
X286505813Y-166329709I-784709J-874561D01*
G01*
X285195811Y-167789709D01*
G75*
G02*
X283536541Y-167879561I-874561J784709D01*
G01*
G37*
D13*
X290671250Y-164465000D03*
G36*
G01*
X290550407Y-166217216D02*
X290550407Y-166217216D01*
G75*
G02*
X289459034Y-164964157I80843J1172216D01*
G01*
X289499034Y-164384157D01*
G75*
G02*
X290752093Y-163292784I1172216J-80843D01*
G01*
X290752093Y-163292784D01*
G75*
G02*
X291843466Y-164545843I-80843J-1172216D01*
G01*
X291803466Y-165125843D01*
G75*
G02*
X290550407Y-166217216I-1172216J80843D01*
G01*
G37*
D14*
X61944250Y-177800000D03*
X38068250Y-177800000D03*
D15*
X61944250Y-162560000D03*
X38068250Y-162560000D03*
D12*
X55086250Y-169545000D03*
X44926250Y-169545000D03*
D13*
X47506250Y-165545000D03*
D14*
X50006250Y-169545000D03*
G36*
G01*
X45411541Y-167879560D02*
X45411541Y-167879561D01*
G75*
G02*
X45321689Y-166220291I784709J874561D01*
G01*
X46631691Y-164760291D01*
G75*
G02*
X48290961Y-164670439I874561J-784709D01*
G01*
X48290961Y-164670439D01*
G75*
G02*
X48380813Y-166329709I-784709J-874561D01*
G01*
X47070811Y-167789709D01*
G75*
G02*
X45411541Y-167879561I-874561J784709D01*
G01*
G37*
D13*
X52546250Y-164465000D03*
G36*
G01*
X52425407Y-166217216D02*
X52425407Y-166217216D01*
G75*
G02*
X51334034Y-164964157I80843J1172216D01*
G01*
X51374034Y-164384157D01*
G75*
G02*
X52627093Y-163292784I1172216J-80843D01*
G01*
X52627093Y-163292784D01*
G75*
G02*
X53718466Y-164545843I-80843J-1172216D01*
G01*
X53678466Y-165125843D01*
G75*
G02*
X52425407Y-166217216I-1172216J80843D01*
G01*
G37*
D12*
X50323750Y-150495000D03*
X40163750Y-150495000D03*
D13*
X42743750Y-146495000D03*
D14*
X45243750Y-150495000D03*
G36*
G01*
X40649041Y-148829560D02*
X40649041Y-148829561D01*
G75*
G02*
X40559189Y-147170291I784709J874561D01*
G01*
X41869191Y-145710291D01*
G75*
G02*
X43528461Y-145620439I874561J-784709D01*
G01*
X43528461Y-145620439D01*
G75*
G02*
X43618313Y-147279709I-784709J-874561D01*
G01*
X42308311Y-148739709D01*
G75*
G02*
X40649041Y-148829561I-874561J784709D01*
G01*
G37*
D13*
X47783750Y-145415000D03*
G36*
G01*
X47662907Y-147167216D02*
X47662907Y-147167216D01*
G75*
G02*
X46571534Y-145914157I80843J1172216D01*
G01*
X46611534Y-145334157D01*
G75*
G02*
X47864593Y-144242784I1172216J-80843D01*
G01*
X47864593Y-144242784D01*
G75*
G02*
X48955966Y-145495843I-80843J-1172216D01*
G01*
X48915966Y-146075843D01*
G75*
G02*
X47662907Y-147167216I-1172216J80843D01*
G01*
G37*
D12*
X201930000Y-84137500D03*
X191770000Y-84137500D03*
D13*
X194350000Y-80137500D03*
D14*
X196850000Y-84137500D03*
G36*
G01*
X192255291Y-82472060D02*
X192255291Y-82472061D01*
G75*
G02*
X192165439Y-80812791I784709J874561D01*
G01*
X193475441Y-79352791D01*
G75*
G02*
X195134711Y-79262939I874561J-784709D01*
G01*
X195134711Y-79262939D01*
G75*
G02*
X195224563Y-80922209I-784709J-874561D01*
G01*
X193914561Y-82382209D01*
G75*
G02*
X192255291Y-82472061I-874561J784709D01*
G01*
G37*
D13*
X199390000Y-79057500D03*
G36*
G01*
X199269157Y-80809716D02*
X199269157Y-80809716D01*
G75*
G02*
X198177784Y-79556657I80843J1172216D01*
G01*
X198217784Y-78976657D01*
G75*
G02*
X199470843Y-77885284I1172216J-80843D01*
G01*
X199470843Y-77885284D01*
G75*
G02*
X200562216Y-79138343I-80843J-1172216D01*
G01*
X200522216Y-79718343D01*
G75*
G02*
X199269157Y-80809716I-1172216J80843D01*
G01*
G37*
D16*
X333112500Y-122162500D03*
X336812500Y-115962500D03*
X336812500Y-122162500D03*
X333112500Y-115962500D03*
D17*
X333840000Y-128690000D03*
X331640000Y-128690000D03*
X331640000Y-130390000D03*
X333840000Y-130390000D03*
D18*
X328740000Y-151115000D03*
X329540000Y-151115000D03*
X330340000Y-151115000D03*
X331140000Y-151115000D03*
X331940000Y-151115000D03*
X332740000Y-151115000D03*
X333540000Y-151115000D03*
X334340000Y-151115000D03*
X335140000Y-151115000D03*
X335940000Y-151115000D03*
X336740000Y-151115000D03*
D19*
X338440000Y-149415000D03*
X338440000Y-148615000D03*
X338440000Y-147815000D03*
X338440000Y-147015000D03*
X338440000Y-146215000D03*
X338440000Y-145415000D03*
X338440000Y-144615000D03*
X338440000Y-143815000D03*
X338440000Y-143015000D03*
X338440000Y-142215000D03*
X338440000Y-141415000D03*
D18*
X336740000Y-139715000D03*
X335940000Y-139715000D03*
X335140000Y-139715000D03*
X334340000Y-139715000D03*
X333540000Y-139715000D03*
X332740000Y-139715000D03*
X331940000Y-139715000D03*
X331140000Y-139715000D03*
X330340000Y-139715000D03*
X329540000Y-139715000D03*
X328740000Y-139715000D03*
D19*
X327040000Y-141415000D03*
X327040000Y-142215000D03*
X327040000Y-143015000D03*
X327040000Y-143815000D03*
X327040000Y-144615000D03*
X327040000Y-145415000D03*
X327040000Y-146215000D03*
X327040000Y-147015000D03*
X327040000Y-147815000D03*
X327040000Y-148615000D03*
X327040000Y-149415000D03*
D20*
X348456250Y-123825000D03*
D21*
X348456250Y-126325000D03*
X348456250Y-128825000D03*
D22*
X355956250Y-120725000D03*
X355956250Y-131925000D03*
D21*
X362956250Y-123825000D03*
X362956250Y-128825000D03*
G36*
G01*
X342746250Y-150095000D02*
X341783750Y-150095000D01*
G75*
G02*
X341515000Y-149826250I0J268750D01*
G01*
X341515000Y-149288750D01*
G75*
G02*
X341783750Y-149020000I268750J0D01*
G01*
X342746250Y-149020000D01*
G75*
G02*
X343015000Y-149288750I0J-268750D01*
G01*
X343015000Y-149826250D01*
G75*
G02*
X342746250Y-150095000I-268750J0D01*
G01*
G37*
G36*
G01*
X342746250Y-151970000D02*
X341783750Y-151970000D01*
G75*
G02*
X341515000Y-151701250I0J268750D01*
G01*
X341515000Y-151163750D01*
G75*
G02*
X341783750Y-150895000I268750J0D01*
G01*
X342746250Y-150895000D01*
G75*
G02*
X343015000Y-151163750I0J-268750D01*
G01*
X343015000Y-151701250D01*
G75*
G02*
X342746250Y-151970000I-268750J0D01*
G01*
G37*
G36*
G01*
X325273750Y-135020000D02*
X326236250Y-135020000D01*
G75*
G02*
X326505000Y-135288750I0J-268750D01*
G01*
X326505000Y-135826250D01*
G75*
G02*
X326236250Y-136095000I-268750J0D01*
G01*
X325273750Y-136095000D01*
G75*
G02*
X325005000Y-135826250I0J268750D01*
G01*
X325005000Y-135288750D01*
G75*
G02*
X325273750Y-135020000I268750J0D01*
G01*
G37*
G36*
G01*
X325273750Y-133145000D02*
X326236250Y-133145000D01*
G75*
G02*
X326505000Y-133413750I0J-268750D01*
G01*
X326505000Y-133951250D01*
G75*
G02*
X326236250Y-134220000I-268750J0D01*
G01*
X325273750Y-134220000D01*
G75*
G02*
X325005000Y-133951250I0J268750D01*
G01*
X325005000Y-133413750D01*
G75*
G02*
X325273750Y-133145000I268750J0D01*
G01*
G37*
G36*
G01*
X323368750Y-120082500D02*
X324331250Y-120082500D01*
G75*
G02*
X324600000Y-120351250I0J-268750D01*
G01*
X324600000Y-120888750D01*
G75*
G02*
X324331250Y-121157500I-268750J0D01*
G01*
X323368750Y-121157500D01*
G75*
G02*
X323100000Y-120888750I0J268750D01*
G01*
X323100000Y-120351250D01*
G75*
G02*
X323368750Y-120082500I268750J0D01*
G01*
G37*
G36*
G01*
X323368750Y-118207500D02*
X324331250Y-118207500D01*
G75*
G02*
X324600000Y-118476250I0J-268750D01*
G01*
X324600000Y-119013750D01*
G75*
G02*
X324331250Y-119282500I-268750J0D01*
G01*
X323368750Y-119282500D01*
G75*
G02*
X323100000Y-119013750I0J268750D01*
G01*
X323100000Y-118476250D01*
G75*
G02*
X323368750Y-118207500I268750J0D01*
G01*
G37*
G36*
G01*
X320828750Y-120112500D02*
X321791250Y-120112500D01*
G75*
G02*
X322060000Y-120381250I0J-268750D01*
G01*
X322060000Y-120918750D01*
G75*
G02*
X321791250Y-121187500I-268750J0D01*
G01*
X320828750Y-121187500D01*
G75*
G02*
X320560000Y-120918750I0J268750D01*
G01*
X320560000Y-120381250D01*
G75*
G02*
X320828750Y-120112500I268750J0D01*
G01*
G37*
G36*
G01*
X320828750Y-118237500D02*
X321791250Y-118237500D01*
G75*
G02*
X322060000Y-118506250I0J-268750D01*
G01*
X322060000Y-119043750D01*
G75*
G02*
X321791250Y-119312500I-268750J0D01*
G01*
X320828750Y-119312500D01*
G75*
G02*
X320560000Y-119043750I0J268750D01*
G01*
X320560000Y-118506250D01*
G75*
G02*
X320828750Y-118237500I268750J0D01*
G01*
G37*
D12*
X43180000Y-112395000D03*
X33020000Y-112395000D03*
D13*
X35600000Y-108395000D03*
D14*
X38100000Y-112395000D03*
G36*
G01*
X33505291Y-110729560D02*
X33505291Y-110729561D01*
G75*
G02*
X33415439Y-109070291I784709J874561D01*
G01*
X34725441Y-107610291D01*
G75*
G02*
X36384711Y-107520439I874561J-784709D01*
G01*
X36384711Y-107520439D01*
G75*
G02*
X36474563Y-109179709I-784709J-874561D01*
G01*
X35164561Y-110639709D01*
G75*
G02*
X33505291Y-110729561I-874561J784709D01*
G01*
G37*
D13*
X40640000Y-107315000D03*
G36*
G01*
X40519157Y-109067216D02*
X40519157Y-109067216D01*
G75*
G02*
X39427784Y-107814157I80843J1172216D01*
G01*
X39467784Y-107234157D01*
G75*
G02*
X40720843Y-106142784I1172216J-80843D01*
G01*
X40720843Y-106142784D01*
G75*
G02*
X41812216Y-107395843I-80843J-1172216D01*
G01*
X41772216Y-107975843D01*
G75*
G02*
X40519157Y-109067216I-1172216J80843D01*
G01*
G37*
D12*
X86042500Y-169608500D03*
X75882500Y-169608500D03*
D13*
X78462500Y-165608500D03*
D14*
X80962500Y-169608500D03*
G36*
G01*
X76367791Y-167943060D02*
X76367791Y-167943061D01*
G75*
G02*
X76277939Y-166283791I784709J874561D01*
G01*
X77587941Y-164823791D01*
G75*
G02*
X79247211Y-164733939I874561J-784709D01*
G01*
X79247211Y-164733939D01*
G75*
G02*
X79337063Y-166393209I-784709J-874561D01*
G01*
X78027061Y-167853209D01*
G75*
G02*
X76367791Y-167943061I-874561J784709D01*
G01*
G37*
D13*
X83502500Y-164528500D03*
G36*
G01*
X83381657Y-166280716D02*
X83381657Y-166280716D01*
G75*
G02*
X82290284Y-165027657I80843J1172216D01*
G01*
X82330284Y-164447657D01*
G75*
G02*
X83583343Y-163356284I1172216J-80843D01*
G01*
X83583343Y-163356284D01*
G75*
G02*
X84674716Y-164609343I-80843J-1172216D01*
G01*
X84634716Y-165189343D01*
G75*
G02*
X83381657Y-166280716I-1172216J80843D01*
G01*
G37*
D12*
X167005000Y-131445000D03*
X156845000Y-131445000D03*
D13*
X159425000Y-127445000D03*
D14*
X161925000Y-131445000D03*
G36*
G01*
X157330291Y-129779560D02*
X157330291Y-129779561D01*
G75*
G02*
X157240439Y-128120291I784709J874561D01*
G01*
X158550441Y-126660291D01*
G75*
G02*
X160209711Y-126570439I874561J-784709D01*
G01*
X160209711Y-126570439D01*
G75*
G02*
X160299563Y-128229709I-784709J-874561D01*
G01*
X158989561Y-129689709D01*
G75*
G02*
X157330291Y-129779561I-874561J784709D01*
G01*
G37*
D13*
X164465000Y-126365000D03*
G36*
G01*
X164344157Y-128117216D02*
X164344157Y-128117216D01*
G75*
G02*
X163252784Y-126864157I80843J1172216D01*
G01*
X163292784Y-126284157D01*
G75*
G02*
X164545843Y-125192784I1172216J-80843D01*
G01*
X164545843Y-125192784D01*
G75*
G02*
X165637216Y-126445843I-80843J-1172216D01*
G01*
X165597216Y-127025843D01*
G75*
G02*
X164344157Y-128117216I-1172216J80843D01*
G01*
G37*
D12*
X105092500Y-169545000D03*
X94932500Y-169545000D03*
D13*
X97512500Y-165545000D03*
D14*
X100012500Y-169545000D03*
G36*
G01*
X95417791Y-167879560D02*
X95417791Y-167879561D01*
G75*
G02*
X95327939Y-166220291I784709J874561D01*
G01*
X96637941Y-164760291D01*
G75*
G02*
X98297211Y-164670439I874561J-784709D01*
G01*
X98297211Y-164670439D01*
G75*
G02*
X98387063Y-166329709I-784709J-874561D01*
G01*
X97077061Y-167789709D01*
G75*
G02*
X95417791Y-167879561I-874561J784709D01*
G01*
G37*
D13*
X102552500Y-164465000D03*
G36*
G01*
X102431657Y-166217216D02*
X102431657Y-166217216D01*
G75*
G02*
X101340284Y-164964157I80843J1172216D01*
G01*
X101380284Y-164384157D01*
G75*
G02*
X102633343Y-163292784I1172216J-80843D01*
G01*
X102633343Y-163292784D01*
G75*
G02*
X103724716Y-164545843I-80843J-1172216D01*
G01*
X103684716Y-165125843D01*
G75*
G02*
X102431657Y-166217216I-1172216J80843D01*
G01*
G37*
D12*
X90805000Y-131445000D03*
X80645000Y-131445000D03*
D13*
X83225000Y-127445000D03*
D14*
X85725000Y-131445000D03*
G36*
G01*
X81130291Y-129779560D02*
X81130291Y-129779561D01*
G75*
G02*
X81040439Y-128120291I784709J874561D01*
G01*
X82350441Y-126660291D01*
G75*
G02*
X84009711Y-126570439I874561J-784709D01*
G01*
X84009711Y-126570439D01*
G75*
G02*
X84099563Y-128229709I-784709J-874561D01*
G01*
X82789561Y-129689709D01*
G75*
G02*
X81130291Y-129779561I-874561J784709D01*
G01*
G37*
D13*
X88265000Y-126365000D03*
G36*
G01*
X88144157Y-128117216D02*
X88144157Y-128117216D01*
G75*
G02*
X87052784Y-126864157I80843J1172216D01*
G01*
X87092784Y-126284157D01*
G75*
G02*
X88345843Y-125192784I1172216J-80843D01*
G01*
X88345843Y-125192784D01*
G75*
G02*
X89437216Y-126445843I-80843J-1172216D01*
G01*
X89397216Y-127025843D01*
G75*
G02*
X88144157Y-128117216I-1172216J80843D01*
G01*
G37*
D12*
X143192500Y-169545000D03*
X133032500Y-169545000D03*
D13*
X135612500Y-165545000D03*
D14*
X138112500Y-169545000D03*
G36*
G01*
X133517791Y-167879560D02*
X133517791Y-167879561D01*
G75*
G02*
X133427939Y-166220291I784709J874561D01*
G01*
X134737941Y-164760291D01*
G75*
G02*
X136397211Y-164670439I874561J-784709D01*
G01*
X136397211Y-164670439D01*
G75*
G02*
X136487063Y-166329709I-784709J-874561D01*
G01*
X135177061Y-167789709D01*
G75*
G02*
X133517791Y-167879561I-874561J784709D01*
G01*
G37*
D13*
X140652500Y-164465000D03*
G36*
G01*
X140531657Y-166217216D02*
X140531657Y-166217216D01*
G75*
G02*
X139440284Y-164964157I80843J1172216D01*
G01*
X139480284Y-164384157D01*
G75*
G02*
X140733343Y-163292784I1172216J-80843D01*
G01*
X140733343Y-163292784D01*
G75*
G02*
X141824716Y-164545843I-80843J-1172216D01*
G01*
X141784716Y-165125843D01*
G75*
G02*
X140531657Y-166217216I-1172216J80843D01*
G01*
G37*
D12*
X360680000Y-169545000D03*
X350520000Y-169545000D03*
D13*
X353100000Y-165545000D03*
D14*
X355600000Y-169545000D03*
G36*
G01*
X351005291Y-167879560D02*
X351005291Y-167879561D01*
G75*
G02*
X350915439Y-166220291I784709J874561D01*
G01*
X352225441Y-164760291D01*
G75*
G02*
X353884711Y-164670439I874561J-784709D01*
G01*
X353884711Y-164670439D01*
G75*
G02*
X353974563Y-166329709I-784709J-874561D01*
G01*
X352664561Y-167789709D01*
G75*
G02*
X351005291Y-167879561I-874561J784709D01*
G01*
G37*
D13*
X358140000Y-164465000D03*
G36*
G01*
X358019157Y-166217216D02*
X358019157Y-166217216D01*
G75*
G02*
X356927784Y-164964157I80843J1172216D01*
G01*
X356967784Y-164384157D01*
G75*
G02*
X358220843Y-163292784I1172216J-80843D01*
G01*
X358220843Y-163292784D01*
G75*
G02*
X359312216Y-164545843I-80843J-1172216D01*
G01*
X359272216Y-165125843D01*
G75*
G02*
X358019157Y-166217216I-1172216J80843D01*
G01*
G37*
D12*
X186055000Y-131445000D03*
X175895000Y-131445000D03*
D13*
X178475000Y-127445000D03*
D14*
X180975000Y-131445000D03*
G36*
G01*
X176380291Y-129779560D02*
X176380291Y-129779561D01*
G75*
G02*
X176290439Y-128120291I784709J874561D01*
G01*
X177600441Y-126660291D01*
G75*
G02*
X179259711Y-126570439I874561J-784709D01*
G01*
X179259711Y-126570439D01*
G75*
G02*
X179349563Y-128229709I-784709J-874561D01*
G01*
X178039561Y-129689709D01*
G75*
G02*
X176380291Y-129779561I-874561J784709D01*
G01*
G37*
D13*
X183515000Y-126365000D03*
G36*
G01*
X183394157Y-128117216D02*
X183394157Y-128117216D01*
G75*
G02*
X182302784Y-126864157I80843J1172216D01*
G01*
X182342784Y-126284157D01*
G75*
G02*
X183595843Y-125192784I1172216J-80843D01*
G01*
X183595843Y-125192784D01*
G75*
G02*
X184687216Y-126445843I-80843J-1172216D01*
G01*
X184647216Y-127025843D01*
G75*
G02*
X183394157Y-128117216I-1172216J80843D01*
G01*
G37*
D12*
X147955000Y-131445000D03*
X137795000Y-131445000D03*
D13*
X140375000Y-127445000D03*
D14*
X142875000Y-131445000D03*
G36*
G01*
X138280291Y-129779560D02*
X138280291Y-129779561D01*
G75*
G02*
X138190439Y-128120291I784709J874561D01*
G01*
X139500441Y-126660291D01*
G75*
G02*
X141159711Y-126570439I874561J-784709D01*
G01*
X141159711Y-126570439D01*
G75*
G02*
X141249563Y-128229709I-784709J-874561D01*
G01*
X139939561Y-129689709D01*
G75*
G02*
X138280291Y-129779561I-874561J784709D01*
G01*
G37*
D13*
X145415000Y-126365000D03*
G36*
G01*
X145294157Y-128117216D02*
X145294157Y-128117216D01*
G75*
G02*
X144202784Y-126864157I80843J1172216D01*
G01*
X144242784Y-126284157D01*
G75*
G02*
X145495843Y-125192784I1172216J-80843D01*
G01*
X145495843Y-125192784D01*
G75*
G02*
X146587216Y-126445843I-80843J-1172216D01*
G01*
X146547216Y-127025843D01*
G75*
G02*
X145294157Y-128117216I-1172216J80843D01*
G01*
G37*
D12*
X95567500Y-150495000D03*
X85407500Y-150495000D03*
D13*
X87987500Y-146495000D03*
D14*
X90487500Y-150495000D03*
G36*
G01*
X85892791Y-148829560D02*
X85892791Y-148829561D01*
G75*
G02*
X85802939Y-147170291I784709J874561D01*
G01*
X87112941Y-145710291D01*
G75*
G02*
X88772211Y-145620439I874561J-784709D01*
G01*
X88772211Y-145620439D01*
G75*
G02*
X88862063Y-147279709I-784709J-874561D01*
G01*
X87552061Y-148739709D01*
G75*
G02*
X85892791Y-148829561I-874561J784709D01*
G01*
G37*
D13*
X93027500Y-145415000D03*
G36*
G01*
X92906657Y-147167216D02*
X92906657Y-147167216D01*
G75*
G02*
X91815284Y-145914157I80843J1172216D01*
G01*
X91855284Y-145334157D01*
G75*
G02*
X93108343Y-144242784I1172216J-80843D01*
G01*
X93108343Y-144242784D01*
G75*
G02*
X94199716Y-145495843I-80843J-1172216D01*
G01*
X94159716Y-146075843D01*
G75*
G02*
X92906657Y-147167216I-1172216J80843D01*
G01*
G37*
D12*
X379730000Y-188595000D03*
X369570000Y-188595000D03*
D13*
X372150000Y-184595000D03*
D14*
X374650000Y-188595000D03*
G36*
G01*
X370055291Y-186929560D02*
X370055291Y-186929561D01*
G75*
G02*
X369965439Y-185270291I784709J874561D01*
G01*
X371275441Y-183810291D01*
G75*
G02*
X372934711Y-183720439I874561J-784709D01*
G01*
X372934711Y-183720439D01*
G75*
G02*
X373024563Y-185379709I-784709J-874561D01*
G01*
X371714561Y-186839709D01*
G75*
G02*
X370055291Y-186929561I-874561J784709D01*
G01*
G37*
D13*
X377190000Y-183515000D03*
G36*
G01*
X377069157Y-185267216D02*
X377069157Y-185267216D01*
G75*
G02*
X375977784Y-184014157I80843J1172216D01*
G01*
X376017784Y-183434157D01*
G75*
G02*
X377270843Y-182342784I1172216J-80843D01*
G01*
X377270843Y-182342784D01*
G75*
G02*
X378362216Y-183595843I-80843J-1172216D01*
G01*
X378322216Y-184175843D01*
G75*
G02*
X377069157Y-185267216I-1172216J80843D01*
G01*
G37*
D12*
X128905000Y-131445000D03*
X118745000Y-131445000D03*
D13*
X121325000Y-127445000D03*
D14*
X123825000Y-131445000D03*
G36*
G01*
X119230291Y-129779560D02*
X119230291Y-129779561D01*
G75*
G02*
X119140439Y-128120291I784709J874561D01*
G01*
X120450441Y-126660291D01*
G75*
G02*
X122109711Y-126570439I874561J-784709D01*
G01*
X122109711Y-126570439D01*
G75*
G02*
X122199563Y-128229709I-784709J-874561D01*
G01*
X120889561Y-129689709D01*
G75*
G02*
X119230291Y-129779561I-874561J784709D01*
G01*
G37*
D13*
X126365000Y-126365000D03*
G36*
G01*
X126244157Y-128117216D02*
X126244157Y-128117216D01*
G75*
G02*
X125152784Y-126864157I80843J1172216D01*
G01*
X125192784Y-126284157D01*
G75*
G02*
X126445843Y-125192784I1172216J-80843D01*
G01*
X126445843Y-125192784D01*
G75*
G02*
X127537216Y-126445843I-80843J-1172216D01*
G01*
X127497216Y-127025843D01*
G75*
G02*
X126244157Y-128117216I-1172216J80843D01*
G01*
G37*
D12*
X71755000Y-131445000D03*
X61595000Y-131445000D03*
D13*
X64175000Y-127445000D03*
D14*
X66675000Y-131445000D03*
G36*
G01*
X62080291Y-129779560D02*
X62080291Y-129779561D01*
G75*
G02*
X61990439Y-128120291I784709J874561D01*
G01*
X63300441Y-126660291D01*
G75*
G02*
X64959711Y-126570439I874561J-784709D01*
G01*
X64959711Y-126570439D01*
G75*
G02*
X65049563Y-128229709I-784709J-874561D01*
G01*
X63739561Y-129689709D01*
G75*
G02*
X62080291Y-129779561I-874561J784709D01*
G01*
G37*
D13*
X69215000Y-126365000D03*
G36*
G01*
X69094157Y-128117216D02*
X69094157Y-128117216D01*
G75*
G02*
X68002784Y-126864157I80843J1172216D01*
G01*
X68042784Y-126284157D01*
G75*
G02*
X69295843Y-125192784I1172216J-80843D01*
G01*
X69295843Y-125192784D01*
G75*
G02*
X70387216Y-126445843I-80843J-1172216D01*
G01*
X70347216Y-127025843D01*
G75*
G02*
X69094157Y-128117216I-1172216J80843D01*
G01*
G37*
D12*
X341630000Y-84137500D03*
X331470000Y-84137500D03*
D13*
X334050000Y-80137500D03*
D14*
X336550000Y-84137500D03*
G36*
G01*
X331955291Y-82472060D02*
X331955291Y-82472061D01*
G75*
G02*
X331865439Y-80812791I784709J874561D01*
G01*
X333175441Y-79352791D01*
G75*
G02*
X334834711Y-79262939I874561J-784709D01*
G01*
X334834711Y-79262939D01*
G75*
G02*
X334924563Y-80922209I-784709J-874561D01*
G01*
X333614561Y-82382209D01*
G75*
G02*
X331955291Y-82472061I-874561J784709D01*
G01*
G37*
D13*
X339090000Y-79057500D03*
G36*
G01*
X338969157Y-80809716D02*
X338969157Y-80809716D01*
G75*
G02*
X337877784Y-79556657I80843J1172216D01*
G01*
X337917784Y-78976657D01*
G75*
G02*
X339170843Y-77885284I1172216J-80843D01*
G01*
X339170843Y-77885284D01*
G75*
G02*
X340262216Y-79138343I-80843J-1172216D01*
G01*
X340222216Y-79718343D01*
G75*
G02*
X338969157Y-80809716I-1172216J80843D01*
G01*
G37*
D12*
X360680000Y-84137500D03*
X350520000Y-84137500D03*
D13*
X353100000Y-80137500D03*
D14*
X355600000Y-84137500D03*
G36*
G01*
X351005291Y-82472060D02*
X351005291Y-82472061D01*
G75*
G02*
X350915439Y-80812791I784709J874561D01*
G01*
X352225441Y-79352791D01*
G75*
G02*
X353884711Y-79262939I874561J-784709D01*
G01*
X353884711Y-79262939D01*
G75*
G02*
X353974563Y-80922209I-784709J-874561D01*
G01*
X352664561Y-82382209D01*
G75*
G02*
X351005291Y-82472061I-874561J784709D01*
G01*
G37*
D13*
X358140000Y-79057500D03*
G36*
G01*
X358019157Y-80809716D02*
X358019157Y-80809716D01*
G75*
G02*
X356927784Y-79556657I80843J1172216D01*
G01*
X356967784Y-78976657D01*
G75*
G02*
X358220843Y-77885284I1172216J-80843D01*
G01*
X358220843Y-77885284D01*
G75*
G02*
X359312216Y-79138343I-80843J-1172216D01*
G01*
X359272216Y-79718343D01*
G75*
G02*
X358019157Y-80809716I-1172216J80843D01*
G01*
G37*
D12*
X243205000Y-131445000D03*
X233045000Y-131445000D03*
D13*
X235625000Y-127445000D03*
D14*
X238125000Y-131445000D03*
G36*
G01*
X233530291Y-129779560D02*
X233530291Y-129779561D01*
G75*
G02*
X233440439Y-128120291I784709J874561D01*
G01*
X234750441Y-126660291D01*
G75*
G02*
X236409711Y-126570439I874561J-784709D01*
G01*
X236409711Y-126570439D01*
G75*
G02*
X236499563Y-128229709I-784709J-874561D01*
G01*
X235189561Y-129689709D01*
G75*
G02*
X233530291Y-129779561I-874561J784709D01*
G01*
G37*
D13*
X240665000Y-126365000D03*
G36*
G01*
X240544157Y-128117216D02*
X240544157Y-128117216D01*
G75*
G02*
X239452784Y-126864157I80843J1172216D01*
G01*
X239492784Y-126284157D01*
G75*
G02*
X240745843Y-125192784I1172216J-80843D01*
G01*
X240745843Y-125192784D01*
G75*
G02*
X241837216Y-126445843I-80843J-1172216D01*
G01*
X241797216Y-127025843D01*
G75*
G02*
X240544157Y-128117216I-1172216J80843D01*
G01*
G37*
D12*
X224155000Y-131445000D03*
X213995000Y-131445000D03*
D13*
X216575000Y-127445000D03*
D14*
X219075000Y-131445000D03*
G36*
G01*
X214480291Y-129779560D02*
X214480291Y-129779561D01*
G75*
G02*
X214390439Y-128120291I784709J874561D01*
G01*
X215700441Y-126660291D01*
G75*
G02*
X217359711Y-126570439I874561J-784709D01*
G01*
X217359711Y-126570439D01*
G75*
G02*
X217449563Y-128229709I-784709J-874561D01*
G01*
X216139561Y-129689709D01*
G75*
G02*
X214480291Y-129779561I-874561J784709D01*
G01*
G37*
D13*
X221615000Y-126365000D03*
G36*
G01*
X221494157Y-128117216D02*
X221494157Y-128117216D01*
G75*
G02*
X220402784Y-126864157I80843J1172216D01*
G01*
X220442784Y-126284157D01*
G75*
G02*
X221695843Y-125192784I1172216J-80843D01*
G01*
X221695843Y-125192784D01*
G75*
G02*
X222787216Y-126445843I-80843J-1172216D01*
G01*
X222747216Y-127025843D01*
G75*
G02*
X221494157Y-128117216I-1172216J80843D01*
G01*
G37*
D12*
X379730000Y-84137500D03*
X369570000Y-84137500D03*
D13*
X372150000Y-80137500D03*
D14*
X374650000Y-84137500D03*
G36*
G01*
X370055291Y-82472060D02*
X370055291Y-82472061D01*
G75*
G02*
X369965439Y-80812791I784709J874561D01*
G01*
X371275441Y-79352791D01*
G75*
G02*
X372934711Y-79262939I874561J-784709D01*
G01*
X372934711Y-79262939D01*
G75*
G02*
X373024563Y-80922209I-784709J-874561D01*
G01*
X371714561Y-82382209D01*
G75*
G02*
X370055291Y-82472061I-874561J784709D01*
G01*
G37*
D13*
X377190000Y-79057500D03*
G36*
G01*
X377069157Y-80809716D02*
X377069157Y-80809716D01*
G75*
G02*
X375977784Y-79556657I80843J1172216D01*
G01*
X376017784Y-78976657D01*
G75*
G02*
X377270843Y-77885284I1172216J-80843D01*
G01*
X377270843Y-77885284D01*
G75*
G02*
X378362216Y-79138343I-80843J-1172216D01*
G01*
X378322216Y-79718343D01*
G75*
G02*
X377069157Y-80809716I-1172216J80843D01*
G01*
G37*
D12*
X200342500Y-169545000D03*
X190182500Y-169545000D03*
D13*
X192762500Y-165545000D03*
D14*
X195262500Y-169545000D03*
G36*
G01*
X190667791Y-167879560D02*
X190667791Y-167879561D01*
G75*
G02*
X190577939Y-166220291I784709J874561D01*
G01*
X191887941Y-164760291D01*
G75*
G02*
X193547211Y-164670439I874561J-784709D01*
G01*
X193547211Y-164670439D01*
G75*
G02*
X193637063Y-166329709I-784709J-874561D01*
G01*
X192327061Y-167789709D01*
G75*
G02*
X190667791Y-167879561I-874561J784709D01*
G01*
G37*
D13*
X197802500Y-164465000D03*
G36*
G01*
X197681657Y-166217216D02*
X197681657Y-166217216D01*
G75*
G02*
X196590284Y-164964157I80843J1172216D01*
G01*
X196630284Y-164384157D01*
G75*
G02*
X197883343Y-163292784I1172216J-80843D01*
G01*
X197883343Y-163292784D01*
G75*
G02*
X198974716Y-164545843I-80843J-1172216D01*
G01*
X198934716Y-165125843D01*
G75*
G02*
X197681657Y-166217216I-1172216J80843D01*
G01*
G37*
D12*
X341630000Y-188595000D03*
X331470000Y-188595000D03*
D13*
X334050000Y-184595000D03*
D14*
X336550000Y-188595000D03*
G36*
G01*
X331955291Y-186929560D02*
X331955291Y-186929561D01*
G75*
G02*
X331865439Y-185270291I784709J874561D01*
G01*
X333175441Y-183810291D01*
G75*
G02*
X334834711Y-183720439I874561J-784709D01*
G01*
X334834711Y-183720439D01*
G75*
G02*
X334924563Y-185379709I-784709J-874561D01*
G01*
X333614561Y-186839709D01*
G75*
G02*
X331955291Y-186929561I-874561J784709D01*
G01*
G37*
D13*
X339090000Y-183515000D03*
G36*
G01*
X338969157Y-185267216D02*
X338969157Y-185267216D01*
G75*
G02*
X337877784Y-184014157I80843J1172216D01*
G01*
X337917784Y-183434157D01*
G75*
G02*
X339170843Y-182342784I1172216J-80843D01*
G01*
X339170843Y-182342784D01*
G75*
G02*
X340262216Y-183595843I-80843J-1172216D01*
G01*
X340222216Y-184175843D01*
G75*
G02*
X338969157Y-185267216I-1172216J80843D01*
G01*
G37*
D12*
X228917500Y-150495000D03*
X218757500Y-150495000D03*
D13*
X221337500Y-146495000D03*
D14*
X223837500Y-150495000D03*
G36*
G01*
X219242791Y-148829560D02*
X219242791Y-148829561D01*
G75*
G02*
X219152939Y-147170291I784709J874561D01*
G01*
X220462941Y-145710291D01*
G75*
G02*
X222122211Y-145620439I874561J-784709D01*
G01*
X222122211Y-145620439D01*
G75*
G02*
X222212063Y-147279709I-784709J-874561D01*
G01*
X220902061Y-148739709D01*
G75*
G02*
X219242791Y-148829561I-874561J784709D01*
G01*
G37*
D13*
X226377500Y-145415000D03*
G36*
G01*
X226256657Y-147167216D02*
X226256657Y-147167216D01*
G75*
G02*
X225165284Y-145914157I80843J1172216D01*
G01*
X225205284Y-145334157D01*
G75*
G02*
X226458343Y-144242784I1172216J-80843D01*
G01*
X226458343Y-144242784D01*
G75*
G02*
X227549716Y-145495843I-80843J-1172216D01*
G01*
X227509716Y-146075843D01*
G75*
G02*
X226256657Y-147167216I-1172216J80843D01*
G01*
G37*
D12*
X209867500Y-150495000D03*
X199707500Y-150495000D03*
D13*
X202287500Y-146495000D03*
D14*
X204787500Y-150495000D03*
G36*
G01*
X200192791Y-148829560D02*
X200192791Y-148829561D01*
G75*
G02*
X200102939Y-147170291I784709J874561D01*
G01*
X201412941Y-145710291D01*
G75*
G02*
X203072211Y-145620439I874561J-784709D01*
G01*
X203072211Y-145620439D01*
G75*
G02*
X203162063Y-147279709I-784709J-874561D01*
G01*
X201852061Y-148739709D01*
G75*
G02*
X200192791Y-148829561I-874561J784709D01*
G01*
G37*
D13*
X207327500Y-145415000D03*
G36*
G01*
X207206657Y-147167216D02*
X207206657Y-147167216D01*
G75*
G02*
X206115284Y-145914157I80843J1172216D01*
G01*
X206155284Y-145334157D01*
G75*
G02*
X207408343Y-144242784I1172216J-80843D01*
G01*
X207408343Y-144242784D01*
G75*
G02*
X208499716Y-145495843I-80843J-1172216D01*
G01*
X208459716Y-146075843D01*
G75*
G02*
X207206657Y-147167216I-1172216J80843D01*
G01*
G37*
D12*
X190817500Y-150495000D03*
X180657500Y-150495000D03*
D13*
X183237500Y-146495000D03*
D14*
X185737500Y-150495000D03*
G36*
G01*
X181142791Y-148829560D02*
X181142791Y-148829561D01*
G75*
G02*
X181052939Y-147170291I784709J874561D01*
G01*
X182362941Y-145710291D01*
G75*
G02*
X184022211Y-145620439I874561J-784709D01*
G01*
X184022211Y-145620439D01*
G75*
G02*
X184112063Y-147279709I-784709J-874561D01*
G01*
X182802061Y-148739709D01*
G75*
G02*
X181142791Y-148829561I-874561J784709D01*
G01*
G37*
D13*
X188277500Y-145415000D03*
G36*
G01*
X188156657Y-147167216D02*
X188156657Y-147167216D01*
G75*
G02*
X187065284Y-145914157I80843J1172216D01*
G01*
X187105284Y-145334157D01*
G75*
G02*
X188358343Y-144242784I1172216J-80843D01*
G01*
X188358343Y-144242784D01*
G75*
G02*
X189449716Y-145495843I-80843J-1172216D01*
G01*
X189409716Y-146075843D01*
G75*
G02*
X188156657Y-147167216I-1172216J80843D01*
G01*
G37*
D12*
X205105000Y-131445000D03*
X194945000Y-131445000D03*
D13*
X197525000Y-127445000D03*
D14*
X200025000Y-131445000D03*
G36*
G01*
X195430291Y-129779560D02*
X195430291Y-129779561D01*
G75*
G02*
X195340439Y-128120291I784709J874561D01*
G01*
X196650441Y-126660291D01*
G75*
G02*
X198309711Y-126570439I874561J-784709D01*
G01*
X198309711Y-126570439D01*
G75*
G02*
X198399563Y-128229709I-784709J-874561D01*
G01*
X197089561Y-129689709D01*
G75*
G02*
X195430291Y-129779561I-874561J784709D01*
G01*
G37*
D13*
X202565000Y-126365000D03*
G36*
G01*
X202444157Y-128117216D02*
X202444157Y-128117216D01*
G75*
G02*
X201352784Y-126864157I80843J1172216D01*
G01*
X201392784Y-126284157D01*
G75*
G02*
X202645843Y-125192784I1172216J-80843D01*
G01*
X202645843Y-125192784D01*
G75*
G02*
X203737216Y-126445843I-80843J-1172216D01*
G01*
X203697216Y-127025843D01*
G75*
G02*
X202444157Y-128117216I-1172216J80843D01*
G01*
G37*
D12*
X171767500Y-150495000D03*
X161607500Y-150495000D03*
D13*
X164187500Y-146495000D03*
D14*
X166687500Y-150495000D03*
G36*
G01*
X162092791Y-148829560D02*
X162092791Y-148829561D01*
G75*
G02*
X162002939Y-147170291I784709J874561D01*
G01*
X163312941Y-145710291D01*
G75*
G02*
X164972211Y-145620439I874561J-784709D01*
G01*
X164972211Y-145620439D01*
G75*
G02*
X165062063Y-147279709I-784709J-874561D01*
G01*
X163752061Y-148739709D01*
G75*
G02*
X162092791Y-148829561I-874561J784709D01*
G01*
G37*
D13*
X169227500Y-145415000D03*
G36*
G01*
X169106657Y-147167216D02*
X169106657Y-147167216D01*
G75*
G02*
X168015284Y-145914157I80843J1172216D01*
G01*
X168055284Y-145334157D01*
G75*
G02*
X169308343Y-144242784I1172216J-80843D01*
G01*
X169308343Y-144242784D01*
G75*
G02*
X170399716Y-145495843I-80843J-1172216D01*
G01*
X170359716Y-146075843D01*
G75*
G02*
X169106657Y-147167216I-1172216J80843D01*
G01*
G37*
D12*
X152755600Y-150520400D03*
X142595600Y-150520400D03*
D13*
X145175600Y-146520400D03*
D14*
X147675600Y-150520400D03*
G36*
G01*
X143080891Y-148854960D02*
X143080891Y-148854961D01*
G75*
G02*
X142991039Y-147195691I784709J874561D01*
G01*
X144301041Y-145735691D01*
G75*
G02*
X145960311Y-145645839I874561J-784709D01*
G01*
X145960311Y-145645839D01*
G75*
G02*
X146050163Y-147305109I-784709J-874561D01*
G01*
X144740161Y-148765109D01*
G75*
G02*
X143080891Y-148854961I-874561J784709D01*
G01*
G37*
D13*
X150215600Y-145440400D03*
G36*
G01*
X150094757Y-147192616D02*
X150094757Y-147192616D01*
G75*
G02*
X149003384Y-145939557I80843J1172216D01*
G01*
X149043384Y-145359557D01*
G75*
G02*
X150296443Y-144268184I1172216J-80843D01*
G01*
X150296443Y-144268184D01*
G75*
G02*
X151387816Y-145521243I-80843J-1172216D01*
G01*
X151347816Y-146101243D01*
G75*
G02*
X150094757Y-147192616I-1172216J80843D01*
G01*
G37*
D12*
X309880000Y-84137500D03*
X299720000Y-84137500D03*
D13*
X302300000Y-80137500D03*
D14*
X304800000Y-84137500D03*
G36*
G01*
X300205291Y-82472060D02*
X300205291Y-82472061D01*
G75*
G02*
X300115439Y-80812791I784709J874561D01*
G01*
X301425441Y-79352791D01*
G75*
G02*
X303084711Y-79262939I874561J-784709D01*
G01*
X303084711Y-79262939D01*
G75*
G02*
X303174563Y-80922209I-784709J-874561D01*
G01*
X301864561Y-82382209D01*
G75*
G02*
X300205291Y-82472061I-874561J784709D01*
G01*
G37*
D13*
X307340000Y-79057500D03*
G36*
G01*
X307219157Y-80809716D02*
X307219157Y-80809716D01*
G75*
G02*
X306127784Y-79556657I80843J1172216D01*
G01*
X306167784Y-78976657D01*
G75*
G02*
X307420843Y-77885284I1172216J-80843D01*
G01*
X307420843Y-77885284D01*
G75*
G02*
X308512216Y-79138343I-80843J-1172216D01*
G01*
X308472216Y-79718343D01*
G75*
G02*
X307219157Y-80809716I-1172216J80843D01*
G01*
G37*
D12*
X290830000Y-84137500D03*
X280670000Y-84137500D03*
D13*
X283250000Y-80137500D03*
D14*
X285750000Y-84137500D03*
G36*
G01*
X281155291Y-82472060D02*
X281155291Y-82472061D01*
G75*
G02*
X281065439Y-80812791I784709J874561D01*
G01*
X282375441Y-79352791D01*
G75*
G02*
X284034711Y-79262939I874561J-784709D01*
G01*
X284034711Y-79262939D01*
G75*
G02*
X284124563Y-80922209I-784709J-874561D01*
G01*
X282814561Y-82382209D01*
G75*
G02*
X281155291Y-82472061I-874561J784709D01*
G01*
G37*
D13*
X288290000Y-79057500D03*
G36*
G01*
X288169157Y-80809716D02*
X288169157Y-80809716D01*
G75*
G02*
X287077784Y-79556657I80843J1172216D01*
G01*
X287117784Y-78976657D01*
G75*
G02*
X288370843Y-77885284I1172216J-80843D01*
G01*
X288370843Y-77885284D01*
G75*
G02*
X289462216Y-79138343I-80843J-1172216D01*
G01*
X289422216Y-79718343D01*
G75*
G02*
X288169157Y-80809716I-1172216J80843D01*
G01*
G37*
D12*
X252730000Y-84137500D03*
X242570000Y-84137500D03*
D13*
X245150000Y-80137500D03*
D14*
X247650000Y-84137500D03*
G36*
G01*
X243055291Y-82472060D02*
X243055291Y-82472061D01*
G75*
G02*
X242965439Y-80812791I784709J874561D01*
G01*
X244275441Y-79352791D01*
G75*
G02*
X245934711Y-79262939I874561J-784709D01*
G01*
X245934711Y-79262939D01*
G75*
G02*
X246024563Y-80922209I-784709J-874561D01*
G01*
X244714561Y-82382209D01*
G75*
G02*
X243055291Y-82472061I-874561J784709D01*
G01*
G37*
D13*
X250190000Y-79057500D03*
G36*
G01*
X250069157Y-80809716D02*
X250069157Y-80809716D01*
G75*
G02*
X248977784Y-79556657I80843J1172216D01*
G01*
X249017784Y-78976657D01*
G75*
G02*
X250270843Y-77885284I1172216J-80843D01*
G01*
X250270843Y-77885284D01*
G75*
G02*
X251362216Y-79138343I-80843J-1172216D01*
G01*
X251322216Y-79718343D01*
G75*
G02*
X250069157Y-80809716I-1172216J80843D01*
G01*
G37*
D12*
X220980000Y-84137500D03*
X210820000Y-84137500D03*
D13*
X213400000Y-80137500D03*
D14*
X215900000Y-84137500D03*
G36*
G01*
X211305291Y-82472060D02*
X211305291Y-82472061D01*
G75*
G02*
X211215439Y-80812791I784709J874561D01*
G01*
X212525441Y-79352791D01*
G75*
G02*
X214184711Y-79262939I874561J-784709D01*
G01*
X214184711Y-79262939D01*
G75*
G02*
X214274563Y-80922209I-784709J-874561D01*
G01*
X212964561Y-82382209D01*
G75*
G02*
X211305291Y-82472061I-874561J784709D01*
G01*
G37*
D13*
X218440000Y-79057500D03*
G36*
G01*
X218319157Y-80809716D02*
X218319157Y-80809716D01*
G75*
G02*
X217227784Y-79556657I80843J1172216D01*
G01*
X217267784Y-78976657D01*
G75*
G02*
X218520843Y-77885284I1172216J-80843D01*
G01*
X218520843Y-77885284D01*
G75*
G02*
X219612216Y-79138343I-80843J-1172216D01*
G01*
X219572216Y-79718343D01*
G75*
G02*
X218319157Y-80809716I-1172216J80843D01*
G01*
G37*
D12*
X182880000Y-84137500D03*
X172720000Y-84137500D03*
D13*
X175300000Y-80137500D03*
D14*
X177800000Y-84137500D03*
G36*
G01*
X173205291Y-82472060D02*
X173205291Y-82472061D01*
G75*
G02*
X173115439Y-80812791I784709J874561D01*
G01*
X174425441Y-79352791D01*
G75*
G02*
X176084711Y-79262939I874561J-784709D01*
G01*
X176084711Y-79262939D01*
G75*
G02*
X176174563Y-80922209I-784709J-874561D01*
G01*
X174864561Y-82382209D01*
G75*
G02*
X173205291Y-82472061I-874561J784709D01*
G01*
G37*
D13*
X180340000Y-79057500D03*
G36*
G01*
X180219157Y-80809716D02*
X180219157Y-80809716D01*
G75*
G02*
X179127784Y-79556657I80843J1172216D01*
G01*
X179167784Y-78976657D01*
G75*
G02*
X180420843Y-77885284I1172216J-80843D01*
G01*
X180420843Y-77885284D01*
G75*
G02*
X181512216Y-79138343I-80843J-1172216D01*
G01*
X181472216Y-79718343D01*
G75*
G02*
X180219157Y-80809716I-1172216J80843D01*
G01*
G37*
D12*
X132080000Y-84137500D03*
X121920000Y-84137500D03*
D13*
X124500000Y-80137500D03*
D14*
X127000000Y-84137500D03*
G36*
G01*
X122405291Y-82472060D02*
X122405291Y-82472061D01*
G75*
G02*
X122315439Y-80812791I784709J874561D01*
G01*
X123625441Y-79352791D01*
G75*
G02*
X125284711Y-79262939I874561J-784709D01*
G01*
X125284711Y-79262939D01*
G75*
G02*
X125374563Y-80922209I-784709J-874561D01*
G01*
X124064561Y-82382209D01*
G75*
G02*
X122405291Y-82472061I-874561J784709D01*
G01*
G37*
D13*
X129540000Y-79057500D03*
G36*
G01*
X129419157Y-80809716D02*
X129419157Y-80809716D01*
G75*
G02*
X128327784Y-79556657I80843J1172216D01*
G01*
X128367784Y-78976657D01*
G75*
G02*
X129620843Y-77885284I1172216J-80843D01*
G01*
X129620843Y-77885284D01*
G75*
G02*
X130712216Y-79138343I-80843J-1172216D01*
G01*
X130672216Y-79718343D01*
G75*
G02*
X129419157Y-80809716I-1172216J80843D01*
G01*
G37*
D12*
X113030000Y-84137500D03*
X102870000Y-84137500D03*
D13*
X105450000Y-80137500D03*
D14*
X107950000Y-84137500D03*
G36*
G01*
X103355291Y-82472060D02*
X103355291Y-82472061D01*
G75*
G02*
X103265439Y-80812791I784709J874561D01*
G01*
X104575441Y-79352791D01*
G75*
G02*
X106234711Y-79262939I874561J-784709D01*
G01*
X106234711Y-79262939D01*
G75*
G02*
X106324563Y-80922209I-784709J-874561D01*
G01*
X105014561Y-82382209D01*
G75*
G02*
X103355291Y-82472061I-874561J784709D01*
G01*
G37*
D13*
X110490000Y-79057500D03*
G36*
G01*
X110369157Y-80809716D02*
X110369157Y-80809716D01*
G75*
G02*
X109277784Y-79556657I80843J1172216D01*
G01*
X109317784Y-78976657D01*
G75*
G02*
X110570843Y-77885284I1172216J-80843D01*
G01*
X110570843Y-77885284D01*
G75*
G02*
X111662216Y-79138343I-80843J-1172216D01*
G01*
X111622216Y-79718343D01*
G75*
G02*
X110369157Y-80809716I-1172216J80843D01*
G01*
G37*
D12*
X93980000Y-84137500D03*
X83820000Y-84137500D03*
D13*
X86400000Y-80137500D03*
D14*
X88900000Y-84137500D03*
G36*
G01*
X84305291Y-82472060D02*
X84305291Y-82472061D01*
G75*
G02*
X84215439Y-80812791I784709J874561D01*
G01*
X85525441Y-79352791D01*
G75*
G02*
X87184711Y-79262939I874561J-784709D01*
G01*
X87184711Y-79262939D01*
G75*
G02*
X87274563Y-80922209I-784709J-874561D01*
G01*
X85964561Y-82382209D01*
G75*
G02*
X84305291Y-82472061I-874561J784709D01*
G01*
G37*
D13*
X91440000Y-79057500D03*
G36*
G01*
X91319157Y-80809716D02*
X91319157Y-80809716D01*
G75*
G02*
X90227784Y-79556657I80843J1172216D01*
G01*
X90267784Y-78976657D01*
G75*
G02*
X91520843Y-77885284I1172216J-80843D01*
G01*
X91520843Y-77885284D01*
G75*
G02*
X92612216Y-79138343I-80843J-1172216D01*
G01*
X92572216Y-79718343D01*
G75*
G02*
X91319157Y-80809716I-1172216J80843D01*
G01*
G37*
D12*
X74930000Y-84137500D03*
X64770000Y-84137500D03*
D13*
X67350000Y-80137500D03*
D14*
X69850000Y-84137500D03*
G36*
G01*
X65255291Y-82472060D02*
X65255291Y-82472061D01*
G75*
G02*
X65165439Y-80812791I784709J874561D01*
G01*
X66475441Y-79352791D01*
G75*
G02*
X68134711Y-79262939I874561J-784709D01*
G01*
X68134711Y-79262939D01*
G75*
G02*
X68224563Y-80922209I-784709J-874561D01*
G01*
X66914561Y-82382209D01*
G75*
G02*
X65255291Y-82472061I-874561J784709D01*
G01*
G37*
D13*
X72390000Y-79057500D03*
G36*
G01*
X72269157Y-80809716D02*
X72269157Y-80809716D01*
G75*
G02*
X71177784Y-79556657I80843J1172216D01*
G01*
X71217784Y-78976657D01*
G75*
G02*
X72470843Y-77885284I1172216J-80843D01*
G01*
X72470843Y-77885284D01*
G75*
G02*
X73562216Y-79138343I-80843J-1172216D01*
G01*
X73522216Y-79718343D01*
G75*
G02*
X72269157Y-80809716I-1172216J80843D01*
G01*
G37*
D12*
X43180000Y-84137500D03*
X33020000Y-84137500D03*
D13*
X35600000Y-80137500D03*
D14*
X38100000Y-84137500D03*
G36*
G01*
X33505291Y-82472060D02*
X33505291Y-82472061D01*
G75*
G02*
X33415439Y-80812791I784709J874561D01*
G01*
X34725441Y-79352791D01*
G75*
G02*
X36384711Y-79262939I874561J-784709D01*
G01*
X36384711Y-79262939D01*
G75*
G02*
X36474563Y-80922209I-784709J-874561D01*
G01*
X35164561Y-82382209D01*
G75*
G02*
X33505291Y-82472061I-874561J784709D01*
G01*
G37*
D13*
X40640000Y-79057500D03*
G36*
G01*
X40519157Y-80809716D02*
X40519157Y-80809716D01*
G75*
G02*
X39427784Y-79556657I80843J1172216D01*
G01*
X39467784Y-78976657D01*
G75*
G02*
X40720843Y-77885284I1172216J-80843D01*
G01*
X40720843Y-77885284D01*
G75*
G02*
X41812216Y-79138343I-80843J-1172216D01*
G01*
X41772216Y-79718343D01*
G75*
G02*
X40519157Y-80809716I-1172216J80843D01*
G01*
G37*
D12*
X109855000Y-131445000D03*
X99695000Y-131445000D03*
D13*
X102275000Y-127445000D03*
D14*
X104775000Y-131445000D03*
G36*
G01*
X100180291Y-129779560D02*
X100180291Y-129779561D01*
G75*
G02*
X100090439Y-128120291I784709J874561D01*
G01*
X101400441Y-126660291D01*
G75*
G02*
X103059711Y-126570439I874561J-784709D01*
G01*
X103059711Y-126570439D01*
G75*
G02*
X103149563Y-128229709I-784709J-874561D01*
G01*
X101839561Y-129689709D01*
G75*
G02*
X100180291Y-129779561I-874561J784709D01*
G01*
G37*
D13*
X107315000Y-126365000D03*
G36*
G01*
X107194157Y-128117216D02*
X107194157Y-128117216D01*
G75*
G02*
X106102784Y-126864157I80843J1172216D01*
G01*
X106142784Y-126284157D01*
G75*
G02*
X107395843Y-125192784I1172216J-80843D01*
G01*
X107395843Y-125192784D01*
G75*
G02*
X108487216Y-126445843I-80843J-1172216D01*
G01*
X108447216Y-127025843D01*
G75*
G02*
X107194157Y-128117216I-1172216J80843D01*
G01*
G37*
D12*
X360680000Y-188595000D03*
X350520000Y-188595000D03*
D13*
X353100000Y-184595000D03*
D14*
X355600000Y-188595000D03*
G36*
G01*
X351005291Y-186929560D02*
X351005291Y-186929561D01*
G75*
G02*
X350915439Y-185270291I784709J874561D01*
G01*
X352225441Y-183810291D01*
G75*
G02*
X353884711Y-183720439I874561J-784709D01*
G01*
X353884711Y-183720439D01*
G75*
G02*
X353974563Y-185379709I-784709J-874561D01*
G01*
X352664561Y-186839709D01*
G75*
G02*
X351005291Y-186929561I-874561J784709D01*
G01*
G37*
D13*
X358140000Y-183515000D03*
G36*
G01*
X358019157Y-185267216D02*
X358019157Y-185267216D01*
G75*
G02*
X356927784Y-184014157I80843J1172216D01*
G01*
X356967784Y-183434157D01*
G75*
G02*
X358220843Y-182342784I1172216J-80843D01*
G01*
X358220843Y-182342784D01*
G75*
G02*
X359312216Y-183595843I-80843J-1172216D01*
G01*
X359272216Y-184175843D01*
G75*
G02*
X358019157Y-185267216I-1172216J80843D01*
G01*
G37*
D12*
X114617500Y-150495000D03*
X104457500Y-150495000D03*
D13*
X107037500Y-146495000D03*
D14*
X109537500Y-150495000D03*
G36*
G01*
X104942791Y-148829560D02*
X104942791Y-148829561D01*
G75*
G02*
X104852939Y-147170291I784709J874561D01*
G01*
X106162941Y-145710291D01*
G75*
G02*
X107822211Y-145620439I874561J-784709D01*
G01*
X107822211Y-145620439D01*
G75*
G02*
X107912063Y-147279709I-784709J-874561D01*
G01*
X106602061Y-148739709D01*
G75*
G02*
X104942791Y-148829561I-874561J784709D01*
G01*
G37*
D13*
X112077500Y-145415000D03*
G36*
G01*
X111956657Y-147167216D02*
X111956657Y-147167216D01*
G75*
G02*
X110865284Y-145914157I80843J1172216D01*
G01*
X110905284Y-145334157D01*
G75*
G02*
X112158343Y-144242784I1172216J-80843D01*
G01*
X112158343Y-144242784D01*
G75*
G02*
X113249716Y-145495843I-80843J-1172216D01*
G01*
X113209716Y-146075843D01*
G75*
G02*
X111956657Y-147167216I-1172216J80843D01*
G01*
G37*
D12*
X162242500Y-169545000D03*
X152082500Y-169545000D03*
D13*
X154662500Y-165545000D03*
D14*
X157162500Y-169545000D03*
G36*
G01*
X152567791Y-167879560D02*
X152567791Y-167879561D01*
G75*
G02*
X152477939Y-166220291I784709J874561D01*
G01*
X153787941Y-164760291D01*
G75*
G02*
X155447211Y-164670439I874561J-784709D01*
G01*
X155447211Y-164670439D01*
G75*
G02*
X155537063Y-166329709I-784709J-874561D01*
G01*
X154227061Y-167789709D01*
G75*
G02*
X152567791Y-167879561I-874561J784709D01*
G01*
G37*
D13*
X159702500Y-164465000D03*
G36*
G01*
X159581657Y-166217216D02*
X159581657Y-166217216D01*
G75*
G02*
X158490284Y-164964157I80843J1172216D01*
G01*
X158530284Y-164384157D01*
G75*
G02*
X159783343Y-163292784I1172216J-80843D01*
G01*
X159783343Y-163292784D01*
G75*
G02*
X160874716Y-164545843I-80843J-1172216D01*
G01*
X160834716Y-165125843D01*
G75*
G02*
X159581657Y-166217216I-1172216J80843D01*
G01*
G37*
D12*
X76517500Y-150495000D03*
X66357500Y-150495000D03*
D13*
X68937500Y-146495000D03*
D14*
X71437500Y-150495000D03*
G36*
G01*
X66842791Y-148829560D02*
X66842791Y-148829561D01*
G75*
G02*
X66752939Y-147170291I784709J874561D01*
G01*
X68062941Y-145710291D01*
G75*
G02*
X69722211Y-145620439I874561J-784709D01*
G01*
X69722211Y-145620439D01*
G75*
G02*
X69812063Y-147279709I-784709J-874561D01*
G01*
X68502061Y-148739709D01*
G75*
G02*
X66842791Y-148829561I-874561J784709D01*
G01*
G37*
D13*
X73977500Y-145415000D03*
G36*
G01*
X73856657Y-147167216D02*
X73856657Y-147167216D01*
G75*
G02*
X72765284Y-145914157I80843J1172216D01*
G01*
X72805284Y-145334157D01*
G75*
G02*
X74058343Y-144242784I1172216J-80843D01*
G01*
X74058343Y-144242784D01*
G75*
G02*
X75149716Y-145495843I-80843J-1172216D01*
G01*
X75109716Y-146075843D01*
G75*
G02*
X73856657Y-147167216I-1172216J80843D01*
G01*
G37*
D12*
X281305000Y-131445000D03*
X271145000Y-131445000D03*
D13*
X273725000Y-127445000D03*
D14*
X276225000Y-131445000D03*
G36*
G01*
X271630291Y-129779560D02*
X271630291Y-129779561D01*
G75*
G02*
X271540439Y-128120291I784709J874561D01*
G01*
X272850441Y-126660291D01*
G75*
G02*
X274509711Y-126570439I874561J-784709D01*
G01*
X274509711Y-126570439D01*
G75*
G02*
X274599563Y-128229709I-784709J-874561D01*
G01*
X273289561Y-129689709D01*
G75*
G02*
X271630291Y-129779561I-874561J784709D01*
G01*
G37*
D13*
X278765000Y-126365000D03*
G36*
G01*
X278644157Y-128117216D02*
X278644157Y-128117216D01*
G75*
G02*
X277552784Y-126864157I80843J1172216D01*
G01*
X277592784Y-126284157D01*
G75*
G02*
X278845843Y-125192784I1172216J-80843D01*
G01*
X278845843Y-125192784D01*
G75*
G02*
X279937216Y-126445843I-80843J-1172216D01*
G01*
X279897216Y-127025843D01*
G75*
G02*
X278644157Y-128117216I-1172216J80843D01*
G01*
G37*
D12*
X247967500Y-150495000D03*
X237807500Y-150495000D03*
D13*
X240387500Y-146495000D03*
D14*
X242887500Y-150495000D03*
G36*
G01*
X238292791Y-148829560D02*
X238292791Y-148829561D01*
G75*
G02*
X238202939Y-147170291I784709J874561D01*
G01*
X239512941Y-145710291D01*
G75*
G02*
X241172211Y-145620439I874561J-784709D01*
G01*
X241172211Y-145620439D01*
G75*
G02*
X241262063Y-147279709I-784709J-874561D01*
G01*
X239952061Y-148739709D01*
G75*
G02*
X238292791Y-148829561I-874561J784709D01*
G01*
G37*
D13*
X245427500Y-145415000D03*
G36*
G01*
X245306657Y-147167216D02*
X245306657Y-147167216D01*
G75*
G02*
X244215284Y-145914157I80843J1172216D01*
G01*
X244255284Y-145334157D01*
G75*
G02*
X245508343Y-144242784I1172216J-80843D01*
G01*
X245508343Y-144242784D01*
G75*
G02*
X246599716Y-145495843I-80843J-1172216D01*
G01*
X246559716Y-146075843D01*
G75*
G02*
X245306657Y-147167216I-1172216J80843D01*
G01*
G37*
D12*
X257492500Y-169545000D03*
X247332500Y-169545000D03*
D13*
X249912500Y-165545000D03*
D14*
X252412500Y-169545000D03*
G36*
G01*
X247817791Y-167879560D02*
X247817791Y-167879561D01*
G75*
G02*
X247727939Y-166220291I784709J874561D01*
G01*
X249037941Y-164760291D01*
G75*
G02*
X250697211Y-164670439I874561J-784709D01*
G01*
X250697211Y-164670439D01*
G75*
G02*
X250787063Y-166329709I-784709J-874561D01*
G01*
X249477061Y-167789709D01*
G75*
G02*
X247817791Y-167879561I-874561J784709D01*
G01*
G37*
D13*
X254952500Y-164465000D03*
G36*
G01*
X254831657Y-166217216D02*
X254831657Y-166217216D01*
G75*
G02*
X253740284Y-164964157I80843J1172216D01*
G01*
X253780284Y-164384157D01*
G75*
G02*
X255033343Y-163292784I1172216J-80843D01*
G01*
X255033343Y-163292784D01*
G75*
G02*
X256124716Y-164545843I-80843J-1172216D01*
G01*
X256084716Y-165125843D01*
G75*
G02*
X254831657Y-166217216I-1172216J80843D01*
G01*
G37*
D12*
X267017500Y-150495000D03*
X256857500Y-150495000D03*
D13*
X259437500Y-146495000D03*
D14*
X261937500Y-150495000D03*
G36*
G01*
X257342791Y-148829560D02*
X257342791Y-148829561D01*
G75*
G02*
X257252939Y-147170291I784709J874561D01*
G01*
X258562941Y-145710291D01*
G75*
G02*
X260222211Y-145620439I874561J-784709D01*
G01*
X260222211Y-145620439D01*
G75*
G02*
X260312063Y-147279709I-784709J-874561D01*
G01*
X259002061Y-148739709D01*
G75*
G02*
X257342791Y-148829561I-874561J784709D01*
G01*
G37*
D13*
X264477500Y-145415000D03*
G36*
G01*
X264356657Y-147167216D02*
X264356657Y-147167216D01*
G75*
G02*
X263265284Y-145914157I80843J1172216D01*
G01*
X263305284Y-145334157D01*
G75*
G02*
X264558343Y-144242784I1172216J-80843D01*
G01*
X264558343Y-144242784D01*
G75*
G02*
X265649716Y-145495843I-80843J-1172216D01*
G01*
X265609716Y-146075843D01*
G75*
G02*
X264356657Y-147167216I-1172216J80843D01*
G01*
G37*
D12*
X238442500Y-169545000D03*
X228282500Y-169545000D03*
D13*
X230862500Y-165545000D03*
D14*
X233362500Y-169545000D03*
G36*
G01*
X228767791Y-167879560D02*
X228767791Y-167879561D01*
G75*
G02*
X228677939Y-166220291I784709J874561D01*
G01*
X229987941Y-164760291D01*
G75*
G02*
X231647211Y-164670439I874561J-784709D01*
G01*
X231647211Y-164670439D01*
G75*
G02*
X231737063Y-166329709I-784709J-874561D01*
G01*
X230427061Y-167789709D01*
G75*
G02*
X228767791Y-167879561I-874561J784709D01*
G01*
G37*
D13*
X235902500Y-164465000D03*
G36*
G01*
X235781657Y-166217216D02*
X235781657Y-166217216D01*
G75*
G02*
X234690284Y-164964157I80843J1172216D01*
G01*
X234730284Y-164384157D01*
G75*
G02*
X235983343Y-163292784I1172216J-80843D01*
G01*
X235983343Y-163292784D01*
G75*
G02*
X237074716Y-164545843I-80843J-1172216D01*
G01*
X237034716Y-165125843D01*
G75*
G02*
X235781657Y-166217216I-1172216J80843D01*
G01*
G37*
D12*
X219392500Y-169545000D03*
X209232500Y-169545000D03*
D13*
X211812500Y-165545000D03*
D14*
X214312500Y-169545000D03*
G36*
G01*
X209717791Y-167879560D02*
X209717791Y-167879561D01*
G75*
G02*
X209627939Y-166220291I784709J874561D01*
G01*
X210937941Y-164760291D01*
G75*
G02*
X212597211Y-164670439I874561J-784709D01*
G01*
X212597211Y-164670439D01*
G75*
G02*
X212687063Y-166329709I-784709J-874561D01*
G01*
X211377061Y-167789709D01*
G75*
G02*
X209717791Y-167879561I-874561J784709D01*
G01*
G37*
D13*
X216852500Y-164465000D03*
G36*
G01*
X216731657Y-166217216D02*
X216731657Y-166217216D01*
G75*
G02*
X215640284Y-164964157I80843J1172216D01*
G01*
X215680284Y-164384157D01*
G75*
G02*
X216933343Y-163292784I1172216J-80843D01*
G01*
X216933343Y-163292784D01*
G75*
G02*
X218024716Y-164545843I-80843J-1172216D01*
G01*
X217984716Y-165125843D01*
G75*
G02*
X216731657Y-166217216I-1172216J80843D01*
G01*
G37*
D12*
X271792700Y-112388650D03*
X261632700Y-112388650D03*
D13*
X264212700Y-108388650D03*
D14*
X266712700Y-112388650D03*
G36*
G01*
X262117991Y-110723210D02*
X262117991Y-110723211D01*
G75*
G02*
X262028139Y-109063941I784709J874561D01*
G01*
X263338141Y-107603941D01*
G75*
G02*
X264997411Y-107514089I874561J-784709D01*
G01*
X264997411Y-107514089D01*
G75*
G02*
X265087263Y-109173359I-784709J-874561D01*
G01*
X263777261Y-110633359D01*
G75*
G02*
X262117991Y-110723211I-874561J784709D01*
G01*
G37*
D13*
X269252700Y-107308650D03*
G36*
G01*
X269131857Y-109060866D02*
X269131857Y-109060866D01*
G75*
G02*
X268040484Y-107807807I80843J1172216D01*
G01*
X268080484Y-107227807D01*
G75*
G02*
X269333543Y-106136434I1172216J-80843D01*
G01*
X269333543Y-106136434D01*
G75*
G02*
X270424916Y-107389493I-80843J-1172216D01*
G01*
X270384916Y-107969493D01*
G75*
G02*
X269131857Y-109060866I-1172216J80843D01*
G01*
G37*
D12*
X252742700Y-112388650D03*
X242582700Y-112388650D03*
D13*
X245162700Y-108388650D03*
D14*
X247662700Y-112388650D03*
G36*
G01*
X243067991Y-110723210D02*
X243067991Y-110723211D01*
G75*
G02*
X242978139Y-109063941I784709J874561D01*
G01*
X244288141Y-107603941D01*
G75*
G02*
X245947411Y-107514089I874561J-784709D01*
G01*
X245947411Y-107514089D01*
G75*
G02*
X246037263Y-109173359I-784709J-874561D01*
G01*
X244727261Y-110633359D01*
G75*
G02*
X243067991Y-110723211I-874561J784709D01*
G01*
G37*
D13*
X250202700Y-107308650D03*
G36*
G01*
X250081857Y-109060866D02*
X250081857Y-109060866D01*
G75*
G02*
X248990484Y-107807807I80843J1172216D01*
G01*
X249030484Y-107227807D01*
G75*
G02*
X250283543Y-106136434I1172216J-80843D01*
G01*
X250283543Y-106136434D01*
G75*
G02*
X251374916Y-107389493I-80843J-1172216D01*
G01*
X251334916Y-107969493D01*
G75*
G02*
X250081857Y-109060866I-1172216J80843D01*
G01*
G37*
D12*
X214642700Y-112388650D03*
X204482700Y-112388650D03*
D13*
X207062700Y-108388650D03*
D14*
X209562700Y-112388650D03*
G36*
G01*
X204967991Y-110723210D02*
X204967991Y-110723211D01*
G75*
G02*
X204878139Y-109063941I784709J874561D01*
G01*
X206188141Y-107603941D01*
G75*
G02*
X207847411Y-107514089I874561J-784709D01*
G01*
X207847411Y-107514089D01*
G75*
G02*
X207937263Y-109173359I-784709J-874561D01*
G01*
X206627261Y-110633359D01*
G75*
G02*
X204967991Y-110723211I-874561J784709D01*
G01*
G37*
D13*
X212102700Y-107308650D03*
G36*
G01*
X211981857Y-109060866D02*
X211981857Y-109060866D01*
G75*
G02*
X210890484Y-107807807I80843J1172216D01*
G01*
X210930484Y-107227807D01*
G75*
G02*
X212183543Y-106136434I1172216J-80843D01*
G01*
X212183543Y-106136434D01*
G75*
G02*
X213274916Y-107389493I-80843J-1172216D01*
G01*
X213234916Y-107969493D01*
G75*
G02*
X211981857Y-109060866I-1172216J80843D01*
G01*
G37*
D12*
X195592700Y-112388650D03*
X185432700Y-112388650D03*
D13*
X188012700Y-108388650D03*
D14*
X190512700Y-112388650D03*
G36*
G01*
X185917991Y-110723210D02*
X185917991Y-110723211D01*
G75*
G02*
X185828139Y-109063941I784709J874561D01*
G01*
X187138141Y-107603941D01*
G75*
G02*
X188797411Y-107514089I874561J-784709D01*
G01*
X188797411Y-107514089D01*
G75*
G02*
X188887263Y-109173359I-784709J-874561D01*
G01*
X187577261Y-110633359D01*
G75*
G02*
X185917991Y-110723211I-874561J784709D01*
G01*
G37*
D13*
X193052700Y-107308650D03*
G36*
G01*
X192931857Y-109060866D02*
X192931857Y-109060866D01*
G75*
G02*
X191840484Y-107807807I80843J1172216D01*
G01*
X191880484Y-107227807D01*
G75*
G02*
X193133543Y-106136434I1172216J-80843D01*
G01*
X193133543Y-106136434D01*
G75*
G02*
X194224916Y-107389493I-80843J-1172216D01*
G01*
X194184916Y-107969493D01*
G75*
G02*
X192931857Y-109060866I-1172216J80843D01*
G01*
G37*
D12*
X176542700Y-112388650D03*
X166382700Y-112388650D03*
D13*
X168962700Y-108388650D03*
D14*
X171462700Y-112388650D03*
G36*
G01*
X166867991Y-110723210D02*
X166867991Y-110723211D01*
G75*
G02*
X166778139Y-109063941I784709J874561D01*
G01*
X168088141Y-107603941D01*
G75*
G02*
X169747411Y-107514089I874561J-784709D01*
G01*
X169747411Y-107514089D01*
G75*
G02*
X169837263Y-109173359I-784709J-874561D01*
G01*
X168527261Y-110633359D01*
G75*
G02*
X166867991Y-110723211I-874561J784709D01*
G01*
G37*
D13*
X174002700Y-107308650D03*
G36*
G01*
X173881857Y-109060866D02*
X173881857Y-109060866D01*
G75*
G02*
X172790484Y-107807807I80843J1172216D01*
G01*
X172830484Y-107227807D01*
G75*
G02*
X174083543Y-106136434I1172216J-80843D01*
G01*
X174083543Y-106136434D01*
G75*
G02*
X175174916Y-107389493I-80843J-1172216D01*
G01*
X175134916Y-107969493D01*
G75*
G02*
X173881857Y-109060866I-1172216J80843D01*
G01*
G37*
D12*
X157492700Y-112388650D03*
X147332700Y-112388650D03*
D13*
X149912700Y-108388650D03*
D14*
X152412700Y-112388650D03*
G36*
G01*
X147817991Y-110723210D02*
X147817991Y-110723211D01*
G75*
G02*
X147728139Y-109063941I784709J874561D01*
G01*
X149038141Y-107603941D01*
G75*
G02*
X150697411Y-107514089I874561J-784709D01*
G01*
X150697411Y-107514089D01*
G75*
G02*
X150787263Y-109173359I-784709J-874561D01*
G01*
X149477261Y-110633359D01*
G75*
G02*
X147817991Y-110723211I-874561J784709D01*
G01*
G37*
D13*
X154952700Y-107308650D03*
G36*
G01*
X154831857Y-109060866D02*
X154831857Y-109060866D01*
G75*
G02*
X153740484Y-107807807I80843J1172216D01*
G01*
X153780484Y-107227807D01*
G75*
G02*
X155033543Y-106136434I1172216J-80843D01*
G01*
X155033543Y-106136434D01*
G75*
G02*
X156124916Y-107389493I-80843J-1172216D01*
G01*
X156084916Y-107969493D01*
G75*
G02*
X154831857Y-109060866I-1172216J80843D01*
G01*
G37*
D12*
X138442700Y-112388650D03*
X128282700Y-112388650D03*
D13*
X130862700Y-108388650D03*
D14*
X133362700Y-112388650D03*
G36*
G01*
X128767991Y-110723210D02*
X128767991Y-110723211D01*
G75*
G02*
X128678139Y-109063941I784709J874561D01*
G01*
X129988141Y-107603941D01*
G75*
G02*
X131647411Y-107514089I874561J-784709D01*
G01*
X131647411Y-107514089D01*
G75*
G02*
X131737263Y-109173359I-784709J-874561D01*
G01*
X130427261Y-110633359D01*
G75*
G02*
X128767991Y-110723211I-874561J784709D01*
G01*
G37*
D13*
X135902700Y-107308650D03*
G36*
G01*
X135781857Y-109060866D02*
X135781857Y-109060866D01*
G75*
G02*
X134690484Y-107807807I80843J1172216D01*
G01*
X134730484Y-107227807D01*
G75*
G02*
X135983543Y-106136434I1172216J-80843D01*
G01*
X135983543Y-106136434D01*
G75*
G02*
X137074916Y-107389493I-80843J-1172216D01*
G01*
X137034916Y-107969493D01*
G75*
G02*
X135781857Y-109060866I-1172216J80843D01*
G01*
G37*
D12*
X119392700Y-112388650D03*
X109232700Y-112388650D03*
D13*
X111812700Y-108388650D03*
D14*
X114312700Y-112388650D03*
G36*
G01*
X109717991Y-110723210D02*
X109717991Y-110723211D01*
G75*
G02*
X109628139Y-109063941I784709J874561D01*
G01*
X110938141Y-107603941D01*
G75*
G02*
X112597411Y-107514089I874561J-784709D01*
G01*
X112597411Y-107514089D01*
G75*
G02*
X112687263Y-109173359I-784709J-874561D01*
G01*
X111377261Y-110633359D01*
G75*
G02*
X109717991Y-110723211I-874561J784709D01*
G01*
G37*
D13*
X116852700Y-107308650D03*
G36*
G01*
X116731857Y-109060866D02*
X116731857Y-109060866D01*
G75*
G02*
X115640484Y-107807807I80843J1172216D01*
G01*
X115680484Y-107227807D01*
G75*
G02*
X116933543Y-106136434I1172216J-80843D01*
G01*
X116933543Y-106136434D01*
G75*
G02*
X118024916Y-107389493I-80843J-1172216D01*
G01*
X117984916Y-107969493D01*
G75*
G02*
X116731857Y-109060866I-1172216J80843D01*
G01*
G37*
D12*
X100342700Y-112388650D03*
X90182700Y-112388650D03*
D13*
X92762700Y-108388650D03*
D14*
X95262700Y-112388650D03*
G36*
G01*
X90667991Y-110723210D02*
X90667991Y-110723211D01*
G75*
G02*
X90578139Y-109063941I784709J874561D01*
G01*
X91888141Y-107603941D01*
G75*
G02*
X93547411Y-107514089I874561J-784709D01*
G01*
X93547411Y-107514089D01*
G75*
G02*
X93637263Y-109173359I-784709J-874561D01*
G01*
X92327261Y-110633359D01*
G75*
G02*
X90667991Y-110723211I-874561J784709D01*
G01*
G37*
D13*
X97802700Y-107308650D03*
G36*
G01*
X97681857Y-109060866D02*
X97681857Y-109060866D01*
G75*
G02*
X96590484Y-107807807I80843J1172216D01*
G01*
X96630484Y-107227807D01*
G75*
G02*
X97883543Y-106136434I1172216J-80843D01*
G01*
X97883543Y-106136434D01*
G75*
G02*
X98974916Y-107389493I-80843J-1172216D01*
G01*
X98934916Y-107969493D01*
G75*
G02*
X97681857Y-109060866I-1172216J80843D01*
G01*
G37*
D12*
X81292700Y-112388650D03*
X71132700Y-112388650D03*
D13*
X73712700Y-108388650D03*
D14*
X76212700Y-112388650D03*
G36*
G01*
X71617991Y-110723210D02*
X71617991Y-110723211D01*
G75*
G02*
X71528139Y-109063941I784709J874561D01*
G01*
X72838141Y-107603941D01*
G75*
G02*
X74497411Y-107514089I874561J-784709D01*
G01*
X74497411Y-107514089D01*
G75*
G02*
X74587263Y-109173359I-784709J-874561D01*
G01*
X73277261Y-110633359D01*
G75*
G02*
X71617991Y-110723211I-874561J784709D01*
G01*
G37*
D13*
X78752700Y-107308650D03*
G36*
G01*
X78631857Y-109060866D02*
X78631857Y-109060866D01*
G75*
G02*
X77540484Y-107807807I80843J1172216D01*
G01*
X77580484Y-107227807D01*
G75*
G02*
X78833543Y-106136434I1172216J-80843D01*
G01*
X78833543Y-106136434D01*
G75*
G02*
X79924916Y-107389493I-80843J-1172216D01*
G01*
X79884916Y-107969493D01*
G75*
G02*
X78631857Y-109060866I-1172216J80843D01*
G01*
G37*
D12*
X62230000Y-112395000D03*
X52070000Y-112395000D03*
D13*
X54650000Y-108395000D03*
D14*
X57150000Y-112395000D03*
G36*
G01*
X52555291Y-110729560D02*
X52555291Y-110729561D01*
G75*
G02*
X52465439Y-109070291I784709J874561D01*
G01*
X53775441Y-107610291D01*
G75*
G02*
X55434711Y-107520439I874561J-784709D01*
G01*
X55434711Y-107520439D01*
G75*
G02*
X55524563Y-109179709I-784709J-874561D01*
G01*
X54214561Y-110639709D01*
G75*
G02*
X52555291Y-110729561I-874561J784709D01*
G01*
G37*
D13*
X59690000Y-107315000D03*
G36*
G01*
X59569157Y-109067216D02*
X59569157Y-109067216D01*
G75*
G02*
X58477784Y-107814157I80843J1172216D01*
G01*
X58517784Y-107234157D01*
G75*
G02*
X59770843Y-106142784I1172216J-80843D01*
G01*
X59770843Y-106142784D01*
G75*
G02*
X60862216Y-107395843I-80843J-1172216D01*
G01*
X60822216Y-107975843D01*
G75*
G02*
X59569157Y-109067216I-1172216J80843D01*
G01*
G37*
D12*
X233692700Y-112388650D03*
X223532700Y-112388650D03*
D13*
X226112700Y-108388650D03*
D14*
X228612700Y-112388650D03*
G36*
G01*
X224017991Y-110723210D02*
X224017991Y-110723211D01*
G75*
G02*
X223928139Y-109063941I784709J874561D01*
G01*
X225238141Y-107603941D01*
G75*
G02*
X226897411Y-107514089I874561J-784709D01*
G01*
X226897411Y-107514089D01*
G75*
G02*
X226987263Y-109173359I-784709J-874561D01*
G01*
X225677261Y-110633359D01*
G75*
G02*
X224017991Y-110723211I-874561J784709D01*
G01*
G37*
D13*
X231152700Y-107308650D03*
G36*
G01*
X231031857Y-109060866D02*
X231031857Y-109060866D01*
G75*
G02*
X229940484Y-107807807I80843J1172216D01*
G01*
X229980484Y-107227807D01*
G75*
G02*
X231233543Y-106136434I1172216J-80843D01*
G01*
X231233543Y-106136434D01*
G75*
G02*
X232324916Y-107389493I-80843J-1172216D01*
G01*
X232284916Y-107969493D01*
G75*
G02*
X231031857Y-109060866I-1172216J80843D01*
G01*
G37*
G36*
G01*
X318155000Y-110905000D02*
X316845000Y-110905000D01*
G75*
G02*
X316575000Y-110635000I0J270000D01*
G01*
X316575000Y-109825000D01*
G75*
G02*
X316845000Y-109555000I270000J0D01*
G01*
X318155000Y-109555000D01*
G75*
G02*
X318425000Y-109825000I0J-270000D01*
G01*
X318425000Y-110635000D01*
G75*
G02*
X318155000Y-110905000I-270000J0D01*
G01*
G37*
G36*
G01*
X318155000Y-113705000D02*
X316845000Y-113705000D01*
G75*
G02*
X316575000Y-113435000I0J270000D01*
G01*
X316575000Y-112625000D01*
G75*
G02*
X316845000Y-112355000I270000J0D01*
G01*
X318155000Y-112355000D01*
G75*
G02*
X318425000Y-112625000I0J-270000D01*
G01*
X318425000Y-113435000D01*
G75*
G02*
X318155000Y-113705000I-270000J0D01*
G01*
G37*
D23*
X378618750Y-181037500D03*
X378618750Y-177737500D03*
X382587500Y-83281250D03*
X382587500Y-86581250D03*
X363537500Y-186945000D03*
X363537500Y-190245000D03*
X363537500Y-168150000D03*
X363537500Y-171450000D03*
X363537500Y-82487500D03*
X363537500Y-85787500D03*
X344487500Y-186945000D03*
X344487500Y-190245000D03*
X344487500Y-82487500D03*
X344487500Y-85787500D03*
X307975000Y-129318750D03*
X307975000Y-132618750D03*
X304006250Y-110268750D03*
X304006250Y-113568750D03*
X306705000Y-148845000D03*
X306705000Y-152145000D03*
X284162500Y-129795000D03*
X284162500Y-133095000D03*
X274332700Y-110738650D03*
X274332700Y-114038650D03*
X311943750Y-82487500D03*
X311943750Y-85787500D03*
X310356250Y-186945000D03*
X310356250Y-190245000D03*
X296862500Y-167418750D03*
X296862500Y-170718750D03*
X269875000Y-148845000D03*
X269875000Y-152145000D03*
X265112500Y-129795000D03*
X265112500Y-133095000D03*
X255282700Y-110738650D03*
X255282700Y-114038650D03*
X293528750Y-82170000D03*
X293528750Y-85470000D03*
X286543750Y-187262500D03*
X286543750Y-190562500D03*
X259556250Y-167895000D03*
X259556250Y-171195000D03*
X250825000Y-148845000D03*
X250825000Y-152145000D03*
X246062500Y-129795000D03*
X246062500Y-133095000D03*
X236232700Y-110738650D03*
X236232700Y-114038650D03*
X274478750Y-82550000D03*
X274478750Y-85850000D03*
X262731250Y-186945000D03*
X262731250Y-190245000D03*
X240506250Y-167895000D03*
X240506250Y-171195000D03*
X231775000Y-148845000D03*
X231775000Y-152145000D03*
X227012500Y-129318750D03*
X227012500Y-132618750D03*
X217182700Y-110738650D03*
X217182700Y-114038650D03*
X255428750Y-82170000D03*
X255428750Y-85470000D03*
X238918750Y-186945000D03*
X238918750Y-190245000D03*
X221456250Y-168212500D03*
X221456250Y-171512500D03*
X212725000Y-148845000D03*
X212725000Y-152145000D03*
X207962500Y-129795000D03*
X207962500Y-133095000D03*
X198132700Y-110738650D03*
X198132700Y-114038650D03*
X223520000Y-82170000D03*
X223520000Y-85470000D03*
X203200000Y-167895000D03*
X203200000Y-171195000D03*
X193675000Y-148845000D03*
X193675000Y-152145000D03*
X188912500Y-130112500D03*
X188912500Y-133412500D03*
X179082700Y-110738650D03*
X179082700Y-114038650D03*
X204470000Y-82170000D03*
X204470000Y-85470000D03*
X184150000Y-167895000D03*
X184150000Y-171195000D03*
X174625000Y-148845000D03*
X174625000Y-152145000D03*
X169862500Y-130112500D03*
X169862500Y-133412500D03*
X160032700Y-110738650D03*
X160032700Y-114038650D03*
X185420000Y-82170000D03*
X185420000Y-85470000D03*
X167481250Y-186945000D03*
X167481250Y-190245000D03*
X165100000Y-167895000D03*
X165100000Y-171195000D03*
X155575000Y-148845000D03*
X155575000Y-152145000D03*
X150812500Y-129318750D03*
X150812500Y-132618750D03*
X140982700Y-110738650D03*
X140982700Y-114038650D03*
X166370000Y-82170000D03*
X166370000Y-85470000D03*
X146050000Y-167895000D03*
X146050000Y-171195000D03*
X136525000Y-148845000D03*
X136525000Y-152145000D03*
X131762500Y-129318750D03*
X131762500Y-132618750D03*
X121932700Y-110738650D03*
X121932700Y-114038650D03*
X134620000Y-82170000D03*
X134620000Y-85470000D03*
X126206250Y-167895000D03*
X126206250Y-171195000D03*
X117475000Y-148845000D03*
X117475000Y-152145000D03*
X112712500Y-129795000D03*
X112712500Y-133095000D03*
X102882700Y-110738650D03*
X102882700Y-114038650D03*
X115570000Y-82170000D03*
X115570000Y-85470000D03*
X96837500Y-186945000D03*
X96837500Y-190245000D03*
X107950000Y-168212500D03*
X107950000Y-171512500D03*
X98425000Y-149162500D03*
X98425000Y-152462500D03*
X93662500Y-129318750D03*
X93662500Y-132618750D03*
X83832700Y-110738650D03*
X83832700Y-114038650D03*
X96520000Y-82170000D03*
X96520000Y-85470000D03*
X73025000Y-186945000D03*
X73025000Y-190245000D03*
X88106250Y-168212500D03*
X88106250Y-171512500D03*
X79375000Y-148845000D03*
X79375000Y-152145000D03*
X74612500Y-129318750D03*
X74612500Y-132618750D03*
X65087500Y-111062500D03*
X65087500Y-114362500D03*
X77470000Y-82170000D03*
X77470000Y-85470000D03*
X49212500Y-186945000D03*
X49212500Y-190245000D03*
X59531250Y-167895000D03*
X59531250Y-171195000D03*
X56356250Y-148368750D03*
X56356250Y-151668750D03*
X53181250Y-129318750D03*
X53181250Y-132618750D03*
X46037500Y-110268750D03*
X46037500Y-113568750D03*
X45243750Y-82487500D03*
X45243750Y-85787500D03*
G36*
G01*
X320193750Y-142972500D02*
X321156250Y-142972500D01*
G75*
G02*
X321425000Y-143241250I0J-268750D01*
G01*
X321425000Y-143778750D01*
G75*
G02*
X321156250Y-144047500I-268750J0D01*
G01*
X320193750Y-144047500D01*
G75*
G02*
X319925000Y-143778750I0J268750D01*
G01*
X319925000Y-143241250D01*
G75*
G02*
X320193750Y-142972500I268750J0D01*
G01*
G37*
G36*
G01*
X320193750Y-141097500D02*
X321156250Y-141097500D01*
G75*
G02*
X321425000Y-141366250I0J-268750D01*
G01*
X321425000Y-141903750D01*
G75*
G02*
X321156250Y-142172500I-268750J0D01*
G01*
X320193750Y-142172500D01*
G75*
G02*
X319925000Y-141903750I0J268750D01*
G01*
X319925000Y-141366250D01*
G75*
G02*
X320193750Y-141097500I268750J0D01*
G01*
G37*
G36*
G01*
X324003750Y-154705000D02*
X324966250Y-154705000D01*
G75*
G02*
X325235000Y-154973750I0J-268750D01*
G01*
X325235000Y-155511250D01*
G75*
G02*
X324966250Y-155780000I-268750J0D01*
G01*
X324003750Y-155780000D01*
G75*
G02*
X323735000Y-155511250I0J268750D01*
G01*
X323735000Y-154973750D01*
G75*
G02*
X324003750Y-154705000I268750J0D01*
G01*
G37*
G36*
G01*
X324003750Y-152830000D02*
X324966250Y-152830000D01*
G75*
G02*
X325235000Y-153098750I0J-268750D01*
G01*
X325235000Y-153636250D01*
G75*
G02*
X324966250Y-153905000I-268750J0D01*
G01*
X324003750Y-153905000D01*
G75*
G02*
X323735000Y-153636250I0J268750D01*
G01*
X323735000Y-153098750D01*
G75*
G02*
X324003750Y-152830000I268750J0D01*
G01*
G37*
G36*
G01*
X327813750Y-129940000D02*
X328776250Y-129940000D01*
G75*
G02*
X329045000Y-130208750I0J-268750D01*
G01*
X329045000Y-130746250D01*
G75*
G02*
X328776250Y-131015000I-268750J0D01*
G01*
X327813750Y-131015000D01*
G75*
G02*
X327545000Y-130746250I0J268750D01*
G01*
X327545000Y-130208750D01*
G75*
G02*
X327813750Y-129940000I268750J0D01*
G01*
G37*
G36*
G01*
X327813750Y-128065000D02*
X328776250Y-128065000D01*
G75*
G02*
X329045000Y-128333750I0J-268750D01*
G01*
X329045000Y-128871250D01*
G75*
G02*
X328776250Y-129140000I-268750J0D01*
G01*
X327813750Y-129140000D01*
G75*
G02*
X327545000Y-128871250I0J268750D01*
G01*
X327545000Y-128333750D01*
G75*
G02*
X327813750Y-128065000I268750J0D01*
G01*
G37*
G36*
G01*
X337666250Y-129140000D02*
X336703750Y-129140000D01*
G75*
G02*
X336435000Y-128871250I0J268750D01*
G01*
X336435000Y-128333750D01*
G75*
G02*
X336703750Y-128065000I268750J0D01*
G01*
X337666250Y-128065000D01*
G75*
G02*
X337935000Y-128333750I0J-268750D01*
G01*
X337935000Y-128871250D01*
G75*
G02*
X337666250Y-129140000I-268750J0D01*
G01*
G37*
G36*
G01*
X337666250Y-131015000D02*
X336703750Y-131015000D01*
G75*
G02*
X336435000Y-130746250I0J268750D01*
G01*
X336435000Y-130208750D01*
G75*
G02*
X336703750Y-129940000I268750J0D01*
G01*
X337666250Y-129940000D01*
G75*
G02*
X337935000Y-130208750I0J-268750D01*
G01*
X337935000Y-130746250D01*
G75*
G02*
X337666250Y-131015000I-268750J0D01*
G01*
G37*
G36*
G01*
X342746250Y-139632500D02*
X341783750Y-139632500D01*
G75*
G02*
X341515000Y-139363750I0J268750D01*
G01*
X341515000Y-138826250D01*
G75*
G02*
X341783750Y-138557500I268750J0D01*
G01*
X342746250Y-138557500D01*
G75*
G02*
X343015000Y-138826250I0J-268750D01*
G01*
X343015000Y-139363750D01*
G75*
G02*
X342746250Y-139632500I-268750J0D01*
G01*
G37*
G36*
G01*
X342746250Y-141507500D02*
X341783750Y-141507500D01*
G75*
G02*
X341515000Y-141238750I0J268750D01*
G01*
X341515000Y-140701250D01*
G75*
G02*
X341783750Y-140432500I268750J0D01*
G01*
X342746250Y-140432500D01*
G75*
G02*
X343015000Y-140701250I0J-268750D01*
G01*
X343015000Y-141238750D01*
G75*
G02*
X342746250Y-141507500I-268750J0D01*
G01*
G37*
G36*
G01*
X337420000Y-154458750D02*
X337420000Y-155421250D01*
G75*
G02*
X337151250Y-155690000I-268750J0D01*
G01*
X336613750Y-155690000D01*
G75*
G02*
X336345000Y-155421250I0J268750D01*
G01*
X336345000Y-154458750D01*
G75*
G02*
X336613750Y-154190000I268750J0D01*
G01*
X337151250Y-154190000D01*
G75*
G02*
X337420000Y-154458750I0J-268750D01*
G01*
G37*
G36*
G01*
X339295000Y-154458750D02*
X339295000Y-155421250D01*
G75*
G02*
X339026250Y-155690000I-268750J0D01*
G01*
X338488750Y-155690000D01*
G75*
G02*
X338220000Y-155421250I0J268750D01*
G01*
X338220000Y-154458750D01*
G75*
G02*
X338488750Y-154190000I268750J0D01*
G01*
X339026250Y-154190000D01*
G75*
G02*
X339295000Y-154458750I0J-268750D01*
G01*
G37*
G36*
G01*
X329411250Y-134220000D02*
X328448750Y-134220000D01*
G75*
G02*
X328180000Y-133951250I0J268750D01*
G01*
X328180000Y-133413750D01*
G75*
G02*
X328448750Y-133145000I268750J0D01*
G01*
X329411250Y-133145000D01*
G75*
G02*
X329680000Y-133413750I0J-268750D01*
G01*
X329680000Y-133951250D01*
G75*
G02*
X329411250Y-134220000I-268750J0D01*
G01*
G37*
G36*
G01*
X329411250Y-136095000D02*
X328448750Y-136095000D01*
G75*
G02*
X328180000Y-135826250I0J268750D01*
G01*
X328180000Y-135288750D01*
G75*
G02*
X328448750Y-135020000I268750J0D01*
G01*
X329411250Y-135020000D01*
G75*
G02*
X329680000Y-135288750I0J-268750D01*
G01*
X329680000Y-135826250D01*
G75*
G02*
X329411250Y-136095000I-268750J0D01*
G01*
G37*
M02*
