G04 #@! TF.GenerationSoftware,KiCad,Pcbnew,(5.1.6)-1*
G04 #@! TF.CreationDate,2020-07-22T19:14:50-04:00*
G04 #@! TF.ProjectId,Edgedancer81,45646765-6461-46e6-9365-7238312e6b69,rev?*
G04 #@! TF.SameCoordinates,Original*
G04 #@! TF.FileFunction,Copper,L1,Top*
G04 #@! TF.FilePolarity,Positive*
%FSLAX46Y46*%
G04 Gerber Fmt 4.6, Leading zero omitted, Abs format (unit mm)*
G04 Created by KiCad (PCBNEW (5.1.6)-1) date 2020-07-22 19:14:50*
%MOMM*%
%LPD*%
G01*
G04 APERTURE LIST*
G04 #@! TA.AperFunction,ComponentPad*
%ADD10C,2.250000*%
G04 #@! TD*
G04 #@! TA.AperFunction,ComponentPad*
%ADD11O,1.700000X2.700000*%
G04 #@! TD*
G04 #@! TA.AperFunction,ComponentPad*
%ADD12R,2.000000X2.000000*%
G04 #@! TD*
G04 #@! TA.AperFunction,ComponentPad*
%ADD13C,2.000000*%
G04 #@! TD*
G04 #@! TA.AperFunction,ComponentPad*
%ADD14R,3.200000X2.000000*%
G04 #@! TD*
G04 #@! TA.AperFunction,ViaPad*
%ADD15C,0.800000*%
G04 #@! TD*
G04 #@! TA.AperFunction,Conductor*
%ADD16C,0.381000*%
G04 #@! TD*
G04 #@! TA.AperFunction,Conductor*
%ADD17C,0.254000*%
G04 #@! TD*
G04 APERTURE END LIST*
D10*
X97802700Y-107308650D03*
X91452700Y-109848650D03*
X297815000Y-107315000D03*
X291465000Y-109855000D03*
X93027500Y-145415000D03*
X86677500Y-147955000D03*
X212102700Y-107308650D03*
X205752700Y-109848650D03*
X290671250Y-164465000D03*
X284321250Y-167005000D03*
X162083750Y-183515000D03*
X155733750Y-186055000D03*
X304958750Y-183515000D03*
X298608750Y-186055000D03*
X43021250Y-183515000D03*
X36671250Y-186055000D03*
X66833750Y-183515000D03*
X60483750Y-186055000D03*
X90805000Y-183515000D03*
X84455000Y-186055000D03*
X233521250Y-183515000D03*
X227171250Y-186055000D03*
X257333750Y-183515000D03*
X250983750Y-186055000D03*
X281146250Y-183515000D03*
X274796250Y-186055000D03*
X295433750Y-145415000D03*
X289083750Y-147955000D03*
X52546250Y-164465000D03*
X46196250Y-167005000D03*
X47783750Y-145415000D03*
X41433750Y-147955000D03*
X45402500Y-126365000D03*
X39052500Y-128905000D03*
X302577500Y-126365000D03*
X296227500Y-128905000D03*
X259715000Y-126365000D03*
X253365000Y-128905000D03*
X178752500Y-164465000D03*
X172402500Y-167005000D03*
X131127500Y-145415000D03*
X124777500Y-147955000D03*
X269240000Y-79057500D03*
X262890000Y-81597500D03*
X161290000Y-79057500D03*
X154940000Y-81597500D03*
X121602500Y-164465000D03*
X115252500Y-167005000D03*
X199390000Y-79057500D03*
X193040000Y-81597500D03*
X40640000Y-107315000D03*
X34290000Y-109855000D03*
X83502500Y-164528500D03*
X77152500Y-167068500D03*
X164465000Y-126365000D03*
X158115000Y-128905000D03*
X102552500Y-164465000D03*
X96202500Y-167005000D03*
X88265000Y-126365000D03*
X81915000Y-128905000D03*
X140652500Y-164465000D03*
X134302500Y-167005000D03*
X358140000Y-164465000D03*
X351790000Y-167005000D03*
X183515000Y-126365000D03*
X177165000Y-128905000D03*
X145415000Y-126365000D03*
X139065000Y-128905000D03*
X377190000Y-183515000D03*
X370840000Y-186055000D03*
X126365000Y-126365000D03*
X120015000Y-128905000D03*
X69215000Y-126365000D03*
X62865000Y-128905000D03*
X339090000Y-79057500D03*
X332740000Y-81597500D03*
X358140000Y-79057500D03*
X351790000Y-81597500D03*
X240665000Y-126365000D03*
X234315000Y-128905000D03*
X221615000Y-126365000D03*
X215265000Y-128905000D03*
X377190000Y-79057500D03*
X370840000Y-81597500D03*
X197802500Y-164465000D03*
X191452500Y-167005000D03*
X339090000Y-183515000D03*
X332740000Y-186055000D03*
X226377500Y-145415000D03*
X220027500Y-147955000D03*
X207327500Y-145415000D03*
X200977500Y-147955000D03*
X188277500Y-145415000D03*
X181927500Y-147955000D03*
X202565000Y-126365000D03*
X196215000Y-128905000D03*
X169227500Y-145415000D03*
X162877500Y-147955000D03*
X150215600Y-145440400D03*
X143865600Y-147980400D03*
X307340000Y-79057500D03*
X300990000Y-81597500D03*
X288290000Y-79057500D03*
X281940000Y-81597500D03*
X250190000Y-79057500D03*
X243840000Y-81597500D03*
X218440000Y-79057500D03*
X212090000Y-81597500D03*
X180340000Y-79057500D03*
X173990000Y-81597500D03*
X129540000Y-79057500D03*
X123190000Y-81597500D03*
X110490000Y-79057500D03*
X104140000Y-81597500D03*
X91440000Y-79057500D03*
X85090000Y-81597500D03*
X72390000Y-79057500D03*
X66040000Y-81597500D03*
X40640000Y-79057500D03*
X34290000Y-81597500D03*
X107315000Y-126365000D03*
X100965000Y-128905000D03*
X358140000Y-183515000D03*
X351790000Y-186055000D03*
X112077500Y-145415000D03*
X105727500Y-147955000D03*
X159702500Y-164465000D03*
X153352500Y-167005000D03*
X73977500Y-145415000D03*
X67627500Y-147955000D03*
X278765000Y-126365000D03*
X272415000Y-128905000D03*
X245427500Y-145415000D03*
X239077500Y-147955000D03*
X254952500Y-164465000D03*
X248602500Y-167005000D03*
X264477500Y-145415000D03*
X258127500Y-147955000D03*
X235902500Y-164465000D03*
X229552500Y-167005000D03*
X216852500Y-164465000D03*
X210502500Y-167005000D03*
X269252700Y-107308650D03*
X262902700Y-109848650D03*
X250202700Y-107308650D03*
X243852700Y-109848650D03*
X193052700Y-107308650D03*
X186702700Y-109848650D03*
X174002700Y-107308650D03*
X167652700Y-109848650D03*
X154952700Y-107308650D03*
X148602700Y-109848650D03*
X135902700Y-107308650D03*
X129552700Y-109848650D03*
X116852700Y-107308650D03*
X110502700Y-109848650D03*
X78752700Y-107308650D03*
X72402700Y-109848650D03*
X59690000Y-107315000D03*
X53340000Y-109855000D03*
X231152700Y-107308650D03*
X224802700Y-109848650D03*
D11*
X317025000Y-76993750D03*
X324325000Y-76993750D03*
X324325000Y-81493750D03*
X317025000Y-81493750D03*
D12*
X348456250Y-123825000D03*
D13*
X348456250Y-126325000D03*
X348456250Y-128825000D03*
D14*
X355956250Y-120725000D03*
X355956250Y-131925000D03*
D13*
X362956250Y-123825000D03*
X362956250Y-128825000D03*
D15*
X344170000Y-140970000D03*
X323547500Y-151115000D03*
X323850000Y-143668750D03*
X338931250Y-153193750D03*
X327025000Y-134143750D03*
X342900000Y-126365000D03*
X335915000Y-133350000D03*
X330835000Y-116681250D03*
X315912500Y-91281250D03*
X324643750Y-91281250D03*
X317500000Y-96837500D03*
X315912500Y-100012500D03*
X328295000Y-116681250D03*
X325755000Y-116681250D03*
X315912500Y-103187500D03*
X324485000Y-95250000D03*
X329565000Y-116681250D03*
X315912500Y-98107500D03*
X315912500Y-95250000D03*
X327025000Y-116681250D03*
X315912500Y-101600000D03*
X323215000Y-166370000D03*
X339090000Y-137795000D03*
X328295000Y-166370000D03*
X327025000Y-166370000D03*
X325755000Y-166370000D03*
X324485000Y-166370000D03*
X321945000Y-166370000D03*
X337343750Y-135731250D03*
X338455000Y-136525000D03*
D16*
X344170000Y-140970000D02*
X344170000Y-151765000D01*
X344170000Y-151765000D02*
X344170000Y-153035000D01*
X323547500Y-151115000D02*
X323547500Y-143971250D01*
X323547500Y-143971250D02*
X323850000Y-143668750D01*
X344170000Y-156210000D02*
X344170000Y-153035000D01*
X343217500Y-157162500D02*
X344170000Y-156210000D01*
X323547500Y-152891250D02*
X327818750Y-157162500D01*
X323547500Y-151115000D02*
X323547500Y-152891250D01*
X338931250Y-153193750D02*
X341312500Y-155575000D01*
X341312500Y-155575000D02*
X341312500Y-156368750D01*
X341312500Y-156368750D02*
X340518750Y-157162500D01*
X327818750Y-157162500D02*
X340518750Y-157162500D01*
X341312500Y-156368750D02*
X342106250Y-157162500D01*
X342106250Y-157162500D02*
X343217500Y-157162500D01*
X323850000Y-143668750D02*
X323850000Y-139700000D01*
X323850000Y-139700000D02*
X327025000Y-136525000D01*
X327025000Y-136525000D02*
X327025000Y-134143750D01*
D17*
X342500001Y-126764999D02*
X342500001Y-132479999D01*
X342900000Y-126365000D02*
X342500001Y-126764999D01*
X342500001Y-132479999D02*
X341630000Y-133350000D01*
X341630000Y-133350000D02*
X335915000Y-133350000D01*
X315912500Y-91281250D02*
X324643750Y-91281250D01*
X317500000Y-96837500D02*
X317500000Y-97631250D01*
X317500000Y-97631250D02*
X330835000Y-110966250D01*
X330835000Y-110966250D02*
X330835000Y-116681250D01*
X315912500Y-100012500D02*
X323850000Y-107950000D01*
X328295000Y-112395000D02*
X323850000Y-107950000D01*
X323850000Y-107950000D02*
X323056250Y-107156250D01*
X328295000Y-112395000D02*
X328295000Y-116681250D01*
X325755000Y-116681250D02*
X325755000Y-113030000D01*
X325755000Y-113030000D02*
X325437500Y-112712500D01*
X325437500Y-112712500D02*
X315912500Y-103187500D01*
X315912500Y-95250000D02*
X324643750Y-95250000D01*
X329565000Y-116046250D02*
X329565000Y-116681250D01*
X315912500Y-98107500D02*
X329565000Y-111760000D01*
X329565000Y-111760000D02*
X329565000Y-116046250D01*
X327025000Y-116681250D02*
X327025000Y-113506250D01*
X327025000Y-113506250D02*
X327025000Y-112712500D01*
X327025000Y-112712500D02*
X315912500Y-101600000D01*
X262890000Y-81597500D02*
X259715000Y-81597500D01*
X234315000Y-128905000D02*
X232886250Y-128905000D01*
X239077500Y-147955000D02*
X239077500Y-147796250D01*
X258127500Y-147955000D02*
X257492500Y-147955000D01*
X248602500Y-167005000D02*
X248602500Y-166846250D01*
X281431038Y-81597500D02*
X281940000Y-81597500D01*
X248602500Y-164465000D02*
X248602500Y-167005000D01*
X235743750Y-149225000D02*
X235743750Y-151606250D01*
X237013750Y-147955000D02*
X235743750Y-149225000D01*
X235743750Y-151606250D02*
X248602500Y-164465000D01*
X239077500Y-147955000D02*
X237013750Y-147955000D01*
X239077500Y-140652500D02*
X230981250Y-132556250D01*
X239077500Y-147955000D02*
X239077500Y-140652500D01*
X232251250Y-128905000D02*
X230981250Y-130175000D01*
X234315000Y-128905000D02*
X232251250Y-128905000D01*
X230981250Y-132556250D02*
X230981250Y-130175000D01*
X234315000Y-126365000D02*
X234315000Y-128905000D01*
X221456250Y-113506250D02*
X234315000Y-126365000D01*
X224802700Y-109848650D02*
X222732600Y-109848650D01*
X221456250Y-111125000D02*
X221456250Y-113506250D01*
X222732600Y-109848650D02*
X221456250Y-111125000D01*
X224802700Y-109848650D02*
X232257600Y-102393750D01*
X232257600Y-102393750D02*
X234156250Y-102393750D01*
X243852700Y-104946450D02*
X241300000Y-102393750D01*
X243852700Y-109848650D02*
X243852700Y-104946450D01*
X234156250Y-102393750D02*
X241300000Y-102393750D01*
X243852700Y-109848650D02*
X241782600Y-109848650D01*
X241782600Y-109848650D02*
X240506250Y-111125000D01*
X240506250Y-112091162D02*
X253365000Y-124949912D01*
X253365000Y-124949912D02*
X253365000Y-128905000D01*
X240506250Y-111125000D02*
X240506250Y-112091162D01*
X251301250Y-128905000D02*
X253365000Y-128905000D01*
X250031250Y-133350000D02*
X250031250Y-130175000D01*
X250031250Y-130175000D02*
X251301250Y-128905000D01*
X258127500Y-147955000D02*
X258127500Y-141446250D01*
X258127500Y-141446250D02*
X250031250Y-133350000D01*
X256063750Y-147955000D02*
X254793750Y-149225000D01*
X254793750Y-149225000D02*
X254793750Y-152400000D01*
X258127500Y-147955000D02*
X256063750Y-147955000D01*
X284321250Y-167005000D02*
X282416250Y-165100000D01*
X267493750Y-165100000D02*
X266700000Y-164306250D01*
X254793750Y-152400000D02*
X266700000Y-164306250D01*
X282416250Y-165100000D02*
X267493750Y-165100000D01*
X283051250Y-167005000D02*
X280987500Y-169068750D01*
X284321250Y-167005000D02*
X283051250Y-167005000D01*
X246538750Y-167005000D02*
X248602500Y-167005000D01*
X274796250Y-186055000D02*
X263366250Y-174625000D01*
X245268750Y-168275000D02*
X246538750Y-167005000D01*
X263366250Y-174625000D02*
X248443750Y-174625000D01*
X248443750Y-174625000D02*
X245268750Y-171450000D01*
X245268750Y-171450000D02*
X245268750Y-168275000D01*
X280987500Y-172243750D02*
X282575000Y-173831250D01*
X280987500Y-169068750D02*
X280987500Y-172243750D01*
X286385000Y-173831250D02*
X298608750Y-186055000D01*
X282575000Y-173831250D02*
X286385000Y-173831250D01*
X317500000Y-178593750D02*
X317500000Y-172085000D01*
X317500000Y-172085000D02*
X323215000Y-166370000D01*
X316071250Y-180022500D02*
X317500000Y-178593750D01*
X304641250Y-180022500D02*
X316071250Y-180022500D01*
X298608750Y-186055000D02*
X304641250Y-180022500D01*
X246233950Y-102565200D02*
X243852700Y-104946450D01*
X246405400Y-102393750D02*
X246233950Y-102565200D01*
X259715000Y-81597500D02*
X258762500Y-82550000D01*
X261143750Y-87312500D02*
X261143750Y-86518750D01*
X258762500Y-82550000D02*
X258762500Y-84137500D01*
X261143750Y-86518750D02*
X258762500Y-84137500D01*
X261143750Y-87655400D02*
X256949575Y-91849575D01*
X261143750Y-87312500D02*
X261143750Y-87655400D01*
X246233950Y-102565200D02*
X256949575Y-91849575D01*
X262388350Y-88900000D02*
X261143750Y-87655400D01*
X265112500Y-88900000D02*
X264318750Y-88900000D01*
X264318750Y-88900000D02*
X262388350Y-88900000D01*
X281940000Y-81597500D02*
X280352500Y-81597500D01*
X276225000Y-85725000D02*
X276225000Y-87312500D01*
X280352500Y-81597500D02*
X276225000Y-85725000D01*
X276225000Y-87312500D02*
X274637500Y-88900000D01*
X274637500Y-88900000D02*
X272256250Y-88900000D01*
X264318750Y-88900000D02*
X272256250Y-88900000D01*
X62356038Y-128905000D02*
X62865000Y-128905000D01*
X65531038Y-81597500D02*
X66040000Y-81597500D01*
X51276250Y-109855000D02*
X50006250Y-111125000D01*
X53340000Y-109855000D02*
X51276250Y-109855000D01*
X37306250Y-102393750D02*
X34290000Y-105410000D01*
X46424018Y-195580000D02*
X48101250Y-195580000D01*
X31750000Y-192881250D02*
X31750000Y-188912500D01*
X34448750Y-195580000D02*
X31750000Y-192881250D01*
X48101250Y-195580000D02*
X34448750Y-195580000D01*
X36671250Y-185578750D02*
X34290000Y-183197500D01*
X36671250Y-186055000D02*
X36671250Y-185578750D01*
X47767394Y-108886144D02*
X48418750Y-109537500D01*
X50006250Y-111125000D02*
X48418750Y-109537500D01*
X42862500Y-102393750D02*
X37306250Y-102393750D01*
X43656250Y-102393750D02*
X42862500Y-102393750D01*
X65246250Y-81597500D02*
X66040000Y-81597500D01*
X46831250Y-100012500D02*
X65246250Y-81597500D01*
X42862500Y-102393750D02*
X44450000Y-102393750D01*
X46831250Y-100012500D02*
X44450000Y-102393750D01*
X44450000Y-102393750D02*
X47767394Y-105711144D01*
X47767394Y-105711144D02*
X47767394Y-108886144D01*
X34290000Y-81597500D02*
X31908750Y-81597500D01*
X31908750Y-81597500D02*
X30956250Y-82550000D01*
X30956250Y-96043750D02*
X34925000Y-100012500D01*
X30956250Y-82550000D02*
X30956250Y-96043750D01*
X37306250Y-102393750D02*
X34925000Y-100012500D01*
X34925000Y-100012500D02*
X34290000Y-99377500D01*
X34290000Y-105410000D02*
X34131250Y-105568750D01*
X34131250Y-109696250D02*
X34290000Y-109855000D01*
X34131250Y-105568750D02*
X34131250Y-109696250D01*
X34607500Y-186055000D02*
X34131250Y-186531250D01*
X31750000Y-188912500D02*
X34131250Y-186531250D01*
X36671250Y-186055000D02*
X34607500Y-186055000D01*
X34131250Y-186531250D02*
X34290000Y-186372500D01*
X343535000Y-137795000D02*
X339090000Y-137795000D01*
X346075000Y-140335000D02*
X343535000Y-137795000D01*
X346075000Y-156210000D02*
X346075000Y-140335000D01*
X323850000Y-172085000D02*
X331470000Y-164465000D01*
X116205000Y-195580000D02*
X202088750Y-195580000D01*
X102076250Y-195580000D02*
X105568750Y-192087500D01*
X112712500Y-192087500D02*
X116205000Y-195580000D01*
X331470000Y-164465000D02*
X337820000Y-164465000D01*
X105568750Y-192087500D02*
X112712500Y-192087500D01*
X212725000Y-192201770D02*
X216103230Y-195580000D01*
X323850000Y-192881250D02*
X323850000Y-172085000D01*
X48101250Y-195580000D02*
X102076250Y-195580000D01*
X337820000Y-164465000D02*
X346075000Y-156210000D01*
X202088750Y-195580000D02*
X205466980Y-192201770D01*
X216103230Y-195580000D02*
X321151250Y-195580000D01*
X205466980Y-192201770D02*
X212725000Y-192201770D01*
X321151250Y-195580000D02*
X323850000Y-192881250D01*
X46196250Y-167005000D02*
X36988750Y-167005000D01*
X34290000Y-169703750D02*
X34290000Y-170497500D01*
X36988750Y-167005000D02*
X34290000Y-169703750D01*
X34290000Y-183197500D02*
X34290000Y-170497500D01*
X44450000Y-165258750D02*
X46196250Y-167005000D01*
X41433750Y-147955000D02*
X36195000Y-147955000D01*
X36195000Y-147955000D02*
X34290000Y-149860000D01*
X34290000Y-149860000D02*
X34290000Y-162560000D01*
X34290000Y-162560000D02*
X36988750Y-165258750D01*
X36988750Y-165258750D02*
X44450000Y-165258750D01*
X34290000Y-143033750D02*
X34290000Y-141128750D01*
X35956875Y-144700625D02*
X34290000Y-143033750D01*
X34290000Y-142716250D02*
X34290000Y-141128750D01*
X41433750Y-145891250D02*
X40243125Y-144700625D01*
X41433750Y-147955000D02*
X41433750Y-145891250D01*
X40243125Y-144700625D02*
X35956875Y-144700625D01*
X34290000Y-130016250D02*
X34290000Y-133985000D01*
X35401250Y-128905000D02*
X34290000Y-130016250D01*
X34290000Y-133985000D02*
X34290000Y-141128750D01*
X39052500Y-128905000D02*
X35401250Y-128905000D01*
X75819000Y-167068500D02*
X65722500Y-177165000D01*
X65722500Y-180816250D02*
X60483750Y-186055000D01*
X65722500Y-177165000D02*
X65722500Y-180816250D01*
X77152500Y-167068500D02*
X75819000Y-167068500D01*
X77152500Y-164465000D02*
X77152500Y-167068500D01*
X64293750Y-149225000D02*
X64293750Y-151606250D01*
X67468750Y-148113750D02*
X65405000Y-148113750D01*
X67627500Y-147955000D02*
X67468750Y-148113750D01*
X65405000Y-148113750D02*
X64293750Y-149225000D01*
X64293750Y-151606250D02*
X77152500Y-164465000D01*
X50006250Y-116046250D02*
X50006250Y-115093750D01*
X62865000Y-128905000D02*
X50006250Y-116046250D01*
X50006250Y-115093750D02*
X50006250Y-111125000D01*
X67627500Y-141446250D02*
X67627500Y-147955000D01*
X59451875Y-130095625D02*
X59451875Y-133270625D01*
X60642500Y-128905000D02*
X59451875Y-130095625D01*
X59451875Y-133270625D02*
X67627500Y-141446250D01*
X62865000Y-128905000D02*
X60642500Y-128905000D01*
X38735000Y-128905000D02*
X39052500Y-128905000D01*
X35083750Y-127635000D02*
X37465000Y-127635000D01*
X34131250Y-126682500D02*
X35083750Y-127635000D01*
X30956250Y-110331250D02*
X30956250Y-121126250D01*
X37465000Y-127635000D02*
X38735000Y-128905000D01*
X31432500Y-109855000D02*
X30956250Y-110331250D01*
X34290000Y-109855000D02*
X31432500Y-109855000D01*
X30956250Y-121126250D02*
X34131250Y-124301250D01*
X34131250Y-124301250D02*
X34131250Y-126682500D01*
X92868750Y-173831250D02*
X84455000Y-182245000D01*
X84455000Y-182245000D02*
X84455000Y-186055000D01*
X105727500Y-147955000D02*
X105092500Y-147955000D01*
X90798650Y-109848650D02*
X88106250Y-107156250D01*
X91452700Y-109848650D02*
X90798650Y-109848650D01*
X91281250Y-102393750D02*
X88106250Y-105568750D01*
X88106250Y-105568750D02*
X88106250Y-107156250D01*
X95250000Y-102393750D02*
X91281250Y-102393750D01*
X80962500Y-83343750D02*
X80962500Y-82550000D01*
X80962500Y-86518750D02*
X80962500Y-83343750D01*
X81915000Y-81597500D02*
X85090000Y-81597500D01*
X80962500Y-82550000D02*
X81915000Y-81597500D01*
X322580000Y-172085000D02*
X328295000Y-166370000D01*
X322580000Y-192405000D02*
X322580000Y-172085000D01*
X320078100Y-194906900D02*
X322580000Y-192405000D01*
X202081684Y-194945000D02*
X205278924Y-191747760D01*
X205278924Y-191747760D02*
X213096460Y-191747760D01*
X216255600Y-194906900D02*
X320078100Y-194906900D01*
X213096460Y-191747760D02*
X216255600Y-194906900D01*
X117792500Y-194945000D02*
X202081684Y-194945000D01*
X117157500Y-194945000D02*
X117792500Y-194945000D01*
X90487500Y-101600000D02*
X91281250Y-102393750D01*
X71437500Y-101600000D02*
X69850000Y-103187500D01*
X71437500Y-101600000D02*
X90487500Y-101600000D01*
X69850000Y-103187500D02*
X70643750Y-102393750D01*
X71437500Y-101600000D02*
X69850000Y-100012500D01*
X69850000Y-100012500D02*
X69850000Y-97631250D01*
X69850000Y-97631250D02*
X80962500Y-86518750D01*
X104140000Y-81597500D02*
X101758750Y-81597500D01*
X101758750Y-81597500D02*
X100806250Y-82550000D01*
X100806250Y-82550000D02*
X100806250Y-96837500D01*
X100806250Y-96837500D02*
X95250000Y-102393750D01*
X116363750Y-194945000D02*
X117792500Y-194945000D01*
X88763490Y-195125990D02*
X101736510Y-195125990D01*
X113052240Y-191633490D02*
X116363750Y-194945000D01*
X84455000Y-186055000D02*
X82232500Y-186055000D01*
X82232500Y-186055000D02*
X80962500Y-187325000D01*
X105229010Y-191633490D02*
X113052240Y-191633490D01*
X80962500Y-187325000D02*
X80962500Y-189706250D01*
X101736510Y-195125990D02*
X105229010Y-191633490D01*
X80962500Y-189706250D02*
X82550000Y-191293750D01*
X84931250Y-191293750D02*
X88763490Y-195125990D01*
X82550000Y-191293750D02*
X84931250Y-191293750D01*
X86677500Y-147955000D02*
X84613750Y-147955000D01*
X83343750Y-149225000D02*
X83343750Y-151606250D01*
X83343750Y-151606250D02*
X84931250Y-153193750D01*
X84613750Y-147955000D02*
X83343750Y-149225000D01*
X102393750Y-151606250D02*
X115252500Y-164465000D01*
X102393750Y-149225000D02*
X102393750Y-151606250D01*
X115252500Y-164465000D02*
X115252500Y-167005000D01*
X105727500Y-147955000D02*
X103663750Y-147955000D01*
X103663750Y-147955000D02*
X102393750Y-149225000D01*
X96202500Y-164465000D02*
X96202500Y-167005000D01*
X84931250Y-153193750D02*
X96202500Y-164465000D01*
X96202500Y-167005000D02*
X94138750Y-167005000D01*
X94138750Y-167005000D02*
X92868750Y-168275000D01*
X92868750Y-168275000D02*
X92868750Y-169862500D01*
X92868750Y-169068750D02*
X92868750Y-169862500D01*
X92868750Y-169862500D02*
X92868750Y-173831250D01*
X68970525Y-111039275D02*
X70161150Y-109848650D01*
X70161150Y-109848650D02*
X72402700Y-109848650D01*
X68970525Y-113420525D02*
X68970525Y-111039275D01*
X81915000Y-126365000D02*
X68970525Y-113420525D01*
X81915000Y-128905000D02*
X81915000Y-126365000D01*
X89382600Y-109848650D02*
X91452700Y-109848650D01*
X88106250Y-113506250D02*
X88106250Y-111125000D01*
X88106250Y-111125000D02*
X89382600Y-109848650D01*
X100965000Y-126365000D02*
X88106250Y-113506250D01*
X100965000Y-128905000D02*
X100965000Y-126365000D01*
X97631250Y-130175000D02*
X98901250Y-128905000D01*
X97631250Y-132556250D02*
X97631250Y-130175000D01*
X98901250Y-128905000D02*
X100965000Y-128905000D01*
X105727500Y-147955000D02*
X105727500Y-140652500D01*
X105727500Y-140652500D02*
X97631250Y-132556250D01*
X79692500Y-128905000D02*
X81915000Y-128905000D01*
X78581250Y-130016250D02*
X79692500Y-128905000D01*
X86677500Y-140652500D02*
X78581250Y-132556250D01*
X78581250Y-132556250D02*
X78581250Y-130016250D01*
X86677500Y-147955000D02*
X86677500Y-140652500D01*
X70573900Y-108019850D02*
X72402700Y-109848650D01*
X69850000Y-107295950D02*
X70573900Y-108019850D01*
X69850000Y-103187500D02*
X69850000Y-107295950D01*
X167322500Y-194310000D02*
X166370000Y-194310000D01*
X155733750Y-186055000D02*
X152876250Y-186055000D01*
X152876250Y-186055000D02*
X151606250Y-187325000D01*
X151606250Y-187325000D02*
X151606250Y-192881250D01*
X151606250Y-192881250D02*
X153035000Y-194310000D01*
X155416250Y-194310000D02*
X167322500Y-194310000D01*
X153035000Y-194310000D02*
X155416250Y-194310000D01*
X126688850Y-109848650D02*
X125412500Y-111125000D01*
X129552700Y-109848650D02*
X126688850Y-109848650D01*
X321310000Y-172085000D02*
X327025000Y-166370000D01*
X318770000Y-194310000D02*
X321310000Y-191770000D01*
X321310000Y-191770000D02*
X321310000Y-172085000D01*
X167322500Y-194310000D02*
X202074618Y-194310000D01*
X205090868Y-191293750D02*
X213518750Y-191293750D01*
X216535000Y-194310000D02*
X318770000Y-194310000D01*
X202074618Y-194310000D02*
X205090868Y-191293750D01*
X213518750Y-191293750D02*
X216535000Y-194310000D01*
X134302500Y-164465000D02*
X134302500Y-167005000D01*
X121443750Y-151606250D02*
X134302500Y-164465000D01*
X121443750Y-149225000D02*
X121443750Y-151606250D01*
X124777500Y-147955000D02*
X122713750Y-147955000D01*
X122713750Y-147955000D02*
X121443750Y-149225000D01*
X139065000Y-127158750D02*
X125412500Y-113506250D01*
X139065000Y-128905000D02*
X139065000Y-127158750D01*
X125412500Y-113506250D02*
X125412500Y-111125000D01*
X137001250Y-128905000D02*
X139065000Y-128905000D01*
X135731250Y-130175000D02*
X137001250Y-128905000D01*
X135731250Y-132556250D02*
X135731250Y-130175000D01*
X143865600Y-140690600D02*
X135731250Y-132556250D01*
X143865600Y-147980400D02*
X143865600Y-140690600D01*
X116681250Y-130175000D02*
X117951250Y-128905000D01*
X116681250Y-132556250D02*
X116681250Y-130175000D01*
X124777500Y-140652500D02*
X116681250Y-132556250D01*
X117951250Y-128905000D02*
X120015000Y-128905000D01*
X124777500Y-147955000D02*
X124777500Y-140652500D01*
X141738350Y-147980400D02*
X143865600Y-147980400D01*
X140404369Y-149314381D02*
X141738350Y-147980400D01*
X153352500Y-164465000D02*
X140404369Y-151516869D01*
X140404369Y-151516869D02*
X140404369Y-149314381D01*
X153352500Y-167005000D02*
X153352500Y-164465000D01*
X155733750Y-184308750D02*
X155733750Y-186055000D01*
X150018750Y-178593750D02*
X155733750Y-184308750D01*
X151288750Y-167005000D02*
X150018750Y-168275000D01*
X150018750Y-168275000D02*
X150018750Y-178593750D01*
X153352500Y-167005000D02*
X151288750Y-167005000D01*
X135731250Y-93662500D02*
X128587500Y-100806250D01*
X128587500Y-100806250D02*
X127793750Y-101600000D01*
X152558750Y-81597500D02*
X140493750Y-93662500D01*
X140493750Y-93662500D02*
X135731250Y-93662500D01*
X154940000Y-81597500D02*
X152558750Y-81597500D01*
X120015000Y-127158750D02*
X120015000Y-128905000D01*
X107156250Y-114300000D02*
X120015000Y-127158750D01*
X107156250Y-111125000D02*
X107156250Y-114300000D01*
X108432600Y-109848650D02*
X107156250Y-111125000D01*
X110502700Y-109848650D02*
X108432600Y-109848650D01*
X127000000Y-102393750D02*
X129552700Y-104946450D01*
X108743750Y-102393750D02*
X127000000Y-102393750D01*
X129552700Y-104946450D02*
X129552700Y-109848650D01*
X128587500Y-100806250D02*
X127000000Y-102393750D01*
X107483275Y-103654225D02*
X107950000Y-103187500D01*
X107622975Y-103514525D02*
X107950000Y-103187500D01*
X107950000Y-103187500D02*
X108743750Y-102393750D01*
X107483275Y-103654225D02*
X108743750Y-102393750D01*
X123190000Y-91916250D02*
X123190000Y-81597500D01*
X107156250Y-100806250D02*
X107156250Y-99218750D01*
X108743750Y-102393750D02*
X107156250Y-100806250D01*
X121443750Y-93662500D02*
X123190000Y-91916250D01*
X107156250Y-99218750D02*
X112712500Y-93662500D01*
X112712500Y-93662500D02*
X121443750Y-93662500D01*
X110502700Y-109848650D02*
X107156250Y-106502200D01*
X107156250Y-103981250D02*
X108743750Y-102393750D01*
X107156250Y-106502200D02*
X107156250Y-103981250D01*
X320040000Y-172085000D02*
X325755000Y-166370000D01*
X317500000Y-193675000D02*
X320040000Y-191135000D01*
X320040000Y-191135000D02*
X320040000Y-172085000D01*
X164306250Y-102393750D02*
X147637500Y-102393750D01*
X147637500Y-102393750D02*
X145256250Y-104775000D01*
X148602700Y-109848650D02*
X147154900Y-109848650D01*
X218281250Y-193675000D02*
X219075000Y-193675000D01*
X219075000Y-193675000D02*
X317500000Y-193675000D01*
X146532600Y-109848650D02*
X145256250Y-111125000D01*
X147154900Y-109848650D02*
X146532600Y-109848650D01*
X145256250Y-106502200D02*
X145256250Y-105568750D01*
X148602700Y-109848650D02*
X145256250Y-106502200D01*
X145256250Y-104775000D02*
X145256250Y-105568750D01*
X167652700Y-106191050D02*
X171450000Y-102393750D01*
X167652700Y-109848650D02*
X167652700Y-106191050D01*
X181768750Y-148113750D02*
X181927500Y-147955000D01*
X178593750Y-151606250D02*
X178593750Y-149225000D01*
X179705000Y-148113750D02*
X181768750Y-148113750D01*
X178593750Y-149225000D02*
X179705000Y-148113750D01*
X171450000Y-102393750D02*
X169862500Y-100806250D01*
X169862500Y-100806250D02*
X168275000Y-102393750D01*
X168275000Y-102393750D02*
X165100000Y-102393750D01*
X165893750Y-102393750D02*
X165100000Y-102393750D01*
X165100000Y-102393750D02*
X164306250Y-102393750D01*
X188912500Y-97631250D02*
X184150000Y-102393750D01*
X184150000Y-102393750D02*
X171450000Y-102393750D01*
X188912500Y-83343750D02*
X188912500Y-97631250D01*
X190658750Y-81597500D02*
X188912500Y-83343750D01*
X193040000Y-81597500D02*
X190658750Y-81597500D01*
X172402500Y-164465000D02*
X172402500Y-167005000D01*
X159543750Y-151606250D02*
X172402500Y-164465000D01*
X159543750Y-149225000D02*
X159543750Y-151606250D01*
X162877500Y-147955000D02*
X160813750Y-147955000D01*
X160813750Y-147955000D02*
X159543750Y-149225000D01*
X158115000Y-126365000D02*
X145256250Y-113506250D01*
X158115000Y-128905000D02*
X158115000Y-126365000D01*
X145256250Y-111125000D02*
X145256250Y-113506250D01*
X164306250Y-111125000D02*
X165582600Y-109848650D01*
X165582600Y-109848650D02*
X167652700Y-109848650D01*
X164306250Y-113506250D02*
X164306250Y-111125000D01*
X177165000Y-126365000D02*
X164306250Y-113506250D01*
X177165000Y-128905000D02*
X177165000Y-126365000D01*
X175101250Y-128905000D02*
X177165000Y-128905000D01*
X173831250Y-130175000D02*
X175101250Y-128905000D01*
X173831250Y-132556250D02*
X173831250Y-130175000D01*
X181927500Y-140652500D02*
X173831250Y-132556250D01*
X181927500Y-147955000D02*
X181927500Y-140652500D01*
X162877500Y-147955000D02*
X162877500Y-142240000D01*
X157956250Y-129063750D02*
X158115000Y-128905000D01*
X162877500Y-142240000D02*
X153987500Y-133350000D01*
X155892500Y-129063750D02*
X157956250Y-129063750D01*
X153987500Y-133350000D02*
X153987500Y-130968750D01*
X153987500Y-130968750D02*
X155892500Y-129063750D01*
X191452500Y-164465000D02*
X178593750Y-151606250D01*
X191452500Y-167005000D02*
X191452500Y-164465000D01*
X171608750Y-81597500D02*
X173990000Y-81597500D01*
X169862500Y-83343750D02*
X171608750Y-81597500D01*
X169862500Y-100806250D02*
X169862500Y-83343750D01*
X196850000Y-173831250D02*
X216693750Y-193675000D01*
X216693750Y-193675000D02*
X219075000Y-193675000D01*
X191452500Y-167005000D02*
X189388750Y-167005000D01*
X188118750Y-168275000D02*
X188118750Y-170656250D01*
X188118750Y-170656250D02*
X191293750Y-173831250D01*
X189388750Y-167005000D02*
X188118750Y-168275000D01*
X191293750Y-173831250D02*
X196850000Y-173831250D01*
X302895000Y-193040000D02*
X316865000Y-193040000D01*
X316865000Y-193040000D02*
X318770000Y-191135000D01*
X318770000Y-191135000D02*
X318770000Y-173355000D01*
X318770000Y-173355000D02*
X318770000Y-172085000D01*
X318770000Y-172085000D02*
X324485000Y-166370000D01*
X210502500Y-167005000D02*
X209073750Y-167005000D01*
X196215000Y-128905000D02*
X194786250Y-128905000D01*
X186702700Y-109848650D02*
X185254900Y-109848650D01*
X262890000Y-193040000D02*
X302895000Y-193040000D01*
X262255000Y-193040000D02*
X262890000Y-193040000D01*
X220027500Y-147955000D02*
X220027500Y-147796250D01*
X229552500Y-167005000D02*
X228917500Y-167005000D01*
X200977500Y-147955000D02*
X198913750Y-147955000D01*
X198913750Y-147955000D02*
X197643750Y-149225000D01*
X197643750Y-149225000D02*
X197643750Y-151606250D01*
X196215000Y-128905000D02*
X194151250Y-128905000D01*
X194151250Y-128905000D02*
X192881250Y-130175000D01*
X192881250Y-130175000D02*
X192881250Y-132556250D01*
X204787500Y-100806250D02*
X203200000Y-102393750D01*
X203200000Y-102393750D02*
X201612500Y-102393750D01*
X202406250Y-111125000D02*
X202406250Y-113506250D01*
X203511150Y-110020100D02*
X202406250Y-111125000D01*
X205581250Y-110020100D02*
X205752700Y-109848650D01*
X203511150Y-110020100D02*
X205581250Y-110020100D01*
X204787500Y-100012500D02*
X204787500Y-100806250D01*
X207168750Y-97631250D02*
X204787500Y-100012500D01*
X207168750Y-83343750D02*
X207168750Y-97631250D01*
X208915000Y-81597500D02*
X207168750Y-83343750D01*
X212090000Y-81597500D02*
X208915000Y-81597500D01*
X215265000Y-128905000D02*
X213201250Y-128905000D01*
X213201250Y-128905000D02*
X211931250Y-130175000D01*
X211931250Y-130175000D02*
X211931250Y-132556250D01*
X211931250Y-132556250D02*
X213518750Y-134143750D01*
X220027500Y-147955000D02*
X220027500Y-144621250D01*
X248920000Y-186055000D02*
X248443750Y-186531250D01*
X250983750Y-186055000D02*
X248920000Y-186055000D01*
X247650000Y-189706250D02*
X250983750Y-193040000D01*
X247650000Y-187325000D02*
X247650000Y-189706250D01*
X250983750Y-193040000D02*
X262890000Y-193040000D01*
X248443750Y-186531250D02*
X247650000Y-187325000D01*
X229552500Y-165735000D02*
X229552500Y-167005000D01*
X220027500Y-147955000D02*
X217963750Y-147955000D01*
X217963750Y-147955000D02*
X216693750Y-149225000D01*
X229552500Y-164465000D02*
X229552500Y-165735000D01*
X216693750Y-149225000D02*
X216693750Y-151606250D01*
X216693750Y-151606250D02*
X229552500Y-164465000D01*
X183356250Y-111125000D02*
X184632600Y-109848650D01*
X184632600Y-109848650D02*
X186702700Y-109848650D01*
X183356250Y-113506250D02*
X183356250Y-111125000D01*
X196215000Y-126365000D02*
X183356250Y-113506250D01*
X196215000Y-128905000D02*
X196215000Y-126365000D01*
X215265000Y-126365000D02*
X203200000Y-114300000D01*
X215265000Y-128905000D02*
X215265000Y-126365000D01*
X202406250Y-113506250D02*
X203200000Y-114300000D01*
X203200000Y-114300000D02*
X203993750Y-115093750D01*
X205752700Y-107778550D02*
X205752700Y-109848650D01*
X205752700Y-104946450D02*
X205752700Y-107778550D01*
X203200000Y-102393750D02*
X205752700Y-104946450D01*
X196056250Y-102393750D02*
X202406250Y-102393750D01*
X194157600Y-102393750D02*
X196056250Y-102393750D01*
X186702700Y-109848650D02*
X194157600Y-102393750D01*
X206375000Y-102393750D02*
X204787500Y-100806250D01*
X220662500Y-102393750D02*
X206375000Y-102393750D01*
X241458750Y-81597500D02*
X220662500Y-102393750D01*
X243840000Y-81597500D02*
X241458750Y-81597500D01*
X200977500Y-140652500D02*
X192881250Y-132556250D01*
X200977500Y-147955000D02*
X200977500Y-140652500D01*
X210502500Y-164465000D02*
X198437500Y-152400000D01*
X210502500Y-167005000D02*
X210502500Y-164465000D01*
X197643750Y-151606250D02*
X198437500Y-152400000D01*
X220027500Y-140652500D02*
X211931250Y-132556250D01*
X220027500Y-147955000D02*
X220027500Y-140652500D01*
X229552500Y-167005000D02*
X227488750Y-167005000D01*
X226218750Y-170656250D02*
X230187500Y-174625000D01*
X239553750Y-174625000D02*
X250983750Y-186055000D01*
X227488750Y-167005000D02*
X226218750Y-168275000D01*
X230187500Y-174625000D02*
X239553750Y-174625000D01*
X226218750Y-168275000D02*
X226218750Y-170656250D01*
X210502500Y-167005000D02*
X208438750Y-167005000D01*
X208438750Y-167005000D02*
X207168750Y-168275000D01*
X209550000Y-174625000D02*
X215741250Y-174625000D01*
X215741250Y-174625000D02*
X227171250Y-186055000D01*
X207168750Y-168275000D02*
X207168750Y-172243750D01*
X207168750Y-172243750D02*
X209550000Y-174625000D01*
X269081250Y-132556250D02*
X272256250Y-135731250D01*
X300990000Y-81597500D02*
X298608750Y-81597500D01*
X298608750Y-81597500D02*
X296862500Y-83343750D01*
X289083750Y-147955000D02*
X289083750Y-147796250D01*
X289083750Y-147796250D02*
X285750000Y-144462500D01*
X272415000Y-128905000D02*
X271780000Y-128905000D01*
X262902700Y-109848650D02*
X262248650Y-109848650D01*
X289083750Y-147955000D02*
X276860000Y-135731250D01*
X276860000Y-135731250D02*
X272256250Y-135731250D01*
X270351250Y-128905000D02*
X269081250Y-130175000D01*
X272415000Y-128905000D02*
X270351250Y-128905000D01*
X269081250Y-130175000D02*
X269081250Y-132556250D01*
X272415000Y-127158750D02*
X261143750Y-115887500D01*
X259556250Y-114300000D02*
X261143750Y-115887500D01*
X272415000Y-128905000D02*
X272415000Y-127158750D01*
X260832600Y-109848650D02*
X259556250Y-111125000D01*
X262902700Y-109848650D02*
X260832600Y-109848650D01*
X259556250Y-111125000D02*
X259556250Y-114300000D01*
X296227500Y-121602500D02*
X296227500Y-128905000D01*
X288131250Y-111125000D02*
X288131250Y-113506250D01*
X289401250Y-109855000D02*
X288131250Y-111125000D01*
X288131250Y-113506250D02*
X296227500Y-121602500D01*
X291465000Y-109855000D02*
X289401250Y-109855000D01*
X291306250Y-100806250D02*
X291306250Y-100012500D01*
X296862500Y-94456250D02*
X296862500Y-86518750D01*
X291306250Y-100012500D02*
X296862500Y-94456250D01*
X296862500Y-83343750D02*
X296862500Y-86518750D01*
X296862500Y-86518750D02*
X296862500Y-87312500D01*
X292100000Y-109220000D02*
X291465000Y-109855000D01*
X291306250Y-100806250D02*
X292100000Y-101600000D01*
X292100000Y-101600000D02*
X292893750Y-102393750D01*
X292893750Y-107950000D02*
X292893750Y-108426250D01*
X292893750Y-108426250D02*
X291465000Y-109855000D01*
X292893750Y-102393750D02*
X292893750Y-107950000D01*
X271151350Y-101600000D02*
X269719425Y-103031925D01*
X290512500Y-101600000D02*
X271151350Y-101600000D01*
X290512500Y-101600000D02*
X291306250Y-100806250D01*
X262902700Y-109848650D02*
X269719425Y-103031925D01*
X287020000Y-147955000D02*
X289083750Y-147955000D01*
X285750000Y-152400000D02*
X285750000Y-149225000D01*
X321945000Y-166370000D02*
X316230000Y-172085000D01*
X315118750Y-178593750D02*
X311943750Y-178593750D01*
X316230000Y-172085000D02*
X316230000Y-177482500D01*
X316230000Y-177482500D02*
X315118750Y-178593750D01*
X285750000Y-149225000D02*
X287020000Y-147955000D01*
X311943750Y-178593750D02*
X285750000Y-152400000D01*
X346983020Y-151403020D02*
X346983020Y-139958886D01*
X343542067Y-136517933D02*
X340367067Y-136517933D01*
X346983020Y-139958886D02*
X343542067Y-136517933D01*
X332740000Y-186055000D02*
X332740000Y-180022500D01*
X332740000Y-180022500D02*
X334168750Y-178593750D01*
X351790000Y-167005000D02*
X349726250Y-167005000D01*
X349726250Y-167005000D02*
X347662500Y-169068750D01*
X347662500Y-176212500D02*
X345281250Y-178593750D01*
X347662500Y-169068750D02*
X347662500Y-176212500D01*
X334168750Y-178593750D02*
X345281250Y-178593750D01*
X349408750Y-81597500D02*
X351790000Y-81597500D01*
X366395000Y-91757500D02*
X361950000Y-87312500D01*
X348456250Y-82550000D02*
X349408750Y-81597500D01*
X361950000Y-87312500D02*
X350837500Y-87312500D01*
X350837500Y-87312500D02*
X348456250Y-84931250D01*
X348456250Y-84931250D02*
X348456250Y-82550000D01*
X327818750Y-81756250D02*
X329437500Y-80137500D01*
X327818750Y-86518750D02*
X327818750Y-81756250D01*
X328612500Y-87312500D02*
X327818750Y-86518750D01*
X369093750Y-155575000D02*
X360362500Y-155575000D01*
X360362500Y-155575000D02*
X361950000Y-155575000D01*
X366395000Y-91757500D02*
X373062500Y-98425000D01*
X373062500Y-98425000D02*
X373062500Y-151606250D01*
X373062500Y-151606250D02*
X369093750Y-155575000D01*
X348456250Y-84931250D02*
X346075000Y-87312500D01*
X346075000Y-87312500D02*
X328612500Y-87312500D01*
X331280000Y-80137500D02*
X332740000Y-81597500D01*
X330962500Y-80137500D02*
X331280000Y-80137500D01*
X329437500Y-80137500D02*
X330962500Y-80137500D01*
X347662500Y-176212500D02*
X350043750Y-178593750D01*
X350043750Y-184308750D02*
X351790000Y-186055000D01*
X350043750Y-178593750D02*
X350043750Y-184308750D01*
X346983020Y-154666980D02*
X348615000Y-153035000D01*
X346983020Y-156586114D02*
X346983020Y-154666980D01*
X338196114Y-165373020D02*
X346983020Y-156586114D01*
X326231250Y-172243750D02*
X333101980Y-165373020D01*
X332740000Y-186055000D02*
X330676250Y-186055000D01*
X327818750Y-195262500D02*
X326231250Y-193675000D01*
X330676250Y-186055000D02*
X329803125Y-186928125D01*
X348615000Y-153035000D02*
X346983020Y-151403020D01*
X329803125Y-194071875D02*
X328612500Y-195262500D01*
X328612500Y-195262500D02*
X327818750Y-195262500D01*
X329803125Y-186928125D02*
X329803125Y-194071875D01*
X326231250Y-193675000D02*
X326231250Y-172243750D01*
X333101980Y-165373020D02*
X338196114Y-165373020D01*
X354012500Y-155575000D02*
X360362500Y-155575000D01*
X353218750Y-155575000D02*
X354012500Y-155575000D01*
X350678750Y-153035000D02*
X353218750Y-155575000D01*
X348615000Y-153035000D02*
X350678750Y-153035000D01*
X339580384Y-135731250D02*
X337343750Y-135731250D01*
X339652692Y-135803558D02*
X339580384Y-135731250D01*
X340367067Y-136517933D02*
X339652692Y-135803558D01*
X339725000Y-136525000D02*
X338455000Y-136525000D01*
X343538533Y-137156467D02*
X340356467Y-137156467D01*
X346529010Y-156398057D02*
X346529010Y-140146943D01*
X346529010Y-140146943D02*
X343538533Y-137156467D01*
X327025000Y-196215000D02*
X325120000Y-194310000D01*
X367665000Y-193675000D02*
X365125000Y-196215000D01*
X338008057Y-164919010D02*
X346529010Y-156398057D01*
X340356467Y-137156467D02*
X339725000Y-136525000D01*
X365125000Y-196215000D02*
X327025000Y-196215000D01*
X325120000Y-194310000D02*
X325120000Y-172085000D01*
X325120000Y-172085000D02*
X332285990Y-164919010D01*
X332285990Y-164919010D02*
X338008057Y-164919010D01*
X369570000Y-186055000D02*
X367665000Y-187960000D01*
X370840000Y-186055000D02*
X369570000Y-186055000D01*
X367665000Y-187960000D02*
X367665000Y-193675000D01*
X368458750Y-81597500D02*
X370840000Y-81597500D01*
X365918750Y-84137500D02*
X368458750Y-81597500D01*
X365918750Y-89693750D02*
X365918750Y-84137500D01*
X373856250Y-97631250D02*
X365918750Y-89693750D01*
X370840000Y-178435000D02*
X372150000Y-177125000D01*
X372150000Y-177125000D02*
X372150000Y-170775000D01*
X370840000Y-186055000D02*
X370840000Y-178435000D01*
X372150000Y-170775000D02*
X373856250Y-169068750D01*
X373856250Y-169068750D02*
X373856250Y-97631250D01*
G36*
X316064748Y-75353893D02*
G01*
X315860824Y-75563131D01*
X315701639Y-75808132D01*
X315593310Y-76079481D01*
X315540000Y-76366750D01*
X315540000Y-76866750D01*
X316898000Y-76866750D01*
X316898000Y-76846750D01*
X317152000Y-76846750D01*
X317152000Y-76866750D01*
X318510000Y-76866750D01*
X318510000Y-76366750D01*
X318456690Y-76079481D01*
X318348361Y-75808132D01*
X318189176Y-75563131D01*
X317985252Y-75353893D01*
X317939553Y-75322500D01*
X323410447Y-75322500D01*
X323364748Y-75353893D01*
X323160824Y-75563131D01*
X323001639Y-75808132D01*
X322893310Y-76079481D01*
X322840000Y-76366750D01*
X322840000Y-76866750D01*
X324198000Y-76866750D01*
X324198000Y-76846750D01*
X324452000Y-76846750D01*
X324452000Y-76866750D01*
X325810000Y-76866750D01*
X325810000Y-76366750D01*
X325756690Y-76079481D01*
X325648361Y-75808132D01*
X325489176Y-75563131D01*
X325285252Y-75353893D01*
X325239553Y-75322500D01*
X326104250Y-75322500D01*
X326104250Y-83216750D01*
X325164219Y-83216750D01*
X325285252Y-83133607D01*
X325489176Y-82924369D01*
X325648361Y-82679368D01*
X325756690Y-82408019D01*
X325810000Y-82120750D01*
X325810000Y-81620750D01*
X324452000Y-81620750D01*
X324452000Y-81640750D01*
X324198000Y-81640750D01*
X324198000Y-81620750D01*
X322840000Y-81620750D01*
X322840000Y-82120750D01*
X322893310Y-82408019D01*
X323001639Y-82679368D01*
X323160824Y-82924369D01*
X323364748Y-83133607D01*
X323485781Y-83216750D01*
X317864219Y-83216750D01*
X317985252Y-83133607D01*
X318189176Y-82924369D01*
X318348361Y-82679368D01*
X318456690Y-82408019D01*
X318510000Y-82120750D01*
X318510000Y-81620750D01*
X317152000Y-81620750D01*
X317152000Y-81640750D01*
X316898000Y-81640750D01*
X316898000Y-81620750D01*
X315540000Y-81620750D01*
X315540000Y-82120750D01*
X315593310Y-82408019D01*
X315701639Y-82679368D01*
X315860824Y-82924369D01*
X316064748Y-83133607D01*
X316185781Y-83216750D01*
X315245750Y-83216750D01*
X315245750Y-80866750D01*
X315540000Y-80866750D01*
X315540000Y-81366750D01*
X316898000Y-81366750D01*
X316898000Y-79673595D01*
X317152000Y-79673595D01*
X317152000Y-81366750D01*
X318510000Y-81366750D01*
X318510000Y-80866750D01*
X322840000Y-80866750D01*
X322840000Y-81366750D01*
X324198000Y-81366750D01*
X324198000Y-79673595D01*
X324452000Y-79673595D01*
X324452000Y-81366750D01*
X325810000Y-81366750D01*
X325810000Y-80866750D01*
X325756690Y-80579481D01*
X325648361Y-80308132D01*
X325489176Y-80063131D01*
X325285252Y-79853893D01*
X325044426Y-79688459D01*
X324775953Y-79573187D01*
X324681890Y-79552274D01*
X324452000Y-79673595D01*
X324198000Y-79673595D01*
X323968110Y-79552274D01*
X323874047Y-79573187D01*
X323605574Y-79688459D01*
X323364748Y-79853893D01*
X323160824Y-80063131D01*
X323001639Y-80308132D01*
X322893310Y-80579481D01*
X322840000Y-80866750D01*
X318510000Y-80866750D01*
X318456690Y-80579481D01*
X318348361Y-80308132D01*
X318189176Y-80063131D01*
X317985252Y-79853893D01*
X317744426Y-79688459D01*
X317475953Y-79573187D01*
X317381890Y-79552274D01*
X317152000Y-79673595D01*
X316898000Y-79673595D01*
X316668110Y-79552274D01*
X316574047Y-79573187D01*
X316305574Y-79688459D01*
X316064748Y-79853893D01*
X315860824Y-80063131D01*
X315701639Y-80308132D01*
X315593310Y-80579481D01*
X315540000Y-80866750D01*
X315245750Y-80866750D01*
X315245750Y-77120750D01*
X315540000Y-77120750D01*
X315540000Y-77620750D01*
X315593310Y-77908019D01*
X315701639Y-78179368D01*
X315860824Y-78424369D01*
X316064748Y-78633607D01*
X316305574Y-78799041D01*
X316574047Y-78914313D01*
X316668110Y-78935226D01*
X316898000Y-78813905D01*
X316898000Y-77120750D01*
X317152000Y-77120750D01*
X317152000Y-78813905D01*
X317381890Y-78935226D01*
X317475953Y-78914313D01*
X317744426Y-78799041D01*
X317985252Y-78633607D01*
X318189176Y-78424369D01*
X318348361Y-78179368D01*
X318456690Y-77908019D01*
X318510000Y-77620750D01*
X318510000Y-77120750D01*
X322840000Y-77120750D01*
X322840000Y-77620750D01*
X322893310Y-77908019D01*
X323001639Y-78179368D01*
X323160824Y-78424369D01*
X323364748Y-78633607D01*
X323605574Y-78799041D01*
X323874047Y-78914313D01*
X323968110Y-78935226D01*
X324198000Y-78813905D01*
X324198000Y-77120750D01*
X324452000Y-77120750D01*
X324452000Y-78813905D01*
X324681890Y-78935226D01*
X324775953Y-78914313D01*
X325044426Y-78799041D01*
X325285252Y-78633607D01*
X325489176Y-78424369D01*
X325648361Y-78179368D01*
X325756690Y-77908019D01*
X325810000Y-77620750D01*
X325810000Y-77120750D01*
X324452000Y-77120750D01*
X324198000Y-77120750D01*
X322840000Y-77120750D01*
X318510000Y-77120750D01*
X317152000Y-77120750D01*
X316898000Y-77120750D01*
X315540000Y-77120750D01*
X315245750Y-77120750D01*
X315245750Y-75322500D01*
X316110447Y-75322500D01*
X316064748Y-75353893D01*
G37*
X316064748Y-75353893D02*
X315860824Y-75563131D01*
X315701639Y-75808132D01*
X315593310Y-76079481D01*
X315540000Y-76366750D01*
X315540000Y-76866750D01*
X316898000Y-76866750D01*
X316898000Y-76846750D01*
X317152000Y-76846750D01*
X317152000Y-76866750D01*
X318510000Y-76866750D01*
X318510000Y-76366750D01*
X318456690Y-76079481D01*
X318348361Y-75808132D01*
X318189176Y-75563131D01*
X317985252Y-75353893D01*
X317939553Y-75322500D01*
X323410447Y-75322500D01*
X323364748Y-75353893D01*
X323160824Y-75563131D01*
X323001639Y-75808132D01*
X322893310Y-76079481D01*
X322840000Y-76366750D01*
X322840000Y-76866750D01*
X324198000Y-76866750D01*
X324198000Y-76846750D01*
X324452000Y-76846750D01*
X324452000Y-76866750D01*
X325810000Y-76866750D01*
X325810000Y-76366750D01*
X325756690Y-76079481D01*
X325648361Y-75808132D01*
X325489176Y-75563131D01*
X325285252Y-75353893D01*
X325239553Y-75322500D01*
X326104250Y-75322500D01*
X326104250Y-83216750D01*
X325164219Y-83216750D01*
X325285252Y-83133607D01*
X325489176Y-82924369D01*
X325648361Y-82679368D01*
X325756690Y-82408019D01*
X325810000Y-82120750D01*
X325810000Y-81620750D01*
X324452000Y-81620750D01*
X324452000Y-81640750D01*
X324198000Y-81640750D01*
X324198000Y-81620750D01*
X322840000Y-81620750D01*
X322840000Y-82120750D01*
X322893310Y-82408019D01*
X323001639Y-82679368D01*
X323160824Y-82924369D01*
X323364748Y-83133607D01*
X323485781Y-83216750D01*
X317864219Y-83216750D01*
X317985252Y-83133607D01*
X318189176Y-82924369D01*
X318348361Y-82679368D01*
X318456690Y-82408019D01*
X318510000Y-82120750D01*
X318510000Y-81620750D01*
X317152000Y-81620750D01*
X317152000Y-81640750D01*
X316898000Y-81640750D01*
X316898000Y-81620750D01*
X315540000Y-81620750D01*
X315540000Y-82120750D01*
X315593310Y-82408019D01*
X315701639Y-82679368D01*
X315860824Y-82924369D01*
X316064748Y-83133607D01*
X316185781Y-83216750D01*
X315245750Y-83216750D01*
X315245750Y-80866750D01*
X315540000Y-80866750D01*
X315540000Y-81366750D01*
X316898000Y-81366750D01*
X316898000Y-79673595D01*
X317152000Y-79673595D01*
X317152000Y-81366750D01*
X318510000Y-81366750D01*
X318510000Y-80866750D01*
X322840000Y-80866750D01*
X322840000Y-81366750D01*
X324198000Y-81366750D01*
X324198000Y-79673595D01*
X324452000Y-79673595D01*
X324452000Y-81366750D01*
X325810000Y-81366750D01*
X325810000Y-80866750D01*
X325756690Y-80579481D01*
X325648361Y-80308132D01*
X325489176Y-80063131D01*
X325285252Y-79853893D01*
X325044426Y-79688459D01*
X324775953Y-79573187D01*
X324681890Y-79552274D01*
X324452000Y-79673595D01*
X324198000Y-79673595D01*
X323968110Y-79552274D01*
X323874047Y-79573187D01*
X323605574Y-79688459D01*
X323364748Y-79853893D01*
X323160824Y-80063131D01*
X323001639Y-80308132D01*
X322893310Y-80579481D01*
X322840000Y-80866750D01*
X318510000Y-80866750D01*
X318456690Y-80579481D01*
X318348361Y-80308132D01*
X318189176Y-80063131D01*
X317985252Y-79853893D01*
X317744426Y-79688459D01*
X317475953Y-79573187D01*
X317381890Y-79552274D01*
X317152000Y-79673595D01*
X316898000Y-79673595D01*
X316668110Y-79552274D01*
X316574047Y-79573187D01*
X316305574Y-79688459D01*
X316064748Y-79853893D01*
X315860824Y-80063131D01*
X315701639Y-80308132D01*
X315593310Y-80579481D01*
X315540000Y-80866750D01*
X315245750Y-80866750D01*
X315245750Y-77120750D01*
X315540000Y-77120750D01*
X315540000Y-77620750D01*
X315593310Y-77908019D01*
X315701639Y-78179368D01*
X315860824Y-78424369D01*
X316064748Y-78633607D01*
X316305574Y-78799041D01*
X316574047Y-78914313D01*
X316668110Y-78935226D01*
X316898000Y-78813905D01*
X316898000Y-77120750D01*
X317152000Y-77120750D01*
X317152000Y-78813905D01*
X317381890Y-78935226D01*
X317475953Y-78914313D01*
X317744426Y-78799041D01*
X317985252Y-78633607D01*
X318189176Y-78424369D01*
X318348361Y-78179368D01*
X318456690Y-77908019D01*
X318510000Y-77620750D01*
X318510000Y-77120750D01*
X322840000Y-77120750D01*
X322840000Y-77620750D01*
X322893310Y-77908019D01*
X323001639Y-78179368D01*
X323160824Y-78424369D01*
X323364748Y-78633607D01*
X323605574Y-78799041D01*
X323874047Y-78914313D01*
X323968110Y-78935226D01*
X324198000Y-78813905D01*
X324198000Y-77120750D01*
X324452000Y-77120750D01*
X324452000Y-78813905D01*
X324681890Y-78935226D01*
X324775953Y-78914313D01*
X325044426Y-78799041D01*
X325285252Y-78633607D01*
X325489176Y-78424369D01*
X325648361Y-78179368D01*
X325756690Y-77908019D01*
X325810000Y-77620750D01*
X325810000Y-77120750D01*
X324452000Y-77120750D01*
X324198000Y-77120750D01*
X322840000Y-77120750D01*
X318510000Y-77120750D01*
X317152000Y-77120750D01*
X316898000Y-77120750D01*
X315540000Y-77120750D01*
X315245750Y-77120750D01*
X315245750Y-75322500D01*
X316110447Y-75322500D01*
X316064748Y-75353893D01*
M02*
