M48
; DRILL file {KiCad (5.1.6)-1} date 07/22/20 19:14:52
; FORMAT={-:-/ absolute / inch / decimal}
; #@! TF.CreationDate,2020-07-22T19:14:52-04:00
; #@! TF.GenerationSoftware,Kicad,Pcbnew,(5.1.6)-1
; #@! TF.FileFunction,Plated,1,2,PTH
FMAT,2
INCH
T1C0.0157
T2C0.0276
T3C0.0394
T4C0.0579
T5C0.0591
%
G90
G05
T1
X12.4375Y-3.5938
X12.4375Y-3.75
X12.4375Y-3.8625
X12.4375Y-3.9375
X12.4375Y-4.0
X12.4375Y-4.0625
X12.5Y-3.8125
X12.675Y-6.55
X12.725Y-6.55
X12.7381Y-5.9494
X12.75Y-5.6562
X12.775Y-3.75
X12.775Y-6.55
X12.7812Y-3.5938
X12.825Y-4.5938
X12.825Y-6.55
X12.875Y-4.5938
X12.875Y-5.2812
X12.875Y-6.55
X12.925Y-4.5938
X12.925Y-6.55
X12.975Y-4.5938
X13.025Y-4.5938
X13.225Y-5.25
X13.2812Y-5.3438
X13.325Y-5.375
X13.3438Y-6.0312
X13.35Y-5.425
X13.5Y-4.975
X13.55Y-5.55
T3
X13.7188Y-4.875
X13.7188Y-4.9734
X13.7188Y-5.0719
X14.2896Y-4.875
X14.2896Y-5.0719
T4
X5.8505Y-4.3247
X6.1005Y-4.2248
X8.2875Y-6.575
X8.5375Y-6.475
X2.6Y-3.2125
X2.85Y-3.1125
X11.1Y-3.2125
X11.35Y-3.1125
X8.35Y-3.2125
X8.6Y-3.1125
X13.1Y-7.325
X13.35Y-7.225
X4.725Y-5.075
X4.975Y-4.975
X4.5375Y-6.575
X4.7875Y-6.475
X1.4437Y-7.325
X1.6937Y-7.225
X3.225Y-5.075
X3.475Y-4.975
X10.3505Y-4.3247
X10.6005Y-4.2248
X7.3505Y-4.3247
X7.6005Y-4.2248
X10.725Y-5.075
X10.975Y-4.975
X2.6625Y-5.825
X2.9125Y-5.725
X9.225Y-5.075
X9.475Y-4.975
X13.1Y-3.2125
X13.35Y-3.1125
X7.1625Y-5.825
X7.4125Y-5.725
X1.6312Y-5.825
X1.8812Y-5.725
X11.3812Y-5.825
X11.6312Y-5.725
X1.5375Y-5.075
X1.7875Y-4.975
X3.325Y-7.325
X3.575Y-7.225
X8.8505Y-4.3247
X9.1005Y-4.2248
X4.1Y-3.2125
X4.35Y-3.1125
X6.85Y-3.2125
X7.1Y-3.1125
X7.5375Y-6.575
X7.7875Y-6.475
X7.725Y-5.075
X7.975Y-4.975
X14.6Y-7.325
X14.85Y-7.225
X6.7875Y-6.575
X7.0375Y-6.475
X11.475Y-4.325
X11.725Y-4.225
X7.6Y-3.2125
X7.85Y-3.1125
X11.1937Y-6.575
X11.4437Y-6.475
X3.6005Y-4.3247
X3.8505Y-4.2248
X2.1Y-4.325
X2.35Y-4.225
X13.85Y-7.325
X14.1Y-7.225
X3.975Y-5.075
X4.225Y-4.975
X11.85Y-3.2125
X12.1Y-3.1125
X7.9125Y-5.825
X8.1625Y-5.725
X8.475Y-5.075
X8.725Y-4.975
X6.1Y-3.2125
X6.35Y-3.1125
X1.8187Y-6.575
X2.0688Y-6.475
X6.975Y-5.075
X7.225Y-4.975
X10.8187Y-7.325
X11.0687Y-7.225
X4.9125Y-5.825
X5.1625Y-5.725
X8.9437Y-7.325
X9.1937Y-7.225
X2.8505Y-4.3247
X3.1005Y-4.2248
X9.0375Y-6.575
X9.2875Y-6.475
X9.4125Y-5.825
X9.6625Y-5.725
X6.0375Y-6.575
X6.2875Y-6.475
X4.85Y-3.2125
X5.1Y-3.1125
X5.664Y-5.826
X5.914Y-5.726
X8.6625Y-5.825
X8.9125Y-5.725
X2.475Y-5.075
X2.725Y-4.975
X10.35Y-3.2125
X10.6Y-3.1125
X6.1312Y-7.325
X6.3812Y-7.225
X1.35Y-4.325
X1.6Y-4.225
X2.3813Y-7.325
X2.6313Y-7.225
X3.7875Y-6.575
X4.0375Y-6.475
X11.7562Y-7.325
X12.0062Y-7.225
X4.3505Y-4.3247
X4.6005Y-4.2248
X9.6005Y-4.3247
X9.8505Y-4.2248
X3.35Y-3.2125
X3.6Y-3.1125
X9.6Y-3.2125
X9.85Y-3.1125
X10.1625Y-5.825
X10.4125Y-5.725
X14.6Y-3.2125
X14.85Y-3.1125
X13.85Y-3.2125
X14.1Y-3.1125
X9.975Y-5.075
X10.225Y-4.975
X8.1005Y-4.3247
X8.3505Y-4.2248
X13.85Y-6.575
X14.1Y-6.475
X11.6625Y-5.075
X11.9125Y-4.975
X9.8812Y-7.325
X10.1312Y-7.225
X5.1005Y-4.3247
X5.3505Y-4.2248
X6.6005Y-4.3247
X6.8505Y-4.2248
X4.1625Y-5.825
X4.4125Y-5.725
X1.35Y-3.2125
X1.6Y-3.1125
X9.7875Y-6.575
X10.0375Y-6.475
X6.4125Y-5.825
X6.6625Y-5.725
X5.475Y-5.075
X5.725Y-4.975
X6.225Y-5.075
X6.475Y-4.975
X5.2875Y-6.575
X5.5375Y-6.475
X3.0375Y-6.5775
X3.2875Y-6.4775
X3.4125Y-5.825
X3.6625Y-5.725
T2
G00X12.4813Y-3.0076
M15
G01X12.4813Y-3.0549
M16
G05
G00X12.4813Y-3.1848
M15
G01X12.4813Y-3.232
M16
G05
G00X12.7687Y-3.0076
M15
G01X12.7687Y-3.0549
M16
G05
G00X12.7687Y-3.1848
M15
G01X12.7687Y-3.232
M16
G05
T5
G00X13.9884Y-4.753
M15
G01X14.0396Y-4.753
M16
G05
G00X13.9884Y-5.1939
M15
G01X14.0396Y-5.1939
M16
G05
T0
M30
