M48
; DRILL file {KiCad (5.1.6)-1} date 07/22/20 19:14:52
; FORMAT={-:-/ absolute / inch / decimal}
; #@! TF.CreationDate,2020-07-22T19:14:52-04:00
; #@! TF.GenerationSoftware,Kicad,Pcbnew,(5.1.6)-1
; #@! TF.FileFunction,NonPlated,1,2,NPTH
FMAT,2
INCH
T1C0.0689
T2C0.1200
T3C0.1570
%
G90
G05
T1
X5.2375Y-6.675
X5.6375Y-6.675
X2.9875Y-6.6775
X3.3875Y-6.6775
X3.3625Y-5.925
X3.7625Y-5.925
X5.8005Y-4.4247
X6.2005Y-4.4247
X8.2375Y-6.675
X8.6375Y-6.675
X2.55Y-3.3125
X2.95Y-3.3125
X11.05Y-3.3125
X11.45Y-3.3125
X8.3Y-3.3125
X8.7Y-3.3125
X13.05Y-7.425
X13.45Y-7.425
X4.675Y-5.175
X5.075Y-5.175
X4.4875Y-6.675
X4.8875Y-6.675
X1.3938Y-7.425
X1.7937Y-7.425
X3.175Y-5.175
X3.575Y-5.175
X10.3005Y-4.4247
X10.7005Y-4.4247
X7.3005Y-4.4247
X7.7005Y-4.4247
X10.675Y-5.175
X11.075Y-5.175
X2.6125Y-5.925
X3.0125Y-5.925
X9.175Y-5.175
X9.575Y-5.175
X13.05Y-3.3125
X13.45Y-3.3125
X7.1125Y-5.925
X7.5125Y-5.925
X1.5813Y-5.925
X1.9812Y-5.925
X11.3312Y-5.925
X11.7312Y-5.925
X1.4875Y-5.175
X1.8875Y-5.175
X3.275Y-7.425
X3.675Y-7.425
X8.8005Y-4.4247
X9.2005Y-4.4247
X4.05Y-3.3125
X4.45Y-3.3125
X6.8Y-3.3125
X7.2Y-3.3125
X7.4875Y-6.675
X7.8875Y-6.675
X7.675Y-5.175
X8.075Y-5.175
X14.55Y-7.425
X14.95Y-7.425
X6.7375Y-6.675
X7.1375Y-6.675
X11.425Y-4.425
X11.825Y-4.425
X7.55Y-3.3125
X7.95Y-3.3125
X11.1437Y-6.675
X11.5437Y-6.675
X3.5505Y-4.4247
X3.9505Y-4.4247
X2.05Y-4.425
X2.45Y-4.425
X13.8Y-7.425
X14.2Y-7.425
X3.925Y-5.175
X4.325Y-5.175
X11.8Y-3.3125
X12.2Y-3.3125
X7.8625Y-5.925
X8.2625Y-5.925
X8.425Y-5.175
X8.825Y-5.175
X6.05Y-3.3125
X6.45Y-3.3125
X1.7688Y-6.675
X2.1687Y-6.675
X6.925Y-5.175
X7.325Y-5.175
X10.7687Y-7.425
X11.1687Y-7.425
X4.8625Y-5.925
X5.2625Y-5.925
X8.8937Y-7.425
X9.2937Y-7.425
X2.8005Y-4.4247
X3.2005Y-4.4247
X8.9875Y-6.675
X9.3875Y-6.675
X9.3625Y-5.925
X9.7625Y-5.925
X5.9875Y-6.675
X6.3875Y-6.675
X4.8Y-3.3125
X5.2Y-3.3125
X5.614Y-5.926
X6.014Y-5.926
X8.6125Y-5.925
X9.0125Y-5.925
X2.425Y-5.175
X2.825Y-5.175
X10.3Y-3.3125
X10.7Y-3.3125
X6.0812Y-7.425
X6.4813Y-7.425
X1.3Y-4.425
X1.7Y-4.425
X2.3312Y-7.425
X2.7312Y-7.425
X3.7375Y-6.675
X4.1375Y-6.675
X11.7062Y-7.425
X12.1062Y-7.425
X4.3005Y-4.4247
X4.7005Y-4.4247
X9.5505Y-4.4247
X9.9505Y-4.4247
X3.3Y-3.3125
X3.7Y-3.3125
X9.55Y-3.3125
X9.95Y-3.3125
X10.1125Y-5.925
X10.5125Y-5.925
X14.55Y-3.3125
X14.95Y-3.3125
X13.8Y-3.3125
X14.2Y-3.3125
X9.925Y-5.175
X10.325Y-5.175
X8.0505Y-4.4247
X8.4505Y-4.4247
X13.8Y-6.675
X14.2Y-6.675
X11.6125Y-5.175
X12.0125Y-5.175
X9.8312Y-7.425
X10.2312Y-7.425
X5.0505Y-4.4247
X5.4505Y-4.4247
X6.5505Y-4.4247
X6.9505Y-4.4247
X4.1125Y-5.925
X4.5125Y-5.925
X1.3Y-3.3125
X1.7Y-3.3125
X9.7375Y-6.675
X10.1375Y-6.675
X6.3625Y-5.925
X6.7625Y-5.925
X5.425Y-5.175
X5.825Y-5.175
X6.175Y-5.175
X6.575Y-5.175
T2
X11.0625Y-5.65
X12.0Y-5.65
X11.1562Y-4.15
X12.0938Y-4.15
X10.875Y-6.4
X11.8125Y-6.4
X1.5Y-6.4
X2.4375Y-6.4
X4.3128Y-7.7
X8.2498Y-7.7
T3
X4.5005Y-4.4247
X9.7505Y-4.4247
X3.5Y-3.3125
X9.75Y-3.3125
X10.3125Y-5.925
X14.75Y-3.3125
X14.0Y-3.3125
X10.125Y-5.175
X8.2505Y-4.4247
X14.0Y-6.675
X11.8125Y-5.175
X10.0312Y-7.425
X5.2505Y-4.4247
X6.7505Y-4.4247
X4.3125Y-5.925
X1.5Y-3.3125
X9.9375Y-6.675
X6.5625Y-5.925
X5.625Y-5.175
X6.375Y-5.175
X5.4375Y-6.675
X3.1875Y-6.6775
X3.5625Y-5.925
X6.0005Y-4.4247
X8.4375Y-6.675
X2.75Y-3.3125
X11.25Y-3.3125
X8.5Y-3.3125
X13.25Y-7.425
X4.875Y-5.175
X4.6875Y-6.675
X1.5938Y-7.425
X3.375Y-5.175
X10.5005Y-4.4247
X7.5005Y-4.4247
X10.875Y-5.175
X2.8125Y-5.925
X9.375Y-5.175
X13.25Y-3.3125
X7.3125Y-5.925
X1.7812Y-5.925
X11.0625Y-6.25
X11.5312Y-5.925
X12.0Y-6.25
X1.6875Y-5.175
X3.475Y-7.425
X9.0005Y-4.4247
X4.25Y-3.3125
X7.0Y-3.3125
X7.6875Y-6.675
X7.875Y-5.175
X14.75Y-7.425
X6.9375Y-6.675
X11.1562Y-4.75
X11.625Y-4.425
X12.0938Y-4.75
X7.75Y-3.3125
X10.875Y-7.0
X11.3438Y-6.675
X11.8125Y-7.0
X3.7505Y-4.4247
X2.25Y-4.425
X14.0Y-7.425
X4.125Y-5.175
X12.0Y-3.3125
X8.0625Y-5.925
X8.625Y-5.175
X6.25Y-3.3125
X1.5Y-7.0
X1.9688Y-6.675
X2.4375Y-7.0
X7.125Y-5.175
X10.9688Y-7.425
X5.0625Y-5.925
X9.0938Y-7.425
X3.0005Y-4.4247
X9.1875Y-6.675
X9.5625Y-5.925
X6.1875Y-6.675
X5.0Y-3.3125
X5.814Y-5.926
X8.8125Y-5.925
X2.625Y-5.175
X10.5Y-3.3125
X4.3128Y-7.1
X6.2812Y-7.425
X8.2498Y-7.1
X1.5Y-4.425
X2.5312Y-7.425
X3.9375Y-6.675
X11.9062Y-7.425
T0
M30
