G04 #@! TF.GenerationSoftware,KiCad,Pcbnew,(5.1.6)-1*
G04 #@! TF.CreationDate,2020-07-22T19:14:50-04:00*
G04 #@! TF.ProjectId,Edgedancer81,45646765-6461-46e6-9365-7238312e6b69,rev?*
G04 #@! TF.SameCoordinates,Original*
G04 #@! TF.FileFunction,Soldermask,Bot*
G04 #@! TF.FilePolarity,Negative*
%FSLAX46Y46*%
G04 Gerber Fmt 4.6, Leading zero omitted, Abs format (unit mm)*
G04 Created by KiCad (PCBNEW (5.1.6)-1) date 2020-07-22 19:14:50*
%MOMM*%
%LPD*%
G01*
G04 APERTURE LIST*
%ADD10C,2.350000*%
%ADD11C,4.087800*%
%ADD12C,1.850000*%
%ADD13C,3.148000*%
%ADD14O,1.800000X2.800000*%
%ADD15R,0.600000X2.350000*%
%ADD16R,1.200000X1.900000*%
%ADD17R,1.500000X1.300000*%
%ADD18R,0.650000X1.600000*%
%ADD19R,1.600000X0.650000*%
%ADD20R,2.100000X2.100000*%
%ADD21C,2.100000*%
%ADD22R,3.300000X2.100000*%
%ADD23R,1.300000X1.000000*%
G04 APERTURE END LIST*
D10*
X97802700Y-107308650D03*
D11*
X95262700Y-112388650D03*
D10*
X91452700Y-109848650D03*
D12*
X90182700Y-112388650D03*
X100342700Y-112388650D03*
D10*
X297815000Y-107315000D03*
D11*
X295275000Y-112395000D03*
D10*
X291465000Y-109855000D03*
D12*
X290195000Y-112395000D03*
X300355000Y-112395000D03*
D13*
X283368750Y-105410000D03*
X307181250Y-105410000D03*
D11*
X283368750Y-120650000D03*
X307181250Y-120650000D03*
D10*
X93027500Y-145415000D03*
D11*
X90487500Y-150495000D03*
D10*
X86677500Y-147955000D03*
D12*
X85407500Y-150495000D03*
X95567500Y-150495000D03*
D10*
X212102700Y-107308650D03*
D11*
X209562700Y-112388650D03*
D10*
X205752700Y-109848650D03*
D12*
X204482700Y-112388650D03*
X214642700Y-112388650D03*
D10*
X290671250Y-164465000D03*
D11*
X288131250Y-169545000D03*
D10*
X284321250Y-167005000D03*
D12*
X283051250Y-169545000D03*
X293211250Y-169545000D03*
D13*
X276225000Y-162560000D03*
X300037500Y-162560000D03*
D11*
X276225000Y-177800000D03*
X300037500Y-177800000D03*
D10*
X162083750Y-183515000D03*
D11*
X159543750Y-188595000D03*
D10*
X155733750Y-186055000D03*
D12*
X154463750Y-188595000D03*
X164623750Y-188595000D03*
D13*
X109543850Y-195580000D03*
X209543650Y-195580000D03*
D11*
X109543850Y-180340000D03*
X209543650Y-180340000D03*
D10*
X304958750Y-183515000D03*
D11*
X302418750Y-188595000D03*
D10*
X298608750Y-186055000D03*
D12*
X297338750Y-188595000D03*
X307498750Y-188595000D03*
D10*
X43021250Y-183515000D03*
D11*
X40481250Y-188595000D03*
D10*
X36671250Y-186055000D03*
D12*
X35401250Y-188595000D03*
X45561250Y-188595000D03*
D10*
X66833750Y-183515000D03*
D11*
X64293750Y-188595000D03*
D10*
X60483750Y-186055000D03*
D12*
X59213750Y-188595000D03*
X69373750Y-188595000D03*
D10*
X90805000Y-183515000D03*
D11*
X88265000Y-188595000D03*
D10*
X84455000Y-186055000D03*
D12*
X83185000Y-188595000D03*
X93345000Y-188595000D03*
D10*
X233521250Y-183515000D03*
D11*
X230981250Y-188595000D03*
D10*
X227171250Y-186055000D03*
D12*
X225901250Y-188595000D03*
X236061250Y-188595000D03*
D10*
X257333750Y-183515000D03*
D11*
X254793750Y-188595000D03*
D10*
X250983750Y-186055000D03*
D12*
X249713750Y-188595000D03*
X259873750Y-188595000D03*
D10*
X281146250Y-183515000D03*
D11*
X278606250Y-188595000D03*
D10*
X274796250Y-186055000D03*
D12*
X273526250Y-188595000D03*
X283686250Y-188595000D03*
D10*
X295433750Y-145415000D03*
D11*
X292893750Y-150495000D03*
D10*
X289083750Y-147955000D03*
D12*
X287813750Y-150495000D03*
X297973750Y-150495000D03*
D13*
X280987500Y-143510000D03*
X304800000Y-143510000D03*
D11*
X280987500Y-158750000D03*
X304800000Y-158750000D03*
D10*
X52546250Y-164465000D03*
D11*
X50006250Y-169545000D03*
D10*
X46196250Y-167005000D03*
D12*
X44926250Y-169545000D03*
X55086250Y-169545000D03*
D13*
X38100000Y-162560000D03*
X61912500Y-162560000D03*
D11*
X38100000Y-177800000D03*
X61912500Y-177800000D03*
D10*
X47783750Y-145415000D03*
D11*
X45243750Y-150495000D03*
D10*
X41433750Y-147955000D03*
D12*
X40163750Y-150495000D03*
X50323750Y-150495000D03*
D10*
X45402500Y-126365000D03*
D11*
X42862500Y-131445000D03*
D10*
X39052500Y-128905000D03*
D12*
X37782500Y-131445000D03*
X47942500Y-131445000D03*
D10*
X302577500Y-126365000D03*
D11*
X300037500Y-131445000D03*
D10*
X296227500Y-128905000D03*
D12*
X294957500Y-131445000D03*
X305117500Y-131445000D03*
D10*
X259715000Y-126365000D03*
D11*
X257175000Y-131445000D03*
D10*
X253365000Y-128905000D03*
D12*
X252095000Y-131445000D03*
X262255000Y-131445000D03*
D10*
X178752500Y-164465000D03*
D11*
X176212500Y-169545000D03*
D10*
X172402500Y-167005000D03*
D12*
X171132500Y-169545000D03*
X181292500Y-169545000D03*
D10*
X131127500Y-145415000D03*
D11*
X128587500Y-150495000D03*
D10*
X124777500Y-147955000D03*
D12*
X123507500Y-150495000D03*
X133667500Y-150495000D03*
D10*
X269240000Y-79057500D03*
D11*
X266700000Y-84137500D03*
D10*
X262890000Y-81597500D03*
D12*
X261620000Y-84137500D03*
X271780000Y-84137500D03*
D10*
X161290000Y-79057500D03*
D11*
X158750000Y-84137500D03*
D10*
X154940000Y-81597500D03*
D12*
X153670000Y-84137500D03*
X163830000Y-84137500D03*
D10*
X121602500Y-164465000D03*
D11*
X119062500Y-169545000D03*
D10*
X115252500Y-167005000D03*
D12*
X113982500Y-169545000D03*
X124142500Y-169545000D03*
D10*
X199390000Y-79057500D03*
D11*
X196850000Y-84137500D03*
D10*
X193040000Y-81597500D03*
D12*
X191770000Y-84137500D03*
X201930000Y-84137500D03*
D10*
X40640000Y-107315000D03*
D11*
X38100000Y-112395000D03*
D10*
X34290000Y-109855000D03*
D12*
X33020000Y-112395000D03*
X43180000Y-112395000D03*
D10*
X83502500Y-164528500D03*
D11*
X80962500Y-169608500D03*
D10*
X77152500Y-167068500D03*
D12*
X75882500Y-169608500D03*
X86042500Y-169608500D03*
D10*
X164465000Y-126365000D03*
D11*
X161925000Y-131445000D03*
D10*
X158115000Y-128905000D03*
D12*
X156845000Y-131445000D03*
X167005000Y-131445000D03*
D10*
X102552500Y-164465000D03*
D11*
X100012500Y-169545000D03*
D10*
X96202500Y-167005000D03*
D12*
X94932500Y-169545000D03*
X105092500Y-169545000D03*
D10*
X88265000Y-126365000D03*
D11*
X85725000Y-131445000D03*
D10*
X81915000Y-128905000D03*
D12*
X80645000Y-131445000D03*
X90805000Y-131445000D03*
D10*
X140652500Y-164465000D03*
D11*
X138112500Y-169545000D03*
D10*
X134302500Y-167005000D03*
D12*
X133032500Y-169545000D03*
X143192500Y-169545000D03*
D10*
X358140000Y-164465000D03*
D11*
X355600000Y-169545000D03*
D10*
X351790000Y-167005000D03*
D12*
X350520000Y-169545000D03*
X360680000Y-169545000D03*
D10*
X183515000Y-126365000D03*
D11*
X180975000Y-131445000D03*
D10*
X177165000Y-128905000D03*
D12*
X175895000Y-131445000D03*
X186055000Y-131445000D03*
D10*
X145415000Y-126365000D03*
D11*
X142875000Y-131445000D03*
D10*
X139065000Y-128905000D03*
D12*
X137795000Y-131445000D03*
X147955000Y-131445000D03*
D10*
X377190000Y-183515000D03*
D11*
X374650000Y-188595000D03*
D10*
X370840000Y-186055000D03*
D12*
X369570000Y-188595000D03*
X379730000Y-188595000D03*
D10*
X126365000Y-126365000D03*
D11*
X123825000Y-131445000D03*
D10*
X120015000Y-128905000D03*
D12*
X118745000Y-131445000D03*
X128905000Y-131445000D03*
D10*
X69215000Y-126365000D03*
D11*
X66675000Y-131445000D03*
D10*
X62865000Y-128905000D03*
D12*
X61595000Y-131445000D03*
X71755000Y-131445000D03*
D10*
X339090000Y-79057500D03*
D11*
X336550000Y-84137500D03*
D10*
X332740000Y-81597500D03*
D12*
X331470000Y-84137500D03*
X341630000Y-84137500D03*
D10*
X358140000Y-79057500D03*
D11*
X355600000Y-84137500D03*
D10*
X351790000Y-81597500D03*
D12*
X350520000Y-84137500D03*
X360680000Y-84137500D03*
D10*
X240665000Y-126365000D03*
D11*
X238125000Y-131445000D03*
D10*
X234315000Y-128905000D03*
D12*
X233045000Y-131445000D03*
X243205000Y-131445000D03*
D10*
X221615000Y-126365000D03*
D11*
X219075000Y-131445000D03*
D10*
X215265000Y-128905000D03*
D12*
X213995000Y-131445000D03*
X224155000Y-131445000D03*
D10*
X377190000Y-79057500D03*
D11*
X374650000Y-84137500D03*
D10*
X370840000Y-81597500D03*
D12*
X369570000Y-84137500D03*
X379730000Y-84137500D03*
D10*
X197802500Y-164465000D03*
D11*
X195262500Y-169545000D03*
D10*
X191452500Y-167005000D03*
D12*
X190182500Y-169545000D03*
X200342500Y-169545000D03*
D10*
X339090000Y-183515000D03*
D11*
X336550000Y-188595000D03*
D10*
X332740000Y-186055000D03*
D12*
X331470000Y-188595000D03*
X341630000Y-188595000D03*
D10*
X226377500Y-145415000D03*
D11*
X223837500Y-150495000D03*
D10*
X220027500Y-147955000D03*
D12*
X218757500Y-150495000D03*
X228917500Y-150495000D03*
D10*
X207327500Y-145415000D03*
D11*
X204787500Y-150495000D03*
D10*
X200977500Y-147955000D03*
D12*
X199707500Y-150495000D03*
X209867500Y-150495000D03*
D10*
X188277500Y-145415000D03*
D11*
X185737500Y-150495000D03*
D10*
X181927500Y-147955000D03*
D12*
X180657500Y-150495000D03*
X190817500Y-150495000D03*
D10*
X202565000Y-126365000D03*
D11*
X200025000Y-131445000D03*
D10*
X196215000Y-128905000D03*
D12*
X194945000Y-131445000D03*
X205105000Y-131445000D03*
D10*
X169227500Y-145415000D03*
D11*
X166687500Y-150495000D03*
D10*
X162877500Y-147955000D03*
D12*
X161607500Y-150495000D03*
X171767500Y-150495000D03*
D10*
X150215600Y-145440400D03*
D11*
X147675600Y-150520400D03*
D10*
X143865600Y-147980400D03*
D12*
X142595600Y-150520400D03*
X152755600Y-150520400D03*
D10*
X307340000Y-79057500D03*
D11*
X304800000Y-84137500D03*
D10*
X300990000Y-81597500D03*
D12*
X299720000Y-84137500D03*
X309880000Y-84137500D03*
D10*
X288290000Y-79057500D03*
D11*
X285750000Y-84137500D03*
D10*
X281940000Y-81597500D03*
D12*
X280670000Y-84137500D03*
X290830000Y-84137500D03*
D10*
X250190000Y-79057500D03*
D11*
X247650000Y-84137500D03*
D10*
X243840000Y-81597500D03*
D12*
X242570000Y-84137500D03*
X252730000Y-84137500D03*
D10*
X218440000Y-79057500D03*
D11*
X215900000Y-84137500D03*
D10*
X212090000Y-81597500D03*
D12*
X210820000Y-84137500D03*
X220980000Y-84137500D03*
D10*
X180340000Y-79057500D03*
D11*
X177800000Y-84137500D03*
D10*
X173990000Y-81597500D03*
D12*
X172720000Y-84137500D03*
X182880000Y-84137500D03*
D10*
X129540000Y-79057500D03*
D11*
X127000000Y-84137500D03*
D10*
X123190000Y-81597500D03*
D12*
X121920000Y-84137500D03*
X132080000Y-84137500D03*
D10*
X110490000Y-79057500D03*
D11*
X107950000Y-84137500D03*
D10*
X104140000Y-81597500D03*
D12*
X102870000Y-84137500D03*
X113030000Y-84137500D03*
D10*
X91440000Y-79057500D03*
D11*
X88900000Y-84137500D03*
D10*
X85090000Y-81597500D03*
D12*
X83820000Y-84137500D03*
X93980000Y-84137500D03*
D10*
X72390000Y-79057500D03*
D11*
X69850000Y-84137500D03*
D10*
X66040000Y-81597500D03*
D12*
X64770000Y-84137500D03*
X74930000Y-84137500D03*
D10*
X40640000Y-79057500D03*
D11*
X38100000Y-84137500D03*
D10*
X34290000Y-81597500D03*
D12*
X33020000Y-84137500D03*
X43180000Y-84137500D03*
D10*
X107315000Y-126365000D03*
D11*
X104775000Y-131445000D03*
D10*
X100965000Y-128905000D03*
D12*
X99695000Y-131445000D03*
X109855000Y-131445000D03*
D10*
X358140000Y-183515000D03*
D11*
X355600000Y-188595000D03*
D10*
X351790000Y-186055000D03*
D12*
X350520000Y-188595000D03*
X360680000Y-188595000D03*
D10*
X112077500Y-145415000D03*
D11*
X109537500Y-150495000D03*
D10*
X105727500Y-147955000D03*
D12*
X104457500Y-150495000D03*
X114617500Y-150495000D03*
D10*
X159702500Y-164465000D03*
D11*
X157162500Y-169545000D03*
D10*
X153352500Y-167005000D03*
D12*
X152082500Y-169545000D03*
X162242500Y-169545000D03*
D10*
X73977500Y-145415000D03*
D11*
X71437500Y-150495000D03*
D10*
X67627500Y-147955000D03*
D12*
X66357500Y-150495000D03*
X76517500Y-150495000D03*
D10*
X278765000Y-126365000D03*
D11*
X276225000Y-131445000D03*
D10*
X272415000Y-128905000D03*
D12*
X271145000Y-131445000D03*
X281305000Y-131445000D03*
D10*
X245427500Y-145415000D03*
D11*
X242887500Y-150495000D03*
D10*
X239077500Y-147955000D03*
D12*
X237807500Y-150495000D03*
X247967500Y-150495000D03*
D10*
X254952500Y-164465000D03*
D11*
X252412500Y-169545000D03*
D10*
X248602500Y-167005000D03*
D12*
X247332500Y-169545000D03*
X257492500Y-169545000D03*
D10*
X264477500Y-145415000D03*
D11*
X261937500Y-150495000D03*
D10*
X258127500Y-147955000D03*
D12*
X256857500Y-150495000D03*
X267017500Y-150495000D03*
D10*
X235902500Y-164465000D03*
D11*
X233362500Y-169545000D03*
D10*
X229552500Y-167005000D03*
D12*
X228282500Y-169545000D03*
X238442500Y-169545000D03*
D10*
X216852500Y-164465000D03*
D11*
X214312500Y-169545000D03*
D10*
X210502500Y-167005000D03*
D12*
X209232500Y-169545000D03*
X219392500Y-169545000D03*
D10*
X269252700Y-107308650D03*
D11*
X266712700Y-112388650D03*
D10*
X262902700Y-109848650D03*
D12*
X261632700Y-112388650D03*
X271792700Y-112388650D03*
D10*
X250202700Y-107308650D03*
D11*
X247662700Y-112388650D03*
D10*
X243852700Y-109848650D03*
D12*
X242582700Y-112388650D03*
X252742700Y-112388650D03*
D10*
X193052700Y-107308650D03*
D11*
X190512700Y-112388650D03*
D10*
X186702700Y-109848650D03*
D12*
X185432700Y-112388650D03*
X195592700Y-112388650D03*
D10*
X174002700Y-107308650D03*
D11*
X171462700Y-112388650D03*
D10*
X167652700Y-109848650D03*
D12*
X166382700Y-112388650D03*
X176542700Y-112388650D03*
D10*
X154952700Y-107308650D03*
D11*
X152412700Y-112388650D03*
D10*
X148602700Y-109848650D03*
D12*
X147332700Y-112388650D03*
X157492700Y-112388650D03*
D10*
X135902700Y-107308650D03*
D11*
X133362700Y-112388650D03*
D10*
X129552700Y-109848650D03*
D12*
X128282700Y-112388650D03*
X138442700Y-112388650D03*
D10*
X116852700Y-107308650D03*
D11*
X114312700Y-112388650D03*
D10*
X110502700Y-109848650D03*
D12*
X109232700Y-112388650D03*
X119392700Y-112388650D03*
D10*
X78752700Y-107308650D03*
D11*
X76212700Y-112388650D03*
D10*
X72402700Y-109848650D03*
D12*
X71132700Y-112388650D03*
X81292700Y-112388650D03*
D10*
X59690000Y-107315000D03*
D11*
X57150000Y-112395000D03*
D10*
X53340000Y-109855000D03*
D12*
X52070000Y-112395000D03*
X62230000Y-112395000D03*
D10*
X231152700Y-107308650D03*
D11*
X228612700Y-112388650D03*
D10*
X224802700Y-109848650D03*
D12*
X223532700Y-112388650D03*
X233692700Y-112388650D03*
D14*
X317025000Y-76993750D03*
X324325000Y-76993750D03*
X324325000Y-81493750D03*
X317025000Y-81493750D03*
D15*
X319075000Y-81493750D03*
X319875000Y-81493750D03*
X320675000Y-81493750D03*
X321475000Y-81493750D03*
X322275000Y-81493750D03*
D16*
X333112500Y-122162500D03*
X336812500Y-115962500D03*
X336812500Y-122162500D03*
X333112500Y-115962500D03*
D17*
X333840000Y-128690000D03*
X331640000Y-128690000D03*
X331640000Y-130390000D03*
X333840000Y-130390000D03*
D18*
X328740000Y-151115000D03*
X329540000Y-151115000D03*
X330340000Y-151115000D03*
X331140000Y-151115000D03*
X331940000Y-151115000D03*
X332740000Y-151115000D03*
X333540000Y-151115000D03*
X334340000Y-151115000D03*
X335140000Y-151115000D03*
X335940000Y-151115000D03*
X336740000Y-151115000D03*
D19*
X338440000Y-149415000D03*
X338440000Y-148615000D03*
X338440000Y-147815000D03*
X338440000Y-147015000D03*
X338440000Y-146215000D03*
X338440000Y-145415000D03*
X338440000Y-144615000D03*
X338440000Y-143815000D03*
X338440000Y-143015000D03*
X338440000Y-142215000D03*
X338440000Y-141415000D03*
D18*
X336740000Y-139715000D03*
X335940000Y-139715000D03*
X335140000Y-139715000D03*
X334340000Y-139715000D03*
X333540000Y-139715000D03*
X332740000Y-139715000D03*
X331940000Y-139715000D03*
X331140000Y-139715000D03*
X330340000Y-139715000D03*
X329540000Y-139715000D03*
X328740000Y-139715000D03*
D19*
X327040000Y-141415000D03*
X327040000Y-142215000D03*
X327040000Y-143015000D03*
X327040000Y-143815000D03*
X327040000Y-144615000D03*
X327040000Y-145415000D03*
X327040000Y-146215000D03*
X327040000Y-147015000D03*
X327040000Y-147815000D03*
X327040000Y-148615000D03*
X327040000Y-149415000D03*
D20*
X348456250Y-123825000D03*
D21*
X348456250Y-126325000D03*
X348456250Y-128825000D03*
D22*
X355956250Y-120725000D03*
X355956250Y-131925000D03*
D21*
X362956250Y-123825000D03*
X362956250Y-128825000D03*
G36*
G01*
X342746250Y-150095000D02*
X341783750Y-150095000D01*
G75*
G02*
X341515000Y-149826250I0J268750D01*
G01*
X341515000Y-149288750D01*
G75*
G02*
X341783750Y-149020000I268750J0D01*
G01*
X342746250Y-149020000D01*
G75*
G02*
X343015000Y-149288750I0J-268750D01*
G01*
X343015000Y-149826250D01*
G75*
G02*
X342746250Y-150095000I-268750J0D01*
G01*
G37*
G36*
G01*
X342746250Y-151970000D02*
X341783750Y-151970000D01*
G75*
G02*
X341515000Y-151701250I0J268750D01*
G01*
X341515000Y-151163750D01*
G75*
G02*
X341783750Y-150895000I268750J0D01*
G01*
X342746250Y-150895000D01*
G75*
G02*
X343015000Y-151163750I0J-268750D01*
G01*
X343015000Y-151701250D01*
G75*
G02*
X342746250Y-151970000I-268750J0D01*
G01*
G37*
G36*
G01*
X324956250Y-134400000D02*
X325918750Y-134400000D01*
G75*
G02*
X326187500Y-134668750I0J-268750D01*
G01*
X326187500Y-135206250D01*
G75*
G02*
X325918750Y-135475000I-268750J0D01*
G01*
X324956250Y-135475000D01*
G75*
G02*
X324687500Y-135206250I0J268750D01*
G01*
X324687500Y-134668750D01*
G75*
G02*
X324956250Y-134400000I268750J0D01*
G01*
G37*
G36*
G01*
X324956250Y-132525000D02*
X325918750Y-132525000D01*
G75*
G02*
X326187500Y-132793750I0J-268750D01*
G01*
X326187500Y-133331250D01*
G75*
G02*
X325918750Y-133600000I-268750J0D01*
G01*
X324956250Y-133600000D01*
G75*
G02*
X324687500Y-133331250I0J268750D01*
G01*
X324687500Y-132793750D01*
G75*
G02*
X324956250Y-132525000I268750J0D01*
G01*
G37*
G36*
G01*
X320987500Y-118668750D02*
X321950000Y-118668750D01*
G75*
G02*
X322218750Y-118937500I0J-268750D01*
G01*
X322218750Y-119475000D01*
G75*
G02*
X321950000Y-119743750I-268750J0D01*
G01*
X320987500Y-119743750D01*
G75*
G02*
X320718750Y-119475000I0J268750D01*
G01*
X320718750Y-118937500D01*
G75*
G02*
X320987500Y-118668750I268750J0D01*
G01*
G37*
G36*
G01*
X320987500Y-116793750D02*
X321950000Y-116793750D01*
G75*
G02*
X322218750Y-117062500I0J-268750D01*
G01*
X322218750Y-117600000D01*
G75*
G02*
X321950000Y-117868750I-268750J0D01*
G01*
X320987500Y-117868750D01*
G75*
G02*
X320718750Y-117600000I0J268750D01*
G01*
X320718750Y-117062500D01*
G75*
G02*
X320987500Y-116793750I268750J0D01*
G01*
G37*
G36*
G01*
X318606250Y-118668750D02*
X319568750Y-118668750D01*
G75*
G02*
X319837500Y-118937500I0J-268750D01*
G01*
X319837500Y-119475000D01*
G75*
G02*
X319568750Y-119743750I-268750J0D01*
G01*
X318606250Y-119743750D01*
G75*
G02*
X318337500Y-119475000I0J268750D01*
G01*
X318337500Y-118937500D01*
G75*
G02*
X318606250Y-118668750I268750J0D01*
G01*
G37*
G36*
G01*
X318606250Y-116793750D02*
X319568750Y-116793750D01*
G75*
G02*
X319837500Y-117062500I0J-268750D01*
G01*
X319837500Y-117600000D01*
G75*
G02*
X319568750Y-117868750I-268750J0D01*
G01*
X318606250Y-117868750D01*
G75*
G02*
X318337500Y-117600000I0J268750D01*
G01*
X318337500Y-117062500D01*
G75*
G02*
X318606250Y-116793750I268750J0D01*
G01*
G37*
G36*
G01*
X318155000Y-110905000D02*
X316845000Y-110905000D01*
G75*
G02*
X316575000Y-110635000I0J270000D01*
G01*
X316575000Y-109825000D01*
G75*
G02*
X316845000Y-109555000I270000J0D01*
G01*
X318155000Y-109555000D01*
G75*
G02*
X318425000Y-109825000I0J-270000D01*
G01*
X318425000Y-110635000D01*
G75*
G02*
X318155000Y-110905000I-270000J0D01*
G01*
G37*
G36*
G01*
X318155000Y-113705000D02*
X316845000Y-113705000D01*
G75*
G02*
X316575000Y-113435000I0J270000D01*
G01*
X316575000Y-112625000D01*
G75*
G02*
X316845000Y-112355000I270000J0D01*
G01*
X318155000Y-112355000D01*
G75*
G02*
X318425000Y-112625000I0J-270000D01*
G01*
X318425000Y-113435000D01*
G75*
G02*
X318155000Y-113705000I-270000J0D01*
G01*
G37*
D23*
X378618750Y-181037500D03*
X378618750Y-177737500D03*
X382587500Y-83281250D03*
X382587500Y-86581250D03*
X363537500Y-186945000D03*
X363537500Y-190245000D03*
X363537500Y-168150000D03*
X363537500Y-171450000D03*
X363537500Y-82487500D03*
X363537500Y-85787500D03*
X344487500Y-186945000D03*
X344487500Y-190245000D03*
X344487500Y-82487500D03*
X344487500Y-85787500D03*
X307975000Y-129318750D03*
X307975000Y-132618750D03*
X304006250Y-110268750D03*
X304006250Y-113568750D03*
X306705000Y-148845000D03*
X306705000Y-152145000D03*
X284162500Y-129795000D03*
X284162500Y-133095000D03*
X274332700Y-110738650D03*
X274332700Y-114038650D03*
X311943750Y-82487500D03*
X311943750Y-85787500D03*
X310356250Y-186945000D03*
X310356250Y-190245000D03*
X296862500Y-167418750D03*
X296862500Y-170718750D03*
X269875000Y-148845000D03*
X269875000Y-152145000D03*
X265112500Y-129795000D03*
X265112500Y-133095000D03*
X255282700Y-110738650D03*
X255282700Y-114038650D03*
X293528750Y-82170000D03*
X293528750Y-85470000D03*
X286543750Y-187262500D03*
X286543750Y-190562500D03*
X259556250Y-167895000D03*
X259556250Y-171195000D03*
X250825000Y-148845000D03*
X250825000Y-152145000D03*
X246062500Y-129795000D03*
X246062500Y-133095000D03*
X236232700Y-110738650D03*
X236232700Y-114038650D03*
X274478750Y-82550000D03*
X274478750Y-85850000D03*
X262731250Y-186945000D03*
X262731250Y-190245000D03*
X240506250Y-167895000D03*
X240506250Y-171195000D03*
X231775000Y-148845000D03*
X231775000Y-152145000D03*
X227012500Y-129318750D03*
X227012500Y-132618750D03*
X217182700Y-110738650D03*
X217182700Y-114038650D03*
X255428750Y-82170000D03*
X255428750Y-85470000D03*
X238918750Y-186945000D03*
X238918750Y-190245000D03*
X221456250Y-168212500D03*
X221456250Y-171512500D03*
X212725000Y-148845000D03*
X212725000Y-152145000D03*
X207962500Y-129795000D03*
X207962500Y-133095000D03*
X198132700Y-110738650D03*
X198132700Y-114038650D03*
X223520000Y-82170000D03*
X223520000Y-85470000D03*
X203200000Y-167895000D03*
X203200000Y-171195000D03*
X193675000Y-148845000D03*
X193675000Y-152145000D03*
X188912500Y-130112500D03*
X188912500Y-133412500D03*
X179082700Y-110738650D03*
X179082700Y-114038650D03*
X204470000Y-82170000D03*
X204470000Y-85470000D03*
X184150000Y-167895000D03*
X184150000Y-171195000D03*
X174625000Y-148845000D03*
X174625000Y-152145000D03*
X169862500Y-130112500D03*
X169862500Y-133412500D03*
X160032700Y-110738650D03*
X160032700Y-114038650D03*
X185420000Y-82170000D03*
X185420000Y-85470000D03*
X167481250Y-186945000D03*
X167481250Y-190245000D03*
X165100000Y-167895000D03*
X165100000Y-171195000D03*
X155575000Y-148845000D03*
X155575000Y-152145000D03*
X150812500Y-129318750D03*
X150812500Y-132618750D03*
X140982700Y-110738650D03*
X140982700Y-114038650D03*
X166370000Y-82170000D03*
X166370000Y-85470000D03*
X146050000Y-167895000D03*
X146050000Y-171195000D03*
X136525000Y-148845000D03*
X136525000Y-152145000D03*
X131762500Y-129318750D03*
X131762500Y-132618750D03*
X121932700Y-110738650D03*
X121932700Y-114038650D03*
X134620000Y-82170000D03*
X134620000Y-85470000D03*
X126206250Y-167895000D03*
X126206250Y-171195000D03*
X117475000Y-148845000D03*
X117475000Y-152145000D03*
X112712500Y-129795000D03*
X112712500Y-133095000D03*
X102882700Y-110738650D03*
X102882700Y-114038650D03*
X115570000Y-82170000D03*
X115570000Y-85470000D03*
X96837500Y-186945000D03*
X96837500Y-190245000D03*
X107950000Y-168212500D03*
X107950000Y-171512500D03*
X98425000Y-149162500D03*
X98425000Y-152462500D03*
X93662500Y-129318750D03*
X93662500Y-132618750D03*
X83832700Y-110738650D03*
X83832700Y-114038650D03*
X96520000Y-82170000D03*
X96520000Y-85470000D03*
X73025000Y-186945000D03*
X73025000Y-190245000D03*
X88106250Y-168212500D03*
X88106250Y-171512500D03*
X79375000Y-148845000D03*
X79375000Y-152145000D03*
X74612500Y-129318750D03*
X74612500Y-132618750D03*
X65087500Y-111062500D03*
X65087500Y-114362500D03*
X77470000Y-82170000D03*
X77470000Y-85470000D03*
X49212500Y-186945000D03*
X49212500Y-190245000D03*
X59531250Y-167895000D03*
X59531250Y-171195000D03*
X56356250Y-148368750D03*
X56356250Y-151668750D03*
X53181250Y-129318750D03*
X53181250Y-132618750D03*
X46037500Y-110268750D03*
X46037500Y-113568750D03*
X46037500Y-82487500D03*
X46037500Y-85787500D03*
G36*
G01*
X321781250Y-144862500D02*
X322743750Y-144862500D01*
G75*
G02*
X323012500Y-145131250I0J-268750D01*
G01*
X323012500Y-145668750D01*
G75*
G02*
X322743750Y-145937500I-268750J0D01*
G01*
X321781250Y-145937500D01*
G75*
G02*
X321512500Y-145668750I0J268750D01*
G01*
X321512500Y-145131250D01*
G75*
G02*
X321781250Y-144862500I268750J0D01*
G01*
G37*
G36*
G01*
X321781250Y-142987500D02*
X322743750Y-142987500D01*
G75*
G02*
X323012500Y-143256250I0J-268750D01*
G01*
X323012500Y-143793750D01*
G75*
G02*
X322743750Y-144062500I-268750J0D01*
G01*
X321781250Y-144062500D01*
G75*
G02*
X321512500Y-143793750I0J268750D01*
G01*
X321512500Y-143256250D01*
G75*
G02*
X321781250Y-142987500I268750J0D01*
G01*
G37*
G36*
G01*
X319400000Y-151212500D02*
X320362500Y-151212500D01*
G75*
G02*
X320631250Y-151481250I0J-268750D01*
G01*
X320631250Y-152018750D01*
G75*
G02*
X320362500Y-152287500I-268750J0D01*
G01*
X319400000Y-152287500D01*
G75*
G02*
X319131250Y-152018750I0J268750D01*
G01*
X319131250Y-151481250D01*
G75*
G02*
X319400000Y-151212500I268750J0D01*
G01*
G37*
G36*
G01*
X319400000Y-149337500D02*
X320362500Y-149337500D01*
G75*
G02*
X320631250Y-149606250I0J-268750D01*
G01*
X320631250Y-150143750D01*
G75*
G02*
X320362500Y-150412500I-268750J0D01*
G01*
X319400000Y-150412500D01*
G75*
G02*
X319131250Y-150143750I0J268750D01*
G01*
X319131250Y-149606250D01*
G75*
G02*
X319400000Y-149337500I268750J0D01*
G01*
G37*
G36*
G01*
X327813750Y-129940000D02*
X328776250Y-129940000D01*
G75*
G02*
X329045000Y-130208750I0J-268750D01*
G01*
X329045000Y-130746250D01*
G75*
G02*
X328776250Y-131015000I-268750J0D01*
G01*
X327813750Y-131015000D01*
G75*
G02*
X327545000Y-130746250I0J268750D01*
G01*
X327545000Y-130208750D01*
G75*
G02*
X327813750Y-129940000I268750J0D01*
G01*
G37*
G36*
G01*
X327813750Y-128065000D02*
X328776250Y-128065000D01*
G75*
G02*
X329045000Y-128333750I0J-268750D01*
G01*
X329045000Y-128871250D01*
G75*
G02*
X328776250Y-129140000I-268750J0D01*
G01*
X327813750Y-129140000D01*
G75*
G02*
X327545000Y-128871250I0J268750D01*
G01*
X327545000Y-128333750D01*
G75*
G02*
X327813750Y-128065000I268750J0D01*
G01*
G37*
G36*
G01*
X337666250Y-129140000D02*
X336703750Y-129140000D01*
G75*
G02*
X336435000Y-128871250I0J268750D01*
G01*
X336435000Y-128333750D01*
G75*
G02*
X336703750Y-128065000I268750J0D01*
G01*
X337666250Y-128065000D01*
G75*
G02*
X337935000Y-128333750I0J-268750D01*
G01*
X337935000Y-128871250D01*
G75*
G02*
X337666250Y-129140000I-268750J0D01*
G01*
G37*
G36*
G01*
X337666250Y-131015000D02*
X336703750Y-131015000D01*
G75*
G02*
X336435000Y-130746250I0J268750D01*
G01*
X336435000Y-130208750D01*
G75*
G02*
X336703750Y-129940000I268750J0D01*
G01*
X337666250Y-129940000D01*
G75*
G02*
X337935000Y-130208750I0J-268750D01*
G01*
X337935000Y-130746250D01*
G75*
G02*
X337666250Y-131015000I-268750J0D01*
G01*
G37*
G36*
G01*
X342746250Y-139632500D02*
X341783750Y-139632500D01*
G75*
G02*
X341515000Y-139363750I0J268750D01*
G01*
X341515000Y-138826250D01*
G75*
G02*
X341783750Y-138557500I268750J0D01*
G01*
X342746250Y-138557500D01*
G75*
G02*
X343015000Y-138826250I0J-268750D01*
G01*
X343015000Y-139363750D01*
G75*
G02*
X342746250Y-139632500I-268750J0D01*
G01*
G37*
G36*
G01*
X342746250Y-141507500D02*
X341783750Y-141507500D01*
G75*
G02*
X341515000Y-141238750I0J268750D01*
G01*
X341515000Y-140701250D01*
G75*
G02*
X341783750Y-140432500I268750J0D01*
G01*
X342746250Y-140432500D01*
G75*
G02*
X343015000Y-140701250I0J-268750D01*
G01*
X343015000Y-141238750D01*
G75*
G02*
X342746250Y-141507500I-268750J0D01*
G01*
G37*
G36*
G01*
X336068750Y-155181250D02*
X337031250Y-155181250D01*
G75*
G02*
X337300000Y-155450000I0J-268750D01*
G01*
X337300000Y-155987500D01*
G75*
G02*
X337031250Y-156256250I-268750J0D01*
G01*
X336068750Y-156256250D01*
G75*
G02*
X335800000Y-155987500I0J268750D01*
G01*
X335800000Y-155450000D01*
G75*
G02*
X336068750Y-155181250I268750J0D01*
G01*
G37*
G36*
G01*
X336068750Y-153306250D02*
X337031250Y-153306250D01*
G75*
G02*
X337300000Y-153575000I0J-268750D01*
G01*
X337300000Y-154112500D01*
G75*
G02*
X337031250Y-154381250I-268750J0D01*
G01*
X336068750Y-154381250D01*
G75*
G02*
X335800000Y-154112500I0J268750D01*
G01*
X335800000Y-153575000D01*
G75*
G02*
X336068750Y-153306250I268750J0D01*
G01*
G37*
G36*
G01*
X329887500Y-133600000D02*
X328925000Y-133600000D01*
G75*
G02*
X328656250Y-133331250I0J268750D01*
G01*
X328656250Y-132793750D01*
G75*
G02*
X328925000Y-132525000I268750J0D01*
G01*
X329887500Y-132525000D01*
G75*
G02*
X330156250Y-132793750I0J-268750D01*
G01*
X330156250Y-133331250D01*
G75*
G02*
X329887500Y-133600000I-268750J0D01*
G01*
G37*
G36*
G01*
X329887500Y-135475000D02*
X328925000Y-135475000D01*
G75*
G02*
X328656250Y-135206250I0J268750D01*
G01*
X328656250Y-134668750D01*
G75*
G02*
X328925000Y-134400000I268750J0D01*
G01*
X329887500Y-134400000D01*
G75*
G02*
X330156250Y-134668750I0J-268750D01*
G01*
X330156250Y-135206250D01*
G75*
G02*
X329887500Y-135475000I-268750J0D01*
G01*
G37*
M02*
