G04 #@! TF.GenerationSoftware,KiCad,Pcbnew,(5.1.6)-1*
G04 #@! TF.CreationDate,2020-07-22T14:48:11-04:00*
G04 #@! TF.ProjectId,Edgedancer81,45646765-6461-46e6-9365-7238312e6b69,rev?*
G04 #@! TF.SameCoordinates,Original*
G04 #@! TF.FileFunction,Copper,L2,Bot*
G04 #@! TF.FilePolarity,Positive*
%FSLAX46Y46*%
G04 Gerber Fmt 4.6, Leading zero omitted, Abs format (unit mm)*
G04 Created by KiCad (PCBNEW (5.1.6)-1) date 2020-07-22 14:48:11*
%MOMM*%
%LPD*%
G01*
G04 APERTURE LIST*
G04 #@! TA.AperFunction,ComponentPad*
%ADD10O,1.700000X2.700000*%
G04 #@! TD*
G04 #@! TA.AperFunction,SMDPad,CuDef*
%ADD11R,0.500000X2.250000*%
G04 #@! TD*
G04 #@! TA.AperFunction,ComponentPad*
%ADD12C,2.250000*%
G04 #@! TD*
G04 #@! TA.AperFunction,SMDPad,CuDef*
%ADD13R,1.100000X1.800000*%
G04 #@! TD*
G04 #@! TA.AperFunction,SMDPad,CuDef*
%ADD14R,1.400000X1.200000*%
G04 #@! TD*
G04 #@! TA.AperFunction,SMDPad,CuDef*
%ADD15R,0.550000X1.500000*%
G04 #@! TD*
G04 #@! TA.AperFunction,SMDPad,CuDef*
%ADD16R,1.500000X0.550000*%
G04 #@! TD*
G04 #@! TA.AperFunction,ComponentPad*
%ADD17R,2.000000X2.000000*%
G04 #@! TD*
G04 #@! TA.AperFunction,ComponentPad*
%ADD18C,2.000000*%
G04 #@! TD*
G04 #@! TA.AperFunction,ComponentPad*
%ADD19R,3.200000X2.000000*%
G04 #@! TD*
G04 #@! TA.AperFunction,SMDPad,CuDef*
%ADD20R,1.200000X0.900000*%
G04 #@! TD*
G04 #@! TA.AperFunction,ViaPad*
%ADD21C,0.800000*%
G04 #@! TD*
G04 #@! TA.AperFunction,Conductor*
%ADD22C,0.381000*%
G04 #@! TD*
G04 #@! TA.AperFunction,Conductor*
%ADD23C,0.254000*%
G04 #@! TD*
G04 APERTURE END LIST*
D10*
X317025000Y-76993750D03*
X324325000Y-76993750D03*
X324325000Y-81493750D03*
X317025000Y-81493750D03*
D11*
X319075000Y-81493750D03*
X319875000Y-81493750D03*
X320675000Y-81493750D03*
X321475000Y-81493750D03*
X322275000Y-81493750D03*
D12*
X299918750Y-184595000D03*
G04 #@! TA.AperFunction,ComponentPad*
G36*
G01*
X297857433Y-186892345D02*
X297857433Y-186892345D01*
G75*
G02*
X297771405Y-185303683I751317J837345D01*
G01*
X299081407Y-183843683D01*
G75*
G02*
X300670069Y-183757655I837345J-751317D01*
G01*
X300670069Y-183757655D01*
G75*
G02*
X300756097Y-185346317I-751317J-837345D01*
G01*
X299446095Y-186806317D01*
G75*
G02*
X297857433Y-186892345I-837345J751317D01*
G01*
G37*
G04 #@! TD.AperFunction*
X304958750Y-183515000D03*
G04 #@! TA.AperFunction,ComponentPad*
G36*
G01*
X304841347Y-185217334D02*
X304841347Y-185217334D01*
G75*
G02*
X303796416Y-184017597I77403J1122334D01*
G01*
X303836416Y-183437597D01*
G75*
G02*
X305036153Y-182392666I1122334J-77403D01*
G01*
X305036153Y-182392666D01*
G75*
G02*
X306081084Y-183592403I-77403J-1122334D01*
G01*
X306041084Y-184172403D01*
G75*
G02*
X304841347Y-185217334I-1122334J77403D01*
G01*
G37*
G04 #@! TD.AperFunction*
X254675000Y-127445000D03*
G04 #@! TA.AperFunction,ComponentPad*
G36*
G01*
X252613683Y-129742345D02*
X252613683Y-129742345D01*
G75*
G02*
X252527655Y-128153683I751317J837345D01*
G01*
X253837657Y-126693683D01*
G75*
G02*
X255426319Y-126607655I837345J-751317D01*
G01*
X255426319Y-126607655D01*
G75*
G02*
X255512347Y-128196317I-751317J-837345D01*
G01*
X254202345Y-129656317D01*
G75*
G02*
X252613683Y-129742345I-837345J751317D01*
G01*
G37*
G04 #@! TD.AperFunction*
X259715000Y-126365000D03*
G04 #@! TA.AperFunction,ComponentPad*
G36*
G01*
X259597597Y-128067334D02*
X259597597Y-128067334D01*
G75*
G02*
X258552666Y-126867597I77403J1122334D01*
G01*
X258592666Y-126287597D01*
G75*
G02*
X259792403Y-125242666I1122334J-77403D01*
G01*
X259792403Y-125242666D01*
G75*
G02*
X260837334Y-126442403I-77403J-1122334D01*
G01*
X260797334Y-127022403D01*
G75*
G02*
X259597597Y-128067334I-1122334J77403D01*
G01*
G37*
G04 #@! TD.AperFunction*
X173712500Y-165545000D03*
G04 #@! TA.AperFunction,ComponentPad*
G36*
G01*
X171651183Y-167842345D02*
X171651183Y-167842345D01*
G75*
G02*
X171565155Y-166253683I751317J837345D01*
G01*
X172875157Y-164793683D01*
G75*
G02*
X174463819Y-164707655I837345J-751317D01*
G01*
X174463819Y-164707655D01*
G75*
G02*
X174549847Y-166296317I-751317J-837345D01*
G01*
X173239845Y-167756317D01*
G75*
G02*
X171651183Y-167842345I-837345J751317D01*
G01*
G37*
G04 #@! TD.AperFunction*
X178752500Y-164465000D03*
G04 #@! TA.AperFunction,ComponentPad*
G36*
G01*
X178635097Y-166167334D02*
X178635097Y-166167334D01*
G75*
G02*
X177590166Y-164967597I77403J1122334D01*
G01*
X177630166Y-164387597D01*
G75*
G02*
X178829903Y-163342666I1122334J-77403D01*
G01*
X178829903Y-163342666D01*
G75*
G02*
X179874834Y-164542403I-77403J-1122334D01*
G01*
X179834834Y-165122403D01*
G75*
G02*
X178635097Y-166167334I-1122334J77403D01*
G01*
G37*
G04 #@! TD.AperFunction*
X126087500Y-146495000D03*
G04 #@! TA.AperFunction,ComponentPad*
G36*
G01*
X124026183Y-148792345D02*
X124026183Y-148792345D01*
G75*
G02*
X123940155Y-147203683I751317J837345D01*
G01*
X125250157Y-145743683D01*
G75*
G02*
X126838819Y-145657655I837345J-751317D01*
G01*
X126838819Y-145657655D01*
G75*
G02*
X126924847Y-147246317I-751317J-837345D01*
G01*
X125614845Y-148706317D01*
G75*
G02*
X124026183Y-148792345I-837345J751317D01*
G01*
G37*
G04 #@! TD.AperFunction*
X131127500Y-145415000D03*
G04 #@! TA.AperFunction,ComponentPad*
G36*
G01*
X131010097Y-147117334D02*
X131010097Y-147117334D01*
G75*
G02*
X129965166Y-145917597I77403J1122334D01*
G01*
X130005166Y-145337597D01*
G75*
G02*
X131204903Y-144292666I1122334J-77403D01*
G01*
X131204903Y-144292666D01*
G75*
G02*
X132249834Y-145492403I-77403J-1122334D01*
G01*
X132209834Y-146072403D01*
G75*
G02*
X131010097Y-147117334I-1122334J77403D01*
G01*
G37*
G04 #@! TD.AperFunction*
X264200000Y-80137500D03*
G04 #@! TA.AperFunction,ComponentPad*
G36*
G01*
X262138683Y-82434845D02*
X262138683Y-82434845D01*
G75*
G02*
X262052655Y-80846183I751317J837345D01*
G01*
X263362657Y-79386183D01*
G75*
G02*
X264951319Y-79300155I837345J-751317D01*
G01*
X264951319Y-79300155D01*
G75*
G02*
X265037347Y-80888817I-751317J-837345D01*
G01*
X263727345Y-82348817D01*
G75*
G02*
X262138683Y-82434845I-837345J751317D01*
G01*
G37*
G04 #@! TD.AperFunction*
X269240000Y-79057500D03*
G04 #@! TA.AperFunction,ComponentPad*
G36*
G01*
X269122597Y-80759834D02*
X269122597Y-80759834D01*
G75*
G02*
X268077666Y-79560097I77403J1122334D01*
G01*
X268117666Y-78980097D01*
G75*
G02*
X269317403Y-77935166I1122334J-77403D01*
G01*
X269317403Y-77935166D01*
G75*
G02*
X270362334Y-79134903I-77403J-1122334D01*
G01*
X270322334Y-79714903D01*
G75*
G02*
X269122597Y-80759834I-1122334J77403D01*
G01*
G37*
G04 #@! TD.AperFunction*
X156250000Y-80137500D03*
G04 #@! TA.AperFunction,ComponentPad*
G36*
G01*
X154188683Y-82434845D02*
X154188683Y-82434845D01*
G75*
G02*
X154102655Y-80846183I751317J837345D01*
G01*
X155412657Y-79386183D01*
G75*
G02*
X157001319Y-79300155I837345J-751317D01*
G01*
X157001319Y-79300155D01*
G75*
G02*
X157087347Y-80888817I-751317J-837345D01*
G01*
X155777345Y-82348817D01*
G75*
G02*
X154188683Y-82434845I-837345J751317D01*
G01*
G37*
G04 #@! TD.AperFunction*
X161290000Y-79057500D03*
G04 #@! TA.AperFunction,ComponentPad*
G36*
G01*
X161172597Y-80759834D02*
X161172597Y-80759834D01*
G75*
G02*
X160127666Y-79560097I77403J1122334D01*
G01*
X160167666Y-78980097D01*
G75*
G02*
X161367403Y-77935166I1122334J-77403D01*
G01*
X161367403Y-77935166D01*
G75*
G02*
X162412334Y-79134903I-77403J-1122334D01*
G01*
X162372334Y-79714903D01*
G75*
G02*
X161172597Y-80759834I-1122334J77403D01*
G01*
G37*
G04 #@! TD.AperFunction*
X116562500Y-165545000D03*
G04 #@! TA.AperFunction,ComponentPad*
G36*
G01*
X114501183Y-167842345D02*
X114501183Y-167842345D01*
G75*
G02*
X114415155Y-166253683I751317J837345D01*
G01*
X115725157Y-164793683D01*
G75*
G02*
X117313819Y-164707655I837345J-751317D01*
G01*
X117313819Y-164707655D01*
G75*
G02*
X117399847Y-166296317I-751317J-837345D01*
G01*
X116089845Y-167756317D01*
G75*
G02*
X114501183Y-167842345I-837345J751317D01*
G01*
G37*
G04 #@! TD.AperFunction*
X121602500Y-164465000D03*
G04 #@! TA.AperFunction,ComponentPad*
G36*
G01*
X121485097Y-166167334D02*
X121485097Y-166167334D01*
G75*
G02*
X120440166Y-164967597I77403J1122334D01*
G01*
X120480166Y-164387597D01*
G75*
G02*
X121679903Y-163342666I1122334J-77403D01*
G01*
X121679903Y-163342666D01*
G75*
G02*
X122724834Y-164542403I-77403J-1122334D01*
G01*
X122684834Y-165122403D01*
G75*
G02*
X121485097Y-166167334I-1122334J77403D01*
G01*
G37*
G04 #@! TD.AperFunction*
X37981250Y-184595000D03*
G04 #@! TA.AperFunction,ComponentPad*
G36*
G01*
X35919933Y-186892345D02*
X35919933Y-186892345D01*
G75*
G02*
X35833905Y-185303683I751317J837345D01*
G01*
X37143907Y-183843683D01*
G75*
G02*
X38732569Y-183757655I837345J-751317D01*
G01*
X38732569Y-183757655D01*
G75*
G02*
X38818597Y-185346317I-751317J-837345D01*
G01*
X37508595Y-186806317D01*
G75*
G02*
X35919933Y-186892345I-837345J751317D01*
G01*
G37*
G04 #@! TD.AperFunction*
X43021250Y-183515000D03*
G04 #@! TA.AperFunction,ComponentPad*
G36*
G01*
X42903847Y-185217334D02*
X42903847Y-185217334D01*
G75*
G02*
X41858916Y-184017597I77403J1122334D01*
G01*
X41898916Y-183437597D01*
G75*
G02*
X43098653Y-182392666I1122334J-77403D01*
G01*
X43098653Y-182392666D01*
G75*
G02*
X44143584Y-183592403I-77403J-1122334D01*
G01*
X44103584Y-184172403D01*
G75*
G02*
X42903847Y-185217334I-1122334J77403D01*
G01*
G37*
G04 #@! TD.AperFunction*
X61793750Y-184595000D03*
G04 #@! TA.AperFunction,ComponentPad*
G36*
G01*
X59732433Y-186892345D02*
X59732433Y-186892345D01*
G75*
G02*
X59646405Y-185303683I751317J837345D01*
G01*
X60956407Y-183843683D01*
G75*
G02*
X62545069Y-183757655I837345J-751317D01*
G01*
X62545069Y-183757655D01*
G75*
G02*
X62631097Y-185346317I-751317J-837345D01*
G01*
X61321095Y-186806317D01*
G75*
G02*
X59732433Y-186892345I-837345J751317D01*
G01*
G37*
G04 #@! TD.AperFunction*
X66833750Y-183515000D03*
G04 #@! TA.AperFunction,ComponentPad*
G36*
G01*
X66716347Y-185217334D02*
X66716347Y-185217334D01*
G75*
G02*
X65671416Y-184017597I77403J1122334D01*
G01*
X65711416Y-183437597D01*
G75*
G02*
X66911153Y-182392666I1122334J-77403D01*
G01*
X66911153Y-182392666D01*
G75*
G02*
X67956084Y-183592403I-77403J-1122334D01*
G01*
X67916084Y-184172403D01*
G75*
G02*
X66716347Y-185217334I-1122334J77403D01*
G01*
G37*
G04 #@! TD.AperFunction*
X85765000Y-184595000D03*
G04 #@! TA.AperFunction,ComponentPad*
G36*
G01*
X83703683Y-186892345D02*
X83703683Y-186892345D01*
G75*
G02*
X83617655Y-185303683I751317J837345D01*
G01*
X84927657Y-183843683D01*
G75*
G02*
X86516319Y-183757655I837345J-751317D01*
G01*
X86516319Y-183757655D01*
G75*
G02*
X86602347Y-185346317I-751317J-837345D01*
G01*
X85292345Y-186806317D01*
G75*
G02*
X83703683Y-186892345I-837345J751317D01*
G01*
G37*
G04 #@! TD.AperFunction*
X90805000Y-183515000D03*
G04 #@! TA.AperFunction,ComponentPad*
G36*
G01*
X90687597Y-185217334D02*
X90687597Y-185217334D01*
G75*
G02*
X89642666Y-184017597I77403J1122334D01*
G01*
X89682666Y-183437597D01*
G75*
G02*
X90882403Y-182392666I1122334J-77403D01*
G01*
X90882403Y-182392666D01*
G75*
G02*
X91927334Y-183592403I-77403J-1122334D01*
G01*
X91887334Y-184172403D01*
G75*
G02*
X90687597Y-185217334I-1122334J77403D01*
G01*
G37*
G04 #@! TD.AperFunction*
X157043750Y-184595000D03*
G04 #@! TA.AperFunction,ComponentPad*
G36*
G01*
X154982433Y-186892345D02*
X154982433Y-186892345D01*
G75*
G02*
X154896405Y-185303683I751317J837345D01*
G01*
X156206407Y-183843683D01*
G75*
G02*
X157795069Y-183757655I837345J-751317D01*
G01*
X157795069Y-183757655D01*
G75*
G02*
X157881097Y-185346317I-751317J-837345D01*
G01*
X156571095Y-186806317D01*
G75*
G02*
X154982433Y-186892345I-837345J751317D01*
G01*
G37*
G04 #@! TD.AperFunction*
X162083750Y-183515000D03*
G04 #@! TA.AperFunction,ComponentPad*
G36*
G01*
X161966347Y-185217334D02*
X161966347Y-185217334D01*
G75*
G02*
X160921416Y-184017597I77403J1122334D01*
G01*
X160961416Y-183437597D01*
G75*
G02*
X162161153Y-182392666I1122334J-77403D01*
G01*
X162161153Y-182392666D01*
G75*
G02*
X163206084Y-183592403I-77403J-1122334D01*
G01*
X163166084Y-184172403D01*
G75*
G02*
X161966347Y-185217334I-1122334J77403D01*
G01*
G37*
G04 #@! TD.AperFunction*
X40362500Y-127445000D03*
G04 #@! TA.AperFunction,ComponentPad*
G36*
G01*
X38301183Y-129742345D02*
X38301183Y-129742345D01*
G75*
G02*
X38215155Y-128153683I751317J837345D01*
G01*
X39525157Y-126693683D01*
G75*
G02*
X41113819Y-126607655I837345J-751317D01*
G01*
X41113819Y-126607655D01*
G75*
G02*
X41199847Y-128196317I-751317J-837345D01*
G01*
X39889845Y-129656317D01*
G75*
G02*
X38301183Y-129742345I-837345J751317D01*
G01*
G37*
G04 #@! TD.AperFunction*
X45402500Y-126365000D03*
G04 #@! TA.AperFunction,ComponentPad*
G36*
G01*
X45285097Y-128067334D02*
X45285097Y-128067334D01*
G75*
G02*
X44240166Y-126867597I77403J1122334D01*
G01*
X44280166Y-126287597D01*
G75*
G02*
X45479903Y-125242666I1122334J-77403D01*
G01*
X45479903Y-125242666D01*
G75*
G02*
X46524834Y-126442403I-77403J-1122334D01*
G01*
X46484834Y-127022403D01*
G75*
G02*
X45285097Y-128067334I-1122334J77403D01*
G01*
G37*
G04 #@! TD.AperFunction*
X297537500Y-127445000D03*
G04 #@! TA.AperFunction,ComponentPad*
G36*
G01*
X295476183Y-129742345D02*
X295476183Y-129742345D01*
G75*
G02*
X295390155Y-128153683I751317J837345D01*
G01*
X296700157Y-126693683D01*
G75*
G02*
X298288819Y-126607655I837345J-751317D01*
G01*
X298288819Y-126607655D01*
G75*
G02*
X298374847Y-128196317I-751317J-837345D01*
G01*
X297064845Y-129656317D01*
G75*
G02*
X295476183Y-129742345I-837345J751317D01*
G01*
G37*
G04 #@! TD.AperFunction*
X302577500Y-126365000D03*
G04 #@! TA.AperFunction,ComponentPad*
G36*
G01*
X302460097Y-128067334D02*
X302460097Y-128067334D01*
G75*
G02*
X301415166Y-126867597I77403J1122334D01*
G01*
X301455166Y-126287597D01*
G75*
G02*
X302654903Y-125242666I1122334J-77403D01*
G01*
X302654903Y-125242666D01*
G75*
G02*
X303699834Y-126442403I-77403J-1122334D01*
G01*
X303659834Y-127022403D01*
G75*
G02*
X302460097Y-128067334I-1122334J77403D01*
G01*
G37*
G04 #@! TD.AperFunction*
X228481250Y-184595000D03*
G04 #@! TA.AperFunction,ComponentPad*
G36*
G01*
X226419933Y-186892345D02*
X226419933Y-186892345D01*
G75*
G02*
X226333905Y-185303683I751317J837345D01*
G01*
X227643907Y-183843683D01*
G75*
G02*
X229232569Y-183757655I837345J-751317D01*
G01*
X229232569Y-183757655D01*
G75*
G02*
X229318597Y-185346317I-751317J-837345D01*
G01*
X228008595Y-186806317D01*
G75*
G02*
X226419933Y-186892345I-837345J751317D01*
G01*
G37*
G04 #@! TD.AperFunction*
X233521250Y-183515000D03*
G04 #@! TA.AperFunction,ComponentPad*
G36*
G01*
X233403847Y-185217334D02*
X233403847Y-185217334D01*
G75*
G02*
X232358916Y-184017597I77403J1122334D01*
G01*
X232398916Y-183437597D01*
G75*
G02*
X233598653Y-182392666I1122334J-77403D01*
G01*
X233598653Y-182392666D01*
G75*
G02*
X234643584Y-183592403I-77403J-1122334D01*
G01*
X234603584Y-184172403D01*
G75*
G02*
X233403847Y-185217334I-1122334J77403D01*
G01*
G37*
G04 #@! TD.AperFunction*
X252293750Y-184595000D03*
G04 #@! TA.AperFunction,ComponentPad*
G36*
G01*
X250232433Y-186892345D02*
X250232433Y-186892345D01*
G75*
G02*
X250146405Y-185303683I751317J837345D01*
G01*
X251456407Y-183843683D01*
G75*
G02*
X253045069Y-183757655I837345J-751317D01*
G01*
X253045069Y-183757655D01*
G75*
G02*
X253131097Y-185346317I-751317J-837345D01*
G01*
X251821095Y-186806317D01*
G75*
G02*
X250232433Y-186892345I-837345J751317D01*
G01*
G37*
G04 #@! TD.AperFunction*
X257333750Y-183515000D03*
G04 #@! TA.AperFunction,ComponentPad*
G36*
G01*
X257216347Y-185217334D02*
X257216347Y-185217334D01*
G75*
G02*
X256171416Y-184017597I77403J1122334D01*
G01*
X256211416Y-183437597D01*
G75*
G02*
X257411153Y-182392666I1122334J-77403D01*
G01*
X257411153Y-182392666D01*
G75*
G02*
X258456084Y-183592403I-77403J-1122334D01*
G01*
X258416084Y-184172403D01*
G75*
G02*
X257216347Y-185217334I-1122334J77403D01*
G01*
G37*
G04 #@! TD.AperFunction*
X276106250Y-184595000D03*
G04 #@! TA.AperFunction,ComponentPad*
G36*
G01*
X274044933Y-186892345D02*
X274044933Y-186892345D01*
G75*
G02*
X273958905Y-185303683I751317J837345D01*
G01*
X275268907Y-183843683D01*
G75*
G02*
X276857569Y-183757655I837345J-751317D01*
G01*
X276857569Y-183757655D01*
G75*
G02*
X276943597Y-185346317I-751317J-837345D01*
G01*
X275633595Y-186806317D01*
G75*
G02*
X274044933Y-186892345I-837345J751317D01*
G01*
G37*
G04 #@! TD.AperFunction*
X281146250Y-183515000D03*
G04 #@! TA.AperFunction,ComponentPad*
G36*
G01*
X281028847Y-185217334D02*
X281028847Y-185217334D01*
G75*
G02*
X279983916Y-184017597I77403J1122334D01*
G01*
X280023916Y-183437597D01*
G75*
G02*
X281223653Y-182392666I1122334J-77403D01*
G01*
X281223653Y-182392666D01*
G75*
G02*
X282268584Y-183592403I-77403J-1122334D01*
G01*
X282228584Y-184172403D01*
G75*
G02*
X281028847Y-185217334I-1122334J77403D01*
G01*
G37*
G04 #@! TD.AperFunction*
X292775000Y-108395000D03*
G04 #@! TA.AperFunction,ComponentPad*
G36*
G01*
X290713683Y-110692345D02*
X290713683Y-110692345D01*
G75*
G02*
X290627655Y-109103683I751317J837345D01*
G01*
X291937657Y-107643683D01*
G75*
G02*
X293526319Y-107557655I837345J-751317D01*
G01*
X293526319Y-107557655D01*
G75*
G02*
X293612347Y-109146317I-751317J-837345D01*
G01*
X292302345Y-110606317D01*
G75*
G02*
X290713683Y-110692345I-837345J751317D01*
G01*
G37*
G04 #@! TD.AperFunction*
X297815000Y-107315000D03*
G04 #@! TA.AperFunction,ComponentPad*
G36*
G01*
X297697597Y-109017334D02*
X297697597Y-109017334D01*
G75*
G02*
X296652666Y-107817597I77403J1122334D01*
G01*
X296692666Y-107237597D01*
G75*
G02*
X297892403Y-106192666I1122334J-77403D01*
G01*
X297892403Y-106192666D01*
G75*
G02*
X298937334Y-107392403I-77403J-1122334D01*
G01*
X298897334Y-107972403D01*
G75*
G02*
X297697597Y-109017334I-1122334J77403D01*
G01*
G37*
G04 #@! TD.AperFunction*
X290393750Y-146495000D03*
G04 #@! TA.AperFunction,ComponentPad*
G36*
G01*
X288332433Y-148792345D02*
X288332433Y-148792345D01*
G75*
G02*
X288246405Y-147203683I751317J837345D01*
G01*
X289556407Y-145743683D01*
G75*
G02*
X291145069Y-145657655I837345J-751317D01*
G01*
X291145069Y-145657655D01*
G75*
G02*
X291231097Y-147246317I-751317J-837345D01*
G01*
X289921095Y-148706317D01*
G75*
G02*
X288332433Y-148792345I-837345J751317D01*
G01*
G37*
G04 #@! TD.AperFunction*
X295433750Y-145415000D03*
G04 #@! TA.AperFunction,ComponentPad*
G36*
G01*
X295316347Y-147117334D02*
X295316347Y-147117334D01*
G75*
G02*
X294271416Y-145917597I77403J1122334D01*
G01*
X294311416Y-145337597D01*
G75*
G02*
X295511153Y-144292666I1122334J-77403D01*
G01*
X295511153Y-144292666D01*
G75*
G02*
X296556084Y-145492403I-77403J-1122334D01*
G01*
X296516084Y-146072403D01*
G75*
G02*
X295316347Y-147117334I-1122334J77403D01*
G01*
G37*
G04 #@! TD.AperFunction*
X285631250Y-165545000D03*
G04 #@! TA.AperFunction,ComponentPad*
G36*
G01*
X283569933Y-167842345D02*
X283569933Y-167842345D01*
G75*
G02*
X283483905Y-166253683I751317J837345D01*
G01*
X284793907Y-164793683D01*
G75*
G02*
X286382569Y-164707655I837345J-751317D01*
G01*
X286382569Y-164707655D01*
G75*
G02*
X286468597Y-166296317I-751317J-837345D01*
G01*
X285158595Y-167756317D01*
G75*
G02*
X283569933Y-167842345I-837345J751317D01*
G01*
G37*
G04 #@! TD.AperFunction*
X290671250Y-164465000D03*
G04 #@! TA.AperFunction,ComponentPad*
G36*
G01*
X290553847Y-166167334D02*
X290553847Y-166167334D01*
G75*
G02*
X289508916Y-164967597I77403J1122334D01*
G01*
X289548916Y-164387597D01*
G75*
G02*
X290748653Y-163342666I1122334J-77403D01*
G01*
X290748653Y-163342666D01*
G75*
G02*
X291793584Y-164542403I-77403J-1122334D01*
G01*
X291753584Y-165122403D01*
G75*
G02*
X290553847Y-166167334I-1122334J77403D01*
G01*
G37*
G04 #@! TD.AperFunction*
X47506250Y-165545000D03*
G04 #@! TA.AperFunction,ComponentPad*
G36*
G01*
X45444933Y-167842345D02*
X45444933Y-167842345D01*
G75*
G02*
X45358905Y-166253683I751317J837345D01*
G01*
X46668907Y-164793683D01*
G75*
G02*
X48257569Y-164707655I837345J-751317D01*
G01*
X48257569Y-164707655D01*
G75*
G02*
X48343597Y-166296317I-751317J-837345D01*
G01*
X47033595Y-167756317D01*
G75*
G02*
X45444933Y-167842345I-837345J751317D01*
G01*
G37*
G04 #@! TD.AperFunction*
X52546250Y-164465000D03*
G04 #@! TA.AperFunction,ComponentPad*
G36*
G01*
X52428847Y-166167334D02*
X52428847Y-166167334D01*
G75*
G02*
X51383916Y-164967597I77403J1122334D01*
G01*
X51423916Y-164387597D01*
G75*
G02*
X52623653Y-163342666I1122334J-77403D01*
G01*
X52623653Y-163342666D01*
G75*
G02*
X53668584Y-164542403I-77403J-1122334D01*
G01*
X53628584Y-165122403D01*
G75*
G02*
X52428847Y-166167334I-1122334J77403D01*
G01*
G37*
G04 #@! TD.AperFunction*
X42743750Y-146495000D03*
G04 #@! TA.AperFunction,ComponentPad*
G36*
G01*
X40682433Y-148792345D02*
X40682433Y-148792345D01*
G75*
G02*
X40596405Y-147203683I751317J837345D01*
G01*
X41906407Y-145743683D01*
G75*
G02*
X43495069Y-145657655I837345J-751317D01*
G01*
X43495069Y-145657655D01*
G75*
G02*
X43581097Y-147246317I-751317J-837345D01*
G01*
X42271095Y-148706317D01*
G75*
G02*
X40682433Y-148792345I-837345J751317D01*
G01*
G37*
G04 #@! TD.AperFunction*
X47783750Y-145415000D03*
G04 #@! TA.AperFunction,ComponentPad*
G36*
G01*
X47666347Y-147117334D02*
X47666347Y-147117334D01*
G75*
G02*
X46621416Y-145917597I77403J1122334D01*
G01*
X46661416Y-145337597D01*
G75*
G02*
X47861153Y-144292666I1122334J-77403D01*
G01*
X47861153Y-144292666D01*
G75*
G02*
X48906084Y-145492403I-77403J-1122334D01*
G01*
X48866084Y-146072403D01*
G75*
G02*
X47666347Y-147117334I-1122334J77403D01*
G01*
G37*
G04 #@! TD.AperFunction*
X194350000Y-80137500D03*
G04 #@! TA.AperFunction,ComponentPad*
G36*
G01*
X192288683Y-82434845D02*
X192288683Y-82434845D01*
G75*
G02*
X192202655Y-80846183I751317J837345D01*
G01*
X193512657Y-79386183D01*
G75*
G02*
X195101319Y-79300155I837345J-751317D01*
G01*
X195101319Y-79300155D01*
G75*
G02*
X195187347Y-80888817I-751317J-837345D01*
G01*
X193877345Y-82348817D01*
G75*
G02*
X192288683Y-82434845I-837345J751317D01*
G01*
G37*
G04 #@! TD.AperFunction*
X199390000Y-79057500D03*
G04 #@! TA.AperFunction,ComponentPad*
G36*
G01*
X199272597Y-80759834D02*
X199272597Y-80759834D01*
G75*
G02*
X198227666Y-79560097I77403J1122334D01*
G01*
X198267666Y-78980097D01*
G75*
G02*
X199467403Y-77935166I1122334J-77403D01*
G01*
X199467403Y-77935166D01*
G75*
G02*
X200512334Y-79134903I-77403J-1122334D01*
G01*
X200472334Y-79714903D01*
G75*
G02*
X199272597Y-80759834I-1122334J77403D01*
G01*
G37*
G04 #@! TD.AperFunction*
D13*
X333112500Y-122162500D03*
X336812500Y-115962500D03*
X336812500Y-122162500D03*
X333112500Y-115962500D03*
D14*
X333840000Y-128690000D03*
X331640000Y-128690000D03*
X331640000Y-130390000D03*
X333840000Y-130390000D03*
D15*
X328740000Y-151115000D03*
X329540000Y-151115000D03*
X330340000Y-151115000D03*
X331140000Y-151115000D03*
X331940000Y-151115000D03*
X332740000Y-151115000D03*
X333540000Y-151115000D03*
X334340000Y-151115000D03*
X335140000Y-151115000D03*
X335940000Y-151115000D03*
X336740000Y-151115000D03*
D16*
X338440000Y-149415000D03*
X338440000Y-148615000D03*
X338440000Y-147815000D03*
X338440000Y-147015000D03*
X338440000Y-146215000D03*
X338440000Y-145415000D03*
X338440000Y-144615000D03*
X338440000Y-143815000D03*
X338440000Y-143015000D03*
X338440000Y-142215000D03*
X338440000Y-141415000D03*
D15*
X336740000Y-139715000D03*
X335940000Y-139715000D03*
X335140000Y-139715000D03*
X334340000Y-139715000D03*
X333540000Y-139715000D03*
X332740000Y-139715000D03*
X331940000Y-139715000D03*
X331140000Y-139715000D03*
X330340000Y-139715000D03*
X329540000Y-139715000D03*
X328740000Y-139715000D03*
D16*
X327040000Y-141415000D03*
X327040000Y-142215000D03*
X327040000Y-143015000D03*
X327040000Y-143815000D03*
X327040000Y-144615000D03*
X327040000Y-145415000D03*
X327040000Y-146215000D03*
X327040000Y-147015000D03*
X327040000Y-147815000D03*
X327040000Y-148615000D03*
X327040000Y-149415000D03*
D17*
X348456250Y-123825000D03*
D18*
X348456250Y-126325000D03*
X348456250Y-128825000D03*
D19*
X355956250Y-120725000D03*
X355956250Y-131925000D03*
D18*
X362956250Y-123825000D03*
X362956250Y-128825000D03*
G04 #@! TA.AperFunction,SMDPad,CuDef*
G36*
G01*
X342721250Y-150045000D02*
X341808750Y-150045000D01*
G75*
G02*
X341565000Y-149801250I0J243750D01*
G01*
X341565000Y-149313750D01*
G75*
G02*
X341808750Y-149070000I243750J0D01*
G01*
X342721250Y-149070000D01*
G75*
G02*
X342965000Y-149313750I0J-243750D01*
G01*
X342965000Y-149801250D01*
G75*
G02*
X342721250Y-150045000I-243750J0D01*
G01*
G37*
G04 #@! TD.AperFunction*
G04 #@! TA.AperFunction,SMDPad,CuDef*
G36*
G01*
X342721250Y-151920000D02*
X341808750Y-151920000D01*
G75*
G02*
X341565000Y-151676250I0J243750D01*
G01*
X341565000Y-151188750D01*
G75*
G02*
X341808750Y-150945000I243750J0D01*
G01*
X342721250Y-150945000D01*
G75*
G02*
X342965000Y-151188750I0J-243750D01*
G01*
X342965000Y-151676250D01*
G75*
G02*
X342721250Y-151920000I-243750J0D01*
G01*
G37*
G04 #@! TD.AperFunction*
G04 #@! TA.AperFunction,SMDPad,CuDef*
G36*
G01*
X325298750Y-135070000D02*
X326211250Y-135070000D01*
G75*
G02*
X326455000Y-135313750I0J-243750D01*
G01*
X326455000Y-135801250D01*
G75*
G02*
X326211250Y-136045000I-243750J0D01*
G01*
X325298750Y-136045000D01*
G75*
G02*
X325055000Y-135801250I0J243750D01*
G01*
X325055000Y-135313750D01*
G75*
G02*
X325298750Y-135070000I243750J0D01*
G01*
G37*
G04 #@! TD.AperFunction*
G04 #@! TA.AperFunction,SMDPad,CuDef*
G36*
G01*
X325298750Y-133195000D02*
X326211250Y-133195000D01*
G75*
G02*
X326455000Y-133438750I0J-243750D01*
G01*
X326455000Y-133926250D01*
G75*
G02*
X326211250Y-134170000I-243750J0D01*
G01*
X325298750Y-134170000D01*
G75*
G02*
X325055000Y-133926250I0J243750D01*
G01*
X325055000Y-133438750D01*
G75*
G02*
X325298750Y-133195000I243750J0D01*
G01*
G37*
G04 #@! TD.AperFunction*
G04 #@! TA.AperFunction,SMDPad,CuDef*
G36*
G01*
X323393750Y-120132500D02*
X324306250Y-120132500D01*
G75*
G02*
X324550000Y-120376250I0J-243750D01*
G01*
X324550000Y-120863750D01*
G75*
G02*
X324306250Y-121107500I-243750J0D01*
G01*
X323393750Y-121107500D01*
G75*
G02*
X323150000Y-120863750I0J243750D01*
G01*
X323150000Y-120376250D01*
G75*
G02*
X323393750Y-120132500I243750J0D01*
G01*
G37*
G04 #@! TD.AperFunction*
G04 #@! TA.AperFunction,SMDPad,CuDef*
G36*
G01*
X323393750Y-118257500D02*
X324306250Y-118257500D01*
G75*
G02*
X324550000Y-118501250I0J-243750D01*
G01*
X324550000Y-118988750D01*
G75*
G02*
X324306250Y-119232500I-243750J0D01*
G01*
X323393750Y-119232500D01*
G75*
G02*
X323150000Y-118988750I0J243750D01*
G01*
X323150000Y-118501250D01*
G75*
G02*
X323393750Y-118257500I243750J0D01*
G01*
G37*
G04 #@! TD.AperFunction*
G04 #@! TA.AperFunction,SMDPad,CuDef*
G36*
G01*
X320853750Y-120162500D02*
X321766250Y-120162500D01*
G75*
G02*
X322010000Y-120406250I0J-243750D01*
G01*
X322010000Y-120893750D01*
G75*
G02*
X321766250Y-121137500I-243750J0D01*
G01*
X320853750Y-121137500D01*
G75*
G02*
X320610000Y-120893750I0J243750D01*
G01*
X320610000Y-120406250D01*
G75*
G02*
X320853750Y-120162500I243750J0D01*
G01*
G37*
G04 #@! TD.AperFunction*
G04 #@! TA.AperFunction,SMDPad,CuDef*
G36*
G01*
X320853750Y-118287500D02*
X321766250Y-118287500D01*
G75*
G02*
X322010000Y-118531250I0J-243750D01*
G01*
X322010000Y-119018750D01*
G75*
G02*
X321766250Y-119262500I-243750J0D01*
G01*
X320853750Y-119262500D01*
G75*
G02*
X320610000Y-119018750I0J243750D01*
G01*
X320610000Y-118531250D01*
G75*
G02*
X320853750Y-118287500I243750J0D01*
G01*
G37*
G04 #@! TD.AperFunction*
D12*
X35600000Y-108395000D03*
G04 #@! TA.AperFunction,ComponentPad*
G36*
G01*
X33538683Y-110692345D02*
X33538683Y-110692345D01*
G75*
G02*
X33452655Y-109103683I751317J837345D01*
G01*
X34762657Y-107643683D01*
G75*
G02*
X36351319Y-107557655I837345J-751317D01*
G01*
X36351319Y-107557655D01*
G75*
G02*
X36437347Y-109146317I-751317J-837345D01*
G01*
X35127345Y-110606317D01*
G75*
G02*
X33538683Y-110692345I-837345J751317D01*
G01*
G37*
G04 #@! TD.AperFunction*
X40640000Y-107315000D03*
G04 #@! TA.AperFunction,ComponentPad*
G36*
G01*
X40522597Y-109017334D02*
X40522597Y-109017334D01*
G75*
G02*
X39477666Y-107817597I77403J1122334D01*
G01*
X39517666Y-107237597D01*
G75*
G02*
X40717403Y-106192666I1122334J-77403D01*
G01*
X40717403Y-106192666D01*
G75*
G02*
X41762334Y-107392403I-77403J-1122334D01*
G01*
X41722334Y-107972403D01*
G75*
G02*
X40522597Y-109017334I-1122334J77403D01*
G01*
G37*
G04 #@! TD.AperFunction*
X78462500Y-165608500D03*
G04 #@! TA.AperFunction,ComponentPad*
G36*
G01*
X76401183Y-167905845D02*
X76401183Y-167905845D01*
G75*
G02*
X76315155Y-166317183I751317J837345D01*
G01*
X77625157Y-164857183D01*
G75*
G02*
X79213819Y-164771155I837345J-751317D01*
G01*
X79213819Y-164771155D01*
G75*
G02*
X79299847Y-166359817I-751317J-837345D01*
G01*
X77989845Y-167819817D01*
G75*
G02*
X76401183Y-167905845I-837345J751317D01*
G01*
G37*
G04 #@! TD.AperFunction*
X83502500Y-164528500D03*
G04 #@! TA.AperFunction,ComponentPad*
G36*
G01*
X83385097Y-166230834D02*
X83385097Y-166230834D01*
G75*
G02*
X82340166Y-165031097I77403J1122334D01*
G01*
X82380166Y-164451097D01*
G75*
G02*
X83579903Y-163406166I1122334J-77403D01*
G01*
X83579903Y-163406166D01*
G75*
G02*
X84624834Y-164605903I-77403J-1122334D01*
G01*
X84584834Y-165185903D01*
G75*
G02*
X83385097Y-166230834I-1122334J77403D01*
G01*
G37*
G04 #@! TD.AperFunction*
X159425000Y-127445000D03*
G04 #@! TA.AperFunction,ComponentPad*
G36*
G01*
X157363683Y-129742345D02*
X157363683Y-129742345D01*
G75*
G02*
X157277655Y-128153683I751317J837345D01*
G01*
X158587657Y-126693683D01*
G75*
G02*
X160176319Y-126607655I837345J-751317D01*
G01*
X160176319Y-126607655D01*
G75*
G02*
X160262347Y-128196317I-751317J-837345D01*
G01*
X158952345Y-129656317D01*
G75*
G02*
X157363683Y-129742345I-837345J751317D01*
G01*
G37*
G04 #@! TD.AperFunction*
X164465000Y-126365000D03*
G04 #@! TA.AperFunction,ComponentPad*
G36*
G01*
X164347597Y-128067334D02*
X164347597Y-128067334D01*
G75*
G02*
X163302666Y-126867597I77403J1122334D01*
G01*
X163342666Y-126287597D01*
G75*
G02*
X164542403Y-125242666I1122334J-77403D01*
G01*
X164542403Y-125242666D01*
G75*
G02*
X165587334Y-126442403I-77403J-1122334D01*
G01*
X165547334Y-127022403D01*
G75*
G02*
X164347597Y-128067334I-1122334J77403D01*
G01*
G37*
G04 #@! TD.AperFunction*
X97512500Y-165545000D03*
G04 #@! TA.AperFunction,ComponentPad*
G36*
G01*
X95451183Y-167842345D02*
X95451183Y-167842345D01*
G75*
G02*
X95365155Y-166253683I751317J837345D01*
G01*
X96675157Y-164793683D01*
G75*
G02*
X98263819Y-164707655I837345J-751317D01*
G01*
X98263819Y-164707655D01*
G75*
G02*
X98349847Y-166296317I-751317J-837345D01*
G01*
X97039845Y-167756317D01*
G75*
G02*
X95451183Y-167842345I-837345J751317D01*
G01*
G37*
G04 #@! TD.AperFunction*
X102552500Y-164465000D03*
G04 #@! TA.AperFunction,ComponentPad*
G36*
G01*
X102435097Y-166167334D02*
X102435097Y-166167334D01*
G75*
G02*
X101390166Y-164967597I77403J1122334D01*
G01*
X101430166Y-164387597D01*
G75*
G02*
X102629903Y-163342666I1122334J-77403D01*
G01*
X102629903Y-163342666D01*
G75*
G02*
X103674834Y-164542403I-77403J-1122334D01*
G01*
X103634834Y-165122403D01*
G75*
G02*
X102435097Y-166167334I-1122334J77403D01*
G01*
G37*
G04 #@! TD.AperFunction*
X83225000Y-127445000D03*
G04 #@! TA.AperFunction,ComponentPad*
G36*
G01*
X81163683Y-129742345D02*
X81163683Y-129742345D01*
G75*
G02*
X81077655Y-128153683I751317J837345D01*
G01*
X82387657Y-126693683D01*
G75*
G02*
X83976319Y-126607655I837345J-751317D01*
G01*
X83976319Y-126607655D01*
G75*
G02*
X84062347Y-128196317I-751317J-837345D01*
G01*
X82752345Y-129656317D01*
G75*
G02*
X81163683Y-129742345I-837345J751317D01*
G01*
G37*
G04 #@! TD.AperFunction*
X88265000Y-126365000D03*
G04 #@! TA.AperFunction,ComponentPad*
G36*
G01*
X88147597Y-128067334D02*
X88147597Y-128067334D01*
G75*
G02*
X87102666Y-126867597I77403J1122334D01*
G01*
X87142666Y-126287597D01*
G75*
G02*
X88342403Y-125242666I1122334J-77403D01*
G01*
X88342403Y-125242666D01*
G75*
G02*
X89387334Y-126442403I-77403J-1122334D01*
G01*
X89347334Y-127022403D01*
G75*
G02*
X88147597Y-128067334I-1122334J77403D01*
G01*
G37*
G04 #@! TD.AperFunction*
X135612500Y-165545000D03*
G04 #@! TA.AperFunction,ComponentPad*
G36*
G01*
X133551183Y-167842345D02*
X133551183Y-167842345D01*
G75*
G02*
X133465155Y-166253683I751317J837345D01*
G01*
X134775157Y-164793683D01*
G75*
G02*
X136363819Y-164707655I837345J-751317D01*
G01*
X136363819Y-164707655D01*
G75*
G02*
X136449847Y-166296317I-751317J-837345D01*
G01*
X135139845Y-167756317D01*
G75*
G02*
X133551183Y-167842345I-837345J751317D01*
G01*
G37*
G04 #@! TD.AperFunction*
X140652500Y-164465000D03*
G04 #@! TA.AperFunction,ComponentPad*
G36*
G01*
X140535097Y-166167334D02*
X140535097Y-166167334D01*
G75*
G02*
X139490166Y-164967597I77403J1122334D01*
G01*
X139530166Y-164387597D01*
G75*
G02*
X140729903Y-163342666I1122334J-77403D01*
G01*
X140729903Y-163342666D01*
G75*
G02*
X141774834Y-164542403I-77403J-1122334D01*
G01*
X141734834Y-165122403D01*
G75*
G02*
X140535097Y-166167334I-1122334J77403D01*
G01*
G37*
G04 #@! TD.AperFunction*
X353100000Y-165545000D03*
G04 #@! TA.AperFunction,ComponentPad*
G36*
G01*
X351038683Y-167842345D02*
X351038683Y-167842345D01*
G75*
G02*
X350952655Y-166253683I751317J837345D01*
G01*
X352262657Y-164793683D01*
G75*
G02*
X353851319Y-164707655I837345J-751317D01*
G01*
X353851319Y-164707655D01*
G75*
G02*
X353937347Y-166296317I-751317J-837345D01*
G01*
X352627345Y-167756317D01*
G75*
G02*
X351038683Y-167842345I-837345J751317D01*
G01*
G37*
G04 #@! TD.AperFunction*
X358140000Y-164465000D03*
G04 #@! TA.AperFunction,ComponentPad*
G36*
G01*
X358022597Y-166167334D02*
X358022597Y-166167334D01*
G75*
G02*
X356977666Y-164967597I77403J1122334D01*
G01*
X357017666Y-164387597D01*
G75*
G02*
X358217403Y-163342666I1122334J-77403D01*
G01*
X358217403Y-163342666D01*
G75*
G02*
X359262334Y-164542403I-77403J-1122334D01*
G01*
X359222334Y-165122403D01*
G75*
G02*
X358022597Y-166167334I-1122334J77403D01*
G01*
G37*
G04 #@! TD.AperFunction*
X178475000Y-127445000D03*
G04 #@! TA.AperFunction,ComponentPad*
G36*
G01*
X176413683Y-129742345D02*
X176413683Y-129742345D01*
G75*
G02*
X176327655Y-128153683I751317J837345D01*
G01*
X177637657Y-126693683D01*
G75*
G02*
X179226319Y-126607655I837345J-751317D01*
G01*
X179226319Y-126607655D01*
G75*
G02*
X179312347Y-128196317I-751317J-837345D01*
G01*
X178002345Y-129656317D01*
G75*
G02*
X176413683Y-129742345I-837345J751317D01*
G01*
G37*
G04 #@! TD.AperFunction*
X183515000Y-126365000D03*
G04 #@! TA.AperFunction,ComponentPad*
G36*
G01*
X183397597Y-128067334D02*
X183397597Y-128067334D01*
G75*
G02*
X182352666Y-126867597I77403J1122334D01*
G01*
X182392666Y-126287597D01*
G75*
G02*
X183592403Y-125242666I1122334J-77403D01*
G01*
X183592403Y-125242666D01*
G75*
G02*
X184637334Y-126442403I-77403J-1122334D01*
G01*
X184597334Y-127022403D01*
G75*
G02*
X183397597Y-128067334I-1122334J77403D01*
G01*
G37*
G04 #@! TD.AperFunction*
X140375000Y-127445000D03*
G04 #@! TA.AperFunction,ComponentPad*
G36*
G01*
X138313683Y-129742345D02*
X138313683Y-129742345D01*
G75*
G02*
X138227655Y-128153683I751317J837345D01*
G01*
X139537657Y-126693683D01*
G75*
G02*
X141126319Y-126607655I837345J-751317D01*
G01*
X141126319Y-126607655D01*
G75*
G02*
X141212347Y-128196317I-751317J-837345D01*
G01*
X139902345Y-129656317D01*
G75*
G02*
X138313683Y-129742345I-837345J751317D01*
G01*
G37*
G04 #@! TD.AperFunction*
X145415000Y-126365000D03*
G04 #@! TA.AperFunction,ComponentPad*
G36*
G01*
X145297597Y-128067334D02*
X145297597Y-128067334D01*
G75*
G02*
X144252666Y-126867597I77403J1122334D01*
G01*
X144292666Y-126287597D01*
G75*
G02*
X145492403Y-125242666I1122334J-77403D01*
G01*
X145492403Y-125242666D01*
G75*
G02*
X146537334Y-126442403I-77403J-1122334D01*
G01*
X146497334Y-127022403D01*
G75*
G02*
X145297597Y-128067334I-1122334J77403D01*
G01*
G37*
G04 #@! TD.AperFunction*
X87987500Y-146495000D03*
G04 #@! TA.AperFunction,ComponentPad*
G36*
G01*
X85926183Y-148792345D02*
X85926183Y-148792345D01*
G75*
G02*
X85840155Y-147203683I751317J837345D01*
G01*
X87150157Y-145743683D01*
G75*
G02*
X88738819Y-145657655I837345J-751317D01*
G01*
X88738819Y-145657655D01*
G75*
G02*
X88824847Y-147246317I-751317J-837345D01*
G01*
X87514845Y-148706317D01*
G75*
G02*
X85926183Y-148792345I-837345J751317D01*
G01*
G37*
G04 #@! TD.AperFunction*
X93027500Y-145415000D03*
G04 #@! TA.AperFunction,ComponentPad*
G36*
G01*
X92910097Y-147117334D02*
X92910097Y-147117334D01*
G75*
G02*
X91865166Y-145917597I77403J1122334D01*
G01*
X91905166Y-145337597D01*
G75*
G02*
X93104903Y-144292666I1122334J-77403D01*
G01*
X93104903Y-144292666D01*
G75*
G02*
X94149834Y-145492403I-77403J-1122334D01*
G01*
X94109834Y-146072403D01*
G75*
G02*
X92910097Y-147117334I-1122334J77403D01*
G01*
G37*
G04 #@! TD.AperFunction*
X372150000Y-184595000D03*
G04 #@! TA.AperFunction,ComponentPad*
G36*
G01*
X370088683Y-186892345D02*
X370088683Y-186892345D01*
G75*
G02*
X370002655Y-185303683I751317J837345D01*
G01*
X371312657Y-183843683D01*
G75*
G02*
X372901319Y-183757655I837345J-751317D01*
G01*
X372901319Y-183757655D01*
G75*
G02*
X372987347Y-185346317I-751317J-837345D01*
G01*
X371677345Y-186806317D01*
G75*
G02*
X370088683Y-186892345I-837345J751317D01*
G01*
G37*
G04 #@! TD.AperFunction*
X377190000Y-183515000D03*
G04 #@! TA.AperFunction,ComponentPad*
G36*
G01*
X377072597Y-185217334D02*
X377072597Y-185217334D01*
G75*
G02*
X376027666Y-184017597I77403J1122334D01*
G01*
X376067666Y-183437597D01*
G75*
G02*
X377267403Y-182392666I1122334J-77403D01*
G01*
X377267403Y-182392666D01*
G75*
G02*
X378312334Y-183592403I-77403J-1122334D01*
G01*
X378272334Y-184172403D01*
G75*
G02*
X377072597Y-185217334I-1122334J77403D01*
G01*
G37*
G04 #@! TD.AperFunction*
X121325000Y-127445000D03*
G04 #@! TA.AperFunction,ComponentPad*
G36*
G01*
X119263683Y-129742345D02*
X119263683Y-129742345D01*
G75*
G02*
X119177655Y-128153683I751317J837345D01*
G01*
X120487657Y-126693683D01*
G75*
G02*
X122076319Y-126607655I837345J-751317D01*
G01*
X122076319Y-126607655D01*
G75*
G02*
X122162347Y-128196317I-751317J-837345D01*
G01*
X120852345Y-129656317D01*
G75*
G02*
X119263683Y-129742345I-837345J751317D01*
G01*
G37*
G04 #@! TD.AperFunction*
X126365000Y-126365000D03*
G04 #@! TA.AperFunction,ComponentPad*
G36*
G01*
X126247597Y-128067334D02*
X126247597Y-128067334D01*
G75*
G02*
X125202666Y-126867597I77403J1122334D01*
G01*
X125242666Y-126287597D01*
G75*
G02*
X126442403Y-125242666I1122334J-77403D01*
G01*
X126442403Y-125242666D01*
G75*
G02*
X127487334Y-126442403I-77403J-1122334D01*
G01*
X127447334Y-127022403D01*
G75*
G02*
X126247597Y-128067334I-1122334J77403D01*
G01*
G37*
G04 #@! TD.AperFunction*
X64175000Y-127445000D03*
G04 #@! TA.AperFunction,ComponentPad*
G36*
G01*
X62113683Y-129742345D02*
X62113683Y-129742345D01*
G75*
G02*
X62027655Y-128153683I751317J837345D01*
G01*
X63337657Y-126693683D01*
G75*
G02*
X64926319Y-126607655I837345J-751317D01*
G01*
X64926319Y-126607655D01*
G75*
G02*
X65012347Y-128196317I-751317J-837345D01*
G01*
X63702345Y-129656317D01*
G75*
G02*
X62113683Y-129742345I-837345J751317D01*
G01*
G37*
G04 #@! TD.AperFunction*
X69215000Y-126365000D03*
G04 #@! TA.AperFunction,ComponentPad*
G36*
G01*
X69097597Y-128067334D02*
X69097597Y-128067334D01*
G75*
G02*
X68052666Y-126867597I77403J1122334D01*
G01*
X68092666Y-126287597D01*
G75*
G02*
X69292403Y-125242666I1122334J-77403D01*
G01*
X69292403Y-125242666D01*
G75*
G02*
X70337334Y-126442403I-77403J-1122334D01*
G01*
X70297334Y-127022403D01*
G75*
G02*
X69097597Y-128067334I-1122334J77403D01*
G01*
G37*
G04 #@! TD.AperFunction*
X334050000Y-80137500D03*
G04 #@! TA.AperFunction,ComponentPad*
G36*
G01*
X331988683Y-82434845D02*
X331988683Y-82434845D01*
G75*
G02*
X331902655Y-80846183I751317J837345D01*
G01*
X333212657Y-79386183D01*
G75*
G02*
X334801319Y-79300155I837345J-751317D01*
G01*
X334801319Y-79300155D01*
G75*
G02*
X334887347Y-80888817I-751317J-837345D01*
G01*
X333577345Y-82348817D01*
G75*
G02*
X331988683Y-82434845I-837345J751317D01*
G01*
G37*
G04 #@! TD.AperFunction*
X339090000Y-79057500D03*
G04 #@! TA.AperFunction,ComponentPad*
G36*
G01*
X338972597Y-80759834D02*
X338972597Y-80759834D01*
G75*
G02*
X337927666Y-79560097I77403J1122334D01*
G01*
X337967666Y-78980097D01*
G75*
G02*
X339167403Y-77935166I1122334J-77403D01*
G01*
X339167403Y-77935166D01*
G75*
G02*
X340212334Y-79134903I-77403J-1122334D01*
G01*
X340172334Y-79714903D01*
G75*
G02*
X338972597Y-80759834I-1122334J77403D01*
G01*
G37*
G04 #@! TD.AperFunction*
X353100000Y-80137500D03*
G04 #@! TA.AperFunction,ComponentPad*
G36*
G01*
X351038683Y-82434845D02*
X351038683Y-82434845D01*
G75*
G02*
X350952655Y-80846183I751317J837345D01*
G01*
X352262657Y-79386183D01*
G75*
G02*
X353851319Y-79300155I837345J-751317D01*
G01*
X353851319Y-79300155D01*
G75*
G02*
X353937347Y-80888817I-751317J-837345D01*
G01*
X352627345Y-82348817D01*
G75*
G02*
X351038683Y-82434845I-837345J751317D01*
G01*
G37*
G04 #@! TD.AperFunction*
X358140000Y-79057500D03*
G04 #@! TA.AperFunction,ComponentPad*
G36*
G01*
X358022597Y-80759834D02*
X358022597Y-80759834D01*
G75*
G02*
X356977666Y-79560097I77403J1122334D01*
G01*
X357017666Y-78980097D01*
G75*
G02*
X358217403Y-77935166I1122334J-77403D01*
G01*
X358217403Y-77935166D01*
G75*
G02*
X359262334Y-79134903I-77403J-1122334D01*
G01*
X359222334Y-79714903D01*
G75*
G02*
X358022597Y-80759834I-1122334J77403D01*
G01*
G37*
G04 #@! TD.AperFunction*
X235625000Y-127445000D03*
G04 #@! TA.AperFunction,ComponentPad*
G36*
G01*
X233563683Y-129742345D02*
X233563683Y-129742345D01*
G75*
G02*
X233477655Y-128153683I751317J837345D01*
G01*
X234787657Y-126693683D01*
G75*
G02*
X236376319Y-126607655I837345J-751317D01*
G01*
X236376319Y-126607655D01*
G75*
G02*
X236462347Y-128196317I-751317J-837345D01*
G01*
X235152345Y-129656317D01*
G75*
G02*
X233563683Y-129742345I-837345J751317D01*
G01*
G37*
G04 #@! TD.AperFunction*
X240665000Y-126365000D03*
G04 #@! TA.AperFunction,ComponentPad*
G36*
G01*
X240547597Y-128067334D02*
X240547597Y-128067334D01*
G75*
G02*
X239502666Y-126867597I77403J1122334D01*
G01*
X239542666Y-126287597D01*
G75*
G02*
X240742403Y-125242666I1122334J-77403D01*
G01*
X240742403Y-125242666D01*
G75*
G02*
X241787334Y-126442403I-77403J-1122334D01*
G01*
X241747334Y-127022403D01*
G75*
G02*
X240547597Y-128067334I-1122334J77403D01*
G01*
G37*
G04 #@! TD.AperFunction*
X216575000Y-127445000D03*
G04 #@! TA.AperFunction,ComponentPad*
G36*
G01*
X214513683Y-129742345D02*
X214513683Y-129742345D01*
G75*
G02*
X214427655Y-128153683I751317J837345D01*
G01*
X215737657Y-126693683D01*
G75*
G02*
X217326319Y-126607655I837345J-751317D01*
G01*
X217326319Y-126607655D01*
G75*
G02*
X217412347Y-128196317I-751317J-837345D01*
G01*
X216102345Y-129656317D01*
G75*
G02*
X214513683Y-129742345I-837345J751317D01*
G01*
G37*
G04 #@! TD.AperFunction*
X221615000Y-126365000D03*
G04 #@! TA.AperFunction,ComponentPad*
G36*
G01*
X221497597Y-128067334D02*
X221497597Y-128067334D01*
G75*
G02*
X220452666Y-126867597I77403J1122334D01*
G01*
X220492666Y-126287597D01*
G75*
G02*
X221692403Y-125242666I1122334J-77403D01*
G01*
X221692403Y-125242666D01*
G75*
G02*
X222737334Y-126442403I-77403J-1122334D01*
G01*
X222697334Y-127022403D01*
G75*
G02*
X221497597Y-128067334I-1122334J77403D01*
G01*
G37*
G04 #@! TD.AperFunction*
X372150000Y-80137500D03*
G04 #@! TA.AperFunction,ComponentPad*
G36*
G01*
X370088683Y-82434845D02*
X370088683Y-82434845D01*
G75*
G02*
X370002655Y-80846183I751317J837345D01*
G01*
X371312657Y-79386183D01*
G75*
G02*
X372901319Y-79300155I837345J-751317D01*
G01*
X372901319Y-79300155D01*
G75*
G02*
X372987347Y-80888817I-751317J-837345D01*
G01*
X371677345Y-82348817D01*
G75*
G02*
X370088683Y-82434845I-837345J751317D01*
G01*
G37*
G04 #@! TD.AperFunction*
X377190000Y-79057500D03*
G04 #@! TA.AperFunction,ComponentPad*
G36*
G01*
X377072597Y-80759834D02*
X377072597Y-80759834D01*
G75*
G02*
X376027666Y-79560097I77403J1122334D01*
G01*
X376067666Y-78980097D01*
G75*
G02*
X377267403Y-77935166I1122334J-77403D01*
G01*
X377267403Y-77935166D01*
G75*
G02*
X378312334Y-79134903I-77403J-1122334D01*
G01*
X378272334Y-79714903D01*
G75*
G02*
X377072597Y-80759834I-1122334J77403D01*
G01*
G37*
G04 #@! TD.AperFunction*
X192762500Y-165545000D03*
G04 #@! TA.AperFunction,ComponentPad*
G36*
G01*
X190701183Y-167842345D02*
X190701183Y-167842345D01*
G75*
G02*
X190615155Y-166253683I751317J837345D01*
G01*
X191925157Y-164793683D01*
G75*
G02*
X193513819Y-164707655I837345J-751317D01*
G01*
X193513819Y-164707655D01*
G75*
G02*
X193599847Y-166296317I-751317J-837345D01*
G01*
X192289845Y-167756317D01*
G75*
G02*
X190701183Y-167842345I-837345J751317D01*
G01*
G37*
G04 #@! TD.AperFunction*
X197802500Y-164465000D03*
G04 #@! TA.AperFunction,ComponentPad*
G36*
G01*
X197685097Y-166167334D02*
X197685097Y-166167334D01*
G75*
G02*
X196640166Y-164967597I77403J1122334D01*
G01*
X196680166Y-164387597D01*
G75*
G02*
X197879903Y-163342666I1122334J-77403D01*
G01*
X197879903Y-163342666D01*
G75*
G02*
X198924834Y-164542403I-77403J-1122334D01*
G01*
X198884834Y-165122403D01*
G75*
G02*
X197685097Y-166167334I-1122334J77403D01*
G01*
G37*
G04 #@! TD.AperFunction*
X334050000Y-184595000D03*
G04 #@! TA.AperFunction,ComponentPad*
G36*
G01*
X331988683Y-186892345D02*
X331988683Y-186892345D01*
G75*
G02*
X331902655Y-185303683I751317J837345D01*
G01*
X333212657Y-183843683D01*
G75*
G02*
X334801319Y-183757655I837345J-751317D01*
G01*
X334801319Y-183757655D01*
G75*
G02*
X334887347Y-185346317I-751317J-837345D01*
G01*
X333577345Y-186806317D01*
G75*
G02*
X331988683Y-186892345I-837345J751317D01*
G01*
G37*
G04 #@! TD.AperFunction*
X339090000Y-183515000D03*
G04 #@! TA.AperFunction,ComponentPad*
G36*
G01*
X338972597Y-185217334D02*
X338972597Y-185217334D01*
G75*
G02*
X337927666Y-184017597I77403J1122334D01*
G01*
X337967666Y-183437597D01*
G75*
G02*
X339167403Y-182392666I1122334J-77403D01*
G01*
X339167403Y-182392666D01*
G75*
G02*
X340212334Y-183592403I-77403J-1122334D01*
G01*
X340172334Y-184172403D01*
G75*
G02*
X338972597Y-185217334I-1122334J77403D01*
G01*
G37*
G04 #@! TD.AperFunction*
X221337500Y-146495000D03*
G04 #@! TA.AperFunction,ComponentPad*
G36*
G01*
X219276183Y-148792345D02*
X219276183Y-148792345D01*
G75*
G02*
X219190155Y-147203683I751317J837345D01*
G01*
X220500157Y-145743683D01*
G75*
G02*
X222088819Y-145657655I837345J-751317D01*
G01*
X222088819Y-145657655D01*
G75*
G02*
X222174847Y-147246317I-751317J-837345D01*
G01*
X220864845Y-148706317D01*
G75*
G02*
X219276183Y-148792345I-837345J751317D01*
G01*
G37*
G04 #@! TD.AperFunction*
X226377500Y-145415000D03*
G04 #@! TA.AperFunction,ComponentPad*
G36*
G01*
X226260097Y-147117334D02*
X226260097Y-147117334D01*
G75*
G02*
X225215166Y-145917597I77403J1122334D01*
G01*
X225255166Y-145337597D01*
G75*
G02*
X226454903Y-144292666I1122334J-77403D01*
G01*
X226454903Y-144292666D01*
G75*
G02*
X227499834Y-145492403I-77403J-1122334D01*
G01*
X227459834Y-146072403D01*
G75*
G02*
X226260097Y-147117334I-1122334J77403D01*
G01*
G37*
G04 #@! TD.AperFunction*
X202287500Y-146495000D03*
G04 #@! TA.AperFunction,ComponentPad*
G36*
G01*
X200226183Y-148792345D02*
X200226183Y-148792345D01*
G75*
G02*
X200140155Y-147203683I751317J837345D01*
G01*
X201450157Y-145743683D01*
G75*
G02*
X203038819Y-145657655I837345J-751317D01*
G01*
X203038819Y-145657655D01*
G75*
G02*
X203124847Y-147246317I-751317J-837345D01*
G01*
X201814845Y-148706317D01*
G75*
G02*
X200226183Y-148792345I-837345J751317D01*
G01*
G37*
G04 #@! TD.AperFunction*
X207327500Y-145415000D03*
G04 #@! TA.AperFunction,ComponentPad*
G36*
G01*
X207210097Y-147117334D02*
X207210097Y-147117334D01*
G75*
G02*
X206165166Y-145917597I77403J1122334D01*
G01*
X206205166Y-145337597D01*
G75*
G02*
X207404903Y-144292666I1122334J-77403D01*
G01*
X207404903Y-144292666D01*
G75*
G02*
X208449834Y-145492403I-77403J-1122334D01*
G01*
X208409834Y-146072403D01*
G75*
G02*
X207210097Y-147117334I-1122334J77403D01*
G01*
G37*
G04 #@! TD.AperFunction*
X183237500Y-146495000D03*
G04 #@! TA.AperFunction,ComponentPad*
G36*
G01*
X181176183Y-148792345D02*
X181176183Y-148792345D01*
G75*
G02*
X181090155Y-147203683I751317J837345D01*
G01*
X182400157Y-145743683D01*
G75*
G02*
X183988819Y-145657655I837345J-751317D01*
G01*
X183988819Y-145657655D01*
G75*
G02*
X184074847Y-147246317I-751317J-837345D01*
G01*
X182764845Y-148706317D01*
G75*
G02*
X181176183Y-148792345I-837345J751317D01*
G01*
G37*
G04 #@! TD.AperFunction*
X188277500Y-145415000D03*
G04 #@! TA.AperFunction,ComponentPad*
G36*
G01*
X188160097Y-147117334D02*
X188160097Y-147117334D01*
G75*
G02*
X187115166Y-145917597I77403J1122334D01*
G01*
X187155166Y-145337597D01*
G75*
G02*
X188354903Y-144292666I1122334J-77403D01*
G01*
X188354903Y-144292666D01*
G75*
G02*
X189399834Y-145492403I-77403J-1122334D01*
G01*
X189359834Y-146072403D01*
G75*
G02*
X188160097Y-147117334I-1122334J77403D01*
G01*
G37*
G04 #@! TD.AperFunction*
X197525000Y-127445000D03*
G04 #@! TA.AperFunction,ComponentPad*
G36*
G01*
X195463683Y-129742345D02*
X195463683Y-129742345D01*
G75*
G02*
X195377655Y-128153683I751317J837345D01*
G01*
X196687657Y-126693683D01*
G75*
G02*
X198276319Y-126607655I837345J-751317D01*
G01*
X198276319Y-126607655D01*
G75*
G02*
X198362347Y-128196317I-751317J-837345D01*
G01*
X197052345Y-129656317D01*
G75*
G02*
X195463683Y-129742345I-837345J751317D01*
G01*
G37*
G04 #@! TD.AperFunction*
X202565000Y-126365000D03*
G04 #@! TA.AperFunction,ComponentPad*
G36*
G01*
X202447597Y-128067334D02*
X202447597Y-128067334D01*
G75*
G02*
X201402666Y-126867597I77403J1122334D01*
G01*
X201442666Y-126287597D01*
G75*
G02*
X202642403Y-125242666I1122334J-77403D01*
G01*
X202642403Y-125242666D01*
G75*
G02*
X203687334Y-126442403I-77403J-1122334D01*
G01*
X203647334Y-127022403D01*
G75*
G02*
X202447597Y-128067334I-1122334J77403D01*
G01*
G37*
G04 #@! TD.AperFunction*
X164187500Y-146495000D03*
G04 #@! TA.AperFunction,ComponentPad*
G36*
G01*
X162126183Y-148792345D02*
X162126183Y-148792345D01*
G75*
G02*
X162040155Y-147203683I751317J837345D01*
G01*
X163350157Y-145743683D01*
G75*
G02*
X164938819Y-145657655I837345J-751317D01*
G01*
X164938819Y-145657655D01*
G75*
G02*
X165024847Y-147246317I-751317J-837345D01*
G01*
X163714845Y-148706317D01*
G75*
G02*
X162126183Y-148792345I-837345J751317D01*
G01*
G37*
G04 #@! TD.AperFunction*
X169227500Y-145415000D03*
G04 #@! TA.AperFunction,ComponentPad*
G36*
G01*
X169110097Y-147117334D02*
X169110097Y-147117334D01*
G75*
G02*
X168065166Y-145917597I77403J1122334D01*
G01*
X168105166Y-145337597D01*
G75*
G02*
X169304903Y-144292666I1122334J-77403D01*
G01*
X169304903Y-144292666D01*
G75*
G02*
X170349834Y-145492403I-77403J-1122334D01*
G01*
X170309834Y-146072403D01*
G75*
G02*
X169110097Y-147117334I-1122334J77403D01*
G01*
G37*
G04 #@! TD.AperFunction*
X145175600Y-146520400D03*
G04 #@! TA.AperFunction,ComponentPad*
G36*
G01*
X143114283Y-148817745D02*
X143114283Y-148817745D01*
G75*
G02*
X143028255Y-147229083I751317J837345D01*
G01*
X144338257Y-145769083D01*
G75*
G02*
X145926919Y-145683055I837345J-751317D01*
G01*
X145926919Y-145683055D01*
G75*
G02*
X146012947Y-147271717I-751317J-837345D01*
G01*
X144702945Y-148731717D01*
G75*
G02*
X143114283Y-148817745I-837345J751317D01*
G01*
G37*
G04 #@! TD.AperFunction*
X150215600Y-145440400D03*
G04 #@! TA.AperFunction,ComponentPad*
G36*
G01*
X150098197Y-147142734D02*
X150098197Y-147142734D01*
G75*
G02*
X149053266Y-145942997I77403J1122334D01*
G01*
X149093266Y-145362997D01*
G75*
G02*
X150293003Y-144318066I1122334J-77403D01*
G01*
X150293003Y-144318066D01*
G75*
G02*
X151337934Y-145517803I-77403J-1122334D01*
G01*
X151297934Y-146097803D01*
G75*
G02*
X150098197Y-147142734I-1122334J77403D01*
G01*
G37*
G04 #@! TD.AperFunction*
X302300000Y-80137500D03*
G04 #@! TA.AperFunction,ComponentPad*
G36*
G01*
X300238683Y-82434845D02*
X300238683Y-82434845D01*
G75*
G02*
X300152655Y-80846183I751317J837345D01*
G01*
X301462657Y-79386183D01*
G75*
G02*
X303051319Y-79300155I837345J-751317D01*
G01*
X303051319Y-79300155D01*
G75*
G02*
X303137347Y-80888817I-751317J-837345D01*
G01*
X301827345Y-82348817D01*
G75*
G02*
X300238683Y-82434845I-837345J751317D01*
G01*
G37*
G04 #@! TD.AperFunction*
X307340000Y-79057500D03*
G04 #@! TA.AperFunction,ComponentPad*
G36*
G01*
X307222597Y-80759834D02*
X307222597Y-80759834D01*
G75*
G02*
X306177666Y-79560097I77403J1122334D01*
G01*
X306217666Y-78980097D01*
G75*
G02*
X307417403Y-77935166I1122334J-77403D01*
G01*
X307417403Y-77935166D01*
G75*
G02*
X308462334Y-79134903I-77403J-1122334D01*
G01*
X308422334Y-79714903D01*
G75*
G02*
X307222597Y-80759834I-1122334J77403D01*
G01*
G37*
G04 #@! TD.AperFunction*
X283250000Y-80137500D03*
G04 #@! TA.AperFunction,ComponentPad*
G36*
G01*
X281188683Y-82434845D02*
X281188683Y-82434845D01*
G75*
G02*
X281102655Y-80846183I751317J837345D01*
G01*
X282412657Y-79386183D01*
G75*
G02*
X284001319Y-79300155I837345J-751317D01*
G01*
X284001319Y-79300155D01*
G75*
G02*
X284087347Y-80888817I-751317J-837345D01*
G01*
X282777345Y-82348817D01*
G75*
G02*
X281188683Y-82434845I-837345J751317D01*
G01*
G37*
G04 #@! TD.AperFunction*
X288290000Y-79057500D03*
G04 #@! TA.AperFunction,ComponentPad*
G36*
G01*
X288172597Y-80759834D02*
X288172597Y-80759834D01*
G75*
G02*
X287127666Y-79560097I77403J1122334D01*
G01*
X287167666Y-78980097D01*
G75*
G02*
X288367403Y-77935166I1122334J-77403D01*
G01*
X288367403Y-77935166D01*
G75*
G02*
X289412334Y-79134903I-77403J-1122334D01*
G01*
X289372334Y-79714903D01*
G75*
G02*
X288172597Y-80759834I-1122334J77403D01*
G01*
G37*
G04 #@! TD.AperFunction*
X245150000Y-80137500D03*
G04 #@! TA.AperFunction,ComponentPad*
G36*
G01*
X243088683Y-82434845D02*
X243088683Y-82434845D01*
G75*
G02*
X243002655Y-80846183I751317J837345D01*
G01*
X244312657Y-79386183D01*
G75*
G02*
X245901319Y-79300155I837345J-751317D01*
G01*
X245901319Y-79300155D01*
G75*
G02*
X245987347Y-80888817I-751317J-837345D01*
G01*
X244677345Y-82348817D01*
G75*
G02*
X243088683Y-82434845I-837345J751317D01*
G01*
G37*
G04 #@! TD.AperFunction*
X250190000Y-79057500D03*
G04 #@! TA.AperFunction,ComponentPad*
G36*
G01*
X250072597Y-80759834D02*
X250072597Y-80759834D01*
G75*
G02*
X249027666Y-79560097I77403J1122334D01*
G01*
X249067666Y-78980097D01*
G75*
G02*
X250267403Y-77935166I1122334J-77403D01*
G01*
X250267403Y-77935166D01*
G75*
G02*
X251312334Y-79134903I-77403J-1122334D01*
G01*
X251272334Y-79714903D01*
G75*
G02*
X250072597Y-80759834I-1122334J77403D01*
G01*
G37*
G04 #@! TD.AperFunction*
X213400000Y-80137500D03*
G04 #@! TA.AperFunction,ComponentPad*
G36*
G01*
X211338683Y-82434845D02*
X211338683Y-82434845D01*
G75*
G02*
X211252655Y-80846183I751317J837345D01*
G01*
X212562657Y-79386183D01*
G75*
G02*
X214151319Y-79300155I837345J-751317D01*
G01*
X214151319Y-79300155D01*
G75*
G02*
X214237347Y-80888817I-751317J-837345D01*
G01*
X212927345Y-82348817D01*
G75*
G02*
X211338683Y-82434845I-837345J751317D01*
G01*
G37*
G04 #@! TD.AperFunction*
X218440000Y-79057500D03*
G04 #@! TA.AperFunction,ComponentPad*
G36*
G01*
X218322597Y-80759834D02*
X218322597Y-80759834D01*
G75*
G02*
X217277666Y-79560097I77403J1122334D01*
G01*
X217317666Y-78980097D01*
G75*
G02*
X218517403Y-77935166I1122334J-77403D01*
G01*
X218517403Y-77935166D01*
G75*
G02*
X219562334Y-79134903I-77403J-1122334D01*
G01*
X219522334Y-79714903D01*
G75*
G02*
X218322597Y-80759834I-1122334J77403D01*
G01*
G37*
G04 #@! TD.AperFunction*
X175300000Y-80137500D03*
G04 #@! TA.AperFunction,ComponentPad*
G36*
G01*
X173238683Y-82434845D02*
X173238683Y-82434845D01*
G75*
G02*
X173152655Y-80846183I751317J837345D01*
G01*
X174462657Y-79386183D01*
G75*
G02*
X176051319Y-79300155I837345J-751317D01*
G01*
X176051319Y-79300155D01*
G75*
G02*
X176137347Y-80888817I-751317J-837345D01*
G01*
X174827345Y-82348817D01*
G75*
G02*
X173238683Y-82434845I-837345J751317D01*
G01*
G37*
G04 #@! TD.AperFunction*
X180340000Y-79057500D03*
G04 #@! TA.AperFunction,ComponentPad*
G36*
G01*
X180222597Y-80759834D02*
X180222597Y-80759834D01*
G75*
G02*
X179177666Y-79560097I77403J1122334D01*
G01*
X179217666Y-78980097D01*
G75*
G02*
X180417403Y-77935166I1122334J-77403D01*
G01*
X180417403Y-77935166D01*
G75*
G02*
X181462334Y-79134903I-77403J-1122334D01*
G01*
X181422334Y-79714903D01*
G75*
G02*
X180222597Y-80759834I-1122334J77403D01*
G01*
G37*
G04 #@! TD.AperFunction*
X124500000Y-80137500D03*
G04 #@! TA.AperFunction,ComponentPad*
G36*
G01*
X122438683Y-82434845D02*
X122438683Y-82434845D01*
G75*
G02*
X122352655Y-80846183I751317J837345D01*
G01*
X123662657Y-79386183D01*
G75*
G02*
X125251319Y-79300155I837345J-751317D01*
G01*
X125251319Y-79300155D01*
G75*
G02*
X125337347Y-80888817I-751317J-837345D01*
G01*
X124027345Y-82348817D01*
G75*
G02*
X122438683Y-82434845I-837345J751317D01*
G01*
G37*
G04 #@! TD.AperFunction*
X129540000Y-79057500D03*
G04 #@! TA.AperFunction,ComponentPad*
G36*
G01*
X129422597Y-80759834D02*
X129422597Y-80759834D01*
G75*
G02*
X128377666Y-79560097I77403J1122334D01*
G01*
X128417666Y-78980097D01*
G75*
G02*
X129617403Y-77935166I1122334J-77403D01*
G01*
X129617403Y-77935166D01*
G75*
G02*
X130662334Y-79134903I-77403J-1122334D01*
G01*
X130622334Y-79714903D01*
G75*
G02*
X129422597Y-80759834I-1122334J77403D01*
G01*
G37*
G04 #@! TD.AperFunction*
X105450000Y-80137500D03*
G04 #@! TA.AperFunction,ComponentPad*
G36*
G01*
X103388683Y-82434845D02*
X103388683Y-82434845D01*
G75*
G02*
X103302655Y-80846183I751317J837345D01*
G01*
X104612657Y-79386183D01*
G75*
G02*
X106201319Y-79300155I837345J-751317D01*
G01*
X106201319Y-79300155D01*
G75*
G02*
X106287347Y-80888817I-751317J-837345D01*
G01*
X104977345Y-82348817D01*
G75*
G02*
X103388683Y-82434845I-837345J751317D01*
G01*
G37*
G04 #@! TD.AperFunction*
X110490000Y-79057500D03*
G04 #@! TA.AperFunction,ComponentPad*
G36*
G01*
X110372597Y-80759834D02*
X110372597Y-80759834D01*
G75*
G02*
X109327666Y-79560097I77403J1122334D01*
G01*
X109367666Y-78980097D01*
G75*
G02*
X110567403Y-77935166I1122334J-77403D01*
G01*
X110567403Y-77935166D01*
G75*
G02*
X111612334Y-79134903I-77403J-1122334D01*
G01*
X111572334Y-79714903D01*
G75*
G02*
X110372597Y-80759834I-1122334J77403D01*
G01*
G37*
G04 #@! TD.AperFunction*
X86400000Y-80137500D03*
G04 #@! TA.AperFunction,ComponentPad*
G36*
G01*
X84338683Y-82434845D02*
X84338683Y-82434845D01*
G75*
G02*
X84252655Y-80846183I751317J837345D01*
G01*
X85562657Y-79386183D01*
G75*
G02*
X87151319Y-79300155I837345J-751317D01*
G01*
X87151319Y-79300155D01*
G75*
G02*
X87237347Y-80888817I-751317J-837345D01*
G01*
X85927345Y-82348817D01*
G75*
G02*
X84338683Y-82434845I-837345J751317D01*
G01*
G37*
G04 #@! TD.AperFunction*
X91440000Y-79057500D03*
G04 #@! TA.AperFunction,ComponentPad*
G36*
G01*
X91322597Y-80759834D02*
X91322597Y-80759834D01*
G75*
G02*
X90277666Y-79560097I77403J1122334D01*
G01*
X90317666Y-78980097D01*
G75*
G02*
X91517403Y-77935166I1122334J-77403D01*
G01*
X91517403Y-77935166D01*
G75*
G02*
X92562334Y-79134903I-77403J-1122334D01*
G01*
X92522334Y-79714903D01*
G75*
G02*
X91322597Y-80759834I-1122334J77403D01*
G01*
G37*
G04 #@! TD.AperFunction*
X67350000Y-80137500D03*
G04 #@! TA.AperFunction,ComponentPad*
G36*
G01*
X65288683Y-82434845D02*
X65288683Y-82434845D01*
G75*
G02*
X65202655Y-80846183I751317J837345D01*
G01*
X66512657Y-79386183D01*
G75*
G02*
X68101319Y-79300155I837345J-751317D01*
G01*
X68101319Y-79300155D01*
G75*
G02*
X68187347Y-80888817I-751317J-837345D01*
G01*
X66877345Y-82348817D01*
G75*
G02*
X65288683Y-82434845I-837345J751317D01*
G01*
G37*
G04 #@! TD.AperFunction*
X72390000Y-79057500D03*
G04 #@! TA.AperFunction,ComponentPad*
G36*
G01*
X72272597Y-80759834D02*
X72272597Y-80759834D01*
G75*
G02*
X71227666Y-79560097I77403J1122334D01*
G01*
X71267666Y-78980097D01*
G75*
G02*
X72467403Y-77935166I1122334J-77403D01*
G01*
X72467403Y-77935166D01*
G75*
G02*
X73512334Y-79134903I-77403J-1122334D01*
G01*
X73472334Y-79714903D01*
G75*
G02*
X72272597Y-80759834I-1122334J77403D01*
G01*
G37*
G04 #@! TD.AperFunction*
X35600000Y-80137500D03*
G04 #@! TA.AperFunction,ComponentPad*
G36*
G01*
X33538683Y-82434845D02*
X33538683Y-82434845D01*
G75*
G02*
X33452655Y-80846183I751317J837345D01*
G01*
X34762657Y-79386183D01*
G75*
G02*
X36351319Y-79300155I837345J-751317D01*
G01*
X36351319Y-79300155D01*
G75*
G02*
X36437347Y-80888817I-751317J-837345D01*
G01*
X35127345Y-82348817D01*
G75*
G02*
X33538683Y-82434845I-837345J751317D01*
G01*
G37*
G04 #@! TD.AperFunction*
X40640000Y-79057500D03*
G04 #@! TA.AperFunction,ComponentPad*
G36*
G01*
X40522597Y-80759834D02*
X40522597Y-80759834D01*
G75*
G02*
X39477666Y-79560097I77403J1122334D01*
G01*
X39517666Y-78980097D01*
G75*
G02*
X40717403Y-77935166I1122334J-77403D01*
G01*
X40717403Y-77935166D01*
G75*
G02*
X41762334Y-79134903I-77403J-1122334D01*
G01*
X41722334Y-79714903D01*
G75*
G02*
X40522597Y-80759834I-1122334J77403D01*
G01*
G37*
G04 #@! TD.AperFunction*
X102275000Y-127445000D03*
G04 #@! TA.AperFunction,ComponentPad*
G36*
G01*
X100213683Y-129742345D02*
X100213683Y-129742345D01*
G75*
G02*
X100127655Y-128153683I751317J837345D01*
G01*
X101437657Y-126693683D01*
G75*
G02*
X103026319Y-126607655I837345J-751317D01*
G01*
X103026319Y-126607655D01*
G75*
G02*
X103112347Y-128196317I-751317J-837345D01*
G01*
X101802345Y-129656317D01*
G75*
G02*
X100213683Y-129742345I-837345J751317D01*
G01*
G37*
G04 #@! TD.AperFunction*
X107315000Y-126365000D03*
G04 #@! TA.AperFunction,ComponentPad*
G36*
G01*
X107197597Y-128067334D02*
X107197597Y-128067334D01*
G75*
G02*
X106152666Y-126867597I77403J1122334D01*
G01*
X106192666Y-126287597D01*
G75*
G02*
X107392403Y-125242666I1122334J-77403D01*
G01*
X107392403Y-125242666D01*
G75*
G02*
X108437334Y-126442403I-77403J-1122334D01*
G01*
X108397334Y-127022403D01*
G75*
G02*
X107197597Y-128067334I-1122334J77403D01*
G01*
G37*
G04 #@! TD.AperFunction*
X353100000Y-184595000D03*
G04 #@! TA.AperFunction,ComponentPad*
G36*
G01*
X351038683Y-186892345D02*
X351038683Y-186892345D01*
G75*
G02*
X350952655Y-185303683I751317J837345D01*
G01*
X352262657Y-183843683D01*
G75*
G02*
X353851319Y-183757655I837345J-751317D01*
G01*
X353851319Y-183757655D01*
G75*
G02*
X353937347Y-185346317I-751317J-837345D01*
G01*
X352627345Y-186806317D01*
G75*
G02*
X351038683Y-186892345I-837345J751317D01*
G01*
G37*
G04 #@! TD.AperFunction*
X358140000Y-183515000D03*
G04 #@! TA.AperFunction,ComponentPad*
G36*
G01*
X358022597Y-185217334D02*
X358022597Y-185217334D01*
G75*
G02*
X356977666Y-184017597I77403J1122334D01*
G01*
X357017666Y-183437597D01*
G75*
G02*
X358217403Y-182392666I1122334J-77403D01*
G01*
X358217403Y-182392666D01*
G75*
G02*
X359262334Y-183592403I-77403J-1122334D01*
G01*
X359222334Y-184172403D01*
G75*
G02*
X358022597Y-185217334I-1122334J77403D01*
G01*
G37*
G04 #@! TD.AperFunction*
X107037500Y-146495000D03*
G04 #@! TA.AperFunction,ComponentPad*
G36*
G01*
X104976183Y-148792345D02*
X104976183Y-148792345D01*
G75*
G02*
X104890155Y-147203683I751317J837345D01*
G01*
X106200157Y-145743683D01*
G75*
G02*
X107788819Y-145657655I837345J-751317D01*
G01*
X107788819Y-145657655D01*
G75*
G02*
X107874847Y-147246317I-751317J-837345D01*
G01*
X106564845Y-148706317D01*
G75*
G02*
X104976183Y-148792345I-837345J751317D01*
G01*
G37*
G04 #@! TD.AperFunction*
X112077500Y-145415000D03*
G04 #@! TA.AperFunction,ComponentPad*
G36*
G01*
X111960097Y-147117334D02*
X111960097Y-147117334D01*
G75*
G02*
X110915166Y-145917597I77403J1122334D01*
G01*
X110955166Y-145337597D01*
G75*
G02*
X112154903Y-144292666I1122334J-77403D01*
G01*
X112154903Y-144292666D01*
G75*
G02*
X113199834Y-145492403I-77403J-1122334D01*
G01*
X113159834Y-146072403D01*
G75*
G02*
X111960097Y-147117334I-1122334J77403D01*
G01*
G37*
G04 #@! TD.AperFunction*
X154662500Y-165545000D03*
G04 #@! TA.AperFunction,ComponentPad*
G36*
G01*
X152601183Y-167842345D02*
X152601183Y-167842345D01*
G75*
G02*
X152515155Y-166253683I751317J837345D01*
G01*
X153825157Y-164793683D01*
G75*
G02*
X155413819Y-164707655I837345J-751317D01*
G01*
X155413819Y-164707655D01*
G75*
G02*
X155499847Y-166296317I-751317J-837345D01*
G01*
X154189845Y-167756317D01*
G75*
G02*
X152601183Y-167842345I-837345J751317D01*
G01*
G37*
G04 #@! TD.AperFunction*
X159702500Y-164465000D03*
G04 #@! TA.AperFunction,ComponentPad*
G36*
G01*
X159585097Y-166167334D02*
X159585097Y-166167334D01*
G75*
G02*
X158540166Y-164967597I77403J1122334D01*
G01*
X158580166Y-164387597D01*
G75*
G02*
X159779903Y-163342666I1122334J-77403D01*
G01*
X159779903Y-163342666D01*
G75*
G02*
X160824834Y-164542403I-77403J-1122334D01*
G01*
X160784834Y-165122403D01*
G75*
G02*
X159585097Y-166167334I-1122334J77403D01*
G01*
G37*
G04 #@! TD.AperFunction*
X68937500Y-146495000D03*
G04 #@! TA.AperFunction,ComponentPad*
G36*
G01*
X66876183Y-148792345D02*
X66876183Y-148792345D01*
G75*
G02*
X66790155Y-147203683I751317J837345D01*
G01*
X68100157Y-145743683D01*
G75*
G02*
X69688819Y-145657655I837345J-751317D01*
G01*
X69688819Y-145657655D01*
G75*
G02*
X69774847Y-147246317I-751317J-837345D01*
G01*
X68464845Y-148706317D01*
G75*
G02*
X66876183Y-148792345I-837345J751317D01*
G01*
G37*
G04 #@! TD.AperFunction*
X73977500Y-145415000D03*
G04 #@! TA.AperFunction,ComponentPad*
G36*
G01*
X73860097Y-147117334D02*
X73860097Y-147117334D01*
G75*
G02*
X72815166Y-145917597I77403J1122334D01*
G01*
X72855166Y-145337597D01*
G75*
G02*
X74054903Y-144292666I1122334J-77403D01*
G01*
X74054903Y-144292666D01*
G75*
G02*
X75099834Y-145492403I-77403J-1122334D01*
G01*
X75059834Y-146072403D01*
G75*
G02*
X73860097Y-147117334I-1122334J77403D01*
G01*
G37*
G04 #@! TD.AperFunction*
X273725000Y-127445000D03*
G04 #@! TA.AperFunction,ComponentPad*
G36*
G01*
X271663683Y-129742345D02*
X271663683Y-129742345D01*
G75*
G02*
X271577655Y-128153683I751317J837345D01*
G01*
X272887657Y-126693683D01*
G75*
G02*
X274476319Y-126607655I837345J-751317D01*
G01*
X274476319Y-126607655D01*
G75*
G02*
X274562347Y-128196317I-751317J-837345D01*
G01*
X273252345Y-129656317D01*
G75*
G02*
X271663683Y-129742345I-837345J751317D01*
G01*
G37*
G04 #@! TD.AperFunction*
X278765000Y-126365000D03*
G04 #@! TA.AperFunction,ComponentPad*
G36*
G01*
X278647597Y-128067334D02*
X278647597Y-128067334D01*
G75*
G02*
X277602666Y-126867597I77403J1122334D01*
G01*
X277642666Y-126287597D01*
G75*
G02*
X278842403Y-125242666I1122334J-77403D01*
G01*
X278842403Y-125242666D01*
G75*
G02*
X279887334Y-126442403I-77403J-1122334D01*
G01*
X279847334Y-127022403D01*
G75*
G02*
X278647597Y-128067334I-1122334J77403D01*
G01*
G37*
G04 #@! TD.AperFunction*
X240387500Y-146495000D03*
G04 #@! TA.AperFunction,ComponentPad*
G36*
G01*
X238326183Y-148792345D02*
X238326183Y-148792345D01*
G75*
G02*
X238240155Y-147203683I751317J837345D01*
G01*
X239550157Y-145743683D01*
G75*
G02*
X241138819Y-145657655I837345J-751317D01*
G01*
X241138819Y-145657655D01*
G75*
G02*
X241224847Y-147246317I-751317J-837345D01*
G01*
X239914845Y-148706317D01*
G75*
G02*
X238326183Y-148792345I-837345J751317D01*
G01*
G37*
G04 #@! TD.AperFunction*
X245427500Y-145415000D03*
G04 #@! TA.AperFunction,ComponentPad*
G36*
G01*
X245310097Y-147117334D02*
X245310097Y-147117334D01*
G75*
G02*
X244265166Y-145917597I77403J1122334D01*
G01*
X244305166Y-145337597D01*
G75*
G02*
X245504903Y-144292666I1122334J-77403D01*
G01*
X245504903Y-144292666D01*
G75*
G02*
X246549834Y-145492403I-77403J-1122334D01*
G01*
X246509834Y-146072403D01*
G75*
G02*
X245310097Y-147117334I-1122334J77403D01*
G01*
G37*
G04 #@! TD.AperFunction*
X249912500Y-165545000D03*
G04 #@! TA.AperFunction,ComponentPad*
G36*
G01*
X247851183Y-167842345D02*
X247851183Y-167842345D01*
G75*
G02*
X247765155Y-166253683I751317J837345D01*
G01*
X249075157Y-164793683D01*
G75*
G02*
X250663819Y-164707655I837345J-751317D01*
G01*
X250663819Y-164707655D01*
G75*
G02*
X250749847Y-166296317I-751317J-837345D01*
G01*
X249439845Y-167756317D01*
G75*
G02*
X247851183Y-167842345I-837345J751317D01*
G01*
G37*
G04 #@! TD.AperFunction*
X254952500Y-164465000D03*
G04 #@! TA.AperFunction,ComponentPad*
G36*
G01*
X254835097Y-166167334D02*
X254835097Y-166167334D01*
G75*
G02*
X253790166Y-164967597I77403J1122334D01*
G01*
X253830166Y-164387597D01*
G75*
G02*
X255029903Y-163342666I1122334J-77403D01*
G01*
X255029903Y-163342666D01*
G75*
G02*
X256074834Y-164542403I-77403J-1122334D01*
G01*
X256034834Y-165122403D01*
G75*
G02*
X254835097Y-166167334I-1122334J77403D01*
G01*
G37*
G04 #@! TD.AperFunction*
X259437500Y-146495000D03*
G04 #@! TA.AperFunction,ComponentPad*
G36*
G01*
X257376183Y-148792345D02*
X257376183Y-148792345D01*
G75*
G02*
X257290155Y-147203683I751317J837345D01*
G01*
X258600157Y-145743683D01*
G75*
G02*
X260188819Y-145657655I837345J-751317D01*
G01*
X260188819Y-145657655D01*
G75*
G02*
X260274847Y-147246317I-751317J-837345D01*
G01*
X258964845Y-148706317D01*
G75*
G02*
X257376183Y-148792345I-837345J751317D01*
G01*
G37*
G04 #@! TD.AperFunction*
X264477500Y-145415000D03*
G04 #@! TA.AperFunction,ComponentPad*
G36*
G01*
X264360097Y-147117334D02*
X264360097Y-147117334D01*
G75*
G02*
X263315166Y-145917597I77403J1122334D01*
G01*
X263355166Y-145337597D01*
G75*
G02*
X264554903Y-144292666I1122334J-77403D01*
G01*
X264554903Y-144292666D01*
G75*
G02*
X265599834Y-145492403I-77403J-1122334D01*
G01*
X265559834Y-146072403D01*
G75*
G02*
X264360097Y-147117334I-1122334J77403D01*
G01*
G37*
G04 #@! TD.AperFunction*
X230862500Y-165545000D03*
G04 #@! TA.AperFunction,ComponentPad*
G36*
G01*
X228801183Y-167842345D02*
X228801183Y-167842345D01*
G75*
G02*
X228715155Y-166253683I751317J837345D01*
G01*
X230025157Y-164793683D01*
G75*
G02*
X231613819Y-164707655I837345J-751317D01*
G01*
X231613819Y-164707655D01*
G75*
G02*
X231699847Y-166296317I-751317J-837345D01*
G01*
X230389845Y-167756317D01*
G75*
G02*
X228801183Y-167842345I-837345J751317D01*
G01*
G37*
G04 #@! TD.AperFunction*
X235902500Y-164465000D03*
G04 #@! TA.AperFunction,ComponentPad*
G36*
G01*
X235785097Y-166167334D02*
X235785097Y-166167334D01*
G75*
G02*
X234740166Y-164967597I77403J1122334D01*
G01*
X234780166Y-164387597D01*
G75*
G02*
X235979903Y-163342666I1122334J-77403D01*
G01*
X235979903Y-163342666D01*
G75*
G02*
X237024834Y-164542403I-77403J-1122334D01*
G01*
X236984834Y-165122403D01*
G75*
G02*
X235785097Y-166167334I-1122334J77403D01*
G01*
G37*
G04 #@! TD.AperFunction*
X211812500Y-165545000D03*
G04 #@! TA.AperFunction,ComponentPad*
G36*
G01*
X209751183Y-167842345D02*
X209751183Y-167842345D01*
G75*
G02*
X209665155Y-166253683I751317J837345D01*
G01*
X210975157Y-164793683D01*
G75*
G02*
X212563819Y-164707655I837345J-751317D01*
G01*
X212563819Y-164707655D01*
G75*
G02*
X212649847Y-166296317I-751317J-837345D01*
G01*
X211339845Y-167756317D01*
G75*
G02*
X209751183Y-167842345I-837345J751317D01*
G01*
G37*
G04 #@! TD.AperFunction*
X216852500Y-164465000D03*
G04 #@! TA.AperFunction,ComponentPad*
G36*
G01*
X216735097Y-166167334D02*
X216735097Y-166167334D01*
G75*
G02*
X215690166Y-164967597I77403J1122334D01*
G01*
X215730166Y-164387597D01*
G75*
G02*
X216929903Y-163342666I1122334J-77403D01*
G01*
X216929903Y-163342666D01*
G75*
G02*
X217974834Y-164542403I-77403J-1122334D01*
G01*
X217934834Y-165122403D01*
G75*
G02*
X216735097Y-166167334I-1122334J77403D01*
G01*
G37*
G04 #@! TD.AperFunction*
X264212700Y-108388650D03*
G04 #@! TA.AperFunction,ComponentPad*
G36*
G01*
X262151383Y-110685995D02*
X262151383Y-110685995D01*
G75*
G02*
X262065355Y-109097333I751317J837345D01*
G01*
X263375357Y-107637333D01*
G75*
G02*
X264964019Y-107551305I837345J-751317D01*
G01*
X264964019Y-107551305D01*
G75*
G02*
X265050047Y-109139967I-751317J-837345D01*
G01*
X263740045Y-110599967D01*
G75*
G02*
X262151383Y-110685995I-837345J751317D01*
G01*
G37*
G04 #@! TD.AperFunction*
X269252700Y-107308650D03*
G04 #@! TA.AperFunction,ComponentPad*
G36*
G01*
X269135297Y-109010984D02*
X269135297Y-109010984D01*
G75*
G02*
X268090366Y-107811247I77403J1122334D01*
G01*
X268130366Y-107231247D01*
G75*
G02*
X269330103Y-106186316I1122334J-77403D01*
G01*
X269330103Y-106186316D01*
G75*
G02*
X270375034Y-107386053I-77403J-1122334D01*
G01*
X270335034Y-107966053D01*
G75*
G02*
X269135297Y-109010984I-1122334J77403D01*
G01*
G37*
G04 #@! TD.AperFunction*
X245162700Y-108388650D03*
G04 #@! TA.AperFunction,ComponentPad*
G36*
G01*
X243101383Y-110685995D02*
X243101383Y-110685995D01*
G75*
G02*
X243015355Y-109097333I751317J837345D01*
G01*
X244325357Y-107637333D01*
G75*
G02*
X245914019Y-107551305I837345J-751317D01*
G01*
X245914019Y-107551305D01*
G75*
G02*
X246000047Y-109139967I-751317J-837345D01*
G01*
X244690045Y-110599967D01*
G75*
G02*
X243101383Y-110685995I-837345J751317D01*
G01*
G37*
G04 #@! TD.AperFunction*
X250202700Y-107308650D03*
G04 #@! TA.AperFunction,ComponentPad*
G36*
G01*
X250085297Y-109010984D02*
X250085297Y-109010984D01*
G75*
G02*
X249040366Y-107811247I77403J1122334D01*
G01*
X249080366Y-107231247D01*
G75*
G02*
X250280103Y-106186316I1122334J-77403D01*
G01*
X250280103Y-106186316D01*
G75*
G02*
X251325034Y-107386053I-77403J-1122334D01*
G01*
X251285034Y-107966053D01*
G75*
G02*
X250085297Y-109010984I-1122334J77403D01*
G01*
G37*
G04 #@! TD.AperFunction*
X207062700Y-108388650D03*
G04 #@! TA.AperFunction,ComponentPad*
G36*
G01*
X205001383Y-110685995D02*
X205001383Y-110685995D01*
G75*
G02*
X204915355Y-109097333I751317J837345D01*
G01*
X206225357Y-107637333D01*
G75*
G02*
X207814019Y-107551305I837345J-751317D01*
G01*
X207814019Y-107551305D01*
G75*
G02*
X207900047Y-109139967I-751317J-837345D01*
G01*
X206590045Y-110599967D01*
G75*
G02*
X205001383Y-110685995I-837345J751317D01*
G01*
G37*
G04 #@! TD.AperFunction*
X212102700Y-107308650D03*
G04 #@! TA.AperFunction,ComponentPad*
G36*
G01*
X211985297Y-109010984D02*
X211985297Y-109010984D01*
G75*
G02*
X210940366Y-107811247I77403J1122334D01*
G01*
X210980366Y-107231247D01*
G75*
G02*
X212180103Y-106186316I1122334J-77403D01*
G01*
X212180103Y-106186316D01*
G75*
G02*
X213225034Y-107386053I-77403J-1122334D01*
G01*
X213185034Y-107966053D01*
G75*
G02*
X211985297Y-109010984I-1122334J77403D01*
G01*
G37*
G04 #@! TD.AperFunction*
X188012700Y-108388650D03*
G04 #@! TA.AperFunction,ComponentPad*
G36*
G01*
X185951383Y-110685995D02*
X185951383Y-110685995D01*
G75*
G02*
X185865355Y-109097333I751317J837345D01*
G01*
X187175357Y-107637333D01*
G75*
G02*
X188764019Y-107551305I837345J-751317D01*
G01*
X188764019Y-107551305D01*
G75*
G02*
X188850047Y-109139967I-751317J-837345D01*
G01*
X187540045Y-110599967D01*
G75*
G02*
X185951383Y-110685995I-837345J751317D01*
G01*
G37*
G04 #@! TD.AperFunction*
X193052700Y-107308650D03*
G04 #@! TA.AperFunction,ComponentPad*
G36*
G01*
X192935297Y-109010984D02*
X192935297Y-109010984D01*
G75*
G02*
X191890366Y-107811247I77403J1122334D01*
G01*
X191930366Y-107231247D01*
G75*
G02*
X193130103Y-106186316I1122334J-77403D01*
G01*
X193130103Y-106186316D01*
G75*
G02*
X194175034Y-107386053I-77403J-1122334D01*
G01*
X194135034Y-107966053D01*
G75*
G02*
X192935297Y-109010984I-1122334J77403D01*
G01*
G37*
G04 #@! TD.AperFunction*
X168962700Y-108388650D03*
G04 #@! TA.AperFunction,ComponentPad*
G36*
G01*
X166901383Y-110685995D02*
X166901383Y-110685995D01*
G75*
G02*
X166815355Y-109097333I751317J837345D01*
G01*
X168125357Y-107637333D01*
G75*
G02*
X169714019Y-107551305I837345J-751317D01*
G01*
X169714019Y-107551305D01*
G75*
G02*
X169800047Y-109139967I-751317J-837345D01*
G01*
X168490045Y-110599967D01*
G75*
G02*
X166901383Y-110685995I-837345J751317D01*
G01*
G37*
G04 #@! TD.AperFunction*
X174002700Y-107308650D03*
G04 #@! TA.AperFunction,ComponentPad*
G36*
G01*
X173885297Y-109010984D02*
X173885297Y-109010984D01*
G75*
G02*
X172840366Y-107811247I77403J1122334D01*
G01*
X172880366Y-107231247D01*
G75*
G02*
X174080103Y-106186316I1122334J-77403D01*
G01*
X174080103Y-106186316D01*
G75*
G02*
X175125034Y-107386053I-77403J-1122334D01*
G01*
X175085034Y-107966053D01*
G75*
G02*
X173885297Y-109010984I-1122334J77403D01*
G01*
G37*
G04 #@! TD.AperFunction*
X149912700Y-108388650D03*
G04 #@! TA.AperFunction,ComponentPad*
G36*
G01*
X147851383Y-110685995D02*
X147851383Y-110685995D01*
G75*
G02*
X147765355Y-109097333I751317J837345D01*
G01*
X149075357Y-107637333D01*
G75*
G02*
X150664019Y-107551305I837345J-751317D01*
G01*
X150664019Y-107551305D01*
G75*
G02*
X150750047Y-109139967I-751317J-837345D01*
G01*
X149440045Y-110599967D01*
G75*
G02*
X147851383Y-110685995I-837345J751317D01*
G01*
G37*
G04 #@! TD.AperFunction*
X154952700Y-107308650D03*
G04 #@! TA.AperFunction,ComponentPad*
G36*
G01*
X154835297Y-109010984D02*
X154835297Y-109010984D01*
G75*
G02*
X153790366Y-107811247I77403J1122334D01*
G01*
X153830366Y-107231247D01*
G75*
G02*
X155030103Y-106186316I1122334J-77403D01*
G01*
X155030103Y-106186316D01*
G75*
G02*
X156075034Y-107386053I-77403J-1122334D01*
G01*
X156035034Y-107966053D01*
G75*
G02*
X154835297Y-109010984I-1122334J77403D01*
G01*
G37*
G04 #@! TD.AperFunction*
X130862700Y-108388650D03*
G04 #@! TA.AperFunction,ComponentPad*
G36*
G01*
X128801383Y-110685995D02*
X128801383Y-110685995D01*
G75*
G02*
X128715355Y-109097333I751317J837345D01*
G01*
X130025357Y-107637333D01*
G75*
G02*
X131614019Y-107551305I837345J-751317D01*
G01*
X131614019Y-107551305D01*
G75*
G02*
X131700047Y-109139967I-751317J-837345D01*
G01*
X130390045Y-110599967D01*
G75*
G02*
X128801383Y-110685995I-837345J751317D01*
G01*
G37*
G04 #@! TD.AperFunction*
X135902700Y-107308650D03*
G04 #@! TA.AperFunction,ComponentPad*
G36*
G01*
X135785297Y-109010984D02*
X135785297Y-109010984D01*
G75*
G02*
X134740366Y-107811247I77403J1122334D01*
G01*
X134780366Y-107231247D01*
G75*
G02*
X135980103Y-106186316I1122334J-77403D01*
G01*
X135980103Y-106186316D01*
G75*
G02*
X137025034Y-107386053I-77403J-1122334D01*
G01*
X136985034Y-107966053D01*
G75*
G02*
X135785297Y-109010984I-1122334J77403D01*
G01*
G37*
G04 #@! TD.AperFunction*
X111812700Y-108388650D03*
G04 #@! TA.AperFunction,ComponentPad*
G36*
G01*
X109751383Y-110685995D02*
X109751383Y-110685995D01*
G75*
G02*
X109665355Y-109097333I751317J837345D01*
G01*
X110975357Y-107637333D01*
G75*
G02*
X112564019Y-107551305I837345J-751317D01*
G01*
X112564019Y-107551305D01*
G75*
G02*
X112650047Y-109139967I-751317J-837345D01*
G01*
X111340045Y-110599967D01*
G75*
G02*
X109751383Y-110685995I-837345J751317D01*
G01*
G37*
G04 #@! TD.AperFunction*
X116852700Y-107308650D03*
G04 #@! TA.AperFunction,ComponentPad*
G36*
G01*
X116735297Y-109010984D02*
X116735297Y-109010984D01*
G75*
G02*
X115690366Y-107811247I77403J1122334D01*
G01*
X115730366Y-107231247D01*
G75*
G02*
X116930103Y-106186316I1122334J-77403D01*
G01*
X116930103Y-106186316D01*
G75*
G02*
X117975034Y-107386053I-77403J-1122334D01*
G01*
X117935034Y-107966053D01*
G75*
G02*
X116735297Y-109010984I-1122334J77403D01*
G01*
G37*
G04 #@! TD.AperFunction*
X92762700Y-108388650D03*
G04 #@! TA.AperFunction,ComponentPad*
G36*
G01*
X90701383Y-110685995D02*
X90701383Y-110685995D01*
G75*
G02*
X90615355Y-109097333I751317J837345D01*
G01*
X91925357Y-107637333D01*
G75*
G02*
X93514019Y-107551305I837345J-751317D01*
G01*
X93514019Y-107551305D01*
G75*
G02*
X93600047Y-109139967I-751317J-837345D01*
G01*
X92290045Y-110599967D01*
G75*
G02*
X90701383Y-110685995I-837345J751317D01*
G01*
G37*
G04 #@! TD.AperFunction*
X97802700Y-107308650D03*
G04 #@! TA.AperFunction,ComponentPad*
G36*
G01*
X97685297Y-109010984D02*
X97685297Y-109010984D01*
G75*
G02*
X96640366Y-107811247I77403J1122334D01*
G01*
X96680366Y-107231247D01*
G75*
G02*
X97880103Y-106186316I1122334J-77403D01*
G01*
X97880103Y-106186316D01*
G75*
G02*
X98925034Y-107386053I-77403J-1122334D01*
G01*
X98885034Y-107966053D01*
G75*
G02*
X97685297Y-109010984I-1122334J77403D01*
G01*
G37*
G04 #@! TD.AperFunction*
X73712700Y-108388650D03*
G04 #@! TA.AperFunction,ComponentPad*
G36*
G01*
X71651383Y-110685995D02*
X71651383Y-110685995D01*
G75*
G02*
X71565355Y-109097333I751317J837345D01*
G01*
X72875357Y-107637333D01*
G75*
G02*
X74464019Y-107551305I837345J-751317D01*
G01*
X74464019Y-107551305D01*
G75*
G02*
X74550047Y-109139967I-751317J-837345D01*
G01*
X73240045Y-110599967D01*
G75*
G02*
X71651383Y-110685995I-837345J751317D01*
G01*
G37*
G04 #@! TD.AperFunction*
X78752700Y-107308650D03*
G04 #@! TA.AperFunction,ComponentPad*
G36*
G01*
X78635297Y-109010984D02*
X78635297Y-109010984D01*
G75*
G02*
X77590366Y-107811247I77403J1122334D01*
G01*
X77630366Y-107231247D01*
G75*
G02*
X78830103Y-106186316I1122334J-77403D01*
G01*
X78830103Y-106186316D01*
G75*
G02*
X79875034Y-107386053I-77403J-1122334D01*
G01*
X79835034Y-107966053D01*
G75*
G02*
X78635297Y-109010984I-1122334J77403D01*
G01*
G37*
G04 #@! TD.AperFunction*
X54650000Y-108395000D03*
G04 #@! TA.AperFunction,ComponentPad*
G36*
G01*
X52588683Y-110692345D02*
X52588683Y-110692345D01*
G75*
G02*
X52502655Y-109103683I751317J837345D01*
G01*
X53812657Y-107643683D01*
G75*
G02*
X55401319Y-107557655I837345J-751317D01*
G01*
X55401319Y-107557655D01*
G75*
G02*
X55487347Y-109146317I-751317J-837345D01*
G01*
X54177345Y-110606317D01*
G75*
G02*
X52588683Y-110692345I-837345J751317D01*
G01*
G37*
G04 #@! TD.AperFunction*
X59690000Y-107315000D03*
G04 #@! TA.AperFunction,ComponentPad*
G36*
G01*
X59572597Y-109017334D02*
X59572597Y-109017334D01*
G75*
G02*
X58527666Y-107817597I77403J1122334D01*
G01*
X58567666Y-107237597D01*
G75*
G02*
X59767403Y-106192666I1122334J-77403D01*
G01*
X59767403Y-106192666D01*
G75*
G02*
X60812334Y-107392403I-77403J-1122334D01*
G01*
X60772334Y-107972403D01*
G75*
G02*
X59572597Y-109017334I-1122334J77403D01*
G01*
G37*
G04 #@! TD.AperFunction*
X226112700Y-108388650D03*
G04 #@! TA.AperFunction,ComponentPad*
G36*
G01*
X224051383Y-110685995D02*
X224051383Y-110685995D01*
G75*
G02*
X223965355Y-109097333I751317J837345D01*
G01*
X225275357Y-107637333D01*
G75*
G02*
X226864019Y-107551305I837345J-751317D01*
G01*
X226864019Y-107551305D01*
G75*
G02*
X226950047Y-109139967I-751317J-837345D01*
G01*
X225640045Y-110599967D01*
G75*
G02*
X224051383Y-110685995I-837345J751317D01*
G01*
G37*
G04 #@! TD.AperFunction*
X231152700Y-107308650D03*
G04 #@! TA.AperFunction,ComponentPad*
G36*
G01*
X231035297Y-109010984D02*
X231035297Y-109010984D01*
G75*
G02*
X229990366Y-107811247I77403J1122334D01*
G01*
X230030366Y-107231247D01*
G75*
G02*
X231230103Y-106186316I1122334J-77403D01*
G01*
X231230103Y-106186316D01*
G75*
G02*
X232275034Y-107386053I-77403J-1122334D01*
G01*
X232235034Y-107966053D01*
G75*
G02*
X231035297Y-109010984I-1122334J77403D01*
G01*
G37*
G04 #@! TD.AperFunction*
G04 #@! TA.AperFunction,SMDPad,CuDef*
G36*
G01*
X318125000Y-110855000D02*
X316875000Y-110855000D01*
G75*
G02*
X316625000Y-110605000I0J250000D01*
G01*
X316625000Y-109855000D01*
G75*
G02*
X316875000Y-109605000I250000J0D01*
G01*
X318125000Y-109605000D01*
G75*
G02*
X318375000Y-109855000I0J-250000D01*
G01*
X318375000Y-110605000D01*
G75*
G02*
X318125000Y-110855000I-250000J0D01*
G01*
G37*
G04 #@! TD.AperFunction*
G04 #@! TA.AperFunction,SMDPad,CuDef*
G36*
G01*
X318125000Y-113655000D02*
X316875000Y-113655000D01*
G75*
G02*
X316625000Y-113405000I0J250000D01*
G01*
X316625000Y-112655000D01*
G75*
G02*
X316875000Y-112405000I250000J0D01*
G01*
X318125000Y-112405000D01*
G75*
G02*
X318375000Y-112655000I0J-250000D01*
G01*
X318375000Y-113405000D01*
G75*
G02*
X318125000Y-113655000I-250000J0D01*
G01*
G37*
G04 #@! TD.AperFunction*
D20*
X378618750Y-181037500D03*
X378618750Y-177737500D03*
X382587500Y-83281250D03*
X382587500Y-86581250D03*
X363537500Y-186945000D03*
X363537500Y-190245000D03*
X363537500Y-168150000D03*
X363537500Y-171450000D03*
X363537500Y-82487500D03*
X363537500Y-85787500D03*
X344487500Y-186945000D03*
X344487500Y-190245000D03*
X344487500Y-82487500D03*
X344487500Y-85787500D03*
X307975000Y-129318750D03*
X307975000Y-132618750D03*
X304006250Y-110268750D03*
X304006250Y-113568750D03*
X306705000Y-148845000D03*
X306705000Y-152145000D03*
X284162500Y-129795000D03*
X284162500Y-133095000D03*
X274332700Y-110738650D03*
X274332700Y-114038650D03*
X311943750Y-82487500D03*
X311943750Y-85787500D03*
X310356250Y-186945000D03*
X310356250Y-190245000D03*
X296862500Y-167418750D03*
X296862500Y-170718750D03*
X269875000Y-148845000D03*
X269875000Y-152145000D03*
X265112500Y-129795000D03*
X265112500Y-133095000D03*
X255282700Y-110738650D03*
X255282700Y-114038650D03*
X293528750Y-82170000D03*
X293528750Y-85470000D03*
X286543750Y-187262500D03*
X286543750Y-190562500D03*
X259556250Y-167895000D03*
X259556250Y-171195000D03*
X250825000Y-148845000D03*
X250825000Y-152145000D03*
X246062500Y-129795000D03*
X246062500Y-133095000D03*
X236232700Y-110738650D03*
X236232700Y-114038650D03*
X274478750Y-82550000D03*
X274478750Y-85850000D03*
X262731250Y-186945000D03*
X262731250Y-190245000D03*
X240506250Y-167895000D03*
X240506250Y-171195000D03*
X231775000Y-148845000D03*
X231775000Y-152145000D03*
X227012500Y-129318750D03*
X227012500Y-132618750D03*
X217182700Y-110738650D03*
X217182700Y-114038650D03*
X255428750Y-82170000D03*
X255428750Y-85470000D03*
X238918750Y-186945000D03*
X238918750Y-190245000D03*
X221456250Y-168212500D03*
X221456250Y-171512500D03*
X212725000Y-148845000D03*
X212725000Y-152145000D03*
X207962500Y-129795000D03*
X207962500Y-133095000D03*
X198132700Y-110738650D03*
X198132700Y-114038650D03*
X223520000Y-82170000D03*
X223520000Y-85470000D03*
X203200000Y-167895000D03*
X203200000Y-171195000D03*
X193675000Y-148845000D03*
X193675000Y-152145000D03*
X188912500Y-130112500D03*
X188912500Y-133412500D03*
X179082700Y-110738650D03*
X179082700Y-114038650D03*
X204470000Y-82170000D03*
X204470000Y-85470000D03*
X184150000Y-167895000D03*
X184150000Y-171195000D03*
X174625000Y-148845000D03*
X174625000Y-152145000D03*
X169862500Y-130112500D03*
X169862500Y-133412500D03*
X160032700Y-110738650D03*
X160032700Y-114038650D03*
X185420000Y-82170000D03*
X185420000Y-85470000D03*
X167481250Y-186945000D03*
X167481250Y-190245000D03*
X165100000Y-167895000D03*
X165100000Y-171195000D03*
X155575000Y-148845000D03*
X155575000Y-152145000D03*
X150812500Y-129318750D03*
X150812500Y-132618750D03*
X140982700Y-110738650D03*
X140982700Y-114038650D03*
X166370000Y-82170000D03*
X166370000Y-85470000D03*
X146050000Y-167895000D03*
X146050000Y-171195000D03*
X136525000Y-148845000D03*
X136525000Y-152145000D03*
X131762500Y-129318750D03*
X131762500Y-132618750D03*
X121932700Y-110738650D03*
X121932700Y-114038650D03*
X134620000Y-82170000D03*
X134620000Y-85470000D03*
X126206250Y-167895000D03*
X126206250Y-171195000D03*
X117475000Y-148845000D03*
X117475000Y-152145000D03*
X112712500Y-129795000D03*
X112712500Y-133095000D03*
X102882700Y-110738650D03*
X102882700Y-114038650D03*
X115570000Y-82170000D03*
X115570000Y-85470000D03*
X96837500Y-186945000D03*
X96837500Y-190245000D03*
X107950000Y-168212500D03*
X107950000Y-171512500D03*
X98425000Y-149162500D03*
X98425000Y-152462500D03*
X93662500Y-129318750D03*
X93662500Y-132618750D03*
X83832700Y-110738650D03*
X83832700Y-114038650D03*
X96520000Y-82170000D03*
X96520000Y-85470000D03*
X73025000Y-186945000D03*
X73025000Y-190245000D03*
X88106250Y-168212500D03*
X88106250Y-171512500D03*
X79375000Y-148845000D03*
X79375000Y-152145000D03*
X74612500Y-129318750D03*
X74612500Y-132618750D03*
X65087500Y-111062500D03*
X65087500Y-114362500D03*
X77470000Y-82170000D03*
X77470000Y-85470000D03*
X49212500Y-186945000D03*
X49212500Y-190245000D03*
X59531250Y-167895000D03*
X59531250Y-171195000D03*
X56356250Y-148368750D03*
X56356250Y-151668750D03*
X53181250Y-129318750D03*
X53181250Y-132618750D03*
X46037500Y-110268750D03*
X46037500Y-113568750D03*
X45243750Y-82487500D03*
X45243750Y-85787500D03*
G04 #@! TA.AperFunction,SMDPad,CuDef*
G36*
G01*
X320218750Y-143022500D02*
X321131250Y-143022500D01*
G75*
G02*
X321375000Y-143266250I0J-243750D01*
G01*
X321375000Y-143753750D01*
G75*
G02*
X321131250Y-143997500I-243750J0D01*
G01*
X320218750Y-143997500D01*
G75*
G02*
X319975000Y-143753750I0J243750D01*
G01*
X319975000Y-143266250D01*
G75*
G02*
X320218750Y-143022500I243750J0D01*
G01*
G37*
G04 #@! TD.AperFunction*
G04 #@! TA.AperFunction,SMDPad,CuDef*
G36*
G01*
X320218750Y-141147500D02*
X321131250Y-141147500D01*
G75*
G02*
X321375000Y-141391250I0J-243750D01*
G01*
X321375000Y-141878750D01*
G75*
G02*
X321131250Y-142122500I-243750J0D01*
G01*
X320218750Y-142122500D01*
G75*
G02*
X319975000Y-141878750I0J243750D01*
G01*
X319975000Y-141391250D01*
G75*
G02*
X320218750Y-141147500I243750J0D01*
G01*
G37*
G04 #@! TD.AperFunction*
G04 #@! TA.AperFunction,SMDPad,CuDef*
G36*
G01*
X324028750Y-154755000D02*
X324941250Y-154755000D01*
G75*
G02*
X325185000Y-154998750I0J-243750D01*
G01*
X325185000Y-155486250D01*
G75*
G02*
X324941250Y-155730000I-243750J0D01*
G01*
X324028750Y-155730000D01*
G75*
G02*
X323785000Y-155486250I0J243750D01*
G01*
X323785000Y-154998750D01*
G75*
G02*
X324028750Y-154755000I243750J0D01*
G01*
G37*
G04 #@! TD.AperFunction*
G04 #@! TA.AperFunction,SMDPad,CuDef*
G36*
G01*
X324028750Y-152880000D02*
X324941250Y-152880000D01*
G75*
G02*
X325185000Y-153123750I0J-243750D01*
G01*
X325185000Y-153611250D01*
G75*
G02*
X324941250Y-153855000I-243750J0D01*
G01*
X324028750Y-153855000D01*
G75*
G02*
X323785000Y-153611250I0J243750D01*
G01*
X323785000Y-153123750D01*
G75*
G02*
X324028750Y-152880000I243750J0D01*
G01*
G37*
G04 #@! TD.AperFunction*
G04 #@! TA.AperFunction,SMDPad,CuDef*
G36*
G01*
X327838750Y-129990000D02*
X328751250Y-129990000D01*
G75*
G02*
X328995000Y-130233750I0J-243750D01*
G01*
X328995000Y-130721250D01*
G75*
G02*
X328751250Y-130965000I-243750J0D01*
G01*
X327838750Y-130965000D01*
G75*
G02*
X327595000Y-130721250I0J243750D01*
G01*
X327595000Y-130233750D01*
G75*
G02*
X327838750Y-129990000I243750J0D01*
G01*
G37*
G04 #@! TD.AperFunction*
G04 #@! TA.AperFunction,SMDPad,CuDef*
G36*
G01*
X327838750Y-128115000D02*
X328751250Y-128115000D01*
G75*
G02*
X328995000Y-128358750I0J-243750D01*
G01*
X328995000Y-128846250D01*
G75*
G02*
X328751250Y-129090000I-243750J0D01*
G01*
X327838750Y-129090000D01*
G75*
G02*
X327595000Y-128846250I0J243750D01*
G01*
X327595000Y-128358750D01*
G75*
G02*
X327838750Y-128115000I243750J0D01*
G01*
G37*
G04 #@! TD.AperFunction*
G04 #@! TA.AperFunction,SMDPad,CuDef*
G36*
G01*
X337641250Y-129090000D02*
X336728750Y-129090000D01*
G75*
G02*
X336485000Y-128846250I0J243750D01*
G01*
X336485000Y-128358750D01*
G75*
G02*
X336728750Y-128115000I243750J0D01*
G01*
X337641250Y-128115000D01*
G75*
G02*
X337885000Y-128358750I0J-243750D01*
G01*
X337885000Y-128846250D01*
G75*
G02*
X337641250Y-129090000I-243750J0D01*
G01*
G37*
G04 #@! TD.AperFunction*
G04 #@! TA.AperFunction,SMDPad,CuDef*
G36*
G01*
X337641250Y-130965000D02*
X336728750Y-130965000D01*
G75*
G02*
X336485000Y-130721250I0J243750D01*
G01*
X336485000Y-130233750D01*
G75*
G02*
X336728750Y-129990000I243750J0D01*
G01*
X337641250Y-129990000D01*
G75*
G02*
X337885000Y-130233750I0J-243750D01*
G01*
X337885000Y-130721250D01*
G75*
G02*
X337641250Y-130965000I-243750J0D01*
G01*
G37*
G04 #@! TD.AperFunction*
G04 #@! TA.AperFunction,SMDPad,CuDef*
G36*
G01*
X342721250Y-139582500D02*
X341808750Y-139582500D01*
G75*
G02*
X341565000Y-139338750I0J243750D01*
G01*
X341565000Y-138851250D01*
G75*
G02*
X341808750Y-138607500I243750J0D01*
G01*
X342721250Y-138607500D01*
G75*
G02*
X342965000Y-138851250I0J-243750D01*
G01*
X342965000Y-139338750D01*
G75*
G02*
X342721250Y-139582500I-243750J0D01*
G01*
G37*
G04 #@! TD.AperFunction*
G04 #@! TA.AperFunction,SMDPad,CuDef*
G36*
G01*
X342721250Y-141457500D02*
X341808750Y-141457500D01*
G75*
G02*
X341565000Y-141213750I0J243750D01*
G01*
X341565000Y-140726250D01*
G75*
G02*
X341808750Y-140482500I243750J0D01*
G01*
X342721250Y-140482500D01*
G75*
G02*
X342965000Y-140726250I0J-243750D01*
G01*
X342965000Y-141213750D01*
G75*
G02*
X342721250Y-141457500I-243750J0D01*
G01*
G37*
G04 #@! TD.AperFunction*
G04 #@! TA.AperFunction,SMDPad,CuDef*
G36*
G01*
X337370000Y-154483750D02*
X337370000Y-155396250D01*
G75*
G02*
X337126250Y-155640000I-243750J0D01*
G01*
X336638750Y-155640000D01*
G75*
G02*
X336395000Y-155396250I0J243750D01*
G01*
X336395000Y-154483750D01*
G75*
G02*
X336638750Y-154240000I243750J0D01*
G01*
X337126250Y-154240000D01*
G75*
G02*
X337370000Y-154483750I0J-243750D01*
G01*
G37*
G04 #@! TD.AperFunction*
G04 #@! TA.AperFunction,SMDPad,CuDef*
G36*
G01*
X339245000Y-154483750D02*
X339245000Y-155396250D01*
G75*
G02*
X339001250Y-155640000I-243750J0D01*
G01*
X338513750Y-155640000D01*
G75*
G02*
X338270000Y-155396250I0J243750D01*
G01*
X338270000Y-154483750D01*
G75*
G02*
X338513750Y-154240000I243750J0D01*
G01*
X339001250Y-154240000D01*
G75*
G02*
X339245000Y-154483750I0J-243750D01*
G01*
G37*
G04 #@! TD.AperFunction*
G04 #@! TA.AperFunction,SMDPad,CuDef*
G36*
G01*
X329386250Y-134170000D02*
X328473750Y-134170000D01*
G75*
G02*
X328230000Y-133926250I0J243750D01*
G01*
X328230000Y-133438750D01*
G75*
G02*
X328473750Y-133195000I243750J0D01*
G01*
X329386250Y-133195000D01*
G75*
G02*
X329630000Y-133438750I0J-243750D01*
G01*
X329630000Y-133926250D01*
G75*
G02*
X329386250Y-134170000I-243750J0D01*
G01*
G37*
G04 #@! TD.AperFunction*
G04 #@! TA.AperFunction,SMDPad,CuDef*
G36*
G01*
X329386250Y-136045000D02*
X328473750Y-136045000D01*
G75*
G02*
X328230000Y-135801250I0J243750D01*
G01*
X328230000Y-135313750D01*
G75*
G02*
X328473750Y-135070000I243750J0D01*
G01*
X329386250Y-135070000D01*
G75*
G02*
X329630000Y-135313750I0J-243750D01*
G01*
X329630000Y-135801250D01*
G75*
G02*
X329386250Y-136045000I-243750J0D01*
G01*
G37*
G04 #@! TD.AperFunction*
D21*
X344170000Y-140970000D03*
X325755000Y-131445000D03*
X318135000Y-152400000D03*
X344170000Y-153035000D03*
X318135000Y-146685000D03*
X320490970Y-131445000D03*
X342900000Y-126365000D03*
X335915000Y-133350000D03*
X343535000Y-131445000D03*
X336550000Y-134620000D03*
X330835000Y-116681250D03*
X315912500Y-91281250D03*
X324643750Y-91281250D03*
X317500000Y-96837500D03*
X315912500Y-100012500D03*
X328295000Y-116681250D03*
X325755000Y-116681250D03*
X315912500Y-103187500D03*
X324485000Y-95250000D03*
X329565000Y-116681250D03*
X315912500Y-98107500D03*
X315912500Y-95250000D03*
X327025000Y-116681250D03*
X315912500Y-101600000D03*
X323215000Y-166370000D03*
X339090000Y-137795000D03*
X328295000Y-166370000D03*
X327025000Y-166370000D03*
X325755000Y-166370000D03*
X324485000Y-166370000D03*
X321945000Y-166370000D03*
X335915000Y-135890000D03*
X338455000Y-136525000D03*
D22*
X333927500Y-128602500D02*
X333840000Y-128690000D01*
X337185000Y-128602500D02*
X333927500Y-128602500D01*
X333537098Y-128690000D02*
X333840000Y-128690000D01*
X331837098Y-130390000D02*
X333537098Y-128690000D01*
X331640000Y-130390000D02*
X331837098Y-130390000D01*
X328382500Y-130390000D02*
X328295000Y-130477500D01*
X341220000Y-139095000D02*
X342265000Y-139095000D01*
X338900000Y-141415000D02*
X341220000Y-139095000D01*
X338440000Y-141415000D02*
X338900000Y-141415000D01*
X331140000Y-136855000D02*
X331140000Y-139715000D01*
X329872500Y-133682500D02*
X331140000Y-134950000D01*
X328930000Y-133682500D02*
X329872500Y-133682500D01*
X331140000Y-134950000D02*
X331140000Y-136855000D01*
X329535000Y-151120000D02*
X329540000Y-151115000D01*
X335940000Y-153997500D02*
X335940000Y-151115000D01*
X336882500Y-154940000D02*
X335940000Y-153997500D01*
X326112098Y-146215000D02*
X327040000Y-146215000D01*
X326340402Y-155242500D02*
X329540000Y-152042902D01*
X329540000Y-152042902D02*
X329540000Y-151115000D01*
X324485000Y-155242500D02*
X326340402Y-155242500D01*
X337447500Y-128865000D02*
X337185000Y-128602500D01*
X338495000Y-128865000D02*
X337447500Y-128865000D01*
X329540000Y-147584000D02*
X329540000Y-151115000D01*
X328171000Y-146215000D02*
X329540000Y-147584000D01*
X327040000Y-146215000D02*
X328171000Y-146215000D01*
X331140000Y-143246000D02*
X331140000Y-139715000D01*
X326064588Y-146167490D02*
X320889358Y-146167490D01*
X326112098Y-146215000D02*
X326064588Y-146167490D01*
X320675000Y-145953132D02*
X320675000Y-143510000D01*
X320889358Y-146167490D02*
X320675000Y-145953132D01*
X330220500Y-144165500D02*
X333395500Y-144165500D01*
X330220500Y-144165500D02*
X331140000Y-143246000D01*
X328171000Y-146215000D02*
X330220500Y-144165500D01*
X335940000Y-146710000D02*
X335940000Y-151115000D01*
X333395500Y-144165500D02*
X335940000Y-146710000D01*
X333395500Y-144165500D02*
X334624500Y-144165500D01*
X337375000Y-141415000D02*
X338440000Y-141415000D01*
X334624500Y-144165500D02*
X337375000Y-141415000D01*
X338495000Y-132675000D02*
X338495000Y-128865000D01*
X339422500Y-157480000D02*
X336882500Y-154940000D01*
X343837500Y-151432500D02*
X345440000Y-153035000D01*
X345440000Y-153035000D02*
X345440000Y-156210000D01*
X344170000Y-157480000D02*
X339422500Y-157480000D01*
X342265000Y-151432500D02*
X343837500Y-151432500D01*
X345440000Y-156210000D02*
X344170000Y-157480000D01*
X342265000Y-136445000D02*
X340400000Y-134580000D01*
X342265000Y-139095000D02*
X342265000Y-136525000D01*
X342265000Y-136525000D02*
X342265000Y-136445000D01*
X340400000Y-134580000D02*
X338495000Y-132675000D01*
X340995000Y-135175000D02*
X340400000Y-134580000D01*
X333112500Y-115962500D02*
X333112500Y-115356250D01*
X333112500Y-115356250D02*
X334168750Y-114300000D01*
X334168750Y-114300000D02*
X337302902Y-114300000D01*
X337302902Y-114300000D02*
X338137500Y-114300000D01*
X338137500Y-114300000D02*
X338931250Y-115093750D01*
X338931250Y-126206250D02*
X338137500Y-127000000D01*
X338931250Y-112712500D02*
X338931250Y-115093750D01*
X338931250Y-112687500D02*
X338931250Y-112712500D01*
X322275000Y-96031250D02*
X338931250Y-112687500D01*
X322275000Y-81493750D02*
X322275000Y-96031250D01*
X348456250Y-126325000D02*
X345162500Y-126325000D01*
X345162500Y-126325000D02*
X343693750Y-127793750D01*
X343693750Y-127793750D02*
X338931250Y-127793750D01*
X362956250Y-123825000D02*
X362956250Y-120068750D01*
X341834251Y-119334499D02*
X338931250Y-122237500D01*
X362221999Y-119334499D02*
X341834251Y-119334499D01*
X362956250Y-120068750D02*
X362221999Y-119334499D01*
X338931250Y-115093750D02*
X338931250Y-122237500D01*
X338931250Y-122237500D02*
X338931250Y-126206250D01*
X331552500Y-130477500D02*
X331640000Y-130390000D01*
X331140000Y-133322500D02*
X328295000Y-130477500D01*
X331140000Y-134950000D02*
X331140000Y-133322500D01*
X338931250Y-128428750D02*
X338495000Y-128865000D01*
X338931250Y-127793750D02*
X338931250Y-128428750D01*
X338137500Y-127650000D02*
X337185000Y-128602500D01*
X338137500Y-127000000D02*
X338137500Y-127650000D01*
X338757500Y-153592500D02*
X338757500Y-154940000D01*
X336740000Y-151575000D02*
X338757500Y-153592500D01*
X336740000Y-151115000D02*
X336740000Y-151575000D01*
X328740000Y-151115000D02*
X328740000Y-151575000D01*
X330340000Y-136967500D02*
X330340000Y-139715000D01*
X328930000Y-135557500D02*
X330340000Y-136967500D01*
X327630000Y-135557500D02*
X325755000Y-133682500D01*
X328930000Y-135557500D02*
X327630000Y-135557500D01*
X341020000Y-142215000D02*
X338440000Y-142215000D01*
X342265000Y-140970000D02*
X341020000Y-142215000D01*
X342265000Y-140970000D02*
X344170000Y-140970000D01*
X325755000Y-133682500D02*
X325755000Y-131445000D01*
X318135000Y-113665000D02*
X317500000Y-113030000D01*
X318135000Y-146685000D02*
X318135000Y-113665000D01*
X327040000Y-148615000D02*
X320065000Y-148615000D01*
X320065000Y-148615000D02*
X318135000Y-146685000D01*
X326487500Y-153367500D02*
X328740000Y-151115000D01*
X324485000Y-153367500D02*
X326487500Y-153367500D01*
X324485000Y-153367500D02*
X319102500Y-153367500D01*
X319102500Y-153367500D02*
X318135000Y-152400000D01*
X342265000Y-154940000D02*
X344170000Y-153035000D01*
X338757500Y-154940000D02*
X342265000Y-154940000D01*
X320132000Y-131803970D02*
X320490970Y-131445000D01*
X320132000Y-138838000D02*
X320132000Y-131803970D01*
X327040000Y-144615000D02*
X325909000Y-144615000D01*
X325909000Y-144615000D02*
X320132000Y-138838000D01*
D23*
X337097500Y-130390000D02*
X337185000Y-130477500D01*
X333840000Y-130390000D02*
X337097500Y-130390000D01*
X332740000Y-131490000D02*
X332740000Y-139715000D01*
X333840000Y-130390000D02*
X332740000Y-131490000D01*
X327992500Y-128905000D02*
X328295000Y-128602500D01*
X331552500Y-128602500D02*
X331640000Y-128690000D01*
X328295000Y-128602500D02*
X331552500Y-128602500D01*
X331451398Y-128690000D02*
X331640000Y-128690000D01*
X330200000Y-129941398D02*
X331451398Y-128690000D01*
X331940000Y-139715000D02*
X331940000Y-133423000D01*
X331940000Y-133423000D02*
X331930500Y-133413500D01*
X331930500Y-133413500D02*
X331930500Y-132699250D01*
X331930500Y-132699250D02*
X330200000Y-130968750D01*
X330200000Y-130968750D02*
X330200000Y-129941398D01*
X326226398Y-145415000D02*
X327040000Y-145415000D01*
X320675000Y-141635000D02*
X321915000Y-142875000D01*
X327040000Y-145415000D02*
X322580000Y-145415000D01*
X322580000Y-145415000D02*
X321945000Y-144780000D01*
X321945000Y-142905000D02*
X321915000Y-142875000D01*
X321945000Y-144780000D02*
X321945000Y-142905000D01*
X333467000Y-139642000D02*
X333540000Y-139715000D01*
X335349315Y-133350000D02*
X333467000Y-135232315D01*
X333467000Y-135232315D02*
X333467000Y-135798000D01*
X335915000Y-133350000D02*
X335349315Y-133350000D01*
X333467000Y-135798000D02*
X333467000Y-139642000D01*
X344566875Y-124698125D02*
X347583125Y-124698125D01*
X347583125Y-124698125D02*
X348456250Y-123825000D01*
X344566875Y-124698125D02*
X342900000Y-126365000D01*
X343455000Y-131365000D02*
X343535000Y-131445000D01*
X336550000Y-134620000D02*
X335280000Y-134620000D01*
X335280000Y-134620000D02*
X334340000Y-135560000D01*
X334340000Y-135560000D02*
X334340000Y-139715000D01*
X346155000Y-128825000D02*
X343535000Y-131445000D01*
X348456250Y-128825000D02*
X346155000Y-128825000D01*
X42393750Y-79637500D02*
X45243750Y-82487500D01*
X40600000Y-79637500D02*
X42393750Y-79637500D01*
X134620000Y-85470000D02*
X135510000Y-85470000D01*
X327660000Y-137795000D02*
X328740000Y-138875000D01*
X324485000Y-137795000D02*
X327660000Y-137795000D01*
X328740000Y-138875000D02*
X328740000Y-139715000D01*
X59531250Y-76993750D02*
X51593750Y-84931250D01*
X51379566Y-85145434D02*
X51593750Y-84931250D01*
X50737500Y-85787500D02*
X51196875Y-85328125D01*
X45243750Y-85787500D02*
X50737500Y-85787500D01*
X51593750Y-84931250D02*
X51196875Y-85328125D01*
X51196875Y-85328125D02*
X50925557Y-85599443D01*
X96520000Y-85470000D02*
X100012500Y-81977500D01*
X100012500Y-79375000D02*
X102393750Y-76993750D01*
X100012500Y-81977500D02*
X100012500Y-79375000D01*
X102393750Y-76993750D02*
X59531250Y-76993750D01*
X134620000Y-85470000D02*
X134620000Y-85248750D01*
X134620000Y-85248750D02*
X142875000Y-76993750D01*
X142875000Y-76993750D02*
X102393750Y-76993750D01*
X185420000Y-85470000D02*
X185420000Y-85248750D01*
X200025000Y-76993750D02*
X193675000Y-76993750D01*
X185420000Y-85248750D02*
X193675000Y-76993750D01*
X193675000Y-76993750D02*
X142875000Y-76993750D01*
X223520000Y-85470000D02*
X224092500Y-85470000D01*
X224092500Y-85470000D02*
X232568750Y-76993750D01*
X232568750Y-76993750D02*
X200025000Y-76993750D01*
X274512500Y-85850000D02*
X283368750Y-76993750D01*
X274478750Y-85850000D02*
X274512500Y-85850000D01*
X311943750Y-76993750D02*
X283368750Y-76993750D01*
X283368750Y-76993750D02*
X232568750Y-76993750D01*
X311943750Y-85787500D02*
X312006250Y-85787500D01*
X312006250Y-85787500D02*
X314325000Y-83468750D01*
X314325000Y-79375000D02*
X311943750Y-76993750D01*
X314325000Y-83468750D02*
X314325000Y-79375000D01*
X311943750Y-85787500D02*
X311943750Y-87312500D01*
X311943750Y-87312500D02*
X315912500Y-91281250D01*
X329406250Y-79375000D02*
X331787500Y-76993750D01*
X364331250Y-76993750D02*
X366871250Y-79533750D01*
X326231250Y-91281250D02*
X329406250Y-88106250D01*
X324643750Y-91281250D02*
X326231250Y-91281250D01*
X329406250Y-88106250D02*
X329406250Y-79375000D01*
X382525000Y-86581250D02*
X377031250Y-92075000D01*
X382587500Y-86581250D02*
X382525000Y-86581250D01*
X344487500Y-85787500D02*
X344487500Y-84931250D01*
X344487500Y-84931250D02*
X352425000Y-76993750D01*
X331787500Y-76993750D02*
X352425000Y-76993750D01*
X352425000Y-76993750D02*
X364331250Y-76993750D01*
X366871250Y-89058750D02*
X369887500Y-92075000D01*
X366871250Y-88741250D02*
X366871250Y-89058750D01*
X366871250Y-79533750D02*
X366871250Y-88741250D01*
X377031250Y-92075000D02*
X369887500Y-92075000D01*
X315912500Y-91281250D02*
X316706250Y-92075000D01*
X316706250Y-92075000D02*
X317500000Y-92868750D01*
X317500000Y-92868750D02*
X317500000Y-96837500D01*
X323056250Y-136525000D02*
X324326250Y-137795000D01*
X323056250Y-127807882D02*
X323056250Y-136525000D01*
X330835000Y-120029132D02*
X323056250Y-127807882D01*
X324326250Y-137795000D02*
X324485000Y-137795000D01*
X330835000Y-116681250D02*
X330835000Y-120029132D01*
X43663750Y-107895000D02*
X46037500Y-110268750D01*
X40600000Y-107895000D02*
X43663750Y-107895000D01*
X121932700Y-114038650D02*
X122187700Y-114038650D01*
X322125990Y-138238057D02*
X322125990Y-127454010D01*
X326102933Y-142215000D02*
X322125990Y-138238057D01*
X322125990Y-127454010D02*
X328295000Y-121285000D01*
X327040000Y-142215000D02*
X326102933Y-142215000D01*
X46037500Y-113568750D02*
X50006250Y-109600000D01*
X50006250Y-109600000D02*
X50006250Y-107950000D01*
X50006250Y-107950000D02*
X52387500Y-105568750D01*
X282203501Y-103558999D02*
X284533999Y-103558999D01*
X280193750Y-105568750D02*
X282203501Y-103558999D01*
X284533999Y-103558999D02*
X286543750Y-105568750D01*
X306324519Y-103558999D02*
X308346499Y-103558999D01*
X286543750Y-105568750D02*
X304314768Y-105568750D01*
X304314768Y-105568750D02*
X306324519Y-103558999D01*
X308346499Y-103558999D02*
X309984751Y-103558999D01*
X313531250Y-100012500D02*
X315912500Y-100012500D01*
X309984751Y-103558999D02*
X313531250Y-100012500D01*
X83832700Y-113017300D02*
X91281250Y-105568750D01*
X83832700Y-114038650D02*
X83832700Y-113017300D01*
X52387500Y-105568750D02*
X91281250Y-105568750D01*
X121932700Y-114038650D02*
X121932700Y-113017300D01*
X91281250Y-105568750D02*
X129381250Y-105568750D01*
X121932700Y-113017300D02*
X129381250Y-105568750D01*
X160032700Y-114038650D02*
X160032700Y-113017300D01*
X129381250Y-105568750D02*
X167481250Y-105568750D01*
X164306250Y-108743750D02*
X167481250Y-105568750D01*
X160032700Y-113017300D02*
X164306250Y-108743750D01*
X198132700Y-114038650D02*
X198132700Y-113017300D01*
X198132700Y-113017300D02*
X205581250Y-105568750D01*
X167481250Y-105568750D02*
X205581250Y-105568750D01*
X236232700Y-113811050D02*
X244475000Y-105568750D01*
X236232700Y-114038650D02*
X236232700Y-113811050D01*
X205581250Y-105568750D02*
X244475000Y-105568750D01*
X244475000Y-105568750D02*
X280193750Y-105568750D01*
X274332700Y-114038650D02*
X277812500Y-110558850D01*
X277812500Y-107950000D02*
X280193750Y-105568750D01*
X277812500Y-110558850D02*
X277812500Y-107950000D01*
X328295000Y-121285000D02*
X328295000Y-116681250D01*
X50807500Y-126945000D02*
X53181250Y-129318750D01*
X45362500Y-126945000D02*
X50807500Y-126945000D01*
X325755000Y-122540867D02*
X325755000Y-120650000D01*
X326060000Y-143815000D02*
X325755000Y-143510000D01*
X325755000Y-143510000D02*
X325755000Y-143151200D01*
X327040000Y-143815000D02*
X326060000Y-143815000D01*
X325755000Y-143151200D02*
X321217970Y-138614170D01*
X321217970Y-127077897D02*
X325755000Y-122540867D01*
X321217970Y-138614170D02*
X321217970Y-127077897D01*
X325755000Y-120650000D02*
X325755000Y-116681250D01*
X315912500Y-103187500D02*
X315912500Y-120650000D01*
X315912500Y-120650000D02*
X311943750Y-124618750D01*
X53181250Y-132556250D02*
X61118750Y-124618750D01*
X53181250Y-132618750D02*
X53181250Y-132556250D01*
X93662500Y-132556250D02*
X101600000Y-124618750D01*
X93662500Y-132618750D02*
X93662500Y-132556250D01*
X101600000Y-124618750D02*
X61118750Y-124618750D01*
X131762500Y-132618750D02*
X131762500Y-132556250D01*
X131762500Y-132556250D02*
X139700000Y-124618750D01*
X139700000Y-124618750D02*
X101600000Y-124618750D01*
X169862500Y-132556250D02*
X177800000Y-124618750D01*
X169862500Y-133412500D02*
X169862500Y-132556250D01*
X177800000Y-124618750D02*
X139700000Y-124618750D01*
X207962500Y-132556250D02*
X215900000Y-124618750D01*
X207962500Y-133095000D02*
X207962500Y-132556250D01*
X215900000Y-124618750D02*
X177800000Y-124618750D01*
X246062500Y-132556250D02*
X254000000Y-124618750D01*
X246062500Y-133095000D02*
X246062500Y-132556250D01*
X254000000Y-124618750D02*
X215900000Y-124618750D01*
X284162500Y-133095000D02*
X284417500Y-133095000D01*
X311943750Y-124618750D02*
X292893750Y-124618750D01*
X284417500Y-133095000D02*
X292893750Y-124618750D01*
X292893750Y-124618750D02*
X254000000Y-124618750D01*
X53982500Y-145995000D02*
X56356250Y-148368750D01*
X47743750Y-145995000D02*
X53982500Y-145995000D01*
X111125000Y-140970000D02*
X111125000Y-140335000D01*
X313531250Y-143986250D02*
X309880000Y-140335000D01*
X315595000Y-167005000D02*
X315595000Y-156686250D01*
X317500000Y-168910000D02*
X315595000Y-167005000D01*
X375285000Y-172085000D02*
X374650000Y-172720000D01*
X368300000Y-172720000D02*
X367665000Y-172085000D01*
X375285000Y-150495000D02*
X375285000Y-172085000D01*
X349250000Y-157480000D02*
X337820000Y-168910000D01*
X338440000Y-147815000D02*
X372605000Y-147815000D01*
X367665000Y-172085000D02*
X367665000Y-163830000D01*
X374650000Y-172720000D02*
X368300000Y-172720000D01*
X372605000Y-147815000D02*
X375285000Y-150495000D01*
X313531250Y-154622500D02*
X313531250Y-143986250D01*
X367665000Y-163830000D02*
X361315000Y-157480000D01*
X361315000Y-157480000D02*
X349250000Y-157480000D01*
X337820000Y-168910000D02*
X317500000Y-168910000D01*
X56356250Y-151606250D02*
X67627500Y-140335000D01*
X56356250Y-151668750D02*
X56356250Y-151606250D01*
X98425000Y-152400000D02*
X110490000Y-140335000D01*
X67627500Y-140335000D02*
X110490000Y-140335000D01*
X98425000Y-152462500D02*
X98425000Y-152400000D01*
X110490000Y-140335000D02*
X111125000Y-140335000D01*
X136525000Y-151606250D02*
X147796250Y-140335000D01*
X136525000Y-152145000D02*
X136525000Y-151606250D01*
X149225000Y-140335000D02*
X147796250Y-140335000D01*
X147796250Y-140335000D02*
X111125000Y-140335000D01*
X174625000Y-152145000D02*
X174625000Y-152082500D01*
X174625000Y-152082500D02*
X186372500Y-140335000D01*
X186372500Y-140335000D02*
X149225000Y-140335000D01*
X212725000Y-152145000D02*
X212980000Y-152145000D01*
X212980000Y-152145000D02*
X224631250Y-140493750D01*
X224631250Y-140493750D02*
X224790000Y-140335000D01*
X224790000Y-140335000D02*
X186372500Y-140335000D01*
X250825000Y-152145000D02*
X251080000Y-152145000D01*
X251080000Y-152145000D02*
X262890000Y-140335000D01*
X309880000Y-140335000D02*
X262890000Y-140335000D01*
X262890000Y-140335000D02*
X224790000Y-140335000D01*
X306705000Y-152145000D02*
X310895000Y-152145000D01*
X315595000Y-156686250D02*
X313610625Y-154701875D01*
X313610625Y-154701875D02*
X313531250Y-154622500D01*
X313451875Y-154701875D02*
X310895000Y-152145000D01*
X313610625Y-154701875D02*
X313451875Y-154701875D01*
X56681250Y-165045000D02*
X59531250Y-167895000D01*
X52506250Y-165045000D02*
X56681250Y-165045000D01*
X272669000Y-162534600D02*
X274777200Y-160426400D01*
X274777200Y-160426400D02*
X277876000Y-160426400D01*
X277876000Y-160426400D02*
X279882600Y-162433000D01*
X279882600Y-162433000D02*
X296646600Y-162433000D01*
X296646600Y-162433000D02*
X298729400Y-160350200D01*
X298729400Y-160350200D02*
X301879000Y-160350200D01*
X301879000Y-160350200D02*
X304038000Y-162509200D01*
X304038000Y-162509200D02*
X312089800Y-162509200D01*
X312089800Y-162509200D02*
X314274200Y-164693600D01*
X338620000Y-146215000D02*
X338785000Y-146050000D01*
X338440000Y-146215000D02*
X338620000Y-146215000D01*
X373545000Y-146215000D02*
X338440000Y-146215000D01*
X376555000Y-149225000D02*
X373545000Y-146215000D01*
X350520000Y-158750000D02*
X360045000Y-158750000D01*
X339090000Y-170180000D02*
X350520000Y-158750000D01*
X316230000Y-170180000D02*
X339090000Y-170180000D01*
X314274200Y-164693600D02*
X314274200Y-168224200D01*
X367665000Y-173990000D02*
X375912934Y-173990000D01*
X314274200Y-168224200D02*
X316230000Y-170180000D01*
X366395000Y-165100000D02*
X366395000Y-172720000D01*
X366395000Y-172720000D02*
X367665000Y-173990000D01*
X360045000Y-158750000D02*
X366395000Y-165100000D01*
X376555000Y-173347934D02*
X376555000Y-149225000D01*
X375912934Y-173990000D02*
X376555000Y-173347934D01*
X59531250Y-171195000D02*
X59786250Y-171195000D01*
X59786250Y-171195000D02*
X68446650Y-162534600D01*
X68446650Y-162534600D02*
X74002900Y-162534600D01*
X73964800Y-162534600D02*
X74002900Y-162534600D01*
X107950000Y-171512500D02*
X107950000Y-171081700D01*
X107950000Y-171081700D02*
X116497100Y-162534600D01*
X74002900Y-162534600D02*
X116497100Y-162534600D01*
X146050000Y-171081700D02*
X154597100Y-162534600D01*
X146050000Y-171195000D02*
X146050000Y-171081700D01*
X116497100Y-162534600D02*
X154597100Y-162534600D01*
X184150000Y-171081700D02*
X192697100Y-162534600D01*
X184150000Y-171195000D02*
X184150000Y-171081700D01*
X154597100Y-162534600D02*
X192697100Y-162534600D01*
X221456250Y-171512500D02*
X221456250Y-171450000D01*
X192697100Y-162534600D02*
X230371650Y-162534600D01*
X221456250Y-171450000D02*
X230371650Y-162534600D01*
X259811250Y-171195000D02*
X268471650Y-162534600D01*
X259556250Y-171195000D02*
X259811250Y-171195000D01*
X230371650Y-162534600D02*
X268471650Y-162534600D01*
X268471650Y-162534600D02*
X272669000Y-162534600D01*
X46362500Y-184095000D02*
X49212500Y-186945000D01*
X42981250Y-184095000D02*
X46362500Y-184095000D01*
X106362500Y-181768750D02*
X108743750Y-184150000D01*
X108743750Y-184150000D02*
X111125000Y-184150000D01*
X111125000Y-184150000D02*
X113506250Y-181768750D01*
X113506250Y-181768750D02*
X205581250Y-181768750D01*
X205581250Y-181768750D02*
X207962500Y-184150000D01*
X207962500Y-184150000D02*
X211137500Y-184150000D01*
X211137500Y-184150000D02*
X213518750Y-181768750D01*
X377825000Y-147955000D02*
X374485000Y-144615000D01*
X374485000Y-144615000D02*
X338440000Y-144615000D01*
X377644009Y-174170991D02*
X377825000Y-173990000D01*
X377644009Y-174178057D02*
X377644009Y-174170991D01*
X377825000Y-173990000D02*
X377825000Y-147955000D01*
X376562066Y-175260000D02*
X377644009Y-174178057D01*
X344742500Y-190245000D02*
X353218750Y-181768750D01*
X344487500Y-190245000D02*
X344742500Y-190245000D01*
X353218750Y-181768750D02*
X367506250Y-181768750D01*
X49212500Y-189706250D02*
X57150000Y-181768750D01*
X49212500Y-190245000D02*
X49212500Y-189706250D01*
X96837500Y-190245000D02*
X97092500Y-190245000D01*
X97092500Y-190245000D02*
X105568750Y-181768750D01*
X57150000Y-181768750D02*
X105568750Y-181768750D01*
X105568750Y-181768750D02*
X106362500Y-181768750D01*
X238918750Y-190245000D02*
X239173750Y-190245000D01*
X239173750Y-190245000D02*
X247650000Y-181768750D01*
X213518750Y-181768750D02*
X247650000Y-181768750D01*
X286543750Y-190562500D02*
X286543750Y-190500000D01*
X247650000Y-181768750D02*
X295275000Y-181768750D01*
X286543750Y-190500000D02*
X295275000Y-181768750D01*
X295275000Y-181768750D02*
X353218750Y-181768750D01*
X376562066Y-178269184D02*
X373062500Y-181768750D01*
X376562066Y-175260000D02*
X376562066Y-178269184D01*
X367506250Y-181768750D02*
X373062500Y-181768750D01*
X378087066Y-178269184D02*
X378618750Y-177737500D01*
X376562066Y-178269184D02*
X378087066Y-178269184D01*
X74937500Y-79637500D02*
X77470000Y-82170000D01*
X72350000Y-79637500D02*
X74937500Y-79637500D01*
X311943750Y-91281250D02*
X315912500Y-95250000D01*
X315912500Y-95250000D02*
X315912500Y-96837500D01*
X325945000Y-141415000D02*
X327040000Y-141415000D01*
X322580000Y-138050000D02*
X325945000Y-141415000D01*
X322580000Y-127642066D02*
X322580000Y-138050000D01*
X329565000Y-120657066D02*
X322580000Y-127642066D01*
X77470000Y-86995000D02*
X81756250Y-91281250D01*
X77470000Y-85470000D02*
X77470000Y-86995000D01*
X315912500Y-96837500D02*
X315912500Y-98107500D01*
X116424000Y-85470000D02*
X122235250Y-91281250D01*
X115570000Y-85470000D02*
X116424000Y-85470000D01*
X122235250Y-91281250D02*
X123031250Y-91281250D01*
X81756250Y-91281250D02*
X123031250Y-91281250D01*
X166432500Y-85470000D02*
X172243750Y-91281250D01*
X166370000Y-85470000D02*
X166432500Y-85470000D01*
X123031250Y-91281250D02*
X172243750Y-91281250D01*
X204532500Y-85470000D02*
X210343750Y-91281250D01*
X204470000Y-85470000D02*
X204532500Y-85470000D01*
X172243750Y-91281250D02*
X210343750Y-91281250D01*
X255428750Y-86360000D02*
X260350000Y-91281250D01*
X255428750Y-85470000D02*
X255428750Y-86360000D01*
X210343750Y-91281250D02*
X260350000Y-91281250D01*
X293528750Y-85566250D02*
X299243750Y-91281250D01*
X293528750Y-85470000D02*
X293528750Y-85566250D01*
X260350000Y-91281250D02*
X299243750Y-91281250D01*
X299243750Y-91281250D02*
X311943750Y-91281250D01*
X363537500Y-85787500D02*
X363537500Y-86836250D01*
X324485000Y-95250000D02*
X355123750Y-95250000D01*
X355123750Y-95250000D02*
X356949375Y-93424375D01*
X363537500Y-86836250D02*
X356949375Y-93424375D01*
X356949375Y-93424375D02*
X355758750Y-94615000D01*
X329565000Y-120657066D02*
X329565000Y-116681250D01*
X61920000Y-107895000D02*
X65087500Y-111062500D01*
X59650000Y-107895000D02*
X61920000Y-107895000D01*
X102882700Y-114038650D02*
X102882700Y-114293650D01*
X140982700Y-114038650D02*
X140982700Y-114293650D01*
X314325000Y-103187500D02*
X315912500Y-101600000D01*
X65087500Y-114362500D02*
X65087500Y-115887500D01*
X282575000Y-117475000D02*
X284162500Y-117475000D01*
X304006250Y-119856250D02*
X306387500Y-117475000D01*
X280193750Y-119856250D02*
X282575000Y-117475000D01*
X65087500Y-115887500D02*
X69056250Y-119856250D01*
X284162500Y-117475000D02*
X286543750Y-119856250D01*
X286543750Y-119856250D02*
X304006250Y-119856250D01*
X306387500Y-117475000D02*
X309562500Y-117475000D01*
X309562500Y-117475000D02*
X314325000Y-112712500D01*
X314325000Y-112712500D02*
X314325000Y-103187500D01*
X102882700Y-115582700D02*
X107156250Y-119856250D01*
X102882700Y-114038650D02*
X102882700Y-115582700D01*
X69056250Y-119856250D02*
X107156250Y-119856250D01*
X141026150Y-114038650D02*
X146843750Y-119856250D01*
X140982700Y-114038650D02*
X141026150Y-114038650D01*
X107156250Y-119856250D02*
X146843750Y-119856250D01*
X179126150Y-114038650D02*
X184943750Y-119856250D01*
X179082700Y-114038650D02*
X179126150Y-114038650D01*
X146843750Y-119856250D02*
X184943750Y-119856250D01*
X217226150Y-114038650D02*
X223043750Y-119856250D01*
X217182700Y-114038650D02*
X217226150Y-114038650D01*
X184943750Y-119856250D02*
X223043750Y-119856250D01*
X255282700Y-114038650D02*
X255326150Y-114038650D01*
X223043750Y-119856250D02*
X261143750Y-119856250D01*
X255326150Y-114038650D02*
X261143750Y-119856250D01*
X261143750Y-119856250D02*
X280193750Y-119856250D01*
X304006250Y-115093750D02*
X306387500Y-117475000D01*
X304006250Y-113568750D02*
X304006250Y-115093750D01*
X326260866Y-143015000D02*
X327040000Y-143015000D01*
X321671980Y-138426114D02*
X326260866Y-143015000D01*
X321671980Y-127265953D02*
X321671980Y-138426114D01*
X327025000Y-121912934D02*
X321671980Y-127265953D01*
X327025000Y-116681250D02*
X327025000Y-121912934D01*
X71658750Y-126365000D02*
X74612500Y-129318750D01*
X69215000Y-126365000D02*
X71658750Y-126365000D01*
X314960000Y-137795000D02*
X316230000Y-139065000D01*
X313690000Y-137795000D02*
X314960000Y-137795000D01*
X316230000Y-139065000D02*
X316230000Y-166370000D01*
X316230000Y-166370000D02*
X317500000Y-167640000D01*
X317500000Y-167640000D02*
X318135000Y-168275000D01*
X318135000Y-168275000D02*
X337185000Y-168275000D01*
X337185000Y-168275000D02*
X338455000Y-167005000D01*
X337820000Y-167640000D02*
X338455000Y-167005000D01*
X368910000Y-148615000D02*
X338440000Y-148615000D01*
X368935000Y-172085000D02*
X374015000Y-172085000D01*
X361950000Y-156845000D02*
X368300000Y-163195000D01*
X374015000Y-172085000D02*
X374650000Y-171450000D01*
X368300000Y-163195000D02*
X368300000Y-171450000D01*
X348615000Y-156845000D02*
X361950000Y-156845000D01*
X368300000Y-171450000D02*
X368935000Y-172085000D01*
X338455000Y-167005000D02*
X348615000Y-156845000D01*
X374650000Y-171450000D02*
X374650000Y-151130000D01*
X372110000Y-148590000D02*
X372085000Y-148615000D01*
X374650000Y-151130000D02*
X372110000Y-148590000D01*
X372085000Y-148615000D02*
X368910000Y-148615000D01*
X79788750Y-137795000D02*
X87630000Y-137795000D01*
X74612500Y-132618750D02*
X79788750Y-137795000D01*
X86995000Y-137795000D02*
X87630000Y-137795000D01*
X112712500Y-133350000D02*
X117157500Y-137795000D01*
X87630000Y-137795000D02*
X117157500Y-137795000D01*
X112712500Y-133095000D02*
X112712500Y-133350000D01*
X150875000Y-132618750D02*
X156051250Y-137795000D01*
X150812500Y-132618750D02*
X150875000Y-132618750D01*
X117157500Y-137795000D02*
X156051250Y-137795000D01*
X156051250Y-137795000D02*
X162560000Y-137795000D01*
X188975000Y-133412500D02*
X193357500Y-137795000D01*
X188912500Y-133412500D02*
X188975000Y-133412500D01*
X162560000Y-137795000D02*
X193357500Y-137795000D01*
X193357500Y-137795000D02*
X202565000Y-137795000D01*
X227075000Y-132618750D02*
X232251250Y-137795000D01*
X227012500Y-132618750D02*
X227075000Y-132618750D01*
X202565000Y-137795000D02*
X232251250Y-137795000D01*
X232251250Y-137795000D02*
X238760000Y-137795000D01*
X265112500Y-133095000D02*
X265492500Y-133095000D01*
X238760000Y-137795000D02*
X270192500Y-137795000D01*
X265492500Y-133095000D02*
X270192500Y-137795000D01*
X307975000Y-133350000D02*
X312420000Y-137795000D01*
X270192500Y-137795000D02*
X312420000Y-137795000D01*
X307975000Y-132618750D02*
X307975000Y-133350000D01*
X312420000Y-137795000D02*
X313690000Y-137795000D01*
X76525000Y-145995000D02*
X79375000Y-148845000D01*
X73937500Y-145995000D02*
X76525000Y-145995000D01*
X84929000Y-156845000D02*
X90170000Y-156845000D01*
X80229000Y-152145000D02*
X84929000Y-156845000D01*
X79375000Y-152145000D02*
X80229000Y-152145000D01*
X89535000Y-156845000D02*
X90170000Y-156845000D01*
X90170000Y-156845000D02*
X122555000Y-156845000D01*
X117855000Y-152145000D02*
X122555000Y-156845000D01*
X117475000Y-152145000D02*
X117855000Y-152145000D01*
X122555000Y-156845000D02*
X128270000Y-156845000D01*
X155955000Y-152145000D02*
X160655000Y-156845000D01*
X155575000Y-152145000D02*
X155955000Y-152145000D01*
X128270000Y-156845000D02*
X160655000Y-156845000D01*
X160655000Y-156845000D02*
X167640000Y-156845000D01*
X194213750Y-152145000D02*
X198913750Y-156845000D01*
X193675000Y-152145000D02*
X194213750Y-152145000D01*
X167640000Y-156845000D02*
X198913750Y-156845000D01*
X198913750Y-156845000D02*
X205105000Y-156845000D01*
X232313750Y-152145000D02*
X237013750Y-156845000D01*
X231775000Y-152145000D02*
X232313750Y-152145000D01*
X205105000Y-156845000D02*
X237013750Y-156845000D01*
X237013750Y-156845000D02*
X243205000Y-156845000D01*
X271842500Y-152145000D02*
X276542500Y-156845000D01*
X269875000Y-152145000D02*
X271842500Y-152145000D01*
X243205000Y-156845000D02*
X276542500Y-156845000D01*
X375920000Y-149860000D02*
X373075000Y-147015000D01*
X375920000Y-172712934D02*
X375920000Y-149860000D01*
X367672066Y-173355000D02*
X375277934Y-173355000D01*
X367030000Y-172712934D02*
X367672066Y-173355000D01*
X278130000Y-156845000D02*
X279400000Y-155575000D01*
X373075000Y-147015000D02*
X338440000Y-147015000D01*
X312420000Y-155575000D02*
X314960000Y-158115000D01*
X375277934Y-173355000D02*
X375920000Y-172712934D01*
X316865000Y-169545000D02*
X338455000Y-169545000D01*
X276542500Y-156845000D02*
X278130000Y-156845000D01*
X279400000Y-155575000D02*
X312420000Y-155575000D01*
X338455000Y-169545000D02*
X349885000Y-158115000D01*
X349885000Y-158115000D02*
X360680000Y-158115000D01*
X314960000Y-158115000D02*
X314960000Y-167640000D01*
X360680000Y-158115000D02*
X367030000Y-164465000D01*
X314960000Y-167640000D02*
X316865000Y-169545000D01*
X367030000Y-164465000D02*
X367030000Y-172712934D01*
X83502500Y-164528500D02*
X85153500Y-164528500D01*
X88106250Y-167481250D02*
X88106250Y-168212500D01*
X85153500Y-164528500D02*
X88106250Y-167481250D01*
X273050000Y-176212500D02*
X274637500Y-174625000D01*
X274637500Y-174625000D02*
X277812500Y-174625000D01*
X277812500Y-174625000D02*
X279400000Y-176212500D01*
X279400000Y-176212500D02*
X297656250Y-176212500D01*
X297656250Y-176212500D02*
X299243750Y-174625000D01*
X377190000Y-148590000D02*
X374015000Y-145415000D01*
X377190000Y-173990000D02*
X377190000Y-148590000D01*
X374015000Y-145415000D02*
X338440000Y-145415000D01*
X376555000Y-174625000D02*
X377190000Y-173990000D01*
X88168750Y-171512500D02*
X92868750Y-176212500D01*
X88106250Y-171512500D02*
X88168750Y-171512500D01*
X126206250Y-171195000D02*
X126745000Y-171195000D01*
X92868750Y-176212500D02*
X131762500Y-176212500D01*
X126745000Y-171195000D02*
X131762500Y-176212500D01*
X165100000Y-171195000D02*
X165638750Y-171195000D01*
X165638750Y-171195000D02*
X170656250Y-176212500D01*
X131762500Y-176212500D02*
X170656250Y-176212500D01*
X203738750Y-171195000D02*
X208756250Y-176212500D01*
X170656250Y-176212500D02*
X208756250Y-176212500D01*
X203200000Y-171195000D02*
X203738750Y-171195000D01*
X240506250Y-171195000D02*
X241045000Y-171195000D01*
X208756250Y-176212500D02*
X246062500Y-176212500D01*
X241045000Y-171195000D02*
X246062500Y-176212500D01*
X246062500Y-176212500D02*
X273050000Y-176212500D01*
X296862500Y-172243750D02*
X299243750Y-174625000D01*
X296862500Y-170718750D02*
X296862500Y-172243750D01*
X364331250Y-171450000D02*
X367506250Y-174625000D01*
X363537500Y-171450000D02*
X364331250Y-171450000D01*
X299243750Y-174625000D02*
X367506250Y-174625000D01*
X367506250Y-174625000D02*
X376555000Y-174625000D01*
X70175000Y-184095000D02*
X73025000Y-186945000D01*
X66793750Y-184095000D02*
X70175000Y-184095000D01*
X357060000Y-196722500D02*
X363537500Y-190245000D01*
X356932500Y-196850000D02*
X357060000Y-196722500D01*
X356393750Y-196850000D02*
X379412500Y-196850000D01*
X379412500Y-196850000D02*
X380206250Y-196056250D01*
X356393750Y-196850000D02*
X356932500Y-196850000D01*
X379540000Y-196722500D02*
X380206250Y-196056250D01*
X239712500Y-196850000D02*
X246856250Y-196850000D01*
X167481250Y-190245000D02*
X171195000Y-190245000D01*
X171195000Y-190245000D02*
X177800000Y-196850000D01*
X264063750Y-190245000D02*
X270668750Y-196850000D01*
X262731250Y-190245000D02*
X264063750Y-190245000D01*
X315595000Y-196850000D02*
X270668750Y-196850000D01*
X270668750Y-196850000D02*
X239712500Y-196850000D01*
X310356250Y-190500000D02*
X316706250Y-196850000D01*
X315595000Y-196850000D02*
X316706250Y-196850000D01*
X310356250Y-190245000D02*
X310356250Y-190500000D01*
X316706250Y-196850000D02*
X356393750Y-196850000D01*
X206375000Y-192881250D02*
X211931250Y-192881250D01*
X211931250Y-192881250D02*
X215900000Y-196850000D01*
X202406250Y-196850000D02*
X206375000Y-192881250D01*
X215900000Y-196850000D02*
X239712500Y-196850000D01*
X113506250Y-196850000D02*
X202406250Y-196850000D01*
X111125000Y-194468750D02*
X113506250Y-196850000D01*
X73025000Y-190500000D02*
X79375000Y-196850000D01*
X107950000Y-194468750D02*
X111125000Y-194468750D01*
X73025000Y-190245000D02*
X73025000Y-190500000D01*
X79375000Y-196850000D02*
X105568750Y-196850000D01*
X105568750Y-196850000D02*
X107950000Y-194468750D01*
X374955000Y-143815000D02*
X338440000Y-143815000D01*
X378460000Y-173355000D02*
X378460000Y-147320000D01*
X378460000Y-147320000D02*
X374955000Y-143815000D01*
X381793750Y-176688750D02*
X378460000Y-173355000D01*
X381793750Y-194468750D02*
X381793750Y-176688750D01*
X380206250Y-196056250D02*
X381793750Y-194468750D01*
X94552500Y-82170000D02*
X91440000Y-79057500D01*
X96520000Y-82170000D02*
X94552500Y-82170000D01*
X80982700Y-107888650D02*
X83832700Y-110738650D01*
X78712700Y-107888650D02*
X80982700Y-107888650D01*
X91288750Y-126945000D02*
X93662500Y-129318750D01*
X88225000Y-126945000D02*
X91288750Y-126945000D01*
X94677500Y-145415000D02*
X98425000Y-149162500D01*
X93027500Y-145415000D02*
X94677500Y-145415000D01*
X104782500Y-165045000D02*
X107950000Y-168212500D01*
X102512500Y-165045000D02*
X104782500Y-165045000D01*
X93987500Y-184095000D02*
X96837500Y-186945000D01*
X90765000Y-184095000D02*
X93987500Y-184095000D01*
X112982500Y-82170000D02*
X110450000Y-79637500D01*
X115570000Y-82170000D02*
X112982500Y-82170000D01*
X100032700Y-107888650D02*
X102882700Y-110738650D01*
X97762700Y-107888650D02*
X100032700Y-107888650D01*
X109862500Y-126945000D02*
X112712500Y-129795000D01*
X107275000Y-126945000D02*
X109862500Y-126945000D01*
X114625000Y-145995000D02*
X117475000Y-148845000D01*
X112037500Y-145995000D02*
X114625000Y-145995000D01*
X123356250Y-165045000D02*
X126206250Y-167895000D01*
X121562500Y-165045000D02*
X123356250Y-165045000D01*
X132087500Y-79637500D02*
X134620000Y-82170000D01*
X129500000Y-79637500D02*
X132087500Y-79637500D01*
X119082700Y-107888650D02*
X121932700Y-110738650D01*
X116812700Y-107888650D02*
X119082700Y-107888650D01*
X129388750Y-126945000D02*
X131762500Y-129318750D01*
X126325000Y-126945000D02*
X129388750Y-126945000D01*
X133675000Y-145995000D02*
X136525000Y-148845000D01*
X131087500Y-145995000D02*
X133675000Y-145995000D01*
X143200000Y-165045000D02*
X146050000Y-167895000D01*
X140612500Y-165045000D02*
X143200000Y-165045000D01*
X163837500Y-79637500D02*
X166370000Y-82170000D01*
X161250000Y-79637500D02*
X163837500Y-79637500D01*
X138132700Y-107888650D02*
X140982700Y-110738650D01*
X135862700Y-107888650D02*
X138132700Y-107888650D01*
X148438750Y-126945000D02*
X150812500Y-129318750D01*
X145375000Y-126945000D02*
X148438750Y-126945000D01*
X152750400Y-146020400D02*
X155575000Y-148845000D01*
X150175600Y-146020400D02*
X152750400Y-146020400D01*
X162250000Y-165045000D02*
X165100000Y-167895000D01*
X159662500Y-165045000D02*
X162250000Y-165045000D01*
X164631250Y-184095000D02*
X167481250Y-186945000D01*
X162043750Y-184095000D02*
X164631250Y-184095000D01*
X182887500Y-79637500D02*
X185420000Y-82170000D01*
X180300000Y-79637500D02*
X182887500Y-79637500D01*
X157182700Y-107888650D02*
X160032700Y-110738650D01*
X154912700Y-107888650D02*
X157182700Y-107888650D01*
X166695000Y-126945000D02*
X169862500Y-130112500D01*
X164425000Y-126945000D02*
X166695000Y-126945000D01*
X171775000Y-145995000D02*
X174625000Y-148845000D01*
X169187500Y-145995000D02*
X171775000Y-145995000D01*
X181300000Y-165045000D02*
X184150000Y-167895000D01*
X178712500Y-165045000D02*
X181300000Y-165045000D01*
X202502500Y-82170000D02*
X199390000Y-79057500D01*
X204470000Y-82170000D02*
X202502500Y-82170000D01*
X176232700Y-107888650D02*
X179082700Y-110738650D01*
X173962700Y-107888650D02*
X176232700Y-107888650D01*
X185745000Y-126945000D02*
X188912500Y-130112500D01*
X183475000Y-126945000D02*
X185745000Y-126945000D01*
X190825000Y-145995000D02*
X193675000Y-148845000D01*
X188237500Y-145995000D02*
X190825000Y-145995000D01*
X200350000Y-165045000D02*
X203200000Y-167895000D01*
X197762500Y-165045000D02*
X200350000Y-165045000D01*
X220932500Y-82170000D02*
X218400000Y-79637500D01*
X223520000Y-82170000D02*
X220932500Y-82170000D01*
X195282700Y-107888650D02*
X198132700Y-110738650D01*
X193012700Y-107888650D02*
X195282700Y-107888650D01*
X205112500Y-126945000D02*
X207962500Y-129795000D01*
X202525000Y-126945000D02*
X205112500Y-126945000D01*
X209875000Y-145995000D02*
X212725000Y-148845000D01*
X207287500Y-145995000D02*
X209875000Y-145995000D01*
X218288750Y-165045000D02*
X221456250Y-168212500D01*
X216812500Y-165045000D02*
X218288750Y-165045000D01*
X236068750Y-184095000D02*
X238918750Y-186945000D01*
X233481250Y-184095000D02*
X236068750Y-184095000D01*
X252896250Y-79637500D02*
X255428750Y-82170000D01*
X250150000Y-79637500D02*
X252896250Y-79637500D01*
X214332700Y-107888650D02*
X217182700Y-110738650D01*
X212062700Y-107888650D02*
X214332700Y-107888650D01*
X224638750Y-126945000D02*
X227012500Y-129318750D01*
X221575000Y-126945000D02*
X224638750Y-126945000D01*
X228925000Y-145995000D02*
X231775000Y-148845000D01*
X226337500Y-145995000D02*
X228925000Y-145995000D01*
X237656250Y-165045000D02*
X240506250Y-167895000D01*
X235862500Y-165045000D02*
X237656250Y-165045000D01*
X259881250Y-184095000D02*
X262731250Y-186945000D01*
X257293750Y-184095000D02*
X259881250Y-184095000D01*
X272112500Y-82550000D02*
X269200000Y-79637500D01*
X274478750Y-82550000D02*
X272112500Y-82550000D01*
X233382700Y-107888650D02*
X236232700Y-110738650D01*
X231112700Y-107888650D02*
X233382700Y-107888650D01*
X243212500Y-126945000D02*
X246062500Y-129795000D01*
X240625000Y-126945000D02*
X243212500Y-126945000D01*
X247975000Y-145995000D02*
X250825000Y-148845000D01*
X245387500Y-145995000D02*
X247975000Y-145995000D01*
X256706250Y-165045000D02*
X259556250Y-167895000D01*
X254912500Y-165045000D02*
X256706250Y-165045000D01*
X284893750Y-187262500D02*
X281146250Y-183515000D01*
X286543750Y-187262500D02*
X284893750Y-187262500D01*
X290996250Y-79637500D02*
X293528750Y-82170000D01*
X288250000Y-79637500D02*
X290996250Y-79637500D01*
X252432700Y-107888650D02*
X255282700Y-110738650D01*
X250162700Y-107888650D02*
X252432700Y-107888650D01*
X262262500Y-126945000D02*
X265112500Y-129795000D01*
X259675000Y-126945000D02*
X262262500Y-126945000D01*
X267025000Y-145995000D02*
X269875000Y-148845000D01*
X264437500Y-145995000D02*
X267025000Y-145995000D01*
X294488750Y-165045000D02*
X296862500Y-167418750D01*
X290631250Y-165045000D02*
X294488750Y-165045000D01*
X307506250Y-184095000D02*
X310356250Y-186945000D01*
X304918750Y-184095000D02*
X307506250Y-184095000D01*
X309093750Y-79637500D02*
X311943750Y-82487500D01*
X307300000Y-79637500D02*
X309093750Y-79637500D01*
X271482700Y-107888650D02*
X274332700Y-110738650D01*
X269212700Y-107888650D02*
X271482700Y-107888650D01*
X281312500Y-126945000D02*
X284162500Y-129795000D01*
X278725000Y-126945000D02*
X281312500Y-126945000D01*
X303855000Y-145995000D02*
X306705000Y-148845000D01*
X295393750Y-145995000D02*
X303855000Y-145995000D01*
X301632500Y-107895000D02*
X304006250Y-110268750D01*
X297775000Y-107895000D02*
X301632500Y-107895000D01*
X304911250Y-129318750D02*
X302537500Y-126945000D01*
X307975000Y-129318750D02*
X304911250Y-129318750D01*
X341637500Y-79637500D02*
X344487500Y-82487500D01*
X339050000Y-79637500D02*
X341637500Y-79637500D01*
X341637500Y-184095000D02*
X344487500Y-186945000D01*
X339050000Y-184095000D02*
X341637500Y-184095000D01*
X360687500Y-79637500D02*
X363537500Y-82487500D01*
X358100000Y-79637500D02*
X360687500Y-79637500D01*
X360432500Y-165045000D02*
X363537500Y-168150000D01*
X358100000Y-165045000D02*
X360432500Y-165045000D01*
X360687500Y-184095000D02*
X363537500Y-186945000D01*
X358100000Y-184095000D02*
X360687500Y-184095000D01*
X378943750Y-79637500D02*
X382587500Y-83281250D01*
X377150000Y-79637500D02*
X378943750Y-79637500D01*
X377150000Y-182506250D02*
X378618750Y-181037500D01*
X377150000Y-184095000D02*
X377150000Y-182506250D01*
X319075000Y-97618750D02*
X319075000Y-96031250D01*
X323850000Y-102393750D02*
X319075000Y-97618750D01*
X317500000Y-110230000D02*
X317500000Y-109512500D01*
X319075000Y-96031250D02*
X319075000Y-81493750D01*
X317500000Y-109512500D02*
X319075000Y-107937500D01*
X323850000Y-103187500D02*
X323850000Y-102393750D01*
X319075000Y-107937500D02*
X319100000Y-107937500D01*
X319100000Y-107937500D02*
X323850000Y-103187500D01*
X330835000Y-158750000D02*
X323215000Y-166370000D01*
X330835000Y-153035000D02*
X330835000Y-158750000D01*
X331940000Y-151115000D02*
X331940000Y-151930000D01*
X331940000Y-151930000D02*
X330835000Y-153035000D01*
X337185000Y-139270000D02*
X336740000Y-139715000D01*
X337820000Y-137795000D02*
X337185000Y-138430000D01*
X339090000Y-137795000D02*
X337820000Y-137795000D01*
X337185000Y-138430000D02*
X337185000Y-139270000D01*
X335140000Y-151905000D02*
X335140000Y-151115000D01*
X333375000Y-153670000D02*
X335140000Y-151905000D01*
X333375000Y-161290000D02*
X333375000Y-153670000D01*
X328295000Y-166370000D02*
X333375000Y-161290000D01*
X334340000Y-151928602D02*
X334340000Y-151115000D01*
X332740000Y-153528602D02*
X334340000Y-151928602D01*
X332740000Y-160655000D02*
X332740000Y-153528602D01*
X327025000Y-166370000D02*
X332740000Y-160655000D01*
X333540000Y-151928602D02*
X333540000Y-151115000D01*
X332105000Y-153363602D02*
X333540000Y-151928602D01*
X332105000Y-160020000D02*
X332105000Y-153363602D01*
X325755000Y-166370000D02*
X332105000Y-160020000D01*
X331470000Y-153198602D02*
X332740000Y-151928602D01*
X331470000Y-159385000D02*
X331470000Y-153198602D01*
X332740000Y-151928602D02*
X332740000Y-151115000D01*
X324485000Y-166370000D02*
X331470000Y-159385000D01*
X331140000Y-151928602D02*
X331140000Y-151115000D01*
X330200000Y-152868602D02*
X331140000Y-151928602D01*
X330200000Y-158115000D02*
X330200000Y-152868602D01*
X321945000Y-166370000D02*
X330200000Y-158115000D01*
X335915000Y-135890000D02*
X335140000Y-136665000D01*
X335140000Y-136665000D02*
X335140000Y-139715000D01*
X337235000Y-136525000D02*
X335940000Y-137820000D01*
X338455000Y-136525000D02*
X337235000Y-136525000D01*
X335940000Y-137820000D02*
X335940000Y-139715000D01*
X321310000Y-120650000D02*
X320824473Y-120164473D01*
X318770000Y-145770000D02*
X318770000Y-123190000D01*
X327040000Y-147815000D02*
X320815000Y-147815000D01*
X318770000Y-123190000D02*
X321310000Y-120650000D01*
X320815000Y-147815000D02*
X318770000Y-145770000D01*
X327818750Y-105568750D02*
X321310000Y-112077500D01*
X327818750Y-104775000D02*
X327818750Y-105568750D01*
X319875000Y-96831250D02*
X327818750Y-104775000D01*
X321310000Y-112077500D02*
X321310000Y-118775000D01*
X319875000Y-81493750D02*
X319875000Y-96831250D01*
X323850000Y-120620000D02*
X321945000Y-122525000D01*
X321945000Y-122525000D02*
X321945000Y-122555000D01*
X321945000Y-122555000D02*
X319405000Y-125095000D01*
X319405000Y-125095000D02*
X319405000Y-145415000D01*
X319405000Y-145415000D02*
X320675000Y-146685000D01*
X326180229Y-147015000D02*
X327040000Y-147015000D01*
X325850229Y-146685000D02*
X326180229Y-147015000D01*
X320675000Y-146685000D02*
X325850229Y-146685000D01*
X320675000Y-93662500D02*
X320675000Y-81493750D01*
X323850000Y-112712500D02*
X329406250Y-107156250D01*
X329406250Y-107156250D02*
X329406250Y-104775000D01*
X329406250Y-104775000D02*
X320675000Y-96043750D01*
X323850000Y-118745000D02*
X323850000Y-112712500D01*
X320675000Y-96043750D02*
X320675000Y-93662500D01*
X329540000Y-138642500D02*
X329540000Y-139715000D01*
X326455000Y-135557500D02*
X329540000Y-138642500D01*
X325755000Y-135557500D02*
X326455000Y-135557500D01*
X324727990Y-134530490D02*
X324727990Y-127392010D01*
X325755000Y-135557500D02*
X324727990Y-134530490D01*
X324727990Y-127392010D02*
X327660000Y-124460000D01*
X336812500Y-122162500D02*
X336812500Y-122768750D01*
X336812500Y-122768750D02*
X335121250Y-124460000D01*
X335121250Y-124460000D02*
X333216250Y-124460000D01*
X327660000Y-124460000D02*
X333216250Y-124460000D01*
X333216250Y-124460000D02*
X333375000Y-124460000D01*
X342122500Y-149415000D02*
X342265000Y-149557500D01*
X338440000Y-149415000D02*
X342122500Y-149415000D01*
X362956250Y-128825000D02*
X362956250Y-141868750D01*
X361810000Y-143015000D02*
X355460000Y-143015000D01*
X362956250Y-141868750D02*
X361810000Y-143015000D01*
X358635000Y-143015000D02*
X355460000Y-143015000D01*
X355460000Y-143015000D02*
X338440000Y-143015000D01*
G36*
X338963000Y-140503423D02*
G01*
X338725750Y-140505000D01*
X338567000Y-140663750D01*
X338567000Y-141288000D01*
X338587000Y-141288000D01*
X338587000Y-141301928D01*
X337690000Y-141301928D01*
X337565518Y-141314188D01*
X337445820Y-141350498D01*
X337335506Y-141409463D01*
X337238815Y-141488815D01*
X337159463Y-141585506D01*
X337147083Y-141608667D01*
X337055000Y-141700750D01*
X337064546Y-141814337D01*
X337064188Y-141815518D01*
X337051928Y-141940000D01*
X337051928Y-142490000D01*
X337064188Y-142614482D01*
X337064345Y-142615000D01*
X337064188Y-142615518D01*
X337051928Y-142740000D01*
X337051928Y-143290000D01*
X337064188Y-143414482D01*
X337064345Y-143415000D01*
X337064188Y-143415518D01*
X337051928Y-143540000D01*
X337051928Y-144090000D01*
X337064188Y-144214482D01*
X337064345Y-144215000D01*
X337064188Y-144215518D01*
X337051928Y-144340000D01*
X337051928Y-144890000D01*
X337064188Y-145014482D01*
X337064345Y-145015000D01*
X337064188Y-145015518D01*
X337051928Y-145140000D01*
X337051928Y-145690000D01*
X337064188Y-145814482D01*
X337064345Y-145815000D01*
X337064188Y-145815518D01*
X337051928Y-145940000D01*
X337051928Y-146490000D01*
X337064188Y-146614482D01*
X337064345Y-146615000D01*
X337064188Y-146615518D01*
X337051928Y-146740000D01*
X337051928Y-147290000D01*
X337064188Y-147414482D01*
X337064345Y-147415000D01*
X337064188Y-147415518D01*
X337051928Y-147540000D01*
X337051928Y-148090000D01*
X337064188Y-148214482D01*
X337064345Y-148215000D01*
X337064188Y-148215518D01*
X337051928Y-148340000D01*
X337051928Y-148890000D01*
X337064188Y-149014482D01*
X337064345Y-149015000D01*
X337064188Y-149015518D01*
X337051928Y-149140000D01*
X337051928Y-149690000D01*
X337055962Y-149730962D01*
X337015000Y-149726928D01*
X336465000Y-149726928D01*
X336340518Y-149739188D01*
X336339337Y-149739546D01*
X336225750Y-149730000D01*
X336133667Y-149822083D01*
X336110506Y-149834463D01*
X336013815Y-149913815D01*
X335940000Y-150003759D01*
X335866185Y-149913815D01*
X335769494Y-149834463D01*
X335746333Y-149822083D01*
X335654250Y-149730000D01*
X335540663Y-149739546D01*
X335539482Y-149739188D01*
X335415000Y-149726928D01*
X334865000Y-149726928D01*
X334740518Y-149739188D01*
X334740000Y-149739345D01*
X334739482Y-149739188D01*
X334615000Y-149726928D01*
X334065000Y-149726928D01*
X333940518Y-149739188D01*
X333940000Y-149739345D01*
X333939482Y-149739188D01*
X333815000Y-149726928D01*
X333265000Y-149726928D01*
X333140518Y-149739188D01*
X333140000Y-149739345D01*
X333139482Y-149739188D01*
X333015000Y-149726928D01*
X332465000Y-149726928D01*
X332340518Y-149739188D01*
X332340000Y-149739345D01*
X332339482Y-149739188D01*
X332215000Y-149726928D01*
X331665000Y-149726928D01*
X331540518Y-149739188D01*
X331540000Y-149739345D01*
X331539482Y-149739188D01*
X331415000Y-149726928D01*
X330865000Y-149726928D01*
X330740518Y-149739188D01*
X330740000Y-149739345D01*
X330739482Y-149739188D01*
X330615000Y-149726928D01*
X330065000Y-149726928D01*
X329940518Y-149739188D01*
X329939337Y-149739546D01*
X329825750Y-149730000D01*
X329733667Y-149822083D01*
X329710506Y-149834463D01*
X329613815Y-149913815D01*
X329540000Y-150003759D01*
X329466185Y-149913815D01*
X329369494Y-149834463D01*
X329346333Y-149822083D01*
X329254250Y-149730000D01*
X329140663Y-149739546D01*
X329139482Y-149739188D01*
X329015000Y-149726928D01*
X328465000Y-149726928D01*
X328424038Y-149730962D01*
X328428072Y-149690000D01*
X328428072Y-149140000D01*
X328415812Y-149015518D01*
X328415655Y-149015000D01*
X328415812Y-149014482D01*
X328428072Y-148890000D01*
X328428072Y-148340000D01*
X328415812Y-148215518D01*
X328415655Y-148215000D01*
X328415812Y-148214482D01*
X328428072Y-148090000D01*
X328428072Y-147540000D01*
X328415812Y-147415518D01*
X328415655Y-147415000D01*
X328415812Y-147414482D01*
X328428072Y-147290000D01*
X328428072Y-146740000D01*
X328415812Y-146615518D01*
X328415454Y-146614337D01*
X328425000Y-146500750D01*
X328332917Y-146408667D01*
X328320537Y-146385506D01*
X328241185Y-146288815D01*
X328151241Y-146215000D01*
X328241185Y-146141185D01*
X328320537Y-146044494D01*
X328332917Y-146021333D01*
X328425000Y-145929250D01*
X328415454Y-145815663D01*
X328415812Y-145814482D01*
X328428072Y-145690000D01*
X328428072Y-145140000D01*
X328415812Y-145015518D01*
X328415655Y-145015000D01*
X328415812Y-145014482D01*
X328428072Y-144890000D01*
X328428072Y-144340000D01*
X328415812Y-144215518D01*
X328415655Y-144215000D01*
X328415812Y-144214482D01*
X328428072Y-144090000D01*
X328428072Y-143540000D01*
X328415812Y-143415518D01*
X328415655Y-143415000D01*
X328415812Y-143414482D01*
X328428072Y-143290000D01*
X328428072Y-142740000D01*
X328415812Y-142615518D01*
X328415655Y-142615000D01*
X328415812Y-142614482D01*
X328428072Y-142490000D01*
X328428072Y-141940000D01*
X328415812Y-141815518D01*
X328415655Y-141815000D01*
X328415812Y-141814482D01*
X328428072Y-141690000D01*
X328428072Y-141140000D01*
X328424038Y-141099038D01*
X328465000Y-141103072D01*
X329015000Y-141103072D01*
X329139482Y-141090812D01*
X329140000Y-141090655D01*
X329140518Y-141090812D01*
X329265000Y-141103072D01*
X329815000Y-141103072D01*
X329939482Y-141090812D01*
X329940000Y-141090655D01*
X329940518Y-141090812D01*
X330065000Y-141103072D01*
X330615000Y-141103072D01*
X330739482Y-141090812D01*
X330740663Y-141090454D01*
X330854250Y-141100000D01*
X330946333Y-141007917D01*
X330969494Y-140995537D01*
X331066185Y-140916185D01*
X331140000Y-140826241D01*
X331213815Y-140916185D01*
X331310506Y-140995537D01*
X331333667Y-141007917D01*
X331425750Y-141100000D01*
X331539337Y-141090454D01*
X331540518Y-141090812D01*
X331665000Y-141103072D01*
X332215000Y-141103072D01*
X332339482Y-141090812D01*
X332340000Y-141090655D01*
X332340518Y-141090812D01*
X332465000Y-141103072D01*
X333015000Y-141103072D01*
X333139482Y-141090812D01*
X333140000Y-141090655D01*
X333140518Y-141090812D01*
X333265000Y-141103072D01*
X333815000Y-141103072D01*
X333939482Y-141090812D01*
X333940000Y-141090655D01*
X333940518Y-141090812D01*
X334065000Y-141103072D01*
X334615000Y-141103072D01*
X334739482Y-141090812D01*
X334740000Y-141090655D01*
X334740518Y-141090812D01*
X334865000Y-141103072D01*
X335415000Y-141103072D01*
X335539482Y-141090812D01*
X335540000Y-141090655D01*
X335540518Y-141090812D01*
X335665000Y-141103072D01*
X336215000Y-141103072D01*
X336339482Y-141090812D01*
X336340000Y-141090655D01*
X336340518Y-141090812D01*
X336465000Y-141103072D01*
X337015000Y-141103072D01*
X337057552Y-141098881D01*
X337055000Y-141129250D01*
X337213750Y-141288000D01*
X338313000Y-141288000D01*
X338313000Y-140663750D01*
X338154250Y-140505000D01*
X337693213Y-140501936D01*
X337649028Y-140506064D01*
X337653072Y-140465000D01*
X337653072Y-139879558D01*
X337697346Y-139835284D01*
X337726422Y-139811422D01*
X337821645Y-139695392D01*
X337892402Y-139563015D01*
X337935974Y-139419378D01*
X337947000Y-139307426D01*
X337947000Y-139307424D01*
X337950686Y-139270001D01*
X337947000Y-139232578D01*
X337947000Y-139192000D01*
X338963000Y-139192000D01*
X338963000Y-140503423D01*
G37*
X338963000Y-140503423D02*
X338725750Y-140505000D01*
X338567000Y-140663750D01*
X338567000Y-141288000D01*
X338587000Y-141288000D01*
X338587000Y-141301928D01*
X337690000Y-141301928D01*
X337565518Y-141314188D01*
X337445820Y-141350498D01*
X337335506Y-141409463D01*
X337238815Y-141488815D01*
X337159463Y-141585506D01*
X337147083Y-141608667D01*
X337055000Y-141700750D01*
X337064546Y-141814337D01*
X337064188Y-141815518D01*
X337051928Y-141940000D01*
X337051928Y-142490000D01*
X337064188Y-142614482D01*
X337064345Y-142615000D01*
X337064188Y-142615518D01*
X337051928Y-142740000D01*
X337051928Y-143290000D01*
X337064188Y-143414482D01*
X337064345Y-143415000D01*
X337064188Y-143415518D01*
X337051928Y-143540000D01*
X337051928Y-144090000D01*
X337064188Y-144214482D01*
X337064345Y-144215000D01*
X337064188Y-144215518D01*
X337051928Y-144340000D01*
X337051928Y-144890000D01*
X337064188Y-145014482D01*
X337064345Y-145015000D01*
X337064188Y-145015518D01*
X337051928Y-145140000D01*
X337051928Y-145690000D01*
X337064188Y-145814482D01*
X337064345Y-145815000D01*
X337064188Y-145815518D01*
X337051928Y-145940000D01*
X337051928Y-146490000D01*
X337064188Y-146614482D01*
X337064345Y-146615000D01*
X337064188Y-146615518D01*
X337051928Y-146740000D01*
X337051928Y-147290000D01*
X337064188Y-147414482D01*
X337064345Y-147415000D01*
X337064188Y-147415518D01*
X337051928Y-147540000D01*
X337051928Y-148090000D01*
X337064188Y-148214482D01*
X337064345Y-148215000D01*
X337064188Y-148215518D01*
X337051928Y-148340000D01*
X337051928Y-148890000D01*
X337064188Y-149014482D01*
X337064345Y-149015000D01*
X337064188Y-149015518D01*
X337051928Y-149140000D01*
X337051928Y-149690000D01*
X337055962Y-149730962D01*
X337015000Y-149726928D01*
X336465000Y-149726928D01*
X336340518Y-149739188D01*
X336339337Y-149739546D01*
X336225750Y-149730000D01*
X336133667Y-149822083D01*
X336110506Y-149834463D01*
X336013815Y-149913815D01*
X335940000Y-150003759D01*
X335866185Y-149913815D01*
X335769494Y-149834463D01*
X335746333Y-149822083D01*
X335654250Y-149730000D01*
X335540663Y-149739546D01*
X335539482Y-149739188D01*
X335415000Y-149726928D01*
X334865000Y-149726928D01*
X334740518Y-149739188D01*
X334740000Y-149739345D01*
X334739482Y-149739188D01*
X334615000Y-149726928D01*
X334065000Y-149726928D01*
X333940518Y-149739188D01*
X333940000Y-149739345D01*
X333939482Y-149739188D01*
X333815000Y-149726928D01*
X333265000Y-149726928D01*
X333140518Y-149739188D01*
X333140000Y-149739345D01*
X333139482Y-149739188D01*
X333015000Y-149726928D01*
X332465000Y-149726928D01*
X332340518Y-149739188D01*
X332340000Y-149739345D01*
X332339482Y-149739188D01*
X332215000Y-149726928D01*
X331665000Y-149726928D01*
X331540518Y-149739188D01*
X331540000Y-149739345D01*
X331539482Y-149739188D01*
X331415000Y-149726928D01*
X330865000Y-149726928D01*
X330740518Y-149739188D01*
X330740000Y-149739345D01*
X330739482Y-149739188D01*
X330615000Y-149726928D01*
X330065000Y-149726928D01*
X329940518Y-149739188D01*
X329939337Y-149739546D01*
X329825750Y-149730000D01*
X329733667Y-149822083D01*
X329710506Y-149834463D01*
X329613815Y-149913815D01*
X329540000Y-150003759D01*
X329466185Y-149913815D01*
X329369494Y-149834463D01*
X329346333Y-149822083D01*
X329254250Y-149730000D01*
X329140663Y-149739546D01*
X329139482Y-149739188D01*
X329015000Y-149726928D01*
X328465000Y-149726928D01*
X328424038Y-149730962D01*
X328428072Y-149690000D01*
X328428072Y-149140000D01*
X328415812Y-149015518D01*
X328415655Y-149015000D01*
X328415812Y-149014482D01*
X328428072Y-148890000D01*
X328428072Y-148340000D01*
X328415812Y-148215518D01*
X328415655Y-148215000D01*
X328415812Y-148214482D01*
X328428072Y-148090000D01*
X328428072Y-147540000D01*
X328415812Y-147415518D01*
X328415655Y-147415000D01*
X328415812Y-147414482D01*
X328428072Y-147290000D01*
X328428072Y-146740000D01*
X328415812Y-146615518D01*
X328415454Y-146614337D01*
X328425000Y-146500750D01*
X328332917Y-146408667D01*
X328320537Y-146385506D01*
X328241185Y-146288815D01*
X328151241Y-146215000D01*
X328241185Y-146141185D01*
X328320537Y-146044494D01*
X328332917Y-146021333D01*
X328425000Y-145929250D01*
X328415454Y-145815663D01*
X328415812Y-145814482D01*
X328428072Y-145690000D01*
X328428072Y-145140000D01*
X328415812Y-145015518D01*
X328415655Y-145015000D01*
X328415812Y-145014482D01*
X328428072Y-144890000D01*
X328428072Y-144340000D01*
X328415812Y-144215518D01*
X328415655Y-144215000D01*
X328415812Y-144214482D01*
X328428072Y-144090000D01*
X328428072Y-143540000D01*
X328415812Y-143415518D01*
X328415655Y-143415000D01*
X328415812Y-143414482D01*
X328428072Y-143290000D01*
X328428072Y-142740000D01*
X328415812Y-142615518D01*
X328415655Y-142615000D01*
X328415812Y-142614482D01*
X328428072Y-142490000D01*
X328428072Y-141940000D01*
X328415812Y-141815518D01*
X328415655Y-141815000D01*
X328415812Y-141814482D01*
X328428072Y-141690000D01*
X328428072Y-141140000D01*
X328424038Y-141099038D01*
X328465000Y-141103072D01*
X329015000Y-141103072D01*
X329139482Y-141090812D01*
X329140000Y-141090655D01*
X329140518Y-141090812D01*
X329265000Y-141103072D01*
X329815000Y-141103072D01*
X329939482Y-141090812D01*
X329940000Y-141090655D01*
X329940518Y-141090812D01*
X330065000Y-141103072D01*
X330615000Y-141103072D01*
X330739482Y-141090812D01*
X330740663Y-141090454D01*
X330854250Y-141100000D01*
X330946333Y-141007917D01*
X330969494Y-140995537D01*
X331066185Y-140916185D01*
X331140000Y-140826241D01*
X331213815Y-140916185D01*
X331310506Y-140995537D01*
X331333667Y-141007917D01*
X331425750Y-141100000D01*
X331539337Y-141090454D01*
X331540518Y-141090812D01*
X331665000Y-141103072D01*
X332215000Y-141103072D01*
X332339482Y-141090812D01*
X332340000Y-141090655D01*
X332340518Y-141090812D01*
X332465000Y-141103072D01*
X333015000Y-141103072D01*
X333139482Y-141090812D01*
X333140000Y-141090655D01*
X333140518Y-141090812D01*
X333265000Y-141103072D01*
X333815000Y-141103072D01*
X333939482Y-141090812D01*
X333940000Y-141090655D01*
X333940518Y-141090812D01*
X334065000Y-141103072D01*
X334615000Y-141103072D01*
X334739482Y-141090812D01*
X334740000Y-141090655D01*
X334740518Y-141090812D01*
X334865000Y-141103072D01*
X335415000Y-141103072D01*
X335539482Y-141090812D01*
X335540000Y-141090655D01*
X335540518Y-141090812D01*
X335665000Y-141103072D01*
X336215000Y-141103072D01*
X336339482Y-141090812D01*
X336340000Y-141090655D01*
X336340518Y-141090812D01*
X336465000Y-141103072D01*
X337015000Y-141103072D01*
X337057552Y-141098881D01*
X337055000Y-141129250D01*
X337213750Y-141288000D01*
X338313000Y-141288000D01*
X338313000Y-140663750D01*
X338154250Y-140505000D01*
X337693213Y-140501936D01*
X337649028Y-140506064D01*
X337653072Y-140465000D01*
X337653072Y-139879558D01*
X337697346Y-139835284D01*
X337726422Y-139811422D01*
X337821645Y-139695392D01*
X337892402Y-139563015D01*
X337935974Y-139419378D01*
X337947000Y-139307426D01*
X337947000Y-139307424D01*
X337950686Y-139270001D01*
X337947000Y-139232578D01*
X337947000Y-139192000D01*
X338963000Y-139192000D01*
X338963000Y-140503423D01*
G36*
X316064748Y-75353893D02*
G01*
X315860824Y-75563131D01*
X315701639Y-75808132D01*
X315593310Y-76079481D01*
X315540000Y-76366750D01*
X315540000Y-76866750D01*
X316898000Y-76866750D01*
X316898000Y-76846750D01*
X317152000Y-76846750D01*
X317152000Y-76866750D01*
X318510000Y-76866750D01*
X318510000Y-76366750D01*
X318456690Y-76079481D01*
X318348361Y-75808132D01*
X318189176Y-75563131D01*
X317985252Y-75353893D01*
X317939553Y-75322500D01*
X323410447Y-75322500D01*
X323364748Y-75353893D01*
X323160824Y-75563131D01*
X323001639Y-75808132D01*
X322893310Y-76079481D01*
X322840000Y-76366750D01*
X322840000Y-76866750D01*
X324198000Y-76866750D01*
X324198000Y-76846750D01*
X324452000Y-76846750D01*
X324452000Y-76866750D01*
X325810000Y-76866750D01*
X325810000Y-76366750D01*
X325756690Y-76079481D01*
X325648361Y-75808132D01*
X325489176Y-75563131D01*
X325285252Y-75353893D01*
X325239553Y-75322500D01*
X326104250Y-75322500D01*
X326104250Y-83216750D01*
X325164219Y-83216750D01*
X325285252Y-83133607D01*
X325489176Y-82924369D01*
X325648361Y-82679368D01*
X325756690Y-82408019D01*
X325810000Y-82120750D01*
X325810000Y-81620750D01*
X324452000Y-81620750D01*
X324452000Y-81640750D01*
X324198000Y-81640750D01*
X324198000Y-81620750D01*
X322398000Y-81620750D01*
X322398000Y-81640750D01*
X322363072Y-81640750D01*
X322363072Y-80368750D01*
X322350812Y-80244268D01*
X322314502Y-80124570D01*
X322255537Y-80014256D01*
X322176185Y-79917565D01*
X322152000Y-79897717D01*
X322152000Y-79892500D01*
X322398000Y-79892500D01*
X322398000Y-81366750D01*
X324198000Y-81366750D01*
X324198000Y-79673595D01*
X324452000Y-79673595D01*
X324452000Y-81366750D01*
X325810000Y-81366750D01*
X325810000Y-80866750D01*
X325756690Y-80579481D01*
X325648361Y-80308132D01*
X325489176Y-80063131D01*
X325285252Y-79853893D01*
X325044426Y-79688459D01*
X324775953Y-79573187D01*
X324681890Y-79552274D01*
X324452000Y-79673595D01*
X324198000Y-79673595D01*
X323968110Y-79552274D01*
X323874047Y-79573187D01*
X323605574Y-79688459D01*
X323364748Y-79853893D01*
X323160824Y-80063131D01*
X323116943Y-80130668D01*
X323059406Y-80020116D01*
X322981123Y-79922557D01*
X322885311Y-79842146D01*
X322775652Y-79781971D01*
X322656361Y-79744346D01*
X322556750Y-79733750D01*
X322398000Y-79892500D01*
X322152000Y-79892500D01*
X321993250Y-79733750D01*
X321893639Y-79744346D01*
X321874266Y-79750456D01*
X321849482Y-79742938D01*
X321725000Y-79730678D01*
X321225000Y-79730678D01*
X321100518Y-79742938D01*
X321075000Y-79750679D01*
X321049482Y-79742938D01*
X320925000Y-79730678D01*
X320425000Y-79730678D01*
X320300518Y-79742938D01*
X320275000Y-79750679D01*
X320249482Y-79742938D01*
X320125000Y-79730678D01*
X319625000Y-79730678D01*
X319500518Y-79742938D01*
X319475000Y-79750679D01*
X319449482Y-79742938D01*
X319325000Y-79730678D01*
X318825000Y-79730678D01*
X318700518Y-79742938D01*
X318580820Y-79779248D01*
X318470506Y-79838213D01*
X318373815Y-79917565D01*
X318294463Y-80014256D01*
X318235498Y-80124570D01*
X318233460Y-80131288D01*
X318189176Y-80063131D01*
X317985252Y-79853893D01*
X317744426Y-79688459D01*
X317475953Y-79573187D01*
X317381890Y-79552274D01*
X317152000Y-79673595D01*
X317152000Y-81366750D01*
X317172000Y-81366750D01*
X317172000Y-81620750D01*
X317152000Y-81620750D01*
X317152000Y-81640750D01*
X316898000Y-81640750D01*
X316898000Y-81620750D01*
X315540000Y-81620750D01*
X315540000Y-82120750D01*
X315593310Y-82408019D01*
X315701639Y-82679368D01*
X315860824Y-82924369D01*
X316064748Y-83133607D01*
X316185781Y-83216750D01*
X315245750Y-83216750D01*
X315245750Y-80866750D01*
X315540000Y-80866750D01*
X315540000Y-81366750D01*
X316898000Y-81366750D01*
X316898000Y-79673595D01*
X316668110Y-79552274D01*
X316574047Y-79573187D01*
X316305574Y-79688459D01*
X316064748Y-79853893D01*
X315860824Y-80063131D01*
X315701639Y-80308132D01*
X315593310Y-80579481D01*
X315540000Y-80866750D01*
X315245750Y-80866750D01*
X315245750Y-77120750D01*
X315540000Y-77120750D01*
X315540000Y-77620750D01*
X315593310Y-77908019D01*
X315701639Y-78179368D01*
X315860824Y-78424369D01*
X316064748Y-78633607D01*
X316305574Y-78799041D01*
X316574047Y-78914313D01*
X316668110Y-78935226D01*
X316898000Y-78813905D01*
X316898000Y-77120750D01*
X317152000Y-77120750D01*
X317152000Y-78813905D01*
X317381890Y-78935226D01*
X317475953Y-78914313D01*
X317744426Y-78799041D01*
X317985252Y-78633607D01*
X318189176Y-78424369D01*
X318348361Y-78179368D01*
X318456690Y-77908019D01*
X318510000Y-77620750D01*
X318510000Y-77120750D01*
X322840000Y-77120750D01*
X322840000Y-77620750D01*
X322893310Y-77908019D01*
X323001639Y-78179368D01*
X323160824Y-78424369D01*
X323364748Y-78633607D01*
X323605574Y-78799041D01*
X323874047Y-78914313D01*
X323968110Y-78935226D01*
X324198000Y-78813905D01*
X324198000Y-77120750D01*
X324452000Y-77120750D01*
X324452000Y-78813905D01*
X324681890Y-78935226D01*
X324775953Y-78914313D01*
X325044426Y-78799041D01*
X325285252Y-78633607D01*
X325489176Y-78424369D01*
X325648361Y-78179368D01*
X325756690Y-77908019D01*
X325810000Y-77620750D01*
X325810000Y-77120750D01*
X324452000Y-77120750D01*
X324198000Y-77120750D01*
X322840000Y-77120750D01*
X318510000Y-77120750D01*
X317152000Y-77120750D01*
X316898000Y-77120750D01*
X315540000Y-77120750D01*
X315245750Y-77120750D01*
X315245750Y-75322500D01*
X316110447Y-75322500D01*
X316064748Y-75353893D01*
G37*
X316064748Y-75353893D02*
X315860824Y-75563131D01*
X315701639Y-75808132D01*
X315593310Y-76079481D01*
X315540000Y-76366750D01*
X315540000Y-76866750D01*
X316898000Y-76866750D01*
X316898000Y-76846750D01*
X317152000Y-76846750D01*
X317152000Y-76866750D01*
X318510000Y-76866750D01*
X318510000Y-76366750D01*
X318456690Y-76079481D01*
X318348361Y-75808132D01*
X318189176Y-75563131D01*
X317985252Y-75353893D01*
X317939553Y-75322500D01*
X323410447Y-75322500D01*
X323364748Y-75353893D01*
X323160824Y-75563131D01*
X323001639Y-75808132D01*
X322893310Y-76079481D01*
X322840000Y-76366750D01*
X322840000Y-76866750D01*
X324198000Y-76866750D01*
X324198000Y-76846750D01*
X324452000Y-76846750D01*
X324452000Y-76866750D01*
X325810000Y-76866750D01*
X325810000Y-76366750D01*
X325756690Y-76079481D01*
X325648361Y-75808132D01*
X325489176Y-75563131D01*
X325285252Y-75353893D01*
X325239553Y-75322500D01*
X326104250Y-75322500D01*
X326104250Y-83216750D01*
X325164219Y-83216750D01*
X325285252Y-83133607D01*
X325489176Y-82924369D01*
X325648361Y-82679368D01*
X325756690Y-82408019D01*
X325810000Y-82120750D01*
X325810000Y-81620750D01*
X324452000Y-81620750D01*
X324452000Y-81640750D01*
X324198000Y-81640750D01*
X324198000Y-81620750D01*
X322398000Y-81620750D01*
X322398000Y-81640750D01*
X322363072Y-81640750D01*
X322363072Y-80368750D01*
X322350812Y-80244268D01*
X322314502Y-80124570D01*
X322255537Y-80014256D01*
X322176185Y-79917565D01*
X322152000Y-79897717D01*
X322152000Y-79892500D01*
X322398000Y-79892500D01*
X322398000Y-81366750D01*
X324198000Y-81366750D01*
X324198000Y-79673595D01*
X324452000Y-79673595D01*
X324452000Y-81366750D01*
X325810000Y-81366750D01*
X325810000Y-80866750D01*
X325756690Y-80579481D01*
X325648361Y-80308132D01*
X325489176Y-80063131D01*
X325285252Y-79853893D01*
X325044426Y-79688459D01*
X324775953Y-79573187D01*
X324681890Y-79552274D01*
X324452000Y-79673595D01*
X324198000Y-79673595D01*
X323968110Y-79552274D01*
X323874047Y-79573187D01*
X323605574Y-79688459D01*
X323364748Y-79853893D01*
X323160824Y-80063131D01*
X323116943Y-80130668D01*
X323059406Y-80020116D01*
X322981123Y-79922557D01*
X322885311Y-79842146D01*
X322775652Y-79781971D01*
X322656361Y-79744346D01*
X322556750Y-79733750D01*
X322398000Y-79892500D01*
X322152000Y-79892500D01*
X321993250Y-79733750D01*
X321893639Y-79744346D01*
X321874266Y-79750456D01*
X321849482Y-79742938D01*
X321725000Y-79730678D01*
X321225000Y-79730678D01*
X321100518Y-79742938D01*
X321075000Y-79750679D01*
X321049482Y-79742938D01*
X320925000Y-79730678D01*
X320425000Y-79730678D01*
X320300518Y-79742938D01*
X320275000Y-79750679D01*
X320249482Y-79742938D01*
X320125000Y-79730678D01*
X319625000Y-79730678D01*
X319500518Y-79742938D01*
X319475000Y-79750679D01*
X319449482Y-79742938D01*
X319325000Y-79730678D01*
X318825000Y-79730678D01*
X318700518Y-79742938D01*
X318580820Y-79779248D01*
X318470506Y-79838213D01*
X318373815Y-79917565D01*
X318294463Y-80014256D01*
X318235498Y-80124570D01*
X318233460Y-80131288D01*
X318189176Y-80063131D01*
X317985252Y-79853893D01*
X317744426Y-79688459D01*
X317475953Y-79573187D01*
X317381890Y-79552274D01*
X317152000Y-79673595D01*
X317152000Y-81366750D01*
X317172000Y-81366750D01*
X317172000Y-81620750D01*
X317152000Y-81620750D01*
X317152000Y-81640750D01*
X316898000Y-81640750D01*
X316898000Y-81620750D01*
X315540000Y-81620750D01*
X315540000Y-82120750D01*
X315593310Y-82408019D01*
X315701639Y-82679368D01*
X315860824Y-82924369D01*
X316064748Y-83133607D01*
X316185781Y-83216750D01*
X315245750Y-83216750D01*
X315245750Y-80866750D01*
X315540000Y-80866750D01*
X315540000Y-81366750D01*
X316898000Y-81366750D01*
X316898000Y-79673595D01*
X316668110Y-79552274D01*
X316574047Y-79573187D01*
X316305574Y-79688459D01*
X316064748Y-79853893D01*
X315860824Y-80063131D01*
X315701639Y-80308132D01*
X315593310Y-80579481D01*
X315540000Y-80866750D01*
X315245750Y-80866750D01*
X315245750Y-77120750D01*
X315540000Y-77120750D01*
X315540000Y-77620750D01*
X315593310Y-77908019D01*
X315701639Y-78179368D01*
X315860824Y-78424369D01*
X316064748Y-78633607D01*
X316305574Y-78799041D01*
X316574047Y-78914313D01*
X316668110Y-78935226D01*
X316898000Y-78813905D01*
X316898000Y-77120750D01*
X317152000Y-77120750D01*
X317152000Y-78813905D01*
X317381890Y-78935226D01*
X317475953Y-78914313D01*
X317744426Y-78799041D01*
X317985252Y-78633607D01*
X318189176Y-78424369D01*
X318348361Y-78179368D01*
X318456690Y-77908019D01*
X318510000Y-77620750D01*
X318510000Y-77120750D01*
X322840000Y-77120750D01*
X322840000Y-77620750D01*
X322893310Y-77908019D01*
X323001639Y-78179368D01*
X323160824Y-78424369D01*
X323364748Y-78633607D01*
X323605574Y-78799041D01*
X323874047Y-78914313D01*
X323968110Y-78935226D01*
X324198000Y-78813905D01*
X324198000Y-77120750D01*
X324452000Y-77120750D01*
X324452000Y-78813905D01*
X324681890Y-78935226D01*
X324775953Y-78914313D01*
X325044426Y-78799041D01*
X325285252Y-78633607D01*
X325489176Y-78424369D01*
X325648361Y-78179368D01*
X325756690Y-77908019D01*
X325810000Y-77620750D01*
X325810000Y-77120750D01*
X324452000Y-77120750D01*
X324198000Y-77120750D01*
X322840000Y-77120750D01*
X318510000Y-77120750D01*
X317152000Y-77120750D01*
X316898000Y-77120750D01*
X315540000Y-77120750D01*
X315245750Y-77120750D01*
X315245750Y-75322500D01*
X316110447Y-75322500D01*
X316064748Y-75353893D01*
G36*
X338804250Y-127846356D02*
G01*
X338804250Y-130916144D01*
X338084894Y-131635500D01*
X333672130Y-131635500D01*
X333679558Y-131628072D01*
X334540000Y-131628072D01*
X334664482Y-131615812D01*
X334784180Y-131579502D01*
X334894494Y-131520537D01*
X334991185Y-131441185D01*
X335070537Y-131344494D01*
X335129502Y-131234180D01*
X335154431Y-131152000D01*
X335963918Y-131152000D01*
X335995542Y-131211164D01*
X336105208Y-131344792D01*
X336238836Y-131454458D01*
X336391291Y-131535947D01*
X336556715Y-131586128D01*
X336728750Y-131603072D01*
X337641250Y-131603072D01*
X337813285Y-131586128D01*
X337978709Y-131535947D01*
X338131164Y-131454458D01*
X338264792Y-131344792D01*
X338374458Y-131211164D01*
X338455947Y-131058709D01*
X338506128Y-130893285D01*
X338523072Y-130721250D01*
X338523072Y-130233750D01*
X338506128Y-130061715D01*
X338455947Y-129896291D01*
X338374458Y-129743836D01*
X338264792Y-129610208D01*
X338258436Y-129604992D01*
X338336185Y-129541185D01*
X338415537Y-129444494D01*
X338474502Y-129334180D01*
X338510812Y-129214482D01*
X338523072Y-129090000D01*
X338520000Y-128888250D01*
X338361250Y-128729500D01*
X337312000Y-128729500D01*
X337312000Y-128749500D01*
X337058000Y-128749500D01*
X337058000Y-128729500D01*
X336008750Y-128729500D01*
X335850000Y-128888250D01*
X335846928Y-129090000D01*
X335859188Y-129214482D01*
X335895498Y-129334180D01*
X335954463Y-129444494D01*
X336033815Y-129541185D01*
X336111564Y-129604992D01*
X336105208Y-129610208D01*
X336090606Y-129628000D01*
X335154431Y-129628000D01*
X335129502Y-129545820D01*
X335126391Y-129540000D01*
X335129502Y-129534180D01*
X335165812Y-129414482D01*
X335178072Y-129290000D01*
X335175000Y-128975750D01*
X335016250Y-128817000D01*
X333967000Y-128817000D01*
X333967000Y-128837000D01*
X333713000Y-128837000D01*
X333713000Y-128817000D01*
X333693000Y-128817000D01*
X333693000Y-128563000D01*
X333713000Y-128563000D01*
X333713000Y-127613750D01*
X333967000Y-127613750D01*
X333967000Y-128563000D01*
X335016250Y-128563000D01*
X335175000Y-128404250D01*
X335177827Y-128115000D01*
X335846928Y-128115000D01*
X335850000Y-128316750D01*
X336008750Y-128475500D01*
X337058000Y-128475500D01*
X337058000Y-127638750D01*
X337312000Y-127638750D01*
X337312000Y-128475500D01*
X338361250Y-128475500D01*
X338520000Y-128316750D01*
X338523072Y-128115000D01*
X338510812Y-127990518D01*
X338474502Y-127870820D01*
X338415537Y-127760506D01*
X338336185Y-127663815D01*
X338239494Y-127584463D01*
X338129180Y-127525498D01*
X338009482Y-127489188D01*
X337885000Y-127476928D01*
X337470750Y-127480000D01*
X337312000Y-127638750D01*
X337058000Y-127638750D01*
X336899250Y-127480000D01*
X336485000Y-127476928D01*
X336360518Y-127489188D01*
X336240820Y-127525498D01*
X336130506Y-127584463D01*
X336033815Y-127663815D01*
X335954463Y-127760506D01*
X335895498Y-127870820D01*
X335859188Y-127990518D01*
X335846928Y-128115000D01*
X335177827Y-128115000D01*
X335178072Y-128090000D01*
X335165812Y-127965518D01*
X335129502Y-127845820D01*
X335070537Y-127735506D01*
X334991185Y-127638815D01*
X334894494Y-127559463D01*
X334784180Y-127500498D01*
X334664482Y-127464188D01*
X334540000Y-127451928D01*
X334125750Y-127455000D01*
X333967000Y-127613750D01*
X333713000Y-127613750D01*
X333554250Y-127455000D01*
X333140000Y-127451928D01*
X333015518Y-127464188D01*
X332895820Y-127500498D01*
X332785506Y-127559463D01*
X332740000Y-127596809D01*
X332694494Y-127559463D01*
X332584180Y-127500498D01*
X332464482Y-127464188D01*
X332340000Y-127451928D01*
X330940000Y-127451928D01*
X330815518Y-127464188D01*
X330695820Y-127500498D01*
X330585506Y-127559463D01*
X330488815Y-127638815D01*
X330409463Y-127735506D01*
X330353342Y-127840500D01*
X329461203Y-127840500D01*
X329374792Y-127735208D01*
X329241164Y-127625542D01*
X329088709Y-127544053D01*
X328923285Y-127493872D01*
X328751250Y-127476928D01*
X327838750Y-127476928D01*
X327666715Y-127493872D01*
X327501291Y-127544053D01*
X327348836Y-127625542D01*
X327215208Y-127735208D01*
X327105542Y-127868836D01*
X327024053Y-128021291D01*
X326973872Y-128186715D01*
X326956928Y-128358750D01*
X326956928Y-128846250D01*
X326973872Y-129018285D01*
X327024053Y-129183709D01*
X327105542Y-129336164D01*
X327215208Y-129469792D01*
X327221564Y-129475008D01*
X327143815Y-129538815D01*
X327064463Y-129635506D01*
X327005498Y-129745820D01*
X326969188Y-129865518D01*
X326956928Y-129990000D01*
X326960000Y-130191750D01*
X327118750Y-130350500D01*
X328168000Y-130350500D01*
X328168000Y-130330500D01*
X328422000Y-130330500D01*
X328422000Y-130350500D01*
X328442000Y-130350500D01*
X328442000Y-130604500D01*
X328422000Y-130604500D01*
X328422000Y-131441250D01*
X328580750Y-131600000D01*
X328995000Y-131603072D01*
X329119482Y-131590812D01*
X329239180Y-131554502D01*
X329349494Y-131495537D01*
X329446185Y-131416185D01*
X329524276Y-131321030D01*
X329563355Y-131394142D01*
X329601963Y-131441185D01*
X329658578Y-131510172D01*
X329687654Y-131534034D01*
X329789120Y-131635500D01*
X327077606Y-131635500D01*
X326790000Y-131347894D01*
X326790000Y-131343061D01*
X326750226Y-131143102D01*
X326676454Y-130965000D01*
X326956928Y-130965000D01*
X326969188Y-131089482D01*
X327005498Y-131209180D01*
X327064463Y-131319494D01*
X327143815Y-131416185D01*
X327240506Y-131495537D01*
X327350820Y-131554502D01*
X327470518Y-131590812D01*
X327595000Y-131603072D01*
X328009250Y-131600000D01*
X328168000Y-131441250D01*
X328168000Y-130604500D01*
X327118750Y-130604500D01*
X326960000Y-130763250D01*
X326956928Y-130965000D01*
X326676454Y-130965000D01*
X326672205Y-130954744D01*
X326558937Y-130785226D01*
X326414774Y-130641063D01*
X326358250Y-130603295D01*
X326358250Y-127846356D01*
X327077606Y-127127000D01*
X338084894Y-127127000D01*
X338804250Y-127846356D01*
G37*
X338804250Y-127846356D02*
X338804250Y-130916144D01*
X338084894Y-131635500D01*
X333672130Y-131635500D01*
X333679558Y-131628072D01*
X334540000Y-131628072D01*
X334664482Y-131615812D01*
X334784180Y-131579502D01*
X334894494Y-131520537D01*
X334991185Y-131441185D01*
X335070537Y-131344494D01*
X335129502Y-131234180D01*
X335154431Y-131152000D01*
X335963918Y-131152000D01*
X335995542Y-131211164D01*
X336105208Y-131344792D01*
X336238836Y-131454458D01*
X336391291Y-131535947D01*
X336556715Y-131586128D01*
X336728750Y-131603072D01*
X337641250Y-131603072D01*
X337813285Y-131586128D01*
X337978709Y-131535947D01*
X338131164Y-131454458D01*
X338264792Y-131344792D01*
X338374458Y-131211164D01*
X338455947Y-131058709D01*
X338506128Y-130893285D01*
X338523072Y-130721250D01*
X338523072Y-130233750D01*
X338506128Y-130061715D01*
X338455947Y-129896291D01*
X338374458Y-129743836D01*
X338264792Y-129610208D01*
X338258436Y-129604992D01*
X338336185Y-129541185D01*
X338415537Y-129444494D01*
X338474502Y-129334180D01*
X338510812Y-129214482D01*
X338523072Y-129090000D01*
X338520000Y-128888250D01*
X338361250Y-128729500D01*
X337312000Y-128729500D01*
X337312000Y-128749500D01*
X337058000Y-128749500D01*
X337058000Y-128729500D01*
X336008750Y-128729500D01*
X335850000Y-128888250D01*
X335846928Y-129090000D01*
X335859188Y-129214482D01*
X335895498Y-129334180D01*
X335954463Y-129444494D01*
X336033815Y-129541185D01*
X336111564Y-129604992D01*
X336105208Y-129610208D01*
X336090606Y-129628000D01*
X335154431Y-129628000D01*
X335129502Y-129545820D01*
X335126391Y-129540000D01*
X335129502Y-129534180D01*
X335165812Y-129414482D01*
X335178072Y-129290000D01*
X335175000Y-128975750D01*
X335016250Y-128817000D01*
X333967000Y-128817000D01*
X333967000Y-128837000D01*
X333713000Y-128837000D01*
X333713000Y-128817000D01*
X333693000Y-128817000D01*
X333693000Y-128563000D01*
X333713000Y-128563000D01*
X333713000Y-127613750D01*
X333967000Y-127613750D01*
X333967000Y-128563000D01*
X335016250Y-128563000D01*
X335175000Y-128404250D01*
X335177827Y-128115000D01*
X335846928Y-128115000D01*
X335850000Y-128316750D01*
X336008750Y-128475500D01*
X337058000Y-128475500D01*
X337058000Y-127638750D01*
X337312000Y-127638750D01*
X337312000Y-128475500D01*
X338361250Y-128475500D01*
X338520000Y-128316750D01*
X338523072Y-128115000D01*
X338510812Y-127990518D01*
X338474502Y-127870820D01*
X338415537Y-127760506D01*
X338336185Y-127663815D01*
X338239494Y-127584463D01*
X338129180Y-127525498D01*
X338009482Y-127489188D01*
X337885000Y-127476928D01*
X337470750Y-127480000D01*
X337312000Y-127638750D01*
X337058000Y-127638750D01*
X336899250Y-127480000D01*
X336485000Y-127476928D01*
X336360518Y-127489188D01*
X336240820Y-127525498D01*
X336130506Y-127584463D01*
X336033815Y-127663815D01*
X335954463Y-127760506D01*
X335895498Y-127870820D01*
X335859188Y-127990518D01*
X335846928Y-128115000D01*
X335177827Y-128115000D01*
X335178072Y-128090000D01*
X335165812Y-127965518D01*
X335129502Y-127845820D01*
X335070537Y-127735506D01*
X334991185Y-127638815D01*
X334894494Y-127559463D01*
X334784180Y-127500498D01*
X334664482Y-127464188D01*
X334540000Y-127451928D01*
X334125750Y-127455000D01*
X333967000Y-127613750D01*
X333713000Y-127613750D01*
X333554250Y-127455000D01*
X333140000Y-127451928D01*
X333015518Y-127464188D01*
X332895820Y-127500498D01*
X332785506Y-127559463D01*
X332740000Y-127596809D01*
X332694494Y-127559463D01*
X332584180Y-127500498D01*
X332464482Y-127464188D01*
X332340000Y-127451928D01*
X330940000Y-127451928D01*
X330815518Y-127464188D01*
X330695820Y-127500498D01*
X330585506Y-127559463D01*
X330488815Y-127638815D01*
X330409463Y-127735506D01*
X330353342Y-127840500D01*
X329461203Y-127840500D01*
X329374792Y-127735208D01*
X329241164Y-127625542D01*
X329088709Y-127544053D01*
X328923285Y-127493872D01*
X328751250Y-127476928D01*
X327838750Y-127476928D01*
X327666715Y-127493872D01*
X327501291Y-127544053D01*
X327348836Y-127625542D01*
X327215208Y-127735208D01*
X327105542Y-127868836D01*
X327024053Y-128021291D01*
X326973872Y-128186715D01*
X326956928Y-128358750D01*
X326956928Y-128846250D01*
X326973872Y-129018285D01*
X327024053Y-129183709D01*
X327105542Y-129336164D01*
X327215208Y-129469792D01*
X327221564Y-129475008D01*
X327143815Y-129538815D01*
X327064463Y-129635506D01*
X327005498Y-129745820D01*
X326969188Y-129865518D01*
X326956928Y-129990000D01*
X326960000Y-130191750D01*
X327118750Y-130350500D01*
X328168000Y-130350500D01*
X328168000Y-130330500D01*
X328422000Y-130330500D01*
X328422000Y-130350500D01*
X328442000Y-130350500D01*
X328442000Y-130604500D01*
X328422000Y-130604500D01*
X328422000Y-131441250D01*
X328580750Y-131600000D01*
X328995000Y-131603072D01*
X329119482Y-131590812D01*
X329239180Y-131554502D01*
X329349494Y-131495537D01*
X329446185Y-131416185D01*
X329524276Y-131321030D01*
X329563355Y-131394142D01*
X329601963Y-131441185D01*
X329658578Y-131510172D01*
X329687654Y-131534034D01*
X329789120Y-131635500D01*
X327077606Y-131635500D01*
X326790000Y-131347894D01*
X326790000Y-131343061D01*
X326750226Y-131143102D01*
X326676454Y-130965000D01*
X326956928Y-130965000D01*
X326969188Y-131089482D01*
X327005498Y-131209180D01*
X327064463Y-131319494D01*
X327143815Y-131416185D01*
X327240506Y-131495537D01*
X327350820Y-131554502D01*
X327470518Y-131590812D01*
X327595000Y-131603072D01*
X328009250Y-131600000D01*
X328168000Y-131441250D01*
X328168000Y-130604500D01*
X327118750Y-130604500D01*
X326960000Y-130763250D01*
X326956928Y-130965000D01*
X326676454Y-130965000D01*
X326672205Y-130954744D01*
X326558937Y-130785226D01*
X326414774Y-130641063D01*
X326358250Y-130603295D01*
X326358250Y-127846356D01*
X327077606Y-127127000D01*
X338084894Y-127127000D01*
X338804250Y-127846356D01*
G36*
X331767000Y-130263000D02*
G01*
X331787000Y-130263000D01*
X331787000Y-130517000D01*
X331767000Y-130517000D01*
X331767000Y-130537000D01*
X331513000Y-130537000D01*
X331513000Y-130517000D01*
X331493000Y-130517000D01*
X331493000Y-130263000D01*
X331513000Y-130263000D01*
X331513000Y-130243000D01*
X331767000Y-130243000D01*
X331767000Y-130263000D01*
G37*
X331767000Y-130263000D02*
X331787000Y-130263000D01*
X331787000Y-130517000D01*
X331767000Y-130517000D01*
X331767000Y-130537000D01*
X331513000Y-130537000D01*
X331513000Y-130517000D01*
X331493000Y-130517000D01*
X331493000Y-130263000D01*
X331513000Y-130263000D01*
X331513000Y-130243000D01*
X331767000Y-130243000D01*
X331767000Y-130263000D01*
M02*
